<svg viewBox="0 0 330 200" xmlns="http://www.w3.org/2000/svg"><g><g><g><g><g><line x1="51.41600036621094" y1="178.01999950408936" x2="46.41600036621094" y2="178.01999950408936" style="visibility: inherit;" fill="rgb(0, 0, 0)" stroke="rgb(204, 204, 204)" stroke-width="1px"></line><line x1="51.41600036621094" y1="161.83636318553576" x2="46.41600036621094" y2="161.83636318553576" style="visibility: inherit;" fill="rgb(0, 0, 0)" stroke="rgb(204, 204, 204)" stroke-width="1px"></line><line x1="51.41600036621094" y1="145.6527268669822" x2="46.41600036621094" y2="145.6527268669822" style="visibility: inherit;" fill="rgb(0, 0, 0)" stroke="rgb(204, 204, 204)" stroke-width="1px"></line><line x1="51.41600036621094" y1="129.46909054842862" x2="46.41600036621094" y2="129.46909054842862" style="visibility: inherit;" fill="rgb(0, 0, 0)" stroke="rgb(204, 204, 204)" stroke-width="1px"></line><line x1="51.41600036621094" y1="113.28545422987504" x2="46.41600036621094" y2="113.28545422987504" style="visibility: inherit;" fill="rgb(0, 0, 0)" stroke="rgb(204, 204, 204)" stroke-width="1px"></line><line x1="51.41600036621094" y1="97.10181791132146" x2="46.41600036621094" y2="97.10181791132146" style="visibility: inherit;" fill="rgb(0, 0, 0)" stroke="rgb(204, 204, 204)" stroke-width="1px"></line><line x1="51.41600036621094" y1="80.9181815927679" x2="46.41600036621094" y2="80.9181815927679" style="visibility: inherit;" fill="rgb(0, 0, 0)" stroke="rgb(204, 204, 204)" stroke-width="1px"></line><line x1="51.41600036621094" y1="64.73454527421433" x2="46.41600036621094" y2="64.73454527421433" style="visibility: inherit;" fill="rgb(0, 0, 0)" stroke="rgb(204, 204, 204)" stroke-width="1px"></line><line x1="51.41600036621094" y1="48.55090895566075" x2="46.41600036621094" y2="48.55090895566075" style="visibility: inherit;" fill="rgb(0, 0, 0)" stroke="rgb(204, 204, 204)" stroke-width="1px"></line><line x1="51.41600036621094" y1="32.36727263710716" x2="46.41600036621094" y2="32.36727263710716" style="visibility: inherit;" fill="rgb(0, 0, 0)" stroke="rgb(204, 204, 204)" stroke-width="1px"></line><line x1="51.41600036621094" y1="16.18363631855358" x2="46.41600036621094" y2="16.18363631855358" style="visibility: inherit;" fill="rgb(0, 0, 0)" stroke="rgb(204, 204, 204)" stroke-width="1px"></line><line x1="51.41600036621094" y1="0" x2="46.41600036621094" y2="0" style="visibility: inherit;" fill="rgb(0, 0, 0)" stroke="rgb(204, 204, 204)" stroke-width="1px"></line></g><g transform="translate(41.41600036621094, 0)"><text style="text-anchor: end; visibility: hidden; font-family: Roboto, sans-serif; font-size: 12px; font-weight: 200;" x="0" y="178.01999950408936" dx="0em" dy="0.3em" fill="rgb(50, 49, 63)" stroke="none" stroke-width="1px">-0.2</text><text style="text-anchor: end; visibility: inherit; font-family: Roboto, sans-serif; font-size: 12px; font-weight: 200;" x="0" y="161.83636318553576" dx="0em" dy="0.3em" fill="rgb(50, 49, 63)" stroke="none" stroke-width="1px">0</text><text style="text-anchor: end; visibility: hidden; font-family: Roboto, sans-serif; font-size: 12px; font-weight: 200;" x="0" y="145.6527268669822" dx="0em" dy="0.3em" fill="rgb(50, 49, 63)" stroke="none" stroke-width="1px">0.2</text><text style="text-anchor: end; visibility: inherit; font-family: Roboto, sans-serif; font-size: 12px; font-weight: 200;" x="0" y="129.46909054842862" dx="0em" dy="0.3em" fill="rgb(50, 49, 63)" stroke="none" stroke-width="1px">0.4</text><text style="text-anchor: end; visibility: hidden; font-family: Roboto, sans-serif; font-size: 12px; font-weight: 200;" x="0" y="113.28545422987504" dx="0em" dy="0.3em" fill="rgb(50, 49, 63)" stroke="none" stroke-width="1px">0.6</text><text style="text-anchor: end; visibility: inherit; font-family: Roboto, sans-serif; font-size: 12px; font-weight: 200;" x="0" y="97.10181791132146" dx="0em" dy="0.3em" fill="rgb(50, 49, 63)" stroke="none" stroke-width="1px">0.8</text><text style="text-anchor: end; visibility: hidden; font-family: Roboto, sans-serif; font-size: 12px; font-weight: 200;" x="0" y="80.9181815927679" dx="0em" dy="0.3em" fill="rgb(50, 49, 63)" stroke="none" stroke-width="1px">1</text><text style="text-anchor: end; visibility: inherit; font-family: Roboto, sans-serif; font-size: 12px; font-weight: 200;" x="0" y="64.73454527421433" dx="0em" dy="0.3em" fill="rgb(50, 49, 63)" stroke="none" stroke-width="1px">1.2</text><text style="text-anchor: end; visibility: hidden; font-family: Roboto, sans-serif; font-size: 12px; font-weight: 200;" x="0" y="48.55090895566075" dx="0em" dy="0.3em" fill="rgb(50, 49, 63)" stroke="none" stroke-width="1px">1.4</text><text style="text-anchor: end; visibility: inherit; font-family: Roboto, sans-serif; font-size: 12px; font-weight: 200;" x="0" y="32.36727263710716" dx="0em" dy="0.3em" fill="rgb(50, 49, 63)" stroke="none" stroke-width="1px">1.6</text><text style="text-anchor: end; visibility: hidden; font-family: Roboto, sans-serif; font-size: 12px; font-weight: 200;" x="0" y="16.18363631855358" dx="0em" dy="0.3em" fill="rgb(50, 49, 63)" stroke="none" stroke-width="1px">1.8</text><text style="text-anchor: end; visibility: hidden; font-family: Roboto, sans-serif; font-size: 12px; font-weight: 200;" x="0" y="0" dx="0em" dy="0.3em" fill="rgb(50, 49, 63)" stroke="none" stroke-width="1px">2</text></g><line x1="51.41600036621094" y1="0" x2="51.41600036621094" y2="178.01999950408936" fill="rgb(0, 0, 0)" stroke="rgb(204, 204, 204)" stroke-width="1px"></line></g></g><g transform="translate(51, 0)" clip-path="url(#clip_0)"><clipPath id="clip_0"><rect width="278" height="178"></rect></clipPath><g><g><g><line x1="0" y1="0" x2="0" y2="178.01999950408936" fill="rgb(0, 0, 0)" stroke="rgb(60, 60, 60)" stroke-width="1px" opacity="0.25"></line><line x1="34.82299995422363" y1="0" x2="34.82299995422363" y2="178.01999950408936" fill="rgb(0, 0, 0)" stroke="rgb(60, 60, 60)" stroke-width="1px" opacity="0.25"></line><line x1="69.64599990844727" y1="0" x2="69.64599990844727" y2="178.01999950408936" fill="rgb(0, 0, 0)" stroke="rgb(60, 60, 60)" stroke-width="1px" opacity="0.25"></line><line x1="104.4689998626709" y1="0" x2="104.4689998626709" y2="178.01999950408936" fill="rgb(0, 0, 0)" stroke="rgb(60, 60, 60)" stroke-width="1px" opacity="0.25"></line><line x1="139.29199981689453" y1="0" x2="139.29199981689453" y2="178.01999950408936" fill="rgb(0, 0, 0)" stroke="rgb(60, 60, 60)" stroke-width="1px" opacity="0.25"></line><line x1="174.11499977111816" y1="0" x2="174.11499977111816" y2="178.01999950408936" fill="rgb(0, 0, 0)" stroke="rgb(60, 60, 60)" stroke-width="1px" opacity="0.25"></line><line x1="208.9379997253418" y1="0" x2="208.9379997253418" y2="178.01999950408936" fill="rgb(0, 0, 0)" stroke="rgb(60, 60, 60)" stroke-width="1px" opacity="0.25"></line><line x1="243.76099967956543" y1="0" x2="243.76099967956543" y2="178.01999950408936" fill="rgb(0, 0, 0)" stroke="rgb(60, 60, 60)" stroke-width="1px" opacity="0.25"></line><line x1="278.58399963378906" y1="0" x2="278.58399963378906" y2="178.01999950408936" fill="rgb(0, 0, 0)" stroke="rgb(60, 60, 60)" stroke-width="1px" opacity="0.25"></line></g><g><line x1="0" y1="178.01999950408936" x2="278.58399963378906" y2="178.01999950408936" fill="rgb(0, 0, 0)" stroke="rgb(60, 60, 60)" stroke-width="1px" opacity="0.25"></line><line x1="0" y1="161.83636318553576" x2="278.58399963378906" y2="161.83636318553576" fill="rgb(0, 0, 0)" stroke="rgb(60, 60, 60)" stroke-width="1px" opacity="0.25"></line><line x1="0" y1="145.6527268669822" x2="278.58399963378906" y2="145.6527268669822" fill="rgb(0, 0, 0)" stroke="rgb(60, 60, 60)" stroke-width="1px" opacity="0.25"></line><line x1="0" y1="129.46909054842862" x2="278.58399963378906" y2="129.46909054842862" fill="rgb(0, 0, 0)" stroke="rgb(60, 60, 60)" stroke-width="1px" opacity="0.25"></line><line x1="0" y1="113.28545422987504" x2="278.58399963378906" y2="113.28545422987504" fill="rgb(0, 0, 0)" stroke="rgb(60, 60, 60)" stroke-width="1px" opacity="0.25"></line><line x1="0" y1="97.10181791132146" x2="278.58399963378906" y2="97.10181791132146" fill="rgb(0, 0, 0)" stroke="rgb(60, 60, 60)" stroke-width="1px" opacity="0.25"></line><line x1="0" y1="80.9181815927679" x2="278.58399963378906" y2="80.9181815927679" fill="rgb(0, 0, 0)" stroke="rgb(60, 60, 60)" stroke-width="1px" opacity="0.25"></line><line x1="0" y1="64.73454527421433" x2="278.58399963378906" y2="64.73454527421433" fill="rgb(0, 0, 0)" stroke="rgb(60, 60, 60)" stroke-width="1px" opacity="0.25"></line><line x1="0" y1="48.55090895566075" x2="278.58399963378906" y2="48.55090895566075" fill="rgb(0, 0, 0)" stroke="rgb(60, 60, 60)" stroke-width="1px" opacity="0.25"></line><line x1="0" y1="32.36727263710716" x2="278.58399963378906" y2="32.36727263710716" fill="rgb(0, 0, 0)" stroke="rgb(60, 60, 60)" stroke-width="1px" opacity="0.25"></line><line x1="0" y1="16.18363631855358" x2="278.58399963378906" y2="16.18363631855358" fill="rgb(0, 0, 0)" stroke="rgb(60, 60, 60)" stroke-width="1px" opacity="0.25"></line><line x1="0" y1="0" x2="278.58399963378906" y2="0" fill="rgb(0, 0, 0)" stroke="rgb(60, 60, 60)" stroke-width="1px" opacity="0.25"></line></g></g></g><g><g><line x1="0" y1="161.83636318553576" x2="278.58399963378906" y2="161.83636318553576" fill="rgb(0, 0, 0)" stroke="rgb(153, 153, 153)" stroke-width="1.5px"></line></g></g><g><g><line x1="34.82299995422363" y1="0" x2="34.82299995422363" y2="178.01999950408936" fill="rgb(0, 0, 0)" stroke="rgb(153, 153, 153)" stroke-width="1.5px"></line></g></g><g><g><g><g><g><path style="fill: none;" stroke="rgb(255, 112, 67)" stroke-width="2px" d="M37.957069950103765,-1.0452037052919263L38.096361949920656,3.2409746342902204L38.51423794937134,3.497558244561165L38.58388394927979,-9.210001587635157L38.723175949096685,-0.581741594836996L38.79282194900513,2.486213878960929L39.3499899482727,11.174267681123217L39.55892794799804,12.915878914912746L39.76786594772339,14.284003989349078L39.83751194763183,9.871169046537078L39.90715794754028,17.132182338990386L39.97680394744873,16.320408954409054L40.32503394699096,20.97547759176332L40.88220194625854,18.642356273004836L40.95184794616699,11.2904833648675L41.36972394561767,14.167851764994863L41.926891944885256,14.976478537842352L42.13582994461059,7.621851881449249L42.205475944519044,8.922219637063511L42.692997943878176,12.867111304645737L42.90193594360351,14.664218187599696L43.04122794342041,18.014644483658248L43.598395942687986,21.834569607407087L43.80733394241333,12.910734740988682L43.876979942321775,14.338946449540389L44.503793941497804,15.441072131904411L44.643085941314695,15.455905587722496L44.71273194122315,19.297487445597096L44.78237794113159,25.31185535293001L45.269899940490724,20.31124739804332L45.61812994003296,23.697025163634986L45.757421939849856,22.24347062614516L45.8270679397583,22.300880359924154L46.10565193939209,23.581136651740884L46.45388193893433,24.76991100232313L46.523527938842776,20.242874180267993L46.73246593856812,22.1731952483911L47.150341938018805,24.807680759745967L47.21998793792725,23.10135646682355L47.35927993774414,19.530811031880255L47.568217937469484,14.808627156966919L47.70750993728638,25.701722876033063L47.77715593719483,29.981523441037556L47.91644793701172,30.890728296967726L48.05573993682861,25.485588254391324L48.125385936737054,26.003997061995747L48.612907936096185,27.221082803580686L49.17007593536377,29.678243084420604L49.239721935272215,25.91165519019172L49.30936793518066,25.831724121564363L49.58795193481445,20.620054867650115L50.28441193389892,23.640761106410398L50.35405793380737,19.7395945956272L50.493349933624266,26.562386258205205L50.771933933258055,26.083180328053366L50.9808719329834,29.753592515273194L51.05051793289184,33.997399955938604L51.120163932800295,18.37590214953813L51.32910193252563,9.334446861256156L52.164853931427004,6.431838636087751L52.58272993087768,5.490499214123144L52.791667930603026,11.041678932981217L52.930959930419924,14.726062719169882L53.00060593032837,7.648105655509263L53.13989793014527,18.832228530869056L53.418481929779055,9.470479535281566L53.697065929412844,14.482059713007272L53.836357929229735,24.194914134018426L54.184587928771975,23.180743793519834L55.15963192749024,29.610829871098503L55.50786192703247,29.753474364549113L55.57750792694092,32.358108036454055L55.85609192657471,32.46279967575166L55.92573792648316,35.40789118546828L56.20432192611695,34.10562205076579L56.27396792602539,36.272536389225834L56.41325992584229,37.6261558022628L56.622197925567626,35.959030530839954L56.97042792510986,41.59361163945381L57.040073925018305,43.45472899154329L57.10971992492676,42.89727842598406L57.45794992446899,39.43183325945448L57.52759592437744,39.53597171403455L57.59724192428589,33.11529849831588L57.806179924011225,34.774038116542755L58.432993923187254,41.3762160490849L58.572285923004145,40.05485527055153L58.99016192245483,37.57811343001656L59.40803792190552,35.384739566825324L59.47768392181396,40.44513055839333L59.89555992126465,44.94233214294302L60.10449792098999,42.85705287938245L60.38308192062378,39.33353795404728L60.66166592025757,39.94445318987388L60.80095792007446,43.19990386693948L61.079541919708255,42.77896304517977L61.1491879196167,43.510924342196816L61.218833919525146,43.18492603573691L61.358125919342044,43.471262726312844L61.70635591888428,44.02906317893845L62.05458591842651,40.63222328670884L62.124231918334964,36.68720472631349L62.19387791824341,40.13170433878941L63.23856791687012,43.693271697436536L63.72608991622925,44.78199440019476L64.14396591567993,43.03676239123736L64.21361191558839,46.800823104558766L64.35290391540528,49.68145093958259L64.49219591522217,49.43363015627683L64.77077991485596,51.33658002175839L65.39759391403197,46.68108084044832L65.53688591384888,52.03915126471144L65.60653191375732,58.11736735396567L65.81546991348266,56.53086752732588L66.23334591293334,56.24359845522685L66.79051391220092,51.64951588012903L66.86015991210937,46.28324862721586L67.06909791183472,46.68944815503913L67.13874391174316,38.82484313683117L67.76555791091918,38.69871261055337L67.83520391082763,48.78772028567479L68.60130990982056,45.779697823437886L68.8102479095459,35.50156287724468L68.87989390945434,42.89819066280141L69.01918590927124,48.56294776437279L69.15847790908813,51.099196472877786L70.13352190780638,48.44065735015719L70.48175190734864,46.45792645226169L70.62104390716553,53.87350764819345L70.82998190689086,55.98893152300402L70.96927390670776,54.65748572727343L71.31750390625,50.54454699133221L71.38714990615844,47.376083858808364L71.80502590560913,51.583889748911496L71.94431790542602,55.835509128219385L72.01396390533448,54.154924789857326L72.15325590515137,55.3286794337209L72.22290190505981,59.56356836169092L72.43183990478516,55.16559339795543L72.57113190460205,53.42124257017249L72.91936190414428,47.03909950677645L72.98900790405274,47.4540833248878L73.61582190322875,42.30347485415234L73.75511390304565,46.882628916859005L74.03369790267944,46.88653401821629L74.1033439025879,49.74471144463599L74.17298990249634,50.40688190847453L74.45157390213012,52.51497229499908L74.73015790176392,43.931979586389744L74.79980390167236,44.87181777623809L75.0087419013977,48.93287680452005L75.1480339012146,50.300929453858295L75.21767990112305,53.857206987823076L75.2873259010315,53.818325394761324L75.35697190093995,45.70198215097901L75.42661790084838,38.87647110541646L75.49626390075684,48.640610897853655L75.63555590057373,53.72911202309441L75.70520190048218,55.802058565525336L76.05343190002442,60.92589811845588L76.12307789993287,58.69547152594131L76.40166189956665,58.72348389581342L76.610599899292,59.17654259401151L76.74989189910889,57.079375532358604L77.16776789855957,53.39065759538762L77.30705989837647,60.45269083860373L77.6552898979187,50.228838653866475L77.93387389755249,53.862715972706525L78.00351989746095,59.2484318283028L78.14281189727784,54.19861498609111L78.9785638961792,56.34266818133683L79.46608589553833,53.091613003934135L79.53573189544677,56.00239406938737L79.67502389526366,55.419031712740704L79.74466989517212,58.268754948946054L79.81431589508055,56.65293833495951L79.88396189498901,56.63216360769779L80.0232538948059,57.50509636263263L80.23219189453124,56.019599078268286L80.51077589416504,56.297543490453194L80.58042189407348,59.12343921459692L80.85900589370728,57.04253220757752L81.06794389343261,59.16460142157203L81.3465278930664,57.57172573629399L81.55546589279174,61.274512490050796L81.62511189270019,64.46384491815205L81.69475789260865,56.23615234579261L81.76440389251708,55.63999449587016L81.83404989242554,54.923071478933295L81.97334189224243,61.5355033354895L82.04298789215088,57.81193999759955L82.11263389205934,58.860812492783516L82.32157189178466,54.52546504607198L82.39121789169312,47.49672071748596L82.46086389160156,57.08369412194117L82.60015589141845,62.42648190618679L82.73944789123534,61.26804054496192L82.8090938911438,49.883250987546106L83.29661589050292,60.17680735421136L83.50555389022827,58.28084370404547L83.78413788986207,59.484945900641705L83.9930758895874,62.70033228770606L84.13236788940429,64.50757057119772L84.27165988922118,67.67004433904533L84.55024388885498,61.659100116233724L84.82882788848877,61.270320341715944L85.03776588821411,66.28051786257416L85.10741188812256,58.37790433368771L85.17705788803102,58.514619660955965L85.24670388793945,59.90983993765352L85.66457988739013,62.89834456073191L86.08245588684082,68.81482310865997L86.22174788665771,68.41172877988117L86.29139388656617,71.47664319775939L86.56997788619996,66.01941532860992L86.77891588592529,66.09601377948998L86.84856188583375,65.35111572529159L87.05749988555908,62.512050744103185L87.12714588546753,66.19834824319675L87.19679188537597,61.735369933892336L87.33608388519288,66.90576127325433L87.47537588500977,58.78132917690662L87.89325188446045,59.03700468350542L88.10218988418579,62.261385457255564L88.17183588409424,65.67232222590779L88.38077388381957,64.99528387503487L88.45041988372803,67.76267574949698L88.52006588363646,67.25731542046017L88.65935788345337,65.87928886937188L88.72900388336181,64.0325070137426L89.1468798828125,69.04307204787045L89.4254638824463,65.5047313230448L89.49510988235473,67.25814453546316L89.63440188217163,64.58375391671046L89.77369388198852,64.58921677067107L89.91298588180541,67.24128669309675L89.98263188171387,65.76741806571646L90.0522778816223,62.874530619807096L90.12192388153076,65.44045883362037L90.19156988143921,65.47238046183055L90.40050788116456,64.54852103043946L90.53979988098145,62.24234760677894L90.67909188079834,62.4827586340936L90.88802988052367,66.25752585291214L91.02732188034057,67.26200611382015L91.09696788024903,65.83373338542604L91.16661388015747,69.51137455869663L91.58448987960816,74.25305365504917L91.6541358795166,75.03193790354781L91.7934278793335,74.67850811120839L92.00236587905883,64.83725947435971L92.28094987869262,63.131670463679185L92.48988787841797,67.5683434675092L92.69882587814331,73.3057947174264L92.76847187805177,72.53104761153345L92.90776387786866,66.46205100864536L93.04705587768555,64.616644101126L93.18634787750244,63.732435510011946L93.53457787704468,60.694847817071256L93.74351587677002,64.61573465334436L93.88280787658692,64.58087881935792L94.92749787521362,62.28724367924838L95.20608187484741,61.74675525257949L95.3453738746643,68.00455375984711L95.41501987457276,63.53880772219105L95.69360387420654,62.19209437898526L95.83289587402344,64.60476242583115L95.90254187393188,62.327371637575865L96.11147987365722,62.23302000355911L96.25077187347411,57.70617136912496L96.39006387329101,64.63600646822742L96.59900187301636,58.579713385364144L96.73829387283325,59.42447477923777L96.8079398727417,67.83546561131433L96.94723187255859,70.9041610367473L97.22581587219237,66.12395724642232L97.50439987182617,65.76429428010601L97.9919218711853,63.976791146882874L98.06156787109374,62.8061604143781L98.1312138710022,66.18078268293516L98.20085987091063,67.9151900220747L98.34015187072754,70.22620795804276L98.54908987045289,65.67704949465248L98.61873587036132,70.05529436945304L98.68838187026978,69.50352935782794L98.89731986999512,72.04956493892067L98.96696586990356,74.75592093013621L99.036611869812,67.6169537767201L99.10625786972047,66.47615075994877L99.66342586898804,70.33963181648433L99.73307186889647,73.58386358601761L99.94200986862182,68.25987730008087L100.42953186798096,72.43625031707434L100.6384698677063,75.01947136908073L101.19563786697388,74.2991672214137L101.26528386688233,69.59457132663886L101.40457586669922,72.61538464528216L101.47422186660768,69.1928843305272L101.54386786651611,65.59029719551401L101.75280586624146,65.25078070585602L101.8224518661499,68.79008924500198L101.9617438659668,69.21493629198324L102.10103586578369,67.10220814137004L102.44926586532593,68.21756052003605L102.51891186523437,62.1955857324415L102.79749586486817,64.15927360711602L102.86714186477661,69.12159371386385L102.93678786468506,66.14358075038031L103.00643386459352,66.78606399623332L103.21537186431884,67.48992481050071L103.2850178642273,70.80090746737667L103.35466386413574,73.15171438257711L103.5636018638611,67.83458055274883L103.63324786376953,64.97923557442623L104.1904158630371,59.88108477608212L104.4689998626709,64.22277355731313L104.60829186248779,65.10768434813441L104.7475838623047,67.64198814468106L104.81722986221313,63.77568535120895L105.02616786193848,67.42900368999233L105.23510586166381,67.24660983368241L105.30475186157227,66.05418704800917L105.3743978614807,67.82364438363302L105.44404386138916,69.88242707697675L105.6529818611145,70.50648266034507L106.21014986038207,75.06970844717465L106.34944186019897,72.89066764148653L106.48873386001587,67.44103800366285L106.62802585983276,67.90125242686165L106.6976718597412,70.15377148907977L106.90660985946654,72.39317309550844L107.04590185928345,71.72533849628437L107.18519385910034,73.10752153584453L107.53342385864258,77.77532015266456L108.02094585800171,69.83611048911118L108.09059185791016,68.07716344423027L108.29952985763549,63.35774442735857L108.43882185745238,70.21443812905662L108.85669785690307,65.98658356341156L108.92634385681153,68.79393834757234L109.06563585662842,63.846589447221035L109.20492785644532,65.47401898818468L109.4835118560791,66.12430785878463L109.7620958557129,68.24637131416591L109.90138785552979,73.13929537917565L110.24961785507202,71.93683047317248L110.31926385498048,74.50698958781994L110.38890985488891,70.07256642883763L110.87643185424805,71.0955412487588L110.9460778541565,55.968072222478675L111.36395385360717,59.51718420318561L111.64253785324097,68.94693140451501L111.71218385314943,64.34336743917945L111.78182985305786,63.35808591397538L112.4086438522339,68.96423712034694L112.54793585205078,75.18283810391677L112.75687385177612,74.39085549733147L113.1747498512268,66.2635755404761L113.24439585113525,73.11819318079867L113.52297985076903,69.53219734465999L113.73191785049438,76.33936434421413L113.80156385040283,74.7465407803778L113.87120985031127,74.84601733470159L114.08014785003661,72.00808928484415L114.84625384902954,68.79244190566972L115.05519184875487,69.1056596847939L115.26412984848022,72.72295683897474L115.33377584838867,74.9910781360965L115.40342184829711,71.59978187470341L115.61235984802245,74.71920743693069L115.68200584793091,75.64045751908266L115.75165184783936,74.51977725940499L116.79634184646606,78.70459682515352L117.0052798461914,74.44608325184853L117.14457184600829,71.1078426592498L117.21421784591675,77.30089155303344L117.35350984573364,76.19235969677487L117.42315584564209,74.94606867235869L117.63209384536744,76.97129844226134L117.84103184509277,74.96803218830162L117.91067784500123,77.26593720296091L118.04996984481812,71.17580586302799L118.18926184463501,73.42822585797758L118.3285538444519,75.58935278456478L118.46784584426881,72.2676565386202L118.67678384399414,74.4957305603908L118.81607584381103,74.34330217767643L118.95536784362793,77.75308160457215L119.09465984344482,77.98575131682794L119.23395184326172,76.12453856016798L119.37324384307861,79.80567977793356L120.06970384216308,76.69454367069919L120.34828784179687,76.45949340608314L120.62687184143066,77.31062110998725L120.69651784133912,82.43092296102837L120.76616384124756,77.58108988154657L120.90545584106445,76.55186699779989L121.1143938407898,80.73092498257385L121.32333184051514,80.99402110947989L121.46262384033203,79.5456940587011L121.67156184005738,76.4573968382426L122.08943783950805,79.63932921198668L122.22872983932494,77.36487042053564L122.36802183914183,72.75772955112922L122.43766783905029,72.44073586064943L122.64660583877563,73.74588183051095L122.71625183868409,65.33782026178085L122.78589783859252,65.08462846474862L122.99483583831787,64.73752448023001L123.55200383758545,65.07055275528475L123.90023383712769,66.52976201992931L124.03952583694458,70.2147198689432L124.45740183639526,71.15057897446857L124.73598583602904,75.45205695490056L124.8056318359375,73.70549298431644L124.87527783584594,76.18099082072946L124.9449238357544,71.58878290886997L125.36279983520508,69.54217211479225L125.57173783493042,77.29561555621314L126.05925983428955,81.37610960758914L126.19855183410645,75.65720090518664L126.40748983383179,73.62198092408327L126.47713583374023,74.7953133227135L126.68607383346557,74.45829497234998L126.75571983337403,76.5044701711652L127.10394983291626,76.74492155532137L127.17359583282472,78.83846925813502L127.24324183273315,81.65710461794795L127.4521798324585,78.57664690623022L127.66111783218383,73.05810933713947L127.7307638320923,69.65122704957366L127.80040983200072,74.63608799096727L127.87005583190918,69.92001764473504L127.93970183181763,76.19984443350332L128.35757783126832,81.61573957684926L128.775453830719,76.6249494831884L129.1933298301697,79.67700616666491L129.47191382980347,79.95023242581145L129.61120582962036,76.10995769043626L129.9594358291626,71.61882591806487L130.23801982879638,75.9832062999091L130.7255418281555,74.20125207753306L130.8648338279724,79.2653489046437L131.07377182769775,82.95132160939683L131.21306382751465,83.60421067194481L131.2827098274231,84.08353159584348L131.49164782714843,81.26144041328773L131.5612938270569,78.29321286361562L131.70058582687378,76.98781850760723L131.7702318267822,76.11035010580284L131.97916982650756,74.14085558057734L133.16315182495117,77.92978344324936L133.23279782485963,79.0821515236236L133.30244382476806,81.20257571665137L133.37208982467652,78.15511572517411L133.6506738243103,82.24599884162318L133.85961182403565,81.17851241321297L134.13819582366943,81.19301096883167L134.2078418235779,77.33546919477024L134.27748782348633,78.69183986304395L134.5560718231201,80.81465338932655L134.62571782302857,81.51963055422502L134.695363822937,79.42299496387272L134.83465582275392,78.63881175068796L134.9739478225708,82.01218862878754L135.1132398223877,76.50405748339664L135.2525318222046,78.906315743111L135.80969982147215,77.1392619743793L136.15792982101442,80.00300312122532L136.22757582092285,71.81748378279687L136.85438982009887,79.0782090190427L136.92403582000733,76.90485042969117L137.69014181900025,79.58731026557332L138.0383718185425,80.35134506105759L138.24730981826784,76.66191196983844L138.31695581817627,81.41117561250401L138.52589381790162,80.82517059319835L138.6651858177185,71.93239860790362L138.73483181762694,70.95465658877991L139.29199981689453,75.57323923027874L139.36164581680296,78.72028575392874L139.43129181671142,72.92720686786683L139.50093781661988,75.47212334929577L139.7098758163452,77.99994740618854L139.84916781616212,76.73390637028177L139.91881381607055,81.54376357834157L139.98845981597898,78.51317213748835L140.54562781524658,79.89935980100178L140.89385781478882,74.02728246078146L140.96350381469728,67.27194977217228L141.17244181442263,72.45451105050878L141.65996381378173,75.53172919258405L141.79925581359865,66.25148213805969L142.4957158126831,72.3712492415164L142.84394581222534,79.42303922073225L142.9135918121338,79.63484307161445L143.05288381195066,83.2924110430922L143.12252981185915,78.98317582265922L143.54040581130982,77.71858517316292L143.61005181121826,76.46387339423491L144.02792781066896,83.0331904142994L144.0975738105774,82.7967031873114L144.7243878097534,85.0546964022148L145.0029718093872,80.23432374090733L145.1422638092041,82.66101423931624L145.4208478088379,84.05830633769801L146.0476618080139,85.57198883359806L146.18695380783083,86.63850788965219L146.39589180755615,85.20648138525115L146.53518380737304,87.2616329833802L146.6048298072815,84.1307796835867L146.95305980682372,86.00986733096819L147.16199780654907,81.05573103429862L147.5102278060913,85.15418896017772L147.6495198059082,84.16192511705465L147.928103805542,76.68669322817256L148.06739580535887,80.6130627208906L148.13704180526733,78.55859981814558L148.2066878051758,80.8785168254161L148.34597980499268,80.75187364770547L148.48527180480957,76.77335204551702L148.8335018043518,80.12634866836756L149.04243980407716,84.98426149763183L149.18173180389402,78.05863612960458L149.39066980361937,83.37235177719597L149.59960780334472,82.7048256765653L149.87819180297853,84.68759638814817L150.08712980270386,85.00313955960597L150.36571380233764,82.2369048337601L150.4353598022461,76.47289541503072L150.50500580215456,77.94514821015463L150.9925278015137,80.72010406532995L151.13181980133055,86.88714383047973L151.27111180114747,86.54400134797163L151.4800498008728,83.40688680195099L151.54969580078125,82.33937462155735L151.96757180023192,79.6996347059338L152.03721780014038,83.52641705278943L152.31580179977416,84.82789775609636L152.59438579940795,85.87364186236003L152.8033237991333,91.59008719883045L152.87296979904173,88.35539748271071L152.94261579895021,91.21767304766644L153.01226179885865,87.53332517823009L153.15155379867554,83.13118108560431L153.3604917984009,85.41189078974274L153.84801379776002,84.06286275812579L153.91765979766845,84.35960643937493L154.2658897972107,84.94388109482021L154.40518179702758,84.80619581180973L154.47482779693604,81.58046910882426L154.54447379684447,81.89436269432257L155.17128779602052,76.95310298005292L155.4498717956543,85.03134270669038L155.51951779556276,83.75567044424528L155.5891637954712,85.03736413330299L155.65880979537963,87.87922695671125L155.79810179519654,87.03561439154527L156.14633179473876,82.79824887168526L156.21597779464722,83.70955076955781L156.3552697944641,86.66200903722077L156.42491579437257,87.58035101273924L156.494561794281,82.4642181796236L156.70349979400635,82.31105322440783L156.84279179382324,80.55511355235711L156.9124377937317,81.19050850914822L156.98208379364013,85.32696635782202L157.60889779281615,82.21525338627282L157.8178357925415,85.05253213311188L158.44464979171752,81.10012586058917L158.86252579116822,82.84119625115079L158.93217179107666,86.6223821672889L159.35004779052733,89.61244226138062L159.41969379043582,88.72530188870692L159.48933979034425,85.66242804761723L159.6286317901611,85.83712270430098L160.0465077896118,86.45521374387751L160.46438378906248,83.28021052404513L160.53402978897097,84.02726893439569L161.09119778823853,84.01282211923719L161.16084378814696,88.54630795573912L161.3697817878723,86.22868942468891L161.57871978759763,89.60758683890289L161.85730378723144,92.4253444747259L161.99659578704834,93.39037145796134L162.27517978668214,89.28244813470455L162.6930557861328,86.76383362435234L162.9716397857666,88.04332956371167L163.04128578567506,85.53904802251643L163.25022378540038,86.99317411951512L163.3895157852173,87.22251261430631L163.59845378494265,90.37041080192361L163.87703778457643,87.68913756635992L164.01632978439332,89.2521036427348L164.1556217842102,90.82155497990837L164.22526778411867,93.14761159844136L164.2949137840271,91.95029906365173L164.78243578338623,87.4226237231234L164.92172778320312,81.37500853496591L164.99137378311158,80.86703879768626L165.40924978256226,81.6712302871485L165.4788957824707,85.57460179082781L165.54854178237915,83.90579498046009L165.68783378219604,82.77266857637531L165.82712578201293,87.63669670242056L166.6628777809143,89.70420307720406L167.28969178009035,89.92667793384489L167.56827577972413,90.76107109668558L167.91650577926637,89.54552859020123L167.9861517791748,87.70275005969309L168.33438177871702,84.80828023462438L168.4040277786255,91.32013443454903L168.47367377853394,92.5878906562571L168.75225777816772,90.01870352475291L168.82190377807618,88.3009686959058L169.23977977752688,90.05529154059495L169.51836377716066,93.43175875086207L169.5880097770691,91.99738931979157L169.65765577697755,92.60233781689206L169.79694777679444,89.62776452539009L169.86659377670287,87.83480970595168L170.2148237762451,87.84784573185574L170.42376177597046,90.36545975997028L170.56305377578735,84.75529093555335L170.7719917755127,84.78693202900651L170.98092977523805,87.99573911352226L171.1898677749634,84.90251698412891L171.32915977478027,88.07767837621161L171.74703577423097,80.07549996851124L171.8166817741394,86.34538624782999L171.9559737739563,86.93905098312742L172.0952657737732,86.32499269170418L172.72207977294923,83.86755758213268L172.79172577285766,85.18207886486533L172.86137177276612,84.02903879735774L172.93101777267458,89.4631568646751L173.9060617713928,91.63060532780166L174.1846457710266,92.63782224096023L174.4632297706604,91.07034928244185L174.53287577056884,86.54044928782176L174.7418137702942,84.5404623734318L174.81145977020262,87.32897863302736L175.02039776992797,91.67525461431408L175.1596897697449,87.74396612100526L175.29898176956175,89.61334581198093L175.647211769104,83.76392802966231L175.85614976882934,79.25512793260613L175.99544176864626,86.83530427598195L176.0650877685547,85.35173834718069L176.20437976837158,90.07593544457207L176.41331776809693,89.2788623724949L176.62225576782228,87.7606386707128L176.76154776763914,88.2289488418377L176.9704857673645,90.01266997552918L177.17942376708984,89.85127211668002L177.24906976699828,87.16956462245294L177.45800776672363,89.18950769031714L177.66694576644898,91.55671389145876L178.22411376571657,88.43430105613078L178.293759765625,89.2782763411974L178.4330517654419,92.21405478588926L178.78128176498413,94.31606547234212L179.12951176452637,93.68704325408163L179.1991577644348,87.39569390483366L179.26880376434326,87.00192911302413L179.40809576416015,90.87462108612543L179.4777417640686,89.95858736554077L179.6170337638855,89.26060666426194L179.7563257637024,91.23591414598744L179.96526376342774,89.5719317221243L180.03490976333617,88.9440489105898L180.31349376296996,90.36684657441374L180.6617237625122,92.98654162833729L180.80101576232911,92.24315901932412L181.2188917617798,94.24800288336638L181.28853776168825,95.01414860621291L181.35818376159668,92.20148459183093L181.42782976150514,88.5215621834948L181.49747576141357,91.2375360672347L181.70641376113892,89.76912013673913L181.84570576095584,90.26924035194422L182.05464376068113,87.87799403837369L182.12428976058962,88.89036923753389L182.33322776031494,87.6350149505998L182.47251976013183,89.11234504867453L182.61181175994872,86.58636164790558L182.68145775985718,88.76594103516591L182.75110375976564,87.33173539735573L183.02968775939942,92.36372768359638L183.3082717590332,90.43136129587756L183.37791775894166,87.40511258250127L183.4475637588501,89.02604937693704L183.72614775848388,85.82979050707411L183.7957937583923,84.4367093086292L183.93508575820923,88.34189598641257L184.00473175811766,88.68628084651962L184.14402375793458,84.35127680248978L184.213669757843,91.93513056894227L184.28331575775147,93.09085088928404L184.42260775756836,95.03655069856416L184.49225375747682,94.5272586382842L184.63154575729368,95.10633630684995L184.84048375701903,94.36657140096668L184.97977575683595,92.0159405961234L185.04942175674438,90.779656711676L185.46729775619505,88.23148129041907L185.53694375610354,91.64269161746664L185.60658975601197,95.06930078425916L185.88517375564575,92.37154227739944L186.02446575546264,91.79917757516557L186.16375775527953,93.44452137688378L186.44234175491334,94.54677401418553L186.92986375427247,91.50258843422483L187.1388017539978,91.12974962021929L187.2780937538147,89.41088935468622L187.41738575363158,85.26178086364295L187.48703175354004,87.9203551669578L187.76561575317385,91.46309239493185L187.9049077529907,92.28813772871496L187.97455375289917,93.53284821815828L188.04419975280763,90.35871457628788L188.25313775253295,93.12600429191161L188.3227837524414,94.68326411310308L188.53172175216673,93.17103527641625L188.60136775207522,94.69313562057116L188.8103057518005,96.39455587456708L189.01924375152586,93.87891857179635L189.29782775115967,89.1516664736538L189.71570375061037,83.01783348920144L189.7853497505188,83.81624650294229L189.99428775024415,87.87693762359052L190.0639337501526,90.49521787230358L190.20322574996948,90.70675878043843L190.3425177497864,92.25332985715134L190.41216374969483,93.27332810889772L190.55145574951175,92.07184744705488L190.62110174942018,94.78223741328529L190.76039374923704,95.104756738525L190.83003974914553,90.40037995434429L190.89968574905396,91.20158195344142L190.9693317489624,93.10080950401705L191.1086237487793,92.12688699761408L191.2479157485962,94.27985851768754L191.31756174850463,92.42739729127649L191.5961457481384,88.92212754358383L191.66579174804687,90.1288755832486L191.80508374786376,84.37106263847839L192.0140217475891,86.3776302075995L192.153313747406,93.76223188499777L192.36225174713135,90.06250504985161L193.19800374603273,88.6677565750468L193.4765877456665,94.11298490325895L193.68552574539186,92.35254616384063L194.0337557449341,92.57924281305012L194.17304774475096,92.84662273973278L194.3819857444763,90.58014035369749L194.799861743927,91.6668858117125L194.86950774383544,94.69792882919452L195.00879974365233,93.08886852083263L195.21773774337768,93.48103258682943L195.42667574310303,93.80228637593683L195.49632174301146,87.90274248348005L195.56596774291992,84.53144649844731L196.19278174209595,84.79607977889032L196.2624277420044,90.74057655990526L196.33207374191284,94.34046912830452L196.40171974182127,95.81093681243006L196.5410117416382,94.03046716299076L196.68030374145508,93.94247069434627L196.88924174118043,95.98826126962295L197.23747174072264,92.24991677329326L197.37676374053956,92.92551418683932L197.446409740448,93.93364045581356L197.51605574035642,95.32223129622979L197.5857017402649,93.56987265547278L198.14286973953247,92.13226996723932L198.7696837387085,94.26062808985215L199.11791373825073,91.84067934269541L199.6750817375183,95.37031011736194L199.74472773742676,93.42943687372451L199.9536657371521,94.2726071806391L200.2322497367859,94.45300416929665L200.44118773651124,100.00987082406272L200.71977173614502,98.63212166718526L200.92870973587034,95.02655081007698L201.1376477355957,93.80117960056349L201.20729373550412,96.98685700395835L201.2769397354126,94.35068256887494L201.41623173522947,93.90140114927662L201.97339973449706,90.57214866820526L202.11269173431398,95.34855742745572L202.25198373413085,93.12229966347503L202.39127573394777,90.46280870006946L202.73950573349,89.96313453792031L203.08773573303222,88.22641874193705L203.6449037322998,90.05267880202297L203.71454973220824,92.19221336975268L203.7841957321167,92.48229073308006L204.0627797317505,96.03542379043104L204.27171773147583,90.56381849915333L204.48065573120118,92.4240928444955L205.03782373046874,91.17345257524744L205.17711573028566,82.79039196077987L205.45569972991944,85.12065554310742L205.52534572982788,89.32933407397148L205.59499172973634,93.17041005765212L205.66463772964477,90.65561015831126L205.8039297294617,85.50875503373665L205.94322172927855,90.01725899103526L206.1521597290039,92.40174293430597L206.36109772872925,92.47575522587312L206.43074372863768,90.43305697956747L206.5700357284546,94.35249096653332L206.7093277282715,94.58243710491207L207.19684972763062,96.71095195780168L207.4754337272644,90.05669372493733L207.6147257270813,92.24426745096287L207.7540177268982,93.84893138754006L207.89330972671507,95.09168945206524L207.96295572662356,92.42356220308052L208.10224772644042,92.50104729955642L208.31118572616577,84.37187157850418L208.45047772598267,87.61941738973569L208.65941572570802,89.3240060099753L208.7987077255249,93.436070146854L209.00764572525023,89.87234492515658L209.0772917251587,91.52068274253017L209.14693772506715,92.947483959539L209.8433977241516,93.69957480669781L209.91304372406003,88.2470816120213L210.05233572387695,92.09909525407623L210.12198172378538,91.59932389877217L210.19162772369384,87.57338909494572L210.2612737236023,89.70085029615143L210.47021172332762,93.3168099994522L210.53985772323608,97.30935343560014L210.67914972305297,95.92517849902134L210.88808772277832,95.80700288547449L211.0273797225952,94.62046637900838L211.1666717224121,95.25380337921952L211.305963722229,94.50539708589302L211.93277772140505,95.38395966992879L212.00242372131348,93.648685438059L212.21136172103883,93.41668265077102L212.35065372085572,88.31144027432696L212.4899457206726,88.501923024409L212.6292377204895,92.6665937319249L212.76852972030642,94.445390362918L212.83817572021485,97.4213192823806L213.0471137199402,92.99717658084529L213.46498971939087,92.09998532247224L213.5346357192993,84.71810141876853L213.81321971893308,88.30785625488195L214.02215771865843,89.82378286980904L214.23109571838378,93.30766818072168L214.37038771820067,97.74650733357434L214.44003371810913,99.6888770674315L214.71861771774294,94.08780867631123L214.99720171737673,91.01241924895608L215.20613971710205,91.36292670624454L215.2757857170105,91.15674496596966L215.34543171691894,88.60723875111748L215.4150777168274,90.23881820646784L215.62401571655275,91.49972041619758L215.90259971618653,93.92132686728405L216.04189171600342,94.52147414818178L216.3204757156372,91.68096142558171L216.39012171554566,94.00644986095169L216.52941371536255,93.37272478170112L216.59905971527098,91.45199176352622L216.94728971481325,93.43673507345275L217.15622771453857,90.89849752545577L217.22587371444703,88.03239510545598L217.36516571426392,88.09709525022824L217.50445771408081,87.97164056915335L217.6437497138977,92.27801086499339L217.71339571380614,94.63497180660042L217.9223337135315,86.82648894746218L217.99197971343995,91.23547675345912L218.13127171325684,87.90345950050448L218.34020971298216,87.65903935803514L218.40985571289065,91.6676244417315L218.5491477127075,88.08494958978174L218.9670237121582,91.65292845901217L219.17596171188353,97.50022527974528L219.38489971160888,93.87940834366941L219.4545457115173,92.78591305679004L219.73312971115112,96.00367150153781L220.15100571060182,96.64103173798229L221.05640370941163,99.7670660839523L221.3349877090454,98.05840803758035L221.47427970886233,96.40073895465676L221.82250970840454,95.1770557140098L222.0314477081299,96.4043463052376L222.17073970794678,89.66794152991508L222.44932370758056,93.12358749798398L222.7975537071228,89.99130735918062L223.07613770675658,94.77000430201439L223.35472170639036,91.60227874220764L223.56365970611571,91.38940410843684L224.19047370529174,90.44591957626591L224.60834970474244,95.44872998539105L225.3048097038269,90.52408054363482L225.37445570373538,83.26458971531649L225.4441017036438,85.60288847701102L225.65303970336916,86.40991591735174L225.7226857032776,93.34991468667263L226.07091570281983,89.9326073631784L226.21020770263672,90.31179759127379L226.4887917022705,94.1611642561938L226.55843770217896,91.19020029605807L226.6280837020874,94.41538822218025L226.69772970199585,90.87053973288705L226.76737570190429,92.70766278235176L226.83702170181274,92.82510793131102L226.9066677017212,89.86525442094579L227.46383570098877,92.32218315437213L227.67277370071412,89.72420908759266L228.0906497001648,89.03258706434177L228.36923369979857,89.891294099872L229.06569369888308,78.43311215196812L229.1353396987915,83.96310678188533L229.20498569869994,87.4247238866048L229.69250769805907,89.74844005982715L230.04073769760132,91.31615472244611L230.24967569732667,96.22065746539558L230.38896769714356,85.67960898920322L230.45861369705202,88.63399049255459L230.52825969696045,91.20241923162844L230.5979056968689,92.43516466457113L230.8764896965027,79.2698161531701L231.43365769577025,85.37287122912163L231.5033036956787,83.6365678768495L231.71224169540406,86.76476049740381L231.85153369522095,92.4814420195599L231.9211796951294,91.92239269128454L232.06047169494627,92.45022072980541L232.40870169448854,91.3912538297701L232.89622369384765,89.26832949282213L233.03551569366456,96.0417292196009L233.24445369338991,92.80029938773352L233.38374569320678,95.38783153164363L233.73197569274902,96.87327500904458L233.94091369247437,93.60160818879336L234.14985169219972,95.21201162591228L234.77666569137574,91.92997121327589L234.84631169128417,88.96721934277093L235.05524969100952,86.7013818091033L235.26418769073487,88.74868524552956L235.40347969055176,91.71693291768969L235.4731256904602,91.34688140720502L235.8910016899109,93.22875015451359L236.09993968963624,90.28203209719113L236.16958568954468,88.99506877934502L236.30887768936157,88.87665420479705L236.51781568908692,87.994527973125L236.6571076889038,89.82018263968074L236.7963996887207,95.82774983956799L237.00533768844605,93.0568182482739L237.07498368835448,91.38449541093094L237.14462968826294,88.63552554844864L237.63215168762207,89.16806560006025L237.98038168716428,94.15472935628222L238.1196736869812,92.92801266409676L238.18931968688963,94.10913960787697L238.2589656867981,93.1224326456299L238.53754968643187,89.07764609066768L238.60719568634033,92.84056445629223L238.95542568588257,93.83440103799246L239.025071685791,95.34485975582243L239.30365568542481,94.17223635133219L239.51259368515014,93.83256902210705L239.5822396850586,91.47959164239073L239.7215316848755,94.28312083997334L240.20905368423462,93.67269956770409L240.27869968414308,94.23065298320745L240.62692968368532,91.45514323128027L241.46268168258666,90.76179224373898L241.8109116821289,90.2461672840067L241.95020368194582,89.52050480521746L242.01984968185425,89.98583850706994L242.2287876815796,93.55301894779292L242.29843368148804,89.37945013970798L242.92524768066406,86.04459363611291L243.34312368011476,85.63101192967106L243.62170767974854,87.36587060657727L243.691353679657,90.9731454651136" fill="none"></path></g></g></g></g><g opacity="0.2"><g><g><g><path style="fill: none;" stroke="rgb(255, 112, 67)" stroke-width="2px" d="M35.86768995285034,-14.913139314722795L36.076627952575684,1.480884461178989L36.21591995239258,-23.098826565118824L36.49450395202637,-3.953243834146806L37.330255950927736,13.941352294969318L37.608839950561524,-17.54801784742187L37.74813195037842,-33.499975618328165L37.88742395019531,7.522877628870945L37.957069950103765,9.206795285326734L38.096361949920656,9.661845074094702L38.51423794937134,3.8821320555654366L38.58388394927979,-28.26237898019403L38.65352994918823,-2.6728073869288704L38.723175949096685,8.436141159658986L38.79282194900513,7.087679717520304L39.3499899482727,24.205554261835804L39.55892794799804,15.528200251497777L39.76786594772339,16.336146582265318L39.83751194763183,3.2520037560470882L39.90715794754028,28.02361626404565L39.97680394744873,15.102754647274894L40.32503394699096,27.958060696053387L40.88220194625854,15.142680264685126L40.95184794616699,0.26268528951814474L41.36972394561767,18.48390171472288L41.926891944885256,16.18941825019788L42.13582994461059,-3.4100856642662385L42.205475944519044,10.872771011755221L42.692997943878176,18.784448335078228L42.90193594360351,17.35987838330755L43.04122794342041,23.040283783755548L43.598395942687986,27.564457194529485L43.80733394241333,-0.4750174205725577L43.876979942321775,16.481263999109874L44.503793941497804,17.094260649311828L44.643085941314695,15.478155771400095L44.71273194122315,25.059860224706146L44.78237794113159,34.33340720669364L45.269899940490724,12.810335469322922L45.61812994003296,28.775691810556076L45.757421939849856,20.063138820288135L45.8270679397583,22.386994960583653L46.10565193939209,25.501521089346202L46.45388193893433,26.553072528129707L46.523527938842776,13.4523189473378L46.73246593856812,25.06867685053678L47.150341938018805,28.759409026746347L47.21998793792725,20.541870027452365L47.35927993774414,14.174992879480897L47.568217937469484,7.725351344609266L47.70750993728638,42.04136645461513L47.77715593719483,36.40122428854027L47.91644793701172,32.254535580862445L48.05573993682861,17.377878190528495L48.125385936737054,26.781610273402325L48.612907936096185,29.04671141595788L49.17007593536377,33.36398350568032L49.239721935272215,20.261773348848568L49.30936793518066,25.711827518623327L49.58795193481445,12.80255098677881L50.28441193389892,28.17182046455081L50.35405793380737,13.88784482945239L50.493349933624266,36.79657375207218L50.771933933258055,25.364371432825614L50.9808719329834,35.25921079610292L51.05051793289184,40.363111116936786L51.120163932800295,-5.056344560062543L51.32910193252563,-4.227736071166787L52.164853931427004,2.077926298335126L52.58272993087768,4.078490081176153L52.791667930603026,19.368448511268287L52.930959930419924,20.252638398452948L53.00060593032837,-2.968829939981615L53.13989793014527,35.60841284390868L53.418481929779055,-4.572143958099677L53.697065929412844,21.999429979595853L53.836357929229735,38.764195765535106L54.184587928771975,21.65948828277192L55.15963192749024,39.25595898746649L55.50786192703247,29.96744110472503L55.57750792694092,36.26505854431149L55.85609192657471,32.619837134698095L55.92573792648316,39.82552845004319L56.20432192611695,32.152218348712076L56.27396792602539,39.52290789691586L56.41325992584229,39.656584921818265L56.622197925567626,33.45834262370566L56.97042792510986,50.045483302374556L57.040073925018305,46.24640501967749L57.10971992492676,42.06110257764517L57.45794992446899,34.23366550966009L57.52759592437744,39.6921793959047L57.59724192428589,23.484288674737876L57.806179924011225,37.262147543883046L58.432993923187254,51.27948294789815L58.572285923004145,38.07281410275148L58.99016192245483,33.86300066921412L59.40803792190552,32.09467877203845L59.47768392181396,48.035717045745315L59.89555992126465,51.688134519767516L60.10449792098999,39.72913398404162L60.38308192062378,34.04826556604452L60.66166592025757,40.86082604361378L60.80095792007446,48.08307988253785L61.079541919708255,42.14755181254022L61.1491879196167,44.60886628772239L61.218833919525146,42.69592857604701L61.358125919342044,43.900767762176756L61.70635591888428,44.86576385787691L62.05458591842651,35.53696344836443L62.124231918334964,30.769676885720422L62.19387791824341,45.2984537575033L63.23856791687012,49.03562273540719L63.72608991622925,46.4150784543321L64.14396591567993,40.418914377801286L64.21361191558839,52.44691417454084L64.35290391540528,54.00239269211832L64.49219591522217,49.06189898131817L64.77077991485596,54.19100481998071L65.39759391403197,39.697832068483216L65.53688591384888,60.076256901106106L65.60653191375732,67.23469148784702L65.81546991348266,54.15111778736622L66.23334591293334,55.81269484707834L66.79051391220092,44.75839201748227L66.86015991210937,38.23384774784607L67.06909791183472,47.29874744677402L67.13874391174316,27.02793560951924L67.76555791091918,38.50951682113667L67.83520391082763,63.92123179835692L68.60130990982056,41.267664130082544L68.8102479095459,20.084360457954848L68.87989390945434,53.993132341136494L69.01918590927124,57.060083416729846L69.15847790908813,54.903569535635285L70.13352190780638,44.45284866607629L70.48175190734864,43.48383010541842L70.62104390716553,64.99687944209107L70.82998190689086,59.16206733521988L70.96927390670776,52.660317033677515L71.31750390625,44.37513888742036L71.38714990615844,42.62338916002262L71.80502590560913,57.895598584066214L71.94431790542602,62.21293819718122L72.01396390533448,51.63404828231423L72.15325590515137,57.08931139951626L72.22290190505981,65.91590175364595L72.43183990478516,48.568630952352244L72.57113190460205,50.80471632849802L72.91936190414428,37.465884911682444L72.98900790405274,48.07655905205481L73.61582190322875,34.577562148049175L73.75511390304565,53.75136001091899L74.03369790267944,46.89239167025223L74.1033439025879,54.031977584265505L74.17298990249634,51.40013760423234L74.45157390213012,55.677107874785925L74.73015790176392,31.05749052347574L74.79980390167236,46.28157506101059L75.0087419013977,55.02446534694298L75.1480339012146,52.35300842786563L75.21767990112305,59.19162328877025L75.2873259010315,53.7600030051687L75.35697190093995,33.527467285305526L75.42661790084838,28.638204537072586L75.49626390075684,63.286820586509464L75.63555590057373,61.361863710955575L75.70520190048218,58.91147837917176L76.05343190002442,68.61165744785168L76.12307789993287,55.34983163716945L76.40166189956665,58.76550245062158L76.610599899292,59.85613064130865L76.74989189910889,53.933624939879245L77.16776789855957,47.85758068993114L77.30705989837647,71.0457407034279L77.6552898979187,34.89306037676062L77.93387389755249,59.31353195096656L78.00351989746095,67.32700561169722L78.14281189727784,46.6238897227736L78.9785638961792,59.55874797420543L79.46608589553833,48.21503023783011L79.53573189544677,60.368565667567196L79.67502389526366,54.543988177770714L79.74466989517212,62.54333980325406L79.81431589508055,54.22921341397972L79.88396189498901,56.6010015168052L80.0232538948059,58.81449549503488L80.23219189453124,53.791353151721815L80.51077589416504,56.71446010873059L80.58042189407348,63.36228280081251L80.85900589370728,53.92117169704846L81.06794389343261,62.3477052425638L81.3465278930664,55.18241220837697L81.55546589279174,66.82869262068597L81.62511189270019,69.24784356030398L81.69475789260865,43.89461348725341L81.76440389251708,54.74575772098647L81.83404989242554,53.84768695352798L81.97334189224243,71.45415112032379L82.04298789215088,52.22659499076462L82.11263389205934,60.43412123555946L82.32157189178466,48.022443876004694L82.39121789169312,36.95360422460693L82.46086389160156,71.46415422862395L82.60015589141845,70.44066358255522L82.73944789123534,59.53037850312461L82.8090938911438,32.806066651422434L83.29661589050292,75.61714190420922L83.50555389022827,55.436898228796615L83.78413788986207,61.29109919553602L83.9930758895874,67.52341186830265L84.13236788940429,67.21842799643515L84.27165988922118,72.41375499081678L84.55024388885498,52.64268378201626L84.82882788848877,60.68715067993925L85.03776588821411,73.79581414386146L85.10741188812256,46.523984040358094L85.17705788803102,58.719692651858296L85.24670388793945,62.00267035269986L85.66457988739013,67.38110149534945L86.08245588684082,77.68954093055207L86.22174788665771,67.80708728671296L86.29139388656617,76.07401482457674L86.56997788619996,57.83357352488577L86.77891588592529,66.21091145581008L86.84856188583375,64.23376864399395L87.05749988555908,58.25345327232061L87.12714588546753,71.7277944918371L87.19679188537597,55.04090246993575L87.33608388519288,74.6613482822973L87.47537588500977,46.594681032385054L87.89325188446045,59.42051794340361L88.10218988418579,67.09795661788081L88.17183588409424,70.78872737888612L88.38077388381957,63.97972634872552L88.45041988372803,71.9137635611901L88.52006588363646,66.49927492690496L88.65935788345337,63.812249042739396L88.72900388336181,61.26233423029869L89.1468798828125,76.55891959906218L89.4254638824463,60.19722023580637L89.49510988235473,69.88826435409068L89.63440188217163,60.57216798858143L89.77369388198852,64.59741105161203L89.91298588180541,71.21939157673525L89.98263188171387,63.55661512464596L90.0522778816223,58.53519945094306L90.12192388153076,69.28935115434028L90.19156988143921,65.52026290414585L90.40050788116456,63.16273188335283L90.53979988098145,58.78308747128815L90.67909188079834,62.84337517506562L90.88802988052367,71.91967668113995L91.02732188034057,68.76872650518217L91.09696788024903,63.69132429283489L91.16661388015747,75.02783631860248L91.58448987960816,81.36557229957796L91.6541358795166,76.2002642762958L91.7934278793335,74.1483634226992L92.00236587905883,50.07538651908674L92.28094987869262,60.57328694765841L92.48988787841797,74.22335297325421L92.69882587814331,81.91197159230218L92.76847187805177,71.36892695269405L92.90776387786866,57.35855610431321L93.04705587768555,61.84853373984695L93.18634787750244,62.40612262334088L93.53457787704468,56.138466277660264L93.74351587677002,70.49706490775397L93.88280787658692,64.52859506837824L94.92749787521362,58.846790969084026L95.20608187484741,60.936022612576174L95.3453738746643,77.39125152074854L95.41501987457276,56.84018866570694L95.69360387420654,60.17202436417663L95.83289587402344,68.22376449609993L95.90254187393188,58.911285455192974L96.11147987365722,62.09149255253398L96.25077187347411,50.91589841747371L96.39006387329101,75.03075911688113L96.59900187301636,49.495273761069264L96.73829387283325,60.691616870048215L96.8079398727417,80.45195185942916L96.94723187255859,75.50720417489671L97.22581587219237,58.95365156093488L97.50439987182617,65.22479983063157L97.9919218711853,61.29553644704817L98.06156787109374,61.05021431562097L98.1312138710022,71.24271608577075L98.20085987091063,70.51680103078401L98.34015187072754,73.69273486199488L98.54908987045289,58.85331179956709L98.61873587036132,76.62266168165384L98.68838187026978,68.6758818403903L98.89731986999512,75.86861831055977L98.96696586990356,78.81545491695952L99.036611869812,56.90850304659587L99.10625786972047,64.76494623479178L99.66342586898804,76.13485340128763L99.73307186889647,78.45021124031751L99.94200986862182,60.27389787117578L100.42953186798096,78.70080984256458L100.6384698677063,78.89430294709031L101.19563786697388,73.21871099991309L101.26528386688233,62.53767748447662L101.40457586669922,77.1466046232471L101.47422186660768,64.05913385839479L101.54386786651611,60.18641649299423L101.75280586624146,64.74150597136901L101.8224518661499,74.09905205372091L101.9617438659668,69.85220686245515L102.10103586578369,63.93311591545028L102.44926586532593,69.89058908803507L102.51891186523437,53.162623551049684L102.79749586486817,67.10480541912779L102.86714186477661,76.56507387398553L102.93678786468506,61.67656130515505L103.00643386459352,67.74978886501283L103.21537186431884,68.54571603190183L103.2850178642273,75.76738145269061L103.35466386413574,76.67792475537775L103.5636018638611,59.8588798080064L103.63324786376953,60.69621810694232L104.1904158630371,52.23385857856599L104.4689998626709,70.73530672915965L104.60829186248779,66.43505053436633L104.7475838623047,71.44344383950103L104.81722986221313,57.97623116100077L105.02616786193848,72.90898119816741L105.23510586166381,66.9730190492175L105.30475186157227,64.26555286949933L105.3743978614807,70.47783038706878L105.44404386138916,72.9706011169924L105.6529818611145,71.44256603539755L106.21014986038207,81.91454712741901L106.34944186019897,69.62210643295434L106.48873386001587,59.26659354692737L106.62802585983276,68.59157406165981L106.6976718597412,73.53255008240696L106.90660985946654,75.75227550515149L107.04590185928345,70.72358659744825L107.18519385910034,75.18079609518479L107.53342385864258,84.77701807789464L108.02094585800171,57.927295993781115L108.09059185791016,65.43874287690886L108.29952985763549,56.27861590205102L108.43882185745238,80.49947868160365L108.85669785690307,59.64480171494395L108.92634385681153,73.00497052381353L109.06563585662842,56.425566096694055L109.20492785644532,67.91516329963017L109.4835118560791,67.0997411646846L109.7620958557129,71.42946649723783L109.90138785552979,80.47868147669027L110.24961785507202,70.13313311416772L110.31926385498048,78.36222825979111L110.38890985488891,63.420931690364164L110.87643185424805,72.63000347864059L110.9460778541565,33.27686868305846L111.36395385360717,64.84085217424604L111.64253785324097,83.09155220650908L111.71218385314943,57.43802149117612L111.78182985305786,61.88016362616928L112.4086438522339,77.37346392990426L112.54793585205078,84.51073957927156L112.75687385177612,73.2028815874535L113.1747498512268,54.07265560519302L113.24439585113525,83.40011964128254L113.52297985076903,64.15320359045197L113.73191785049438,86.55011484354533L113.80156385040283,72.35730543462333L113.87120985031127,74.99523216618726L114.08014785003661,67.75119721005798L114.84625384902954,63.96897083690807L115.05519184875487,69.57548635348014L115.26412984848022,78.14890257024595L115.33377584838867,78.39326008177922L115.40342184829711,66.51283748261378L115.61235984802245,79.39834578027155L115.68200584793091,77.02233264231062L115.75165184783936,72.83875686988847L116.79634184646606,84.9818261737763L117.0052798461914,68.05831289189108L117.14457184600829,66.10048177035166L117.21421784591675,86.5904648937089L117.35350984573364,74.52956191238701L117.42315584564209,73.07663213573444L117.63209384536744,80.00914309711531L117.84103184509277,71.96313280736202L117.91067784500123,80.71279472494987L118.04996984481812,62.04060885312858L118.18926184463501,76.80685585040197L118.3285538444519,78.83104317444563L118.46784584426881,67.28511216970334L118.67678384399414,77.83784159304663L118.81607584381103,74.11465960360489L118.95536784362793,82.86775074491571L119.09465984344482,78.33475588521166L119.23395184326172,73.33271942517803L119.37324384307861,85.3273916045819L120.06970384216308,72.02783950984761L120.34828784179687,76.10691800915907L120.62687184143066,78.58731266584343L120.69651784133912,90.11137573759007L120.76616384124756,70.30634026232386L120.90545584106445,75.00803267217987L121.1143938407898,86.99951195973479L121.32333184051514,81.38866529983892L121.46262384033203,77.3732034825329L121.67156184005738,71.8249510075549L122.08943783950805,84.41222777260279L122.22872983932494,73.95318223335909L122.36802183914183,65.84701824701959L122.43766783905029,71.96524532492975L122.64660583877563,75.7036007853032L122.71625183868409,52.725727908685705L122.78589783859252,64.70484076920029L122.99483583831787,64.2168685034521L123.55200383758545,65.57009516786687L123.90023383712769,68.71857591689616L124.03952583694458,75.74215664246404L124.45740183639526,72.55436763275664L124.73598583602904,81.90427392554854L124.8056318359375,71.08564702844025L124.87527783584594,79.894237575349L124.9449238357544,64.70047104108073L125.36279983520508,66.47225592367565L125.57173783493042,88.92578071834444L126.05925983428955,87.49685068465314L126.19855183410645,67.07883785158289L126.40748983383179,70.56915095242822L126.47713583374023,76.55531192065884L126.68607383346557,73.95276744680469L126.75571983337403,79.57373296938799L127.10394983291626,77.10559863155565L127.17359583282472,81.97879081235551L127.24324183273315,85.88505765766736L127.4521798324585,73.95596033865363L127.66111783218383,64.78030298350333L127.7307638320923,64.54090361822493L127.80040983200072,82.11337940305769L127.87005583190918,62.8459121253867L127.93970183181763,85.61958461665571L128.35757783126832,89.73958229186817L128.775453830719,69.13876434269707L129.1933298301697,84.25509119187971L129.47191382980347,80.36007181453122L129.61120582962036,70.3495455873735L129.9594358291626,64.8821282595078L130.23801982879638,82.52977687267543L130.7255418281555,71.52832074396895L130.8648338279724,86.86149414530963L131.07377182769775,88.4802806665265L131.21306382751465,84.58354426576679L131.2827098274231,84.80251298169152L131.49164782714843,77.02830363945412L131.5612938270569,73.84087153910747L131.70058582687378,75.0297269735946L131.7702318267822,74.79414750309621L131.97916982650756,71.18661379273911L133.16315182495117,83.61317523725741L133.23279782485963,80.81070364418494L133.30244382476806,84.38321200619302L133.37208982467652,73.58392573795828L133.6506738243103,88.38232351629674L133.85961182403565,79.5772827705977L134.13819582366943,81.21475880225968L134.2078418235779,71.54915653367809L134.27748782348633,80.72639586545445L134.5560718231201,83.99887367875044L134.62571782302857,82.57709630157272L134.695363822937,76.2780415783443L134.83465582275392,77.46253693091082L134.9739478225708,87.07225394593692L135.1132398223877,68.24186076531026L135.2525318222046,82.5097031326825L135.80969982147215,74.48868132128176L136.15792982101442,84.29861484149436L136.22757582092285,59.539204775154175L136.85438982009887,89.96929687341142L136.92403582000733,73.64481254566387L137.69014181900025,83.61100001939657L138.0383718185425,81.49739725428401L138.24730981826784,71.12776233300974L138.31695581817627,88.53507107650238L138.52589381790162,79.94616306423987L138.6651858177185,58.59324062996152L138.73483181762694,69.48804356009435L139.29199981689453,82.50111319252696L139.36164581680296,83.4408555394037L139.43129181671142,64.23758853877396L139.50093781661988,79.2894980714392L139.7098758163452,81.79168349152768L139.84916781616212,74.83484481642161L139.91881381607055,88.75854939043127L139.98845981597898,73.9672849762085L140.54562781524658,81.97864129627195L140.89385781478882,65.21916645045096L140.96350381469728,57.13895073925849L141.17244181442263,80.22835296801351L141.65996381378173,80.14755640569697L141.79925581359865,52.33111155627318L142.4957158126831,81.55089989670147L142.84394581222534,90.00072418955602L142.9135918121338,79.95254884793776L143.05288381195066,88.77876300030881L143.12252981185915,72.51932299200975L143.54040581130982,75.82169919891845L143.61005181121826,74.58180572584287L144.02792781066896,92.88716594439612L144.0975738105774,82.4419723468294L144.7243878097534,88.4416862245699L145.0029718093872,73.0037647489461L145.1422638092041,86.30104998692963L145.4208478088379,86.15424448527067L146.0476618080139,87.84251257744815L146.18695380783083,88.2382864737334L146.39589180755615,83.05844162864953L146.53518380737304,90.34436038057375L146.6048298072815,79.43449973389649L146.95305980682372,88.82849880204044L147.16199780654907,73.62452658929428L147.5102278060913,91.30187584899636L147.6495198059082,82.67352935237005L147.928103805542,65.47384539484939L148.06739580535887,86.50261695996764L148.13704180526733,75.47690546402801L148.2066878051758,84.35839233632191L148.34597980499268,80.56190888113954L148.48527180480957,70.80556964223435L148.8335018043518,85.15584360264334L149.04243980407716,92.27113074152825L149.18173180389402,67.67019807756373L149.39066980361937,91.34292524858304L149.59960780334472,81.7035365256193L149.87819180297853,87.66175245552245L150.08712980270386,85.47645431679268L150.36571380233764,78.08755274499127L150.4353598022461,67.82688128693664L150.50500580215456,80.15352740284047L150.9925278015137,84.8825378480929L151.13181980133055,96.1377034782044L151.27111180114747,86.02928762420949L151.4800498008728,78.70121498292004L151.54969580078125,80.7381063509669L151.96757180023192,75.74002483249843L152.03721780014038,89.2665905730729L152.31580179977416,86.78011881105674L152.59438579940795,87.44225802175552L152.8033237991333,100.16475520353613L152.87296979904173,83.5033629085311L152.94261579895021,95.51108639510001L153.01226179885865,82.00680337407557L153.15155379867554,76.5279649466656L153.3604917984009,88.83295534595045L153.84801379776002,82.03932071070034L153.91765979766845,84.80472196124865L154.2658897972107,85.82029307798813L154.40518179702758,84.59966788729403L154.47482779693604,76.74187905434607L154.54447379684447,82.36520307257007L155.17128779602052,69.5412134086484L155.4498717956543,97.1487022966466L155.51951779556276,81.84216205057764L155.5891637954712,86.95990466688956L155.65880979537963,92.14202119182366L155.79810179519654,85.77019554379628L156.14633179473876,76.44220059189526L156.21597779464722,85.07650361636665L156.3552697944641,91.09069643871521L156.42491579437257,88.95786397601694L156.494561794281,74.79001892995015L156.70349979400635,82.08130579158414L156.84279179382324,77.92120404428105L156.9124377937317,82.14360094433489L156.98208379364013,91.5316531308327L157.60889779281615,77.54768392894904L157.8178357925415,89.3084502533705L158.44464979171752,75.17151645180508L158.86252579116822,85.45280183699323L158.93217179107666,92.2941610414961L159.35004779052733,94.09753240251814L159.41969379043582,87.39459132969641L159.48933979034425,81.0681172859827L159.6286317901611,86.09916468932661L160.0465077896118,87.38235030324229L160.46438378906248,78.51770569429661L160.53402978897097,85.14785654992151L161.09119778823853,83.99115189649945L161.16084378814696,95.34653671049199L161.3697817878723,82.75226162811356L161.57871978759763,94.67593296022386L161.85730378723144,96.65198092846038L161.99659578704834,94.83791193281452L162.27517978668214,83.12056314981936L162.6930557861328,82.98591185882407L162.9716397857666,89.96257347275065L163.04128578567506,81.78262571072356L163.25022378540038,89.17436326501317L163.3895157852173,87.56652035649307L163.59845378494265,95.09225808334955L163.87703778457643,83.66722771301441L164.01632978439332,91.59655275729708L164.1556217842102,93.1757319856687L164.22526778411867,96.63669652624087L164.2949137840271,90.15433026146727L164.78243578338623,80.63111071233091L164.92172778320312,72.30358575272973L164.99137378311158,80.10508419176674L165.40924978256226,82.87751752134186L165.4788957824707,91.42965904634679L165.54854178237915,81.4025847649085L165.68783378219604,81.07297897024816L165.82712578201293,94.93273889148844L166.6628777809143,92.80546263937927L167.28969178009035,90.26039021880614L167.56827577972413,92.01266084094662L167.91650577926637,87.7222148304747L167.9861517791748,84.9385822639309L168.33438177871702,80.46657549702131L168.4040277786255,101.08791573443602L168.47367377853394,94.48952498881914L168.75225777816772,86.16492282749661L168.82190377807618,85.72436645263511L169.23977977752688,92.68677580762869L169.51836377716066,98.49645956626273L169.5880097770691,89.84583517318583L169.65765577697755,93.50976056254277L169.79694777679444,85.16590458813715L169.86659377670287,85.14537747679408L170.2148237762451,87.86739977071183L170.42376177597046,94.1418808021421L170.56305377578735,76.34003769892792L170.7719917755127,84.83439366918628L170.98092977523805,92.80894974029586L171.1898677749634,80.26268379003889L171.32915977478027,92.8404204643357L171.74703577423097,68.07223235696065L171.8166817741394,95.7502156668081L171.9559737739563,87.82954808607357L172.0952657737732,85.40390525456934L172.72207977294923,80.18140491777538L172.79172577285766,87.15386078896437L172.86137177276612,82.29947869609636L172.93101777267458,97.6143339656511L173.9060617713928,94.88177802249152L174.1846457710266,94.1486476106981L174.4632297706604,88.7191398446643L174.53287577056884,79.74559929589155L174.7418137702942,81.54048200184691L174.81145977020262,91.51175302242069L175.02039776992797,98.19466858624419L175.1596897697449,81.84703338104204L175.29898176956175,92.41741534844448L175.647211769104,74.98980135618437L175.85614976882934,72.49192778702181L175.99544176864626,98.20556879104572L176.0650877685547,83.12638945397877L176.20437976837158,97.16223109065913L176.41331776809693,88.08325276437913L176.62225576782228,85.48330311803967L176.76154776763914,88.93141409852505L176.9704857673645,92.68825167606643L177.17942376708984,89.60917532840622L177.24906976699828,83.1470033811123L177.45800776672363,92.2194222921135L177.66694576644898,95.10752319317118L178.22411376571657,83.75068180313876L178.293759765625,90.54423926879736L178.4330517654419,96.61772245292704L178.78128176498413,97.4690815020214L179.12951176452637,92.74350992669088L179.1991577644348,77.95866988096175L179.26880376434326,86.4112819253098L179.40809576416015,96.6836590457774L179.4777417640686,88.5845367846637L179.6170337638855,88.21363561234372L179.7563257637024,94.19887536857564L179.96526376342774,87.07595808632965L180.03490976333617,88.00222469328803L180.31349376296996,92.50104307014973L180.6617237625122,96.91608420922262L180.80101576232911,91.12808510580439L181.2188917617798,97.25526867942979L181.28853776168825,96.16336719048272L181.35818376159668,87.98248857025798L181.42782976150514,83.00167857099055L181.49747576141357,95.31149689284457L181.70641376113892,87.56649624099572L181.84570576095584,91.01942067475188L182.05464376068113,84.2911245680179L182.12428976058962,90.4089320362742L182.33322776031494,85.75198352019866L182.47251976013183,91.32834019578664L182.61181175994872,82.79738654675215L182.68145775985718,92.03531011605637L182.75110375976564,85.18042694064044L183.02968775939942,99.91171611295741L183.3082717590332,87.53281171429929L183.37791775894166,82.86573951243683L183.4475637588501,91.45745456859072L183.72614775848388,81.03540220227967L183.7957937583923,82.34708751096184L183.93508575820923,94.1996760030876L184.00473175811766,89.20285813668019L184.14402375793458,77.84877073644499L184.213669757843,103.31091121862102L184.28331575775147,94.82443136979668L184.42260775756836,97.95510041248434L184.49225375747682,93.76332054786423L184.63154575729368,95.97495280969859L184.84048375701903,93.25692404214176L184.97977575683595,88.48999438885849L185.04942175674438,88.9252308850049L185.46729775619505,84.40921815853369L185.53694375610354,96.75950710803804L185.60658975601197,100.2092145344479L185.88517375564575,88.32490451710987L186.02446575546264,90.94063052181474L186.16375775527953,95.91253707946112L186.44234175491334,96.20015297013818L186.92986375427247,86.93631006428375L187.1388017539978,90.57049139921098L187.2780937538147,86.83259895638662L187.41738575363158,79.03811812707804L187.48703175354004,91.90821662193011L187.76561575317385,96.77719823689291L187.9049077529907,93.52570572938961L187.97455375289917,95.39991395232325L188.04419975280763,85.59751411348233L188.25313775253295,97.27693886534719L188.3227837524414,97.01915384489027L188.53172175216673,90.90269202138603L188.60136775207522,96.97628613680351L188.8103057518005,98.94668625556098L189.01924375152586,90.1054626176402L189.29782775115967,82.06078832644L189.71570375061037,73.81708401252287L189.7853497505188,85.01386602355356L189.99428775024415,93.96797430456286L190.0639337501526,94.42263824537324L190.20322574996948,91.02407014264068L190.3425177497864,94.5731864722207L190.41216374969483,94.80332548651725L190.55145574951175,90.26962645429063L190.62110174942018,98.84782236263092L190.76039374923704,95.58853572638458L190.83003974914553,83.34381477807318L190.89968574905396,92.4033849520871L190.9693317489624,95.94965082988051L191.1086237487793,90.66600323800961L191.2479157485962,97.5093157977977L191.31756174850463,89.64870545165996L191.5961457481384,83.66422292204479L191.66579174804687,91.93899764274579L191.80508374786376,75.73434322132312L192.0140217475891,89.38748156128113L192.153313747406,104.83913440109518L192.36225174713135,84.5129147971324L193.19800374603273,86.57563386283955L193.4765877456665,102.28082739557718L193.68552574539186,89.71188805471311L194.0337557449341,92.91928778686436L194.17304774475096,93.24769262975674L194.3819857444763,87.18041677464457L194.799861743927,93.29700399873502L194.86950774383544,99.24449335541755L195.00879974365233,90.67527805828985L195.21773774337768,94.0692786858246L195.42667574310303,94.28416705959793L195.49632174301146,79.0534266447949L195.56596774291992,79.47450252089824L196.19278174209595,85.19302969955478L196.2624277420044,99.65732173142769L196.33207374191284,99.74030798090347L196.40171974182127,98.01663833861835L196.5410117416382,91.3597626888318L196.68030374145508,93.81047599137955L196.88924174118043,99.05694713253797L197.23747174072264,86.6424000287987L197.37676374053956,93.93891030715841L197.446409740448,95.44582985927487L197.51605574035642,97.40511755685414L197.5857017402649,90.94133469433731L198.14286973953247,89.97586593488916L198.7696837387085,97.45316527377136L199.11791373825073,88.21075622196031L199.6750817375183,100.66475627936177L199.74472773742676,90.51812700826837L199.9536657371521,95.53736264101097L200.2322497367859,94.72359965228299L200.44118773651124,108.34517080621177L200.71977173614502,96.56549793186905L200.92870973587034,89.61819452441458L201.1376477355957,91.96312278629327L201.20729373550412,101.76537310905061L201.2769397354126,90.39642091624977L201.41623173522947,93.2274790198792L201.97339973449706,85.57826994659821L202.11269173431398,102.51317056633141L202.25198373413085,89.78291301750403L202.39127573394777,86.47357225496107L202.73950573349,89.21362329469659L203.08773573303222,85.62134504796217L203.6449037322998,92.79206889215189L203.71454973220824,95.40151522134718L203.7841957321167,92.91740677807118L204.0627797317505,101.36512337645746L204.27171773147583,82.35641056223679L204.48065573120118,95.21450436250876L205.03782373046874,89.29749217137532L205.17711573028566,70.21580103907851L205.45569972991944,88.61605091659877L205.52534572982788,95.64235187026756L205.59499172973634,98.93202403317306L205.66463772964477,86.88341030929999L205.8039297294617,77.78847234687471L205.94322172927855,96.78001492698323L206.1521597290039,95.978468849212L206.36109772872925,92.5867736632238L206.43074372863768,87.36900961010907L206.5700357284546,100.23164194698204L206.7093277282715,94.92735631248024L207.19684972763062,99.90372423713609L207.4754337272644,80.07530637564075L207.6147257270813,95.52562804000118L207.7540177268982,96.25592729240587L207.89330972671507,96.955826548853L207.96295572662356,88.42137132960349L208.10224772644042,92.6172749442702L208.31118572616577,72.17810799692582L208.45047772598267,92.49073610658297L208.65941572570802,91.88088894033476L208.7987077255249,99.60416635217203L209.00764572525023,84.52675709261045L209.0772917251587,93.99318946859049L209.14693772506715,95.08768578505226L209.8433977241516,94.82771107743609L209.91304372406003,80.0683418200065L210.05233572387695,97.87711571715865L210.12198172378538,90.84966686581606L210.19162772369384,81.53448688920606L210.2612737236023,92.89204209795997L210.47021172332762,98.74074955440341L210.53985772323608,103.29816858982205L210.67914972305297,93.84891609415313L210.88808772277832,95.62973946515427L211.0273797225952,92.84066161930919L211.1666717224121,96.20380887953621L211.305963722229,93.38278764590325L211.93277772140505,96.70180354598244L212.00242372131348,91.04577409025435L212.21136172103883,93.06867846983909L212.35065372085572,80.65357670966081L212.4899457206726,88.78764714953202L212.6292377204895,98.91359979319878L212.76852972030642,97.11358530940767L212.83817572021485,101.88521266157443L213.0471137199402,86.36096252854233L213.46498971939087,90.75419843491267L213.5346357192993,73.64527556321295L213.81321971893308,93.69248850905211L214.02215771865843,92.09767279219969L214.23109571838378,98.5334961470906L214.37038771820067,104.40476606285333L214.44003371810913,102.60243166821728L214.71861771774294,85.68620608963079L214.99720171737673,86.39933510792333L215.20613971710205,91.88868789217727L215.2757857170105,90.84747235555734L215.34543171691894,84.7829794288392L215.4150777168274,92.6861873894934L215.62401571655275,93.39107373079221L215.90259971618653,97.5537365439137L216.04189171600342,95.42169506952845L216.3204757156372,87.42019234168161L216.39012171554566,97.4946825140066L216.52941371536255,92.42213716282532L216.59905971527098,88.5708922362639L216.94728971481325,96.4138500383425L217.15622771453857,87.0911412034603L217.22587371444703,83.73324147545631L217.36516571426392,88.19414546738663L217.50445771408081,87.78345854754104L217.6437497138977,98.7375663087534L217.71339571380614,98.17041321901104L217.9223337135315,75.11376465875479L217.99197971343995,97.8489584624545L218.13127171325684,82.90543362107253L218.34020971298216,87.29240914433119L218.40985571289065,97.68050206727602L218.5491477127075,82.71093731185711L218.9670237121582,97.00489676285781L219.17596171188353,106.27117051084497L219.38489971160888,88.4481829395556L219.4545457115173,91.14567012647095L219.73312971115112,100.83030916865948L220.15100571060182,97.59707209264903L221.05640370941163,104.45611760290731L221.3349877090454,95.49542096802239L221.47427970886233,93.91423533027137L221.82250970840454,93.34153085303936L222.0314477081299,98.2452821920793L222.17073970794678,79.5633343669313L222.44932370758056,98.30705645008732L222.7975537071228,85.29288715097562L223.07613770675658,101.93804971626508L223.35472170639036,86.85069040249749L223.56365970611571,91.07009215778064L224.19047370529174,89.03069277800952L224.60834970474244,102.9529455990788L225.3048097038269,83.13710638100046L225.37445570373538,72.37535347283898L225.4441017036438,89.1103366195528L225.65303970336916,87.62045707786281L225.7226857032776,103.75991284065397L226.07091570281983,84.80664637793706L226.21020770263672,90.88058293341689L226.4887917022705,99.93521425357382L226.55843770217896,86.73375435585443L226.6280837020874,99.25317011136354L226.69772970199585,85.55326699894724L226.76737570190429,95.46334735654884L226.83702170181274,93.00127565474992L226.9066677017212,85.42547415539788L227.46383570098877,96.00757625451169L227.67277370071412,85.82724798742345L228.0906497001648,87.99515402946544L228.36923369979857,91.1793546531674L229.06569369888308,61.2458392301123L229.1353396987915,92.25809872676109L229.20498569869994,92.61714954368401L229.69250769805907,93.23401431966064L230.04073769760132,93.66772671637463L230.24967569732667,103.57741157981971L230.38896769714356,69.86803627491472L230.45861369705202,93.06556274758165L230.52825969696045,95.05506234023916L230.5979056968689,94.28428281398521L230.8764896965027,59.521793386068545L231.43365769577025,94.52745384304893L231.5033036956787,81.03211284844133L231.71224169540406,91.45704942823525L231.85153369522095,101.05646430279407L231.9211796951294,91.08381869887143L232.06047169494627,93.24196278758673L232.40870169448854,89.80280347971711L232.89622369384765,86.08394298740022L233.03551569366456,106.20182880976898L233.24445369338991,87.93815463993243L233.38374569320678,99.2691297475088L233.73197569274902,99.101440225146L233.94091369247437,88.69410795841651L234.14985169219972,97.62761678159069L234.77666569137574,87.00691059432133L234.84631169128417,84.52309153701349L235.05524969100952,83.30262550860188L235.26418769073487,91.81964040016894L235.40347969055176,96.16930442592992L235.4731256904602,90.79180414147797L235.8910016899109,96.0515532754765L236.09993968963624,85.86195501120746L236.16958568954468,87.06462380257584L236.30887768936157,88.69903234297509L236.51781568908692,86.67133862561695L236.6571076889038,92.55866463951432L236.7963996887207,104.83910063939891L237.00533768844605,88.90042086133272L237.07498368835448,88.87601115491653L237.14462968826294,84.5120707547252L237.63215168762207,89.96687567747762L237.98038168716428,101.63472499061517L238.1196736869812,91.08793762581854L238.18931968688963,95.88083002354725L238.2589656867981,91.64237220225931L238.53754968643187,83.01046625822435L238.60719568634033,98.48494200472906L238.95542568588257,95.32515591054278L239.025071685791,97.61054783256739L239.30365568542481,92.41330124459682L239.51259368515014,93.32306802826932L239.5822396850586,87.95012557281625L239.7215316848755,98.48841463634724L240.20905368423462,92.75706765930022L240.27869968414308,95.06758310646252L240.62692968368532,87.29187860338952L241.46268168258666,89.72176576242708L241.8109116821289,89.4727298444082L241.95020368194582,88.43201108703367L242.01984968185425,90.68383905984857L242.2287876815796,98.9037896088774L242.29843368148804,83.11909692758057L242.92524768066406,81.04230888072028L243.34312368011476,85.01063937000833L243.62170767974854,89.96815862193657L243.691353679657,96.38405775291812" fill="none"></path></g></g></g></g></g></g><g transform="translate(51, 178)" clip-path="url(#clip_1)"><clipPath id="clip_1"><rect width="278" height="21"></rect></clipPath><g><g><line x1="0" y1="0" x2="0" y2="5" style="visibility: inherit;" fill="rgb(0, 0, 0)" stroke="rgb(204, 204, 204)" stroke-width="1px"></line><line x1="34.82299995422363" y1="0" x2="34.82299995422363" y2="5" style="visibility: inherit;" fill="rgb(0, 0, 0)" stroke="rgb(204, 204, 204)" stroke-width="1px"></line><line x1="69.64599990844727" y1="0" x2="69.64599990844727" y2="5" style="visibility: inherit;" fill="rgb(0, 0, 0)" stroke="rgb(204, 204, 204)" stroke-width="1px"></line><line x1="104.4689998626709" y1="0" x2="104.4689998626709" y2="5" style="visibility: inherit;" fill="rgb(0, 0, 0)" stroke="rgb(204, 204, 204)" stroke-width="1px"></line><line x1="139.29199981689453" y1="0" x2="139.29199981689453" y2="5" style="visibility: inherit;" fill="rgb(0, 0, 0)" stroke="rgb(204, 204, 204)" stroke-width="1px"></line><line x1="174.11499977111816" y1="0" x2="174.11499977111816" y2="5" style="visibility: inherit;" fill="rgb(0, 0, 0)" stroke="rgb(204, 204, 204)" stroke-width="1px"></line><line x1="208.9379997253418" y1="0" x2="208.9379997253418" y2="5" style="visibility: inherit;" fill="rgb(0, 0, 0)" stroke="rgb(204, 204, 204)" stroke-width="1px"></line><line x1="243.76099967956543" y1="0" x2="243.76099967956543" y2="5" style="visibility: inherit;" fill="rgb(0, 0, 0)" stroke="rgb(204, 204, 204)" stroke-width="1px"></line><line x1="278.58399963378906" y1="0" x2="278.58399963378906" y2="5" style="visibility: inherit;" fill="rgb(0, 0, 0)" stroke="rgb(204, 204, 204)" stroke-width="1px"></line></g><g transform="translate(0, 8)"><text style="text-anchor: middle; visibility: hidden; font-family: Roboto, sans-serif; font-size: 12px; font-weight: 200;" x="0" y="0" dx="0em" dy="0.95em" fill="rgb(50, 49, 63)" stroke="none" stroke-width="1px">-500</text><text style="text-anchor: middle; visibility: hidden; font-family: Roboto, sans-serif; font-size: 12px; font-weight: 200;" x="34.82299995422363" y="0" dx="0em" dy="0.95em" fill="rgb(50, 49, 63)" stroke="none" stroke-width="1px">0</text><text style="text-anchor: middle; visibility: hidden; font-family: Roboto, sans-serif; font-size: 12px; font-weight: 200;" x="69.64599990844727" y="0" dx="0em" dy="0.95em" fill="rgb(50, 49, 63)" stroke="none" stroke-width="1px">500</text><text style="text-anchor: middle; visibility: hidden; font-family: Roboto, sans-serif; font-size: 12px; font-weight: 200;" x="104.4689998626709" y="0" dx="0em" dy="0.95em" fill="rgb(50, 49, 63)" stroke="none" stroke-width="1px">1k</text><text style="text-anchor: middle; visibility: hidden; font-family: Roboto, sans-serif; font-size: 12px; font-weight: 200;" x="139.29199981689453" y="0" dx="0em" dy="0.95em" fill="rgb(50, 49, 63)" stroke="none" stroke-width="1px">1.5k</text><text style="text-anchor: middle; visibility: hidden; font-family: Roboto, sans-serif; font-size: 12px; font-weight: 200;" x="174.11499977111816" y="0" dx="0em" dy="0.95em" fill="rgb(50, 49, 63)" stroke="none" stroke-width="1px">2k</text><text style="text-anchor: middle; visibility: hidden; font-family: Roboto, sans-serif; font-size: 12px; font-weight: 200;" x="208.9379997253418" y="0" dx="0em" dy="0.95em" fill="rgb(50, 49, 63)" stroke="none" stroke-width="1px">2.5k</text><text style="text-anchor: middle; visibility: hidden; font-family: Roboto, sans-serif; font-size: 12px; font-weight: 200;" x="243.76099967956543" y="0" dx="0em" dy="0.95em" fill="rgb(50, 49, 63)" stroke="none" stroke-width="1px">3k</text><text style="text-anchor: middle; visibility: hidden; font-family: Roboto, sans-serif; font-size: 12px; font-weight: 200;" x="278.58399963378906" y="0" dx="0em" dy="0.95em" fill="rgb(50, 49, 63)" stroke="none" stroke-width="1px">3.5k</text></g><line x1="0" y1="0" x2="278.58399963378906" y2="0" fill="rgb(0, 0, 0)" stroke="rgb(204, 204, 204)" stroke-width="1px"></line></g></g></g></g></svg>