<svg viewBox="0 0 330 200" xmlns="http://www.w3.org/2000/svg"><g><g><g><g><g><line x1="51.53200149536133" y1="177.89999961853027" x2="46.53200149536133" y2="177.89999961853027" style="visibility: inherit;" fill="rgb(0, 0, 0)" stroke="rgb(204, 204, 204)" stroke-width="1px"></line><line x1="51.53200149536133" y1="161.72727238048205" x2="46.53200149536133" y2="161.72727238048205" style="visibility: inherit;" fill="rgb(0, 0, 0)" stroke="rgb(204, 204, 204)" stroke-width="1px"></line><line x1="51.53200149536133" y1="145.55454514243385" x2="46.53200149536133" y2="145.55454514243385" style="visibility: inherit;" fill="rgb(0, 0, 0)" stroke="rgb(204, 204, 204)" stroke-width="1px"></line><line x1="51.53200149536133" y1="129.38181790438566" x2="46.53200149536133" y2="129.38181790438566" style="visibility: inherit;" fill="rgb(0, 0, 0)" stroke="rgb(204, 204, 204)" stroke-width="1px"></line><line x1="51.53200149536133" y1="113.20909066633745" x2="46.53200149536133" y2="113.20909066633745" style="visibility: inherit;" fill="rgb(0, 0, 0)" stroke="rgb(204, 204, 204)" stroke-width="1px"></line><line x1="51.53200149536133" y1="97.03636342828923" x2="46.53200149536133" y2="97.03636342828923" style="visibility: inherit;" fill="rgb(0, 0, 0)" stroke="rgb(204, 204, 204)" stroke-width="1px"></line><line x1="51.53200149536133" y1="80.86363619024104" x2="46.53200149536133" y2="80.86363619024104" style="visibility: inherit;" fill="rgb(0, 0, 0)" stroke="rgb(204, 204, 204)" stroke-width="1px"></line><line x1="51.53200149536133" y1="64.69090895219284" x2="46.53200149536133" y2="64.69090895219284" style="visibility: inherit;" fill="rgb(0, 0, 0)" stroke="rgb(204, 204, 204)" stroke-width="1px"></line><line x1="51.53200149536133" y1="48.51818171414464" x2="46.53200149536133" y2="48.51818171414464" style="visibility: inherit;" fill="rgb(0, 0, 0)" stroke="rgb(204, 204, 204)" stroke-width="1px"></line><line x1="51.53200149536133" y1="32.34545447609642" x2="46.53200149536133" y2="32.34545447609642" style="visibility: inherit;" fill="rgb(0, 0, 0)" stroke="rgb(204, 204, 204)" stroke-width="1px"></line><line x1="51.53200149536133" y1="16.17272723804821" x2="46.53200149536133" y2="16.17272723804821" style="visibility: inherit;" fill="rgb(0, 0, 0)" stroke="rgb(204, 204, 204)" stroke-width="1px"></line><line x1="51.53200149536133" y1="0" x2="46.53200149536133" y2="0" style="visibility: inherit;" fill="rgb(0, 0, 0)" stroke="rgb(204, 204, 204)" stroke-width="1px"></line></g><g transform="translate(41.53200149536133, 0)"><text style="text-anchor: end; visibility: hidden; font-family: Roboto, sans-serif; font-size: 12px; font-weight: 200;" x="0" y="177.89999961853027" dx="0em" dy="0.3em" fill="rgb(50, 49, 63)" stroke="none" stroke-width="1px">-0.2</text><text style="text-anchor: end; visibility: inherit; font-family: Roboto, sans-serif; font-size: 12px; font-weight: 200;" x="0" y="161.72727238048205" dx="0em" dy="0.3em" fill="rgb(50, 49, 63)" stroke="none" stroke-width="1px">0</text><text style="text-anchor: end; visibility: hidden; font-family: Roboto, sans-serif; font-size: 12px; font-weight: 200;" x="0" y="145.55454514243385" dx="0em" dy="0.3em" fill="rgb(50, 49, 63)" stroke="none" stroke-width="1px">0.2</text><text style="text-anchor: end; visibility: inherit; font-family: Roboto, sans-serif; font-size: 12px; font-weight: 200;" x="0" y="129.38181790438566" dx="0em" dy="0.3em" fill="rgb(50, 49, 63)" stroke="none" stroke-width="1px">0.4</text><text style="text-anchor: end; visibility: hidden; font-family: Roboto, sans-serif; font-size: 12px; font-weight: 200;" x="0" y="113.20909066633745" dx="0em" dy="0.3em" fill="rgb(50, 49, 63)" stroke="none" stroke-width="1px">0.6</text><text style="text-anchor: end; visibility: inherit; font-family: Roboto, sans-serif; font-size: 12px; font-weight: 200;" x="0" y="97.03636342828923" dx="0em" dy="0.3em" fill="rgb(50, 49, 63)" stroke="none" stroke-width="1px">0.8</text><text style="text-anchor: end; visibility: hidden; font-family: Roboto, sans-serif; font-size: 12px; font-weight: 200;" x="0" y="80.86363619024104" dx="0em" dy="0.3em" fill="rgb(50, 49, 63)" stroke="none" stroke-width="1px">1</text><text style="text-anchor: end; visibility: inherit; font-family: Roboto, sans-serif; font-size: 12px; font-weight: 200;" x="0" y="64.69090895219284" dx="0em" dy="0.3em" fill="rgb(50, 49, 63)" stroke="none" stroke-width="1px">1.2</text><text style="text-anchor: end; visibility: hidden; font-family: Roboto, sans-serif; font-size: 12px; font-weight: 200;" x="0" y="48.51818171414464" dx="0em" dy="0.3em" fill="rgb(50, 49, 63)" stroke="none" stroke-width="1px">1.4</text><text style="text-anchor: end; visibility: inherit; font-family: Roboto, sans-serif; font-size: 12px; font-weight: 200;" x="0" y="32.34545447609642" dx="0em" dy="0.3em" fill="rgb(50, 49, 63)" stroke="none" stroke-width="1px">1.6</text><text style="text-anchor: end; visibility: hidden; font-family: Roboto, sans-serif; font-size: 12px; font-weight: 200;" x="0" y="16.17272723804821" dx="0em" dy="0.3em" fill="rgb(50, 49, 63)" stroke="none" stroke-width="1px">1.8</text><text style="text-anchor: end; visibility: hidden; font-family: Roboto, sans-serif; font-size: 12px; font-weight: 200;" x="0" y="0" dx="0em" dy="0.3em" fill="rgb(50, 49, 63)" stroke="none" stroke-width="1px">2</text></g><line x1="51.53200149536133" y1="0" x2="51.53200149536133" y2="177.89999961853027" fill="rgb(0, 0, 0)" stroke="rgb(204, 204, 204)" stroke-width="1px"></line></g></g><g transform="translate(51, 0)" clip-path="url(#clip_0)"><clipPath id="clip_0"><rect width="278" height="177"></rect></clipPath><g><g><g><line x1="0" y1="0" x2="0" y2="177.89999961853027" fill="rgb(0, 0, 0)" stroke="rgb(60, 60, 60)" stroke-width="1px" opacity="0.25"></line><line x1="34.808499813079834" y1="0" x2="34.808499813079834" y2="177.89999961853027" fill="rgb(0, 0, 0)" stroke="rgb(60, 60, 60)" stroke-width="1px" opacity="0.25"></line><line x1="69.61699962615967" y1="0" x2="69.61699962615967" y2="177.89999961853027" fill="rgb(0, 0, 0)" stroke="rgb(60, 60, 60)" stroke-width="1px" opacity="0.25"></line><line x1="104.4254994392395" y1="0" x2="104.4254994392395" y2="177.89999961853027" fill="rgb(0, 0, 0)" stroke="rgb(60, 60, 60)" stroke-width="1px" opacity="0.25"></line><line x1="139.23399925231934" y1="0" x2="139.23399925231934" y2="177.89999961853027" fill="rgb(0, 0, 0)" stroke="rgb(60, 60, 60)" stroke-width="1px" opacity="0.25"></line><line x1="174.04249906539917" y1="0" x2="174.04249906539917" y2="177.89999961853027" fill="rgb(0, 0, 0)" stroke="rgb(60, 60, 60)" stroke-width="1px" opacity="0.25"></line><line x1="208.850998878479" y1="0" x2="208.850998878479" y2="177.89999961853027" fill="rgb(0, 0, 0)" stroke="rgb(60, 60, 60)" stroke-width="1px" opacity="0.25"></line><line x1="243.65949869155884" y1="0" x2="243.65949869155884" y2="177.89999961853027" fill="rgb(0, 0, 0)" stroke="rgb(60, 60, 60)" stroke-width="1px" opacity="0.25"></line><line x1="278.4679985046387" y1="0" x2="278.4679985046387" y2="177.89999961853027" fill="rgb(0, 0, 0)" stroke="rgb(60, 60, 60)" stroke-width="1px" opacity="0.25"></line></g><g><line x1="0" y1="177.89999961853027" x2="278.4679985046387" y2="177.89999961853027" fill="rgb(0, 0, 0)" stroke="rgb(60, 60, 60)" stroke-width="1px" opacity="0.25"></line><line x1="0" y1="161.72727238048205" x2="278.4679985046387" y2="161.72727238048205" fill="rgb(0, 0, 0)" stroke="rgb(60, 60, 60)" stroke-width="1px" opacity="0.25"></line><line x1="0" y1="145.55454514243385" x2="278.4679985046387" y2="145.55454514243385" fill="rgb(0, 0, 0)" stroke="rgb(60, 60, 60)" stroke-width="1px" opacity="0.25"></line><line x1="0" y1="129.38181790438566" x2="278.4679985046387" y2="129.38181790438566" fill="rgb(0, 0, 0)" stroke="rgb(60, 60, 60)" stroke-width="1px" opacity="0.25"></line><line x1="0" y1="113.20909066633745" x2="278.4679985046387" y2="113.20909066633745" fill="rgb(0, 0, 0)" stroke="rgb(60, 60, 60)" stroke-width="1px" opacity="0.25"></line><line x1="0" y1="97.03636342828923" x2="278.4679985046387" y2="97.03636342828923" fill="rgb(0, 0, 0)" stroke="rgb(60, 60, 60)" stroke-width="1px" opacity="0.25"></line><line x1="0" y1="80.86363619024104" x2="278.4679985046387" y2="80.86363619024104" fill="rgb(0, 0, 0)" stroke="rgb(60, 60, 60)" stroke-width="1px" opacity="0.25"></line><line x1="0" y1="64.69090895219284" x2="278.4679985046387" y2="64.69090895219284" fill="rgb(0, 0, 0)" stroke="rgb(60, 60, 60)" stroke-width="1px" opacity="0.25"></line><line x1="0" y1="48.51818171414464" x2="278.4679985046387" y2="48.51818171414464" fill="rgb(0, 0, 0)" stroke="rgb(60, 60, 60)" stroke-width="1px" opacity="0.25"></line><line x1="0" y1="32.34545447609642" x2="278.4679985046387" y2="32.34545447609642" fill="rgb(0, 0, 0)" stroke="rgb(60, 60, 60)" stroke-width="1px" opacity="0.25"></line><line x1="0" y1="16.17272723804821" x2="278.4679985046387" y2="16.17272723804821" fill="rgb(0, 0, 0)" stroke="rgb(60, 60, 60)" stroke-width="1px" opacity="0.25"></line><line x1="0" y1="0" x2="278.4679985046387" y2="0" fill="rgb(0, 0, 0)" stroke="rgb(60, 60, 60)" stroke-width="1px" opacity="0.25"></line></g></g></g><g><g><line x1="0" y1="161.72727238048205" x2="278.4679985046387" y2="161.72727238048205" fill="rgb(0, 0, 0)" stroke="rgb(153, 153, 153)" stroke-width="1.5px"></line></g></g><g><g><line x1="34.808499813079834" y1="0" x2="34.808499813079834" y2="177.89999961853027" fill="rgb(0, 0, 0)" stroke="rgb(153, 153, 153)" stroke-width="1.5px"></line></g></g><g><g><g><g><g><path style="fill: none;" stroke="rgb(255, 112, 67)" stroke-width="2px" d="M37.94126479625702,-1.0444991534136523L38.08049879550934,3.238789955117666L38.4982007932663,3.4952006072718L38.56781779289246,-9.20379330126512L38.70705179214478,-0.5813494539258631L38.77666879177094,2.4845379696148906L39.33360478878021,11.166735320452075L39.54245578765869,12.907172567333811L39.751306786537164,14.274375414757333L39.82092378616333,9.864515079796158L39.89054078578949,17.120633861708153L39.960157785415646,16.30940767807908L40.30824278354645,20.96133842247015L40.86517878055572,18.62978981628343L40.93479578018188,11.282872665421005L41.352497777938844,14.158301486401706L41.90943377494812,14.96638317936788L42.118284773826595,7.61671413649885L42.18790177345276,8.916205339016308L42.67522077083588,12.858437830382538L42.88407176971435,14.654333317870298L43.02330576896667,18.002501155479116L43.580241765975956,21.81985134057516L43.78909276485443,12.902031860999251L43.858709764480594,14.329280839284372L44.485262761116026,15.430663599751284L44.624496760368345,15.44548705661978L44.69411375999451,19.284479377450253L44.76373075962067,25.294793114113578L45.251049757003784,20.297555973652145L45.599134755134585,23.681051451042872L45.738368754386904,22.228476726937153L45.80798575401306,22.285847761909817L46.086453752517706,23.56524105738382L46.4345387506485,24.753214077854715L46.50415575027466,20.22922884495856L46.71300674915314,22.15824872047458L47.130708746910095,24.790958375404607L47.20032574653626,23.08578428313632L47.33955974578858,19.517645684755042L47.54841074466706,14.798644943906176L47.68764474391938,25.68439783495685L47.757261743545534,29.961313468046693L47.896495742797846,30.869905446328477L48.035729742050165,25.46840890554034L48.10534674167633,25.986468263657297L48.59266573905945,27.202733590962307L49.149601736068725,29.658237546932423L49.21921873569488,25.894188637747437L49.288835735321044,25.81431144912859L49.56730373382568,20.60615528203483L50.26347373008728,23.624825320345902L50.33309072971344,19.72628851148465L50.47232472896576,26.54448106036204L50.7507927274704,26.065598153785857L50.95964372634887,29.733536186171122L51.029260725975035,33.97448295720035L51.0988777256012,18.363515304458183L51.307728724479674,9.328154688701227L52.14313271999359,6.42750305636404L52.56083471775055,5.486798173345746L52.76968571662903,11.034235947855787L52.908919715881346,14.716136161221568L52.97853671550751,7.642950213390616L53.11777071475983,18.81953408488084L53.39623871326447,9.464095665696187L53.674706711769105,14.472297632830541L53.813940711021424,24.17860480396966L54.162025709152225,23.165118096350156L55.13666370391846,29.590869775571374L55.48474870204926,29.733418115090192L55.554365701675415,32.33629605312578L55.83283370018005,32.440917121786555L55.90245069980622,35.38402340150029L56.180918698310855,34.08263210157798L56.25053569793702,36.24808576442093L56.38976969718934,37.600792728434705L56.598620696067805,35.9347912343534L56.946705694198606,41.565574179333446L57.01632269382476,43.425436987720616L57.085939693450925,42.868362188953085L57.434024691581726,39.40525301289959L57.50364169120788,39.509321269734095L57.573258690834045,33.09297610734227L57.78210968971252,34.75059760083645L58.40866268634796,41.34832513118473L58.54789668560028,40.027855056744414L58.965598683357236,37.55278274063508L59.38330068111419,35.360887388921796L59.452917680740356,40.41786726746001L59.87061967849731,44.91203737421515L60.079470677375795,42.828163757625056L60.35793867588043,39.30702396648258L60.63640667438507,39.91752739600321L60.77564067363739,43.17078363587197L61.05410867214203,42.750126562289886L61.12372567176819,43.481594458160316L61.19334267139435,43.15581590093968L61.33257667064667,43.44195957741498L61.68066166877747,43.99938402739669L62.02874666690826,40.60483388013655L62.098363666534425,36.66247458149322L62.16798066616059,40.10465232249146L63.21223566055298,43.66381889652652L63.6995546579361,44.7518077120805L64.11725665569305,43.00775213072636L64.18687365531922,46.7692755625283L64.32610765457153,49.64796162128259L64.46534165382386,49.400307889239144L64.7438096523285,51.301975012519165L65.37036264896392,46.649614014393755L65.50959664821625,52.00407266560037L65.57921364784241,58.07819154534361L65.78806464672088,56.49276114797113L66.20576664447785,56.20568571847335L66.76270264148712,51.61469992679759L66.83231964111327,46.252049972266754L67.04117063999176,46.65797568873743L67.11078763961791,38.79867205073833L67.73734063625335,38.672626546642086L67.80695763587951,48.75483341415879L68.57274463176728,45.74883860247931L68.78159563064575,35.47763195097625L68.85121263027192,42.869273810849L68.99044662952423,48.53021240772539L69.12968062877655,51.06475147936027L70.10431862354278,48.408004427145066L70.45240362167358,46.42661005032306L70.59163762092591,53.83719254443849L70.80048861980437,55.951190452371215L70.9397226190567,54.620642158851396L71.2878076171875,50.5104758764491L71.35742461681366,47.344148544477775L71.77512661457061,51.54911803290315L71.91436061382294,55.797871476696045L71.9839776134491,54.118419988175795L72.12321161270143,55.29138342642578L72.19282861232757,59.52341769655889L72.40167961120606,55.12840732384581L72.54091361045838,53.38523232967871L72.88899860858916,47.00739134716888L72.95861560821534,47.422095432605126L73.58516860485076,42.274958888781086L73.72440260410309,46.85102623109109L74.00287060260773,46.85492870009405L74.07248760223389,49.71117948363636L74.14210460186004,50.372903590997524L74.42057260036468,52.47957295400879L74.69904059886932,43.902365877045646L74.7686575984955,44.84157053989961L74.97750859737396,48.89989208576386L75.11674259662628,50.26702255690967L75.18635959625244,53.8209028720323L75.2559765958786,53.78204748831068L75.32559359550477,45.67117531667265L75.39521059513092,38.85026521789491L75.46482759475708,48.60782318996956L75.60406159400941,53.692894253675675L75.67367859363556,55.76444346238817L76.02176359176636,60.88482913282412L76.09138059139252,58.65590602832548L76.36984858989716,58.68389951559345L76.57869958877563,59.13665281556614L76.71793358802796,57.04089941422161L77.13563558578493,53.354667971641874L77.27486958503724,60.411940832971894L77.62295458316802,50.194980351950846L77.90142258167266,53.826408143414135L77.97103958129884,59.20849359069603L78.11027358055115,54.162080733681776L78.94567757606505,56.30468866357092L79.43299657344818,53.05582496044258L79.50261357307433,55.96464392390888L79.64184757232665,55.38167480069796L79.71146457195282,58.22947709283426L79.78108157157898,56.6147496700021L79.85069857120514,56.5939889465877L79.98993257045746,57.466333274205475L80.19878356933593,55.98183733522152L80.47725156784057,56.259594390380556L80.54686856746673,59.08358523212655L80.82533656597138,57.0040809248229L81.03418756484984,59.1247196924432L81.31265556335448,57.53291773427714L81.52150656223297,61.2332085101217L81.59112356185912,64.4203910700764L81.6607405614853,56.19824462831942L81.73035756111145,55.60248863703064L81.79997456073761,54.88604888422267L81.93920855998994,61.49402342661044L82.00882555961608,57.77297007173175L82.07844255924225,58.82113554197617L82.28729355812072,54.488710470272565L82.35691055774689,47.464704084150334L82.42652755737305,57.04521509272532L82.56576155662536,62.384401405650515L82.70499555587769,61.22674092764754L82.77461255550385,49.84962563968353L83.26193155288696,60.1362433163733L83.47078255176545,58.24155769913448L83.74925055027009,59.444848233410774L83.95810154914855,62.658067189851884L84.09733554840088,64.46408724849351L84.23656954765319,67.62442925310508L84.51503754615783,61.61753689312263L84.79350554466248,61.229019187634066L85.00235654354096,66.23583942992354L85.07197354316712,58.33855290205791L85.14159054279328,58.47517607213219L85.21120754241943,59.86945585745799L85.6289095401764,62.85594598658198L86.04661153793334,68.76843634919018L86.18584553718567,68.36561373860853L86.25546253681183,71.42846215614736L86.53393053531647,65.97491290019637L86.74278153419495,66.05145971752198L86.81239853382111,65.30706378489141L87.02124953269958,62.469912563245686L87.09086653232573,66.153725199519L87.16048353195191,61.69375529875217L87.29971753120422,66.86066137594841L87.43895153045655,58.741705804286184L87.8566535282135,58.99720896490354L88.06550452709197,62.21941624508595L88.13512152671814,65.62805376633325L88.34397252559661,64.95147179409672L88.41358952522278,67.71699822249008L88.48320652484894,67.21197854721026L88.62244052410125,65.83488089753129L88.69205752372741,63.98934392231964L89.10975952148438,68.99653143014507L89.38822751998902,65.46057583330072L89.45784451961516,67.21280710332263L89.59707851886749,64.54021924026641L89.7363125181198,64.54567841182138L89.87554651737213,67.19596062450617L89.94516351699829,65.72308550385044L90.01478051662444,62.832148098180454L90.08439751625062,65.39634666873528L90.15401451587677,65.42824677918486L90.36286551475526,64.5050101038119L90.50209951400757,62.20039122766116L90.6413335132599,62.44064019848865L90.85018451213836,66.21286291873662L90.98941851139068,67.21666607866332L91.05903551101684,65.78935612166812L91.12865251064301,69.46451826718256L91.54635450839996,74.20300108811378L91.61597150802612,74.98136030559937L91.75520550727845,74.62816875354054L91.96405650615692,64.7935539146554L92.24252450466156,63.08911460898927L92.45137550354005,67.52279693618628L92.66022650241851,73.25638067966989L92.72984350204469,72.48215581602109L92.869077501297,66.41725020796412L93.00831150054933,64.57308725403608L93.14754549980164,63.68947469106516L93.49563049793244,60.65393457803989L93.70448149681091,64.57217841929584L93.84371549606324,64.53734608096214L94.88797049045563,62.24525703654462L95.16643848896027,61.7051329428132L95.30567248821258,67.95871318748776L95.37528948783876,63.495977424042174L95.6537574863434,62.15017187460965L95.79299148559569,64.56121358795188L95.86260848522187,62.28535794538093L96.07145948410033,62.191069912000714L96.21069348335266,57.66727273987185L96.34992748260497,64.59243656933522L96.55877848148346,58.54022591810255L96.69801248073578,59.38441787443617L96.76762948036193,67.7897390180502L96.90686347961424,70.85636589443871L97.1853314781189,66.07938434829633L97.46379947662354,65.71996382392429L97.95111847400665,63.93366561246287L98.02073547363281,62.76382397980262L98.09035247325897,66.13617147986649L98.15996947288512,67.86940968810617L98.29920347213745,70.17886981097115L98.50805447101594,65.63277784851626L98.57767147064209,70.00807143197095L98.64728847026825,69.45667835461413L98.85613946914673,72.00099770169263L98.92575646877289,74.70552938996393L98.99537346839904,67.57137447811509L99.06499046802521,66.43134045489414L99.62192646503449,70.29221721255354L99.69154346466064,73.53426210734153L99.90039446353913,68.2138646189939L100.38771346092224,72.38742242260972L100.59656445980073,74.96890217458534L101.15350045681001,74.24908357020291L101.22311745643616,69.54765895377066L101.36235145568847,72.56643599978426L101.43196845531465,69.14624272720008L101.5015854549408,65.54608402744765L101.71043645381928,65.20679639937833L101.78005345344543,68.74371915815783L101.91928745269774,69.16827982384957L102.05852145195007,67.05697582297796L102.40660645008087,68.17157636388322L102.47622344970704,62.15366087461112L102.75469144821167,64.11602506475081L102.82430844783784,69.07500016618138L102.89392544746399,66.09899462442466L102.96354244709015,66.74104478457836L103.17239344596862,67.4444311396985L103.2420104455948,70.75318192632942L103.31162744522095,73.10240420743492L103.52047844409944,67.7888545560858L103.59009544372559,64.93543431134135L104.14703144073486,59.840720079192444L104.4254994392395,64.17948221084289L104.56473343849183,65.06379650018161L104.70396743774414,67.59639197088619L104.77358443737029,63.732695378369286L104.98243543624878,67.38355108495524L105.19128643512725,67.20128017686432L105.26090343475342,66.00966118064292L105.33052043437957,67.77792575883295L105.40013743400574,69.83532066603873L105.6089884328842,70.45895558544348L106.1659244298935,75.01910538882329L106.3051584291458,72.84153343297248L106.44439242839813,67.3955772865245L106.58362642765044,67.85548148796018L106.6532434272766,70.10648217005001L106.86209442615508,72.34437423857709L107.00132842540741,71.676989813916L107.14056242465972,73.05824115025725L107.48864742279054,77.72289329307777L107.97596642017363,69.78903529930143L108.04558341979981,68.03127392706786L108.25443441867827,63.315036180522576L108.3936684179306,70.16710791580218L108.81137041568756,65.9421032662646L108.88098741531373,68.74756566612159L109.02022141456604,63.8035516792829L109.15945541381836,65.42988420103963L109.437923412323,66.07973472431755L109.71639141082764,68.20036773720639L109.85562541007997,73.08999357544674L110.20371040821075,71.88833922809714L110.27332740783692,74.45676584751662L110.34294440746307,70.02533184858981L110.83026340484619,71.0476171007003L110.89988040447236,55.93034521270241L111.3175824022293,59.47706480472994L111.59605040073394,68.90045559336323L111.6656674003601,64.29999480267401L111.73528439998627,63.31537743694977L112.36183739662171,68.91774964374225L112.50107139587404,75.132158787022L112.7099223947525,74.34071004080305L113.12762439250946,66.2189085283216L113.19724139213561,73.06890560165911L113.47570939064025,69.48532701690314L113.68456038951874,76.28790543504394L113.75417738914489,74.69615556318553L113.82379438877106,74.79556506226176L114.03264538764952,71.95955000556327L114.79843238353729,68.7460702329419L115.00728338241576,69.05907687793646L115.21613438129425,72.67393568111324L115.2857513809204,74.9405280809378L115.35536838054657,71.5515178276584L115.56421937942504,74.66884064462378L115.63383637905122,75.58946972967017L115.70345337867737,74.46954489917621L116.74770837306977,78.65154355788972L116.95655937194823,74.39590056734438L117.09579337120056,71.05991021904514L117.16541037082672,77.24878449671493L117.30464437007905,76.14099988063309L117.3742613697052,74.89554895722084L117.58311236858368,76.91941355837113L117.79196336746216,74.91749766797668L117.86158036708832,77.21385370870297L118.00081436634065,71.1278276101242L118.14004836559296,73.37872929172485L118.27928236484529,75.5383994438789L118.4185163640976,72.21894229000536L118.62736736297607,74.44551440958308L118.76660136222839,74.29318877593361L118.90583536148071,77.70066973556638L119.04506936073302,77.93318260960781L119.18430335998535,76.07322446096056L119.32353735923766,79.75188429165676L120.01970735549926,76.64284534192082L120.2981753540039,76.40795352020406L120.57664335250854,77.25850749516003L120.64626035213472,82.3753578484039L120.71587735176087,77.52879394888019L120.85511135101318,76.50026484464485L121.06396234989167,80.67650580615562L121.27281334877014,80.93942458498161L121.41204734802245,79.49207382383787L121.62089834690094,76.4058583656199L122.0386003446579,79.58564585945291L122.1778343439102,77.31272023728309L122.31706834316253,72.70868495364581L122.3866853427887,72.39190494256545L122.59553634166717,73.6961711384271L122.66515334129333,65.29377728359898L122.73477034091948,65.04075615832697L122.94362133979797,64.69388614998259L123.50055733680725,65.02668993703034L123.84864233493805,66.48491557654708L123.98787633419036,70.1673894657733L124.40557833194732,71.1026177265291L124.68404633045196,75.40119616271423L124.75366333007813,73.65580951758331L124.82328032970428,76.12963866813014L124.89289732933045,71.540526276018L125.3105993270874,69.49529506323314L125.51945032596588,77.24351205634345L126.006769323349,81.32125552452344L126.14600332260132,75.606201829377L126.35485432147979,73.57235375123678L126.42447132110595,74.74489522888088L126.63332231998443,74.408104056158L126.7029393196106,76.45289996730679L127.0510243177414,76.69318926777203L127.12064131736756,78.78532575001805L127.1902583169937,81.60206112150634L127.3991093158722,78.52367988756585L127.60796031475067,73.00886225937269L127.67757731437683,69.60427648616347L127.74719431400298,74.58577722789322L127.81681131362916,69.87288589471241L127.88642831325531,76.1484795720433L128.30413031101227,81.56072396379273L128.72183230876922,76.57329806652416L129.13953430652617,79.62329741681475L129.41800230503083,79.89633949935237L129.55723630428315,76.05865341991496L129.90532130241394,71.57054903379354L130.1837893009186,75.9319874700821L130.6711082983017,74.15123442905283L130.81034229755403,79.21191764510064L131.0191932964325,82.89540570597119L131.15842729568482,83.54785466845735L131.22804429531098,84.02685249126527L131.43689529418944,81.20666362653836L131.5065122938156,78.24043690243228L131.64574629306793,76.93592248785613L131.7153632926941,76.05904557076182L131.92421429157258,74.09087864422352L133.10770328521727,77.8772524629051L133.17732028484346,79.02884375394021L133.2469372844696,81.14783860947101L133.31655428409576,78.1024328526373L133.5950222826004,82.19055838281977L133.80387328147887,81.12379152664641L134.08234127998352,81.13828030906537L134.1519582796097,77.28333883032309L134.22157527923582,78.63879519500493L134.50004327774047,80.76017777318661L134.56966027736664,81.46467972642715L134.6392772769928,79.36945743812856L134.77851127624513,78.58580282788787L134.91774527549742,81.9569057769882L135.05697927474975,76.45248755772319L135.19621327400208,78.8531265009728L135.75314927101135,77.08726386947635L136.10123426914217,79.94907462304717L136.1708512687683,71.76907298704873L136.79740426540374,79.02490390692644L136.8670212650299,76.85301033713858L137.63280826091767,79.53366197801896L137.98089325904846,80.29718175222315L138.18974425792695,76.6102356374671L138.2593612575531,81.35629789211335L138.4682122564316,80.77068788761193L138.6074462556839,71.88391035026412L138.67706325531006,70.90682740838301L139.23399925231934,75.5222967514324L139.3036162519455,78.66722191105734L139.37323325157163,72.87804802895734L139.44285025119783,75.42124903073581L139.6517012500763,77.94736912965539L139.7909352493286,76.68218150785853L139.86055224895478,81.48879648293253L139.9301692485809,78.46024790595467L140.4871052455902,79.84550116680857L140.83519024372103,73.97738208190106L140.90480724334716,67.22660303418506L141.11365824222565,72.40567084683211L141.60097723960874,75.48081469486223L141.7402112388611,66.20682327783706L142.43638123512267,72.32246516303677L142.78446623325348,79.36950166515538L142.85408323287965,79.58116274310233L142.99331723213194,83.23626521778631L143.06293423175813,78.92993477060769L143.48063622951508,77.66619655754347L143.55025322914122,76.41233055588937L143.9679552268982,82.9772193246742L144.03757222652436,82.74089150921442L144.66412522315977,84.99736265396763L144.94259322166442,80.18023931391238L145.08182722091675,82.60529402655057L145.3602952194214,84.0016442369851L145.9868482160568,85.51430638839133L146.12608221530917,86.58010652429589L146.3349332141876,85.14904532164253L146.47416721343996,87.20281158128563L146.5437842130661,84.0740687299739L146.89186921119688,85.95188972021985L147.10072021007537,81.00109291231726L147.44880520820618,85.09678814589526L147.5880392074585,84.10519316889932L147.86650720596313,76.63500019122772L148.00574120521546,80.55872299317448L148.0753582048416,78.505644964679L148.14497520446778,80.82399816015223L148.28420920372008,80.69744035019171L148.4234432029724,76.72160059351661L148.77152820110322,80.07233702530915L148.9803791999817,84.92697522821015L149.119613199234,78.00601829212259L149.3284641981125,83.31615206536625L149.537315196991,82.64907593134556L149.8157831954956,84.63051009501727L150.02463419437407,84.94584056484285L150.3031021928787,82.18147050505391L150.3727191925049,76.42134649511307L150.44233619213105,77.89260687271411L150.92965518951416,80.6656921830856L151.06888918876646,86.82857486437896L151.20812318801882,86.48566368767216L151.41697418689728,83.35066381071992L151.48659118652344,82.28387121992203L151.9042931842804,79.64591070261702L151.97391018390655,83.47011348849657L152.25237818241118,84.77071688848987L152.53084618091583,85.81575607860128L152.73969717979432,91.52834806832364L152.80931417942045,88.29583879483302L152.87893117904665,91.15618495443434L152.9485481786728,87.47432063361008L153.0877821779251,83.07514394233696L153.2966331768036,85.35431626357318L153.7839521741867,84.0061975860168L153.85356917381287,84.30274123801141L154.20165417194366,84.88662204505773L154.34088817119599,84.74902957306988L154.41050517082215,81.52547727091735L154.48012217044828,81.83915926673787L155.10667516708375,76.90123036137666L155.3851431655884,84.97402470072385L155.45476016521454,83.69921234461474L155.5243771648407,84.98004206840764L155.59399416446684,87.81998924630118L155.7332281637192,86.97694534427167L156.08131316184998,82.74243615167192L156.15093016147614,83.65312375832013L156.29016416072847,86.60359183018922L156.3597811603546,87.5213147689013L156.42939815998076,82.40863062332745L156.63824915885925,82.25556891368605L156.77748315811155,80.50081288707001L156.84710015773774,81.13577953624224L156.9167171573639,85.2694490775919L157.54327015399932,82.15983365239434L157.7521211528778,84.99519984375723L158.37867414951324,81.04545781290236L158.79637614727022,82.78535458112827L158.86599314689636,86.5639916719744L159.2836951446533,89.55203622359839L159.3533121442795,88.66549385532585L159.42292914390563,85.60468463906166L159.56216314315796,85.77926153741001L159.9798651409149,86.39693593360813L160.39756713867186,83.22407292287639L160.46718413829805,83.97062775540424L161.02412013530733,83.95619067856822L161.09373713493346,88.48662057875357L161.30258813381195,86.17056431014169L161.5114391326904,89.54718407406833L161.78990713119506,92.3630423132237L161.9291411304474,93.32741879017966L162.20760912895204,89.22226453966779L162.62531112670897,86.70534777930912L162.90377912521362,87.98398123486481L162.9733961248398,85.48138778208204L163.18224712371824,86.93453368041926L163.3214811229706,87.16371758250624L163.53033212184909,90.30949383200806L163.8088001203537,87.63002799158153L163.948034119606,89.19194050234118L164.08726811885836,90.76033390230896L164.1568851184845,93.08482257044983L164.22650211811066,91.88831712119864L164.71382111549377,87.3636938002424L164.8530551147461,81.32015519411226L164.92267211437226,80.81252786954191L165.3403741121292,81.61617726886276L165.40999111175537,85.51691758427647L165.4796081113815,83.8492356847436L165.61884211063386,82.71687309955105L165.75807610988616,87.57762247702811L166.59348010540006,89.64373518520641L167.22003310203553,89.86606007579056L167.49850110054018,90.69989079011799L167.84658609867097,89.48516765764822L167.9162030982971,87.64363130899262L168.26428809642792,84.75111259081487L168.33390509605408,91.2585772740507L168.40352209568024,92.52547892547484L168.68199009418487,89.95802363400333L168.75160709381103,88.24144669743494L169.169309091568,89.9945869865619L169.44777709007263,93.3687781846958L169.5173940896988,91.93537563469515L169.58701108932496,92.53991634755442L169.7262450885773,89.567348159162L169.79586208820342,87.77560193636299L170.14394708633424,87.78862917493068L170.35279808521273,90.30454612745766L170.49203208446502,84.69815901081947L170.7008830833435,84.72977877561516L170.909734082222,87.93642286449L171.11858508110046,84.84528581712433L171.2578190803528,88.01830689348553L171.67552107810977,80.02152260159137L171.7451380777359,86.28718247018053L171.8843720769882,86.8804470274053L172.02360607624055,86.26680266096186L172.65015907287597,83.81102406151695L172.71977607250213,85.12465925053019L172.78939307212832,83.97239642533543L172.85901007175445,89.40285145733085L173.83364806652068,91.56883888479707L174.11211606502533,92.57537685224928L174.39058406352996,91.00896049734938L174.46020106315612,86.48211402189827L174.6690520620346,84.48347526053334L174.73866906166074,87.27011183451512L174.94752006053923,91.61345807407723L175.0867540597916,87.68481958734415L175.22598805904389,89.55293916513249L175.57407305717467,83.70746436375096L175.78292405605316,79.20170356282534L175.9221580553055,86.77677025393594L175.99177505493165,85.29420436862512L176.13100905418395,90.01521697487716L176.33986005306244,89.21868119455203L176.54871105194093,87.70148089840399L176.68794505119322,88.16947539057655L176.8967960500717,89.95199415188004L177.1056470489502,89.79070508824853L177.17526404857634,87.11080528188407L177.38411504745483,89.1293867446609L177.59296604633332,91.49499725726177L178.1499020433426,88.37468918085949L178.21951904296876,89.21809555828705L178.35875304222105,92.15189505073552L178.70683804035187,94.25248881188492L179.05492303848268,93.62389060550183L179.12454003810882,87.33678213482945L179.19415703773498,86.94328277235418L179.3333910369873,90.81336423767617L179.40300803661347,89.89794799794727L179.5422420358658,89.20043779214373L179.6814760351181,91.17441375677895L179.89032703399658,89.51155299172378L179.95994403362275,88.88409342401432L180.23841203212737,90.30593200707595L180.58649703025816,92.92386117453987L180.7257310295105,92.18097966556184L181.14343302726743,94.18447210260197L181.21305002689363,94.95010138123257L181.2826670265198,92.13933333000519L181.35228402614592,88.46189148716225L181.4219010257721,91.17603458472004L181.63075202465058,89.70860848539009L181.7699860239029,90.20839157909896L181.97883702278136,87.81875715905034L182.04845402240755,88.83044993540197L182.25730502128602,87.57594185884417L182.39653902053834,89.05227611688298L182.53577301979064,86.52799543333603L182.60539001941683,88.70610560771148L182.67500701904297,87.27286674056126L182.95347501754762,92.30146705679762L183.23194301605224,90.37040324039678L183.3015600156784,87.34619446354613L183.37117701530457,88.96603861541153L183.6496450138092,85.7719342826774L183.71926201343535,84.37979213369242L183.85849601268768,88.28234639963595L183.92811301231384,88.62649911647868L184.06734701156617,84.29441721597557L184.13696401119233,91.8731588512821L184.20658101081847,93.02810012260373L184.34581501007082,94.97248837276074L184.41543200969696,94.46353961654279L184.55466600894925,95.04222693989928L184.76351700782774,94.30296069542649L184.9027510070801,91.95391440596552L184.97236800670623,90.7184638768999L185.39007000446318,88.17200613208263L185.45968700408937,91.58091702732477L185.5293040037155,95.00521638224774L185.80777200222016,92.30927638293207L185.94700600147246,91.73729750082491L186.08624000072479,93.3815322076748L186.36470799922944,94.48304183750152L186.85202699661255,91.44090828496603L187.060877995491,91.06832079449231L187.20011199474334,89.35061917987335L187.33934599399566,85.20430752371091L187.40896299362183,87.86108973280581L187.68743099212648,91.40143886919965L187.82666499137878,92.22592805566273L187.89628199100494,93.4697995095106L187.9658989906311,90.2978054905749L188.17474998950956,93.0632298289932L188.24436698913576,94.61943993104721L188.45321798801422,93.10823045897025L188.52283498764038,94.62930478432042L188.73168598651884,96.32957814338131L188.94053698539733,93.8156365837253L189.21900498390198,89.09157103603981L189.63670698165896,82.96187275138648L189.7063239812851,83.75974757014619L189.91517498016358,87.81770145637623L189.98479197978975,90.43421677232284L190.12402597904205,90.64561508476712L190.26325997829437,92.1911436474213L190.33287697792053,93.21045433780479L190.47211097717286,92.00978357115532L190.54172797679902,94.7183465152159L190.68096197605132,95.04064843633121L190.7505789756775,90.3394427827948L190.82019597530365,91.14010470690896L190.8898129749298,93.03805202442452L191.02904697418214,92.06478602060349L191.16828097343443,94.21630626364774L191.2378979730606,92.36509374600982L191.51636597156525,88.86218683378367L191.58598297119138,90.06812142761616L191.72521697044374,84.31418971470961L191.9340679693222,86.31940469491187L192.07330196857453,93.69902855319624L192.28215296745302,90.00179563332958L193.11755696296692,88.60798733186387L193.39602496147157,94.04954513553918L193.60487596035006,92.29029307429101L193.95296095848084,92.51683691161398L194.09219495773314,92.7840366025889L194.30104595661163,90.51908200909212L194.7187479543686,91.60509491272585L194.78836495399474,94.63409476193331L194.92759895324707,93.02611909042908L195.13644995212553,93.41801880611034L195.34530095100402,93.73905604416709L195.41491795063018,87.84348892170199L195.48453495025635,84.47446546297817L196.1110879468918,84.73892035917527L196.18070494651795,90.67941006831394L196.2503219461441,94.27687601780838L196.31993894577025,95.74635248772032L196.4591729450226,93.9670830189055L196.5984069442749,93.8791458670018L196.8072579431534,95.92355741387946L197.15534294128418,92.18773286425795L197.2945769405365,92.86287487047598L197.36419394016266,93.87032158076443L197.4338109397888,95.25797639858543L197.503427939415,93.50679898935823L198.06036393642427,92.07016536167161L198.6869169330597,94.1970887986769L199.0350019311905,91.77877129280499L199.59193792819977,95.30602281070146L199.66155492782593,93.36645787269133L199.8704059267044,94.20905981458726L200.14887392520905,94.38933520107622L200.35772492408753,99.94245607803924L200.63619292259216,98.56563563558497L200.84504392147062,94.96249522500761L201.0538949203491,93.73795001484991L201.12351191997527,96.92148001388065L201.19312891960146,94.28708257369335L201.33236291885376,93.83810400612899L201.88929891586304,90.5110957106426L202.02853291511536,95.28428478386853L202.16776691436766,93.05952769777599L202.30700091362002,90.40182944649344L202.6550859117508,89.90249210516467L203.0031709098816,88.16694699616797L203.56010690689087,89.99197600918714L203.62972390651703,92.13006835748088L203.6993409061432,92.41995018519148L203.97780890464784,95.970688143332L204.1866599035263,90.50277115679873L204.3955109024048,92.36179152669337L204.95244689941407,91.1119942901922L205.0916808986664,82.7345845369603L205.37014889717102,85.06327733306168L205.43976589679718,89.26911887401751L205.50938289642335,93.10760566165416L205.57899989604948,90.59450094095034L205.71823389530184,85.45111521322809L205.85746789455413,89.9565800740183L206.06631889343262,92.33945668215192L206.2751698923111,92.41341908344525L206.34478689193725,90.37209778105867L206.4840208911896,94.28888975234537L206.6232548904419,94.51868088841896L207.110573887825,96.64576095005214L207.38904188632966,89.99598822571855L207.52827588558196,92.18208735002796L207.6675098848343,93.78566961325785L207.8067438840866,95.02758995827996L207.87636088371278,92.36126124297364L208.01559488296508,92.43869410822418L208.22444588184356,84.31499810944435L208.3636798810959,87.5603548119983L208.57253087997435,89.26379440156762L208.7117648792267,93.37308667445794L208.92061587810517,89.81176369194691L208.9902328777313,91.45899039624331L209.0598498773575,92.884829833771L209.75601987361907,93.63641371083746L209.82563687324523,88.18759593780568L209.96487087249756,92.03701301094978L210.03448787212372,91.53757854198214L210.10410487174985,87.51435754400376L210.17372187137605,89.64038466419953L210.3825728702545,93.25390691804637L210.4521898698807,97.24375905683019L210.591423869133,95.86051716617007L210.80027486801148,95.74242121254987L210.93950886726378,94.55668452770708L211.0787428665161,95.1895946075286L211.2179768657684,94.44169280060702L211.84452986240387,95.31966316236532L211.91414686203004,93.58555864575122L212.12299786090853,93.3537122471162L212.26223186016082,88.25191121716485L212.40146585941315,88.44226556645891L212.54069985866545,92.60412894890077L212.6799338579178,94.38172652701921L212.74955085754394,97.3556494295693L212.95840185642243,92.93448895822925L213.37610385417938,92.03790247936766L213.44572085380554,84.66099456277844L213.72418885231016,88.24832961363899L213.93303985118865,89.76323437135444L214.14189085006714,93.24477126164145L214.28112484931944,97.68061827770138L214.35074184894563,99.62167869717575L214.62920984745026,94.02438587940574L214.9076778459549,90.95106951339403L215.11652884483337,91.3013407002922L215.18614584445956,91.09529794319509L215.2557628440857,88.54751030184515L215.32537984371186,90.17798994061047L215.53423084259035,91.438042200215L215.81269884109497,93.85801629259004L215.95193284034727,94.4577590256548L216.23040083885192,91.61916103849227L216.3000178384781,93.94308190647155L216.4392518377304,93.30978400920726L216.50886883735654,91.39034572051789L216.8569538354874,93.37375115284236L217.06580483436585,90.83722458235424L217.135421833992,87.97305414731883L217.2746558332443,88.0377106789578L217.41388983249666,87.91234056449011L217.55312383174896,92.2158080182668L217.62274083137513,94.5711801774671L217.83159183025361,86.76796086766093L217.90120882987975,91.1739766590886L218.04044282913208,87.84420545539892L218.24929382801054,87.59995007188479L218.31891082763673,91.60583304484844L218.45814482688903,88.02557320566929L218.875846824646,91.5911469684107L219.08469782352446,97.43450223790646L219.29354882240295,93.81612602545249L219.3631658220291,92.72336784288527L219.64163382053374,95.93895725805096L220.05933581829072,96.57588786211905L220.96435681343078,99.69981500797213L221.2428248119354,97.99230873539298L221.38205881118776,96.33575705557466L221.73014380931855,95.11289867645588L221.93899480819704,96.33936197450929L222.07822880744934,89.6074980811347L222.356696805954,93.06081466418024L222.70478180408477,89.93064593566363L222.9832498025894,94.70612165005194L223.26171780109405,91.54053139361402L223.47056879997254,91.32780025457281L224.09712179660795,90.38495170732605L224.51482379436493,95.38438981739357L225.2109937906265,90.46305998787795L225.2806107902527,83.2084626438369L225.35022778987886,85.54518520294415L225.55907878875735,86.35166864148307L225.62869578838348,93.28698929002867L225.97678078651427,89.87198550820888L226.11601478576662,90.25092013140537L226.39448278427122,94.09769201169134L226.4640997838974,91.12873072168372L226.53371678352357,94.35174461015217L226.6033337831497,90.80928563560013L226.67295078277587,92.6451703154642L226.74256778240203,92.76253629688907L226.8121847820282,89.80467796730971L227.36912077903747,92.25995053194795L227.57797177791596,89.66372770992507L227.9956737756729,88.9725718958859L228.27414177417754,89.83070009338515L228.97031177043917,78.38024188734337L229.0399287700653,83.90650885337685L229.10954576969147,87.36579254804366L229.59686476707458,89.68794234852342L229.94494976520537,91.25460024459579L230.15380076408385,96.15579695580995L230.29303476333618,85.62185399930269L230.36265176296234,88.57424401044369L230.4322687625885,91.14094142070273L230.50188576221467,92.37285588346629L230.7803537607193,79.21638188234003L231.33728975772857,85.3153230052935L231.40690675735473,83.58019006198748L231.61575775623322,86.70627402757316L231.75499175548555,92.41910204377291L231.8246087551117,91.8604295599847L231.963842754364,92.38790179969423L232.31192775249482,91.3296487290442L232.7992467498779,89.20815541489252L232.93848074913026,95.97698932213233L233.14733174800875,92.73774447627751L233.28656574726105,95.32353241413205L233.63465074539184,96.80797458242284L233.84350174427033,93.53851313036122L234.05235274314882,95.14783102524503L234.67890573978423,91.86800297343895L234.7485227394104,88.90724823744915L234.95737373828888,86.64293806163734L235.16622473716737,88.68886144987374L235.30545873641967,91.65510828290364L235.37507573604583,91.28530621708268L235.7927777338028,93.1659064325693L236.0016287326813,90.22117470167443L236.07124573230743,88.93507890124934L236.21047973155973,88.81674414770707L236.41933073043822,87.93521254049936L236.55856472969057,89.75963656807258L236.69779872894287,95.7631541815174L236.90664972782136,92.99409042234764L236.9762667274475,91.32289486592626L237.04588372707366,88.57577803158587L237.53320272445677,89.107959108108L237.8812877225876,94.09126144942302L238.0205217218399,92.86537166355755L238.09013872146605,94.04570243219744L238.1597557210922,93.05966059029012L238.43822371959686,89.01760054878177L238.50784071922303,92.77798240292164L238.8559257173538,93.77114905834169L238.92554271697998,95.28058960476515L239.20401071548463,94.10875664334161L239.4128617143631,93.76931827738323L239.48247871398925,91.41792699483057L239.62171271324158,94.21956638686432L240.1090317106247,93.60955658792963L240.17864871025085,94.16713389767975L240.52673370838167,91.39349506392765L241.36213770389557,90.70061145105993L241.71022270202636,90.18533406427638L241.8494567012787,89.46016074072053L241.91907370090485,89.92518077000182L242.12792469978334,93.48995664244119L242.1975416994095,89.31920115747016L242.8240946960449,85.98659261702474L243.2417966938019,85.57328969812127L243.52026469230654,87.30697893988946L243.58988169193267,90.91182220326003" fill="none"></path></g></g></g></g><g opacity="0.2"><g><g><g><path style="fill: none;" stroke="rgb(255, 112, 67)" stroke-width="2px" d="M35.85275480747223,-14.903086652010298L36.06160580635071,1.4798862252147L36.20083980560303,-23.08325608679007L36.47930780410767,-3.950579027894664L37.314711799621584,13.931954695347953L37.59317979812622,-17.536189063356343L37.73241379737854,-33.47739392384648L37.87164779663086,7.517806600576066L37.94126479625702,9.200589160263917L38.08049879550934,9.655332208650309L38.4982007932663,3.8795151844066296L38.56781779289246,-28.243327849687915L38.63743479251862,-2.671005698458775L38.70705179214478,8.43045451784043L38.77666879177094,7.08290204783515L39.33360478878021,24.189237759479855L39.54245578765869,15.517732987941384L39.751306786537164,16.325134697500634L39.82092378616333,3.2498116423539614L39.89054078578949,28.00472607893159L39.960157785415646,15.092574168484036L40.30824278354645,27.9392147006971L40.86517878055572,15.132472872797237L40.93479578018188,0.262508218375756L41.352497777938844,18.47144206919636L41.90943377494812,16.17850527220269L42.118284773826595,-3.4077869905745266L42.18790177345276,10.865441884237216L42.67522077083588,18.771786096808487L42.88407176971435,17.348176420465624L43.02330576896667,23.024752767998883L43.580241765975956,27.54587651978476L43.78909276485443,-0.474697220391308L43.858709764480594,16.470154293462915L44.485262761116026,17.08273773431717L44.624496760368345,15.467722241873032L44.69411375999451,25.042967850998313L44.76373075962067,34.3102637118777L45.251049757003784,12.801700266567195L45.599134755134585,28.75629466566354L45.738368754386904,20.04961464115603L45.80798575401306,22.371904314359828L46.086453752517706,25.484331000475127L46.4345387506485,26.535173608494308L46.50415575027466,13.44325099576673L46.71300674915314,25.05177853370967L47.130708746910095,28.740022857767748L47.20032574653626,20.528023144746317L47.33955974578858,14.165437787198698L47.54841074466706,7.720143832645221L47.68764474391938,42.01302717151573L47.757261743545534,36.376686917677425L47.896495742797846,32.23279341375062L48.035729742050165,17.366164094359906L48.10534674167633,26.763557300832677L48.59266573905945,29.027131581919612L49.149601736068725,33.34149348088743L49.21921873569488,20.248115273970132L49.288835735321044,25.694495666200314L49.56730373382568,12.79392103139426L50.26347373008728,28.152830377812496L50.33309072971344,13.878483298192762L50.47232472896576,36.77176988367809L50.7507927274704,25.34727379392158L50.95964372634887,35.23544323474901L51.029260725975035,40.33590311374426L51.0988777256012,-5.0529361746550325L51.307728724479674,-4.224886234934188L52.14313271999359,2.0765256078582413L52.56083471775055,4.075740848818225L52.76968571662903,19.35539260962081L52.908919715881346,20.238986481270306L52.97853671550751,-2.9668287083557607L53.11777071475983,35.58440989211611L53.39623871326447,-4.569061963080803L53.674706711769105,21.984600583532092L53.813940711021424,38.73806556067828L54.162025709152225,21.644888034920886L55.13666370391846,39.22949729440318L55.48474870204926,29.947240624368423L55.554365701675415,36.240612960179185L55.83283370018005,32.59784872477773L55.90245069980622,39.79868282107089L56.180918698310855,32.13054515169453L56.25053569793702,39.4962662586853L56.38976969718934,39.62985317445539L56.598620696067805,33.43578899323141L56.946705694198606,50.01174859680348L57.01632269382476,46.21523120030135L57.085939693450925,42.03274999080175L57.434024691581726,34.21058924881934L57.50364169120788,39.66542365498589L57.573258690834045,23.46845836375453L57.78210968971252,37.2370298410777L58.40866268634796,51.24491642670717L58.54789668560028,38.04714994508397L58.965598683357236,33.840174266471095L59.38330068111419,32.07304436135185L59.452917680740356,48.003337085267304L59.87061967849731,51.65329253434783L60.079470677375795,39.702353332739925L60.35793867588043,34.025314279768864L60.63640667438507,40.83328254028414L60.77564067363739,48.050667995675106L61.05410867214203,42.119140951916755L61.12372567176819,44.578796301965966L61.19334267139435,42.667148065108705L61.33257667064667,43.87117509212793L61.68066166877747,44.8355207023693L62.02874666690826,35.51300865924635L62.098363666534425,30.748935633528184L62.16798066616059,45.26791893398883L63.21223566055298,49.002568757579084L63.6995546579361,46.38379093541146L64.11725665569305,40.391668758695175L64.18687365531922,52.411560710231186L64.32610765457153,53.965990709414L64.46534165382386,49.028827291173975L64.7438096523285,54.154475697439175L65.37036264896392,39.67107251720565L65.50959664821625,60.03576064241027L65.57921364784241,67.18936986495848L65.78806464672088,54.114615551912436L66.20576664447785,55.77507257422669L66.76270264148712,44.72822123928393L66.83231964111327,38.20807504047046L67.04117063999176,47.26686426344343L67.11078763961791,27.00971659373969L67.73734063625335,38.483558290497726L67.80695763587951,63.87814371543384L68.57274463176728,41.23984638496011L68.78159563064575,20.07082197372164L68.85121263027192,53.95673660065811L68.99044662952423,57.02162030303996L69.12968062877655,54.8665600868126L70.10431862354278,44.42288384882225L70.45240362167358,43.45451848509005L70.59163762092591,64.9530662856116L70.80048861980437,59.12218731427031L70.9397226190567,52.62481971857163L71.2878076171875,44.34522645284564L71.35742461681366,42.594657546520814L71.77512661457061,57.85657226554124L71.91436061382294,62.17100164238539L71.9839776134491,51.5992427553954L72.12321161270143,57.050828583800765L72.19282861232757,65.87146910175855L72.40167961120606,48.535891764776245L72.54091361045838,50.770469838428L72.88899860858916,37.440629873404184L72.95861560821534,48.044151560759495L73.58516860485076,34.55425407304504L73.72440260410309,53.715127244556086L74.00287060260773,46.8607824035985L74.07248760223389,53.99555565894978L74.14210460186004,51.36548975203927L74.42057260036468,55.63957699852569L74.69904059886932,31.03655526160094L74.7686575984955,46.25037753418054L74.97750859737396,54.987374404560235L75.11674259662628,52.317718263628365L75.18635959625244,59.15172334471624L75.2559765958786,53.72376441272826L75.32559359550477,33.50486705921559L75.39521059513092,28.618900069728245L75.46482759475708,63.24416014808156L75.60406159400941,61.320500849234875L75.67367859363556,58.87176727545695L76.02176359176636,68.56540763847804L76.09138059139252,55.31252137157751L76.36984858989716,58.72588974649541L76.57869958877563,59.81578276552517L76.71793358802796,53.89726931220482L77.13563558578493,47.82532080777226L77.27486958503724,70.99785012496693L77.62295458316802,34.869539630419304L77.90142258167266,59.27354983060903L77.97103958129884,67.28162176161888L78.11027358055115,46.59246144816042L78.94567757606505,59.51860055840464L79.43299657344818,48.182529405750095L79.50261357307433,60.32787236910829L79.64184757232665,54.50722111588159L79.71146457195282,62.501180531038685L79.78108157157898,54.19265853575388L79.85069857120514,56.562847861466096L79.98993257045746,58.77484976563212L80.19878356933593,53.75509342674565L80.47725156784057,56.676229973119135L80.54686856746673,63.319571494745546L80.82533656597138,53.88482446386745L81.03418756484984,62.305677843873646L81.31265556335448,55.145214797028096L81.52150656223297,66.7836446738885L81.59112356185912,69.20116491000852L81.6607405614853,43.8650249656839L81.73035756111145,54.70885465009744L81.79997456073761,53.81138925501071L81.93920855998994,71.40598524019208L82.00882555961608,52.1913900394137L82.07844255924225,60.39338374734278L82.28729355812072,47.99007286271719L82.35691055774689,36.92869450496699L82.42652755737305,71.41598160558777L82.56576155662536,70.39318087503831L82.70499555587769,59.49025021064307L82.77461255550385,32.78395270773756L83.26193155288696,75.56616983140792L83.47078255176545,55.39952927327624L83.74925055027009,61.24978403482518L83.95810154914855,67.4778956245136L84.09733554840088,67.17311733645592L84.23656954765319,72.36494226002245L84.51503754615783,52.60719835314893L84.79350554466248,60.646242629401186L85.00235654354096,73.74606979335775L85.07197354316712,46.49262311025952L85.14159054279328,58.68011082724355L85.21120754241943,61.9608755354467L85.6289095401764,67.33568118026794L86.04661153793334,77.63717189310249L86.18584553718567,67.76137982273606L86.25546253681183,76.02273478245563L86.53393053531647,57.79458901626993L86.74278153419495,66.16627994351038L86.81239853382111,64.19046988594553L87.02124953269958,58.21418573077712L87.09086653232573,71.67944415392898L87.16048353195191,55.00380044760197L87.29971753120422,74.61102049174275L87.43895153045655,46.56327244679285L87.8566535282135,59.380463705829555L88.06550452709197,67.05272716535961L88.13512152671814,70.74101004820416L88.34397252559661,63.93659883574195L88.41358952522278,71.86528786508008L88.48320652484894,66.45444903429053L88.62244052410125,63.769234423012804L88.69205752372741,61.22103845950217L89.10975952148438,76.50731269188317L89.38822751998902,60.15664243803424L89.45784451961516,69.8411540083555L89.59707851886749,60.53133744568207L89.7363125181198,64.55386716915388L89.87554651737213,71.17138394353334L89.94516351699829,63.5137728228668L90.01478051662444,58.49574198967546L90.08439751625062,69.24264452456752L90.15401451587677,65.47609694485925L90.36286551475526,63.120155090752476L90.50209951400757,58.74346291343502L90.6413335132599,62.801013654729914L90.85018451213836,71.87119699910858L90.98941851139068,68.7223708185534L91.05903551101684,63.64839118617532L91.12865251064301,74.97726148545419L91.54635450839996,81.31072531951057L91.61597150802612,76.14889913182776L91.75520550727845,74.09838142545225L91.96405650615692,50.041631656327745L92.24252450466156,60.532455650490085L92.45137550354005,74.1733204269818L92.66022650241851,81.85675629489528L92.72984350204469,71.32081852054792L92.869077501297,57.31989179587862L93.00831150054933,61.80684282314403L93.14754549980164,62.36405584660878L93.49563049793244,56.100624408502036L93.70448149681091,70.44954418117972L93.84371549606324,64.48509757346157L94.88797049045563,58.80712346991831L95.16643848896027,60.894946802216076L95.30567248821258,77.33908355449961L95.37528948783876,56.80187377887376L95.6537574863434,60.1314635504609L95.79299148559569,68.17777615796518L95.86260848522187,58.87157448152454L96.07145948410033,62.04963786193038L96.21069348335266,50.88157698167855L96.34992748260497,74.98018231353028L96.55877848148346,49.46190994125357L96.69801248073578,60.6507058089366L96.76762948036193,80.39772073347123L96.90686347961424,75.45630620902145L97.1853314781189,58.91391202908279L97.46379947662354,65.18083303736624L97.95111847400665,61.25421829527074L98.02073547363281,61.009061530812296L98.09035247325897,71.19469272996227L98.15996947288512,70.46926700046573L98.29920347213745,73.64305999526862L98.50805447101594,58.81363990483394L98.57767147064209,76.57101180715297L98.64728847026825,68.62958873857886L98.85613946914673,75.81747672231039L98.92575646877289,78.76232692237089L98.99537346839904,56.870142110341774L99.06499046802521,64.72128942006273L99.62192646503449,76.08353234904258L99.69154346466064,78.39732944952351L99.90039446353913,60.23326838647243L100.38771346092224,78.6477591280335L100.59656445980073,78.84112180254876L101.15350045681001,73.16935566362925L101.22311745643616,62.49552202912231L101.36235145568847,77.09460156880462L101.43196845531465,64.01595281832381L101.5015854549408,60.14584597781903L101.71043645381928,64.69786495727436L101.78005345344543,74.04910329632706L101.91928745269774,69.80512082238721L102.05852145195007,63.890019821670585L102.40660645008087,69.84347717524109L102.47622344970704,53.12678764070299L102.75469144821167,67.05957134996032L102.82430844783784,76.5134628183272L102.89392544746399,61.63498631178962L102.96354244709015,67.70412002480892L103.17239344596862,68.4995106723787L103.2420104455948,75.71630810627582L103.31162744522095,76.62623762909314L103.52047844409944,59.81853007906209L103.59009544372559,60.65530394422469L104.14703144073486,52.198648730969104L104.4254994392395,70.68762540831855L104.56473343849183,66.3902679341897L104.70396743774414,71.39528517694306L104.77358443737029,57.93715048959392L104.98243543624878,72.85983464483418L105.19128643512725,66.92787381472789L105.26090343475342,64.22223268631085L105.33052043437957,70.43032262611798L105.40013743400574,72.92141302684742L105.6089884328842,71.39440796455058L106.1659244298935,81.85933009389302L106.3051584291458,69.57517549919628L106.44439242839813,59.226643066852546L106.58362642765044,68.54533779011366L106.6532434272766,73.48298319318475L106.86209442615508,75.70121234136775L107.00132842540741,70.67591317692435L107.14056242465972,75.13011815476914L107.48864742279054,84.7198715073086L107.97596642017363,57.888248308636946L108.04558341979981,65.39463186871745L108.25443441867827,56.24067956070464L108.3936684179306,80.44521551872157L108.81137041568756,59.60459629195819L108.88098741531373,72.95575926590708L109.02022141456604,56.38753069902485L109.15945541381836,67.86938298367474L109.437923412323,67.05451050923445L109.71639141082764,71.38131725653963L109.85562541007997,80.42443233280727L110.20371040821075,70.08585770707276L110.27332740783692,78.30940577664582L110.34294440746307,63.378180850199605L110.83026340484619,72.581044978866L110.89988040447236,33.2544373807056L111.3175824022293,64.79714419277127L111.59605040073394,83.03554177631312L111.6656674003601,57.39930361664022L111.73528439998627,61.838451388363396L112.36183739662171,77.32130795393098L112.50107139587404,84.45377250194161L112.7099223947525,73.15353692147463L113.12762439250946,54.03620625959941L113.19724139213561,83.34390121166538L113.47570939064025,64.10995913976919L113.68456038951874,86.49177306225512L113.75417738914489,72.30853075539792L113.82379438877106,74.94467931087613L114.03264538764952,67.70552742051554L114.79843238353729,63.92585057400983L115.00728338241576,69.52858684542828L115.21613438129425,78.09622388587835L115.2857513809204,78.34041668067472L115.35536838054657,66.46800244773928L115.56421937942504,79.34482487007183L115.63383637905122,76.97041335723974L115.70345337867737,72.78965765343526L116.74770837306977,84.92454154595997L116.95655937194823,68.01243608152639L117.09579337120056,66.05592469659625L117.16541037082672,86.53209591321964L117.30464437007905,74.47932295651032L117.3742613697052,73.0273725721025L117.58311236858368,79.95521046009655L117.79196336746216,71.91462383238498L117.86158036708832,80.65838776979243L118.00081436634065,61.99878846225604L118.14004836559296,76.75508181412584L118.27928236484529,78.77790467211L118.4185163640976,67.23975655919504L118.62736736297607,77.78537258894961L118.76660136222839,74.06470032545941L118.90583536148071,82.81189117501553L119.04506936073302,78.28195192066998L119.18430335998535,73.28328723798967L119.32353735923766,85.26987403770106L120.01970735549926,71.97928691731684L120.2981753540039,76.05561578762894L120.57664335250854,78.53433845759398L120.64626035213472,90.05063337826974L120.71587735176087,70.25894809959462L120.85511135101318,74.95747118829183L121.06396234989167,86.94086724842175L121.27281334877014,81.3338027532206L121.41204734802245,77.32104768212223L121.62089834690094,71.776535178293L122.0386003446579,84.3553271002024L122.1778343439102,73.90333180402837L122.31706834316253,65.8026320281899L122.3866853427887,71.91673492594492L122.59553634166717,75.65257043221953L122.66515334129333,52.69018650135683L122.73477034091948,64.66122447041896L122.94362133979797,64.17358113746602L123.50055733680725,65.52589561760195L123.84864233493805,68.67225403582222L123.98787633419036,75.6911002996126L124.40557833194732,72.50546011766285L124.68404633045196,81.84906381699194L124.75366333007813,71.03772954988689L124.82328032970428,79.84038239395039L124.89289732933045,64.65685768784977L125.3105993270874,66.42744824405585L125.51945032596588,88.86583754600886L126.006769323349,87.43787072679342L126.14600332260132,67.03362128665732L126.35485432147979,70.52158163402645L126.42447132110595,76.50370744534702L126.63332231998443,73.90291729707367L126.7029393196106,79.52009383402996L127.0510243177414,77.0536232184699L127.12064131736756,81.92353047338709L127.1902583169937,85.82716417873878L127.3991093158722,73.90610803665513L127.60796031475067,64.73663581708294L127.67757731437683,64.49739782634963L127.74719431400298,82.05802834048784L127.81681131362916,62.80354889494118L127.88642831325531,85.56187008803963L128.30413031101227,89.67909055141686L128.72183230876922,69.09215922062128L129.13953430652617,84.19829644225068L129.41800230503083,80.30590262315876L129.55723630428315,70.30212430075888L129.90532130241394,64.83839245461138L130.1837893009186,82.47414512451496L130.6711082983017,71.48010486750889L130.81034229755403,86.80294246917232L131.0191932964325,88.420637797277L131.15842729568482,84.52652811218658L131.22804429531098,84.7453492254772L131.43689529418944,76.97638032944798L131.5065122938156,73.79109681627318L131.64574629306793,74.97915086599185L131.7153632926941,74.74373019512035L131.92421429157258,71.13862825441609L133.10770328521727,83.55681319092749L133.17732028484346,80.75623069049286L133.2469372844696,84.32633089276723L133.31655428409576,73.53432421738677L133.5950222826004,88.32274667809347L133.80387328147887,79.5236412423864L134.08234127998352,81.16001348269374L134.1519582796097,71.50092661220967L134.22157527923582,80.67197974202766L134.50004327774047,83.94225164045912L134.56966027736664,82.52143265628796L134.6392772769928,76.22662400568072L134.77851127624513,77.41032091252681L134.91774527549742,87.0135602006387L135.05697927474975,68.19586022882567L135.19621327400208,82.45408491584722L135.75314927101135,74.43846992223165L136.10123426914217,84.24179075340342L136.1708512687683,59.49907053305104L136.79740426540374,89.90865028674298L136.8670212650299,73.59516998245682L137.63280826091767,83.55463943933951L137.98089325904846,81.44246141352949L138.18974425792695,71.07981646533301L138.2593612575531,88.47539127408275L138.4682122564316,79.89227288085979L138.6074462556839,58.5537440442424L138.67706325531006,69.44120299556135L139.23399925231934,82.44550076600646L139.3036162519455,83.38460965049474L139.37323325157163,64.19428720580734L139.44285025119783,79.2360505334035L139.6517012500763,81.73654927803476L139.7909352493286,74.78440007516322L139.86055224895478,88.69871894554355L139.9301692485809,73.91742504048787L140.4871052455902,81.92338105808946L140.83519024372103,65.17520345453974L140.90480724334716,57.10043446261105L141.11365824222565,80.17427256580267L141.60097723960874,80.09353046690742L141.7402112388611,52.29583615229932L142.43638123512267,81.49592799083636L142.78446623325348,89.94005641833331L142.85408323287965,79.89865436002272L142.99331723213194,88.71891892981229L143.06293423175813,72.47043909983974L143.48063622951508,75.77058923794715L143.55025322914122,74.53153155340819L143.9679552268982,92.82455247785143L144.03757222652436,82.38639978602475L144.66412522315977,88.38206937109746L144.94259322166442,72.95455430382948L145.08182722091675,86.24287609550782L145.3602952194214,86.09616955263691L145.9868482160568,87.78329961550072L146.12608221530917,88.17880672815271L146.3349332141876,83.00245351766246L146.47416721343996,90.28346097075026L146.5437842130661,79.38095445300634L146.89186921119688,88.76862120558879L147.10072021007537,73.57489770046342L147.44880520820618,91.24033099626223L147.5880392074585,82.61780070340541L147.86650720596313,65.4297107247203L148.00574120521546,86.44430719609463L148.0753582048416,75.42602792193573L148.14497520446778,84.3015279533621L148.28420920372008,80.50760363525094L148.4234432029724,70.75784095850396L148.77152820110322,85.09844167299796L148.9803791999817,92.20893253256165L149.119613199234,67.62458288799127L149.3284641981125,91.28135272523176L149.537315196991,81.64846173031451L149.8157831954956,87.60266134052483L150.02463419437407,85.41883626958122L150.3031021928787,78.03491541537049L150.3727191925049,67.7811604802018L150.44233619213105,80.09949743911565L150.92965518951416,84.82532014864277L151.06888918876646,96.07289888631902L151.20812318801882,85.97129692261196L151.41697418689728,78.64816399529157L151.48659118652344,80.68368233372523L151.9042931842804,75.68896992665942L151.97391018390655,89.20641766731592L152.25237818241118,86.72162198847984L152.53084618091583,87.38331486376839L152.73969717979432,100.0972360529072L152.80931417942045,83.44707488459707L152.87893117904665,95.44670419383631L152.9485481786728,81.9515241523737L153.0877821779251,76.47637890542725L153.2966331768036,88.77307474542756L153.7839521741867,81.98401956968218L153.85356917381287,84.74755671600334L154.20165417194366,85.76244325562719L154.34088817119599,84.54264086508815L154.41050517082215,76.6901488176886L154.48012217044828,82.30968226046866L155.10667516708375,69.49433700333482L155.3851431655884,97.08321620974465L155.45476016521454,81.78699381045105L155.5243771648407,86.90128665409704L155.59399416446684,92.07991001314147L155.7332281637192,85.71237949122742L156.08131316184998,76.39067236277232L156.15093016147614,85.01915516829244L156.29016416072847,91.02929393799286L156.3597811603546,88.89789917696942L156.42939815998076,74.73960440496668L156.63824915885925,82.02597634922391L156.77748315811155,77.86867884714597L156.84710015773774,82.0882295100006L156.9167171573639,91.46995338961636L157.54327015399932,77.49541051459802L157.7521211528778,89.24824913080158L158.37867414951324,75.12084476662L158.79637614727022,85.39519973346718L158.86599314689636,92.23194730824363L159.2836951446533,94.03410305103432L159.3533121442795,87.33568030291705L159.42292914390563,81.01347081466538L159.56216314315796,86.04112688493254L159.9798651409149,87.32344752790534L160.39756713867186,78.46477840677878L160.46718413829805,85.090460004196L161.02412013530733,83.93453506331423L161.09373713493346,95.28226542903155L161.30258813381195,82.69647990722382L161.5114391326904,94.6121137199583L161.78990713119506,96.5868296719567L161.9291411304474,94.77398350561363L162.20760912895204,83.06453316389997L162.62531112670897,82.92997263877118L162.90377912521362,89.90193141819833L162.9733961248398,81.72749760290789L163.18224712371824,89.11425252792512L163.3214811229706,87.50749343563666L163.53033212184909,95.02815820626077L163.8088001203537,83.61082923094175L163.948034119606,91.53480926848064L164.08726811885836,93.1129240022606L164.1568851184845,96.57155557266115L164.22650211811066,90.09355894732184L164.71382111549377,80.57675881880807L164.8530551147461,72.25484728491708L164.92267211437226,80.05108688268635L165.3403741121292,82.82165136784401L165.40999111175537,91.36802805739705L165.4796081113815,81.34771283544431L165.61884211063386,81.01832922176223L165.75807610988616,94.86874654324373L166.59348010540006,92.74290424747383L167.22003310203553,90.19954741166679L167.49850110054018,91.95063686160914L167.84658609867097,87.66308295894358L167.9162030982971,84.88132678600923L168.26428809642792,80.41233451354826L168.33390509605408,101.01977429890445L168.40352209568024,94.42583140261098L168.68199009418487,86.10684069679607L168.75160709381103,85.66658129258232L169.169309091568,92.62429742025233L169.44777709007263,98.43006498189663L169.5173940896988,89.78527180969422L169.58701108932496,93.44672741684329L169.7262450885773,85.10849587657339L169.79586208820342,85.08798260216447L170.14394708633424,87.8081700327822L170.35279808521273,94.07842155624813L170.49203208446502,76.28857833586216L170.7008830833435,84.77720842280871L170.909734082222,92.74638899780221L171.11858508110046,80.20858024607585L171.2578190803528,92.77783850802734L171.67552107810977,68.0263461637501L171.7451380777359,95.68567227306424L171.8843720769882,87.77034386324246L172.02360607624055,85.3463361112967L172.65015907287597,80.12735616234957L172.71977607250213,87.09511203405008L172.78939307212832,82.2440021875433L172.85901007175445,97.54853400532397L173.83364806652068,94.81782002599641L174.11211606502533,94.08518380342758L174.39058406352996,88.65933596499956L174.46020106315612,79.69184430872154L174.6690520620346,81.48551711848599L174.73866906166074,91.4500666954878L174.94752006053923,98.12847743342043L175.0867540597916,81.79186185724451L175.22598805904389,92.35511853181504L175.57407305717467,74.93925216167865L175.78292405605316,72.44306236143686L175.9221580553055,98.13937029060185L175.99177505493165,83.0703555406589L176.13100905418395,97.09673588425522L176.33986005306244,88.02387752406432L176.54871105194093,85.42568045418194L176.68794505119322,88.87146712883536L176.8967960500717,92.62577229383531L177.1056470489502,89.5487714928012L177.17526404857634,83.09095557233739L177.38411504745483,92.1572589388262L177.59296604633332,95.04341302616308L178.1499020433426,83.694227066256L178.21951904296876,90.48320512442842L178.35875304222105,96.55259428940818L178.70683804035187,97.403379453609L179.05492303848268,92.68099329592718L179.12454003810882,77.9061194288209L179.19415703773498,86.35303372864124L179.3333910369873,96.61848643565918L179.40300803661347,88.52482363835387L179.5422420358658,88.15417248343843L179.6814760351181,94.13537770373173L179.89032703399658,87.01726184414105L179.95994403362275,87.94290407245016L180.23841203212737,92.43868988166847L180.58649703025816,96.85075492573571L180.7257310295105,91.06665740209482L181.14343302726743,97.18971075816218L181.21305002689363,96.09854529917848L181.2826670265198,87.92318125316415L181.35228402614592,82.94572872289777L181.4219010257721,95.24724923105676L181.63075202465058,87.5074693363951L181.7699860239029,90.95806621966229L181.97883702278136,84.23430552897743L182.04845402240755,90.34798909992944L182.25730502128602,85.69417974400749L182.39653902053834,91.2667775039412L182.53577301979064,82.74157440801561L182.60539001941683,91.97327086927461L182.67500701904297,85.1230084398359L182.95347501754762,99.84436753115219L183.23194301605224,87.47380751579551L183.3015600156784,82.8098812982701L183.37117701530457,91.3958048432097L183.6496450138092,80.98077778357617L183.71926201343535,82.29157891021492L183.85849601268768,94.13617779855124L183.92811301231384,89.14272819174275L184.06734701156617,77.7962943652209L184.13696401119233,103.24127130424188L184.20658101081847,94.76051202958615L184.34581501007082,97.88907074799624L184.41543200969696,93.70011648221583L184.55466600894925,95.91025792493404L184.76351700782774,93.1940613287173L184.9027510070801,88.43034497177408L184.97236800670623,88.86528808330148L185.39007000446318,84.35231951485673L185.45968700408937,96.694283370188L185.5293040037155,100.14166541463216L185.80777200222016,88.26536638395856L185.94700600147246,90.87932917766415L186.08624000072479,95.84788426794961L186.36470799922944,96.13530628224164L186.85202699661255,86.87770795616272L187.060877995491,90.50943955878175L187.20011199474334,86.77406675794492L187.33934599399566,78.98484003946723L187.40896299362183,91.84626304644817L187.68743099212648,96.71196257379042L187.82666499137878,93.46266183535735L187.89628199100494,95.33560669028238L187.9658989906311,85.53981446217139L188.17474998950956,97.21136633662066L188.24436698913576,96.95375508412823L188.45321798801422,90.84141625085482L188.52283498764038,96.9109162723457L188.73168598651884,98.87998818197265L188.94053698539733,90.04472424424122L189.21900498390198,82.00547271451161L189.63670698165896,73.76732532440646L189.7063239812851,84.95655979828572L189.91517498016358,93.90463228572128L189.98479197978975,94.35898974624283L190.12402597904205,90.96271255343348L190.26325997829437,94.5094364914026L190.33287697792053,94.73942037338L190.47211097717286,90.20877742118114L190.54172797679902,98.78119093130678L190.68096197605132,95.52410131800417L190.7505789756775,83.28763430249018L190.82019597530365,92.34109759308018L190.8898129749298,95.88497300069787L191.02904697418214,90.60488701487193L191.16828097343443,97.44358662821408L191.2378979730606,89.58827496955297L191.51636597156525,83.60782646544439L191.58598297119138,91.87702331836493L191.72521697044374,75.68329214534981L191.9340679693222,89.32722716521525L192.07330196857453,104.76846434062281L192.28215296745302,84.45594625352959L193.11755696296692,86.51727487966527L193.39602496147157,102.21188184105213L193.60487596035006,89.65141498241874L193.95296095848084,92.85665266759845L194.09219495773314,93.18483613905126L194.30104595661163,87.12165011884694L194.7187479543686,93.23411426817643L194.78836495399474,99.1775945357445L194.92759895324707,90.61415558317276L195.13644995212553,94.0058683796322L195.34530095100402,94.22061190125223L195.41491795063018,79.00013823800434L195.48453495025635,79.42093027489251L196.1110879468918,85.13560270347088L196.18070494651795,99.59014463202195L196.2503219461441,99.67307494205009L196.31993894577025,97.95056719258821L196.4591729450226,91.29817881568324L196.5984069442749,93.74724013914627L196.8072579431534,98.99017473419593L197.15534294128418,86.58399603982565L197.2945769405365,93.87558787980302L197.36419394016266,95.38149164619706L197.4338109397888,97.33945862531694L197.503427939415,90.88003287551746L198.06036393642427,89.9152149201417L198.6869169330597,97.3874739541848L199.0350019311905,88.15129503399714L199.59193792819977,100.5969000875462L199.66155492782593,90.45711046567611L199.8704059267044,95.47296272743118L200.14887392520905,94.65974828080965L200.35772492408753,108.27213739348375L200.63619292259216,96.50040497190354L200.84504392147062,89.55778460914158L201.0538949203491,91.90113219961339L201.12351191997527,101.69677501242674L201.19312891960146,90.33548641341234L201.33236291885376,93.16463615478251L201.88929891586304,85.52058326741304L202.02853291511536,102.4440683937074L202.16776691436766,89.72239206863719L202.30700091362002,86.41528206956961L202.6550859117508,89.1534860931715L203.0031709098816,85.56362933267292L203.56010690689087,92.72951952871594L203.62972390651703,95.33720687992141L203.6993409061432,92.85477292675742L203.97780890464784,101.29679508054272L204.1866599035263,82.30089567699886L204.3955109024048,95.15032208153531L204.95244689941407,89.23729843544044L205.0916808986664,70.16846990711244L205.37014889717102,88.5563165272138L205.43976589679718,95.57788118545122L205.50938289642335,98.86533584310914L205.57899989604948,86.82484385989463L205.71823389530184,77.73603662164471L205.85746789455413,96.71477736520367L206.06631889343262,95.9137715943523L206.2751698923111,92.52436268538523L206.34478689193725,87.31011582747887L206.4840208911896,100.16407770927536L206.6232548904419,94.86336759252936L207.110573887825,99.8363810425019L207.38904188632966,80.02132913921814L207.52827588558196,95.46123603649207L207.6675098848343,96.19104300810271L207.8067438840866,96.89047047581312L207.87636088371278,88.36176817001419L208.01559488296508,92.55484340609996L208.22444588184356,72.1294541112746L208.3636798810959,92.42838986582922L208.57253087997435,91.81895378592165L208.7117648792267,99.5370250837934L208.92061587810517,84.46977921818034L208.9902328777313,93.92983045268787L209.0598498773575,95.02358899006254L209.75601987361907,94.76378952643721L209.82563687324523,80.01436927825797L209.96487087249756,97.81113862066594L210.03448787212372,90.78842683853065L210.10410487174985,81.4795260470362L210.17372187137605,92.82942534449319L210.3825728702545,98.67419029881665L210.4521898698807,103.2285372650059L210.591423869133,93.7856543301799L210.80027486801148,95.56527728211961L210.93950886726378,92.77807950044287L211.0787428665161,96.1389597272609L211.2179768657684,93.3198400902246L211.84452986240387,96.63661870500277L211.91414686203004,90.98440187083011L212.12299786090853,93.00594264916373L212.26223186016082,80.59920967223776L212.40146585941315,88.72779709039999L212.54069985866545,98.84692402256354L212.6799338579178,97.04812289419688L212.74955085754394,101.81653378339439L212.95840185642243,86.30274825121919L213.37610385417938,90.69302276107527L213.44572085380554,73.59563268789461L213.72418885231016,93.62933218992981L213.93303985118865,92.03559150792765L214.14189085006714,98.46707659707192L214.28112484931944,104.33438880179128L214.35074184894563,102.53326932638733L214.62920984745026,85.62844665275071L214.9076778459549,86.34109496437647L215.11652884483337,91.82674748063951L215.18614584445956,90.78623380754944L215.2557628440857,84.72582883982021L215.32537984371186,92.62370939875848L215.53423084259035,93.32812058962182L215.81269884109497,97.48797743115254L215.95193284034727,95.357373125252L216.23040083885192,87.36126405774847L216.3000178384781,97.42896320844042L216.4392518377304,92.35983716331089L216.50886883735654,88.51118828748385L216.8569538354874,96.34885930132901L217.06580483436585,87.03243472662209L217.135421833992,83.67679849476573L217.2746558332443,88.13469547641624L217.41388983249666,87.7242853927886L217.55312383174896,98.67100919893181L217.62274083137513,98.1042384162676L217.83159183025361,75.06313190295167L217.90120882987975,97.78300034623004L218.04044282913208,82.84954864986442L218.24929382801054,87.23356699661365L218.31891082763673,97.61465750429389L218.45814482688903,82.65518344690061L218.875846824646,96.93950761252279L219.08469782352446,106.19953514215013L219.29354882240295,88.38856170677151L219.3631658220291,91.08423056903442L219.64163382053374,100.76234138079951L220.05933581829072,97.53128376822119L220.96435681343078,104.38570572675175L221.2428248119354,95.43104932652423L221.38205881118776,93.85092953584717L221.73014380931855,93.27861110777772L221.93899480819704,98.1790569215894L222.07822880744934,79.50970224107282L222.356696805954,98.24078953874857L222.70478180408477,85.2353928428887L222.9832498025894,101.86933522163446L223.26171780109405,86.7921460089571L223.47056879997254,91.00870354601099L224.09712179660795,88.97067888645594L224.51482379436493,102.88354698249485L225.2109937906265,83.08106524360453L225.2806107902527,72.32656662777532L225.35022778987886,89.050269041605L225.55907878875735,87.56139379929148L225.62869578838348,103.68997026284707L225.97678078651427,84.74947983547918L226.11601478576662,90.8193220662001L226.39448278427122,99.86784983212029L226.4640997838974,86.67528878667228L226.53371678352357,99.18626544285485L226.6033337831497,85.4955971737721L226.67295078277587,95.3989973352603L226.74256778240203,92.93858526902636L226.8121847820282,85.36789047294066L227.36912077903747,95.94285937890535L227.57797177791596,85.76939347689074L227.9956737756729,87.93583817482717L228.27414177417754,91.11789238963402L228.97031177043917,61.20455457828073L229.0399287700653,92.19590930242703L229.10954576969147,92.5547180900439L229.59686476707458,93.17116704924305L229.94494976520537,93.60458708870439L230.15380076408385,103.50759202263114L230.29303476333618,69.82093956454182L230.36265176296234,93.00282902715523L230.4322687625885,94.99098753609123L230.50188576221467,94.22072757761168L230.7803537607193,59.48167088065063L231.33728975772857,94.46373468972371L231.40690675735473,80.9774906470285L231.61575775623322,91.39539997595162L231.75499175548555,100.98834406807256L231.8246087551117,91.0224208343023L231.963842754364,93.17911015925854L232.31192775249482,89.74226912306915L232.7992467498779,86.02591544366503L232.93848074913026,106.130240182992L233.14733174800875,87.87887720749526L233.28656574726105,99.20221432091384L233.63465074539184,99.03463783485904L233.84350174427033,88.63432095226875L234.05235274314882,97.56180786757074L234.67890573978423,86.94826089572986L234.7485227394104,84.46611613346447L234.95737373828888,83.24647279791965L235.16622473716737,91.75774653222831L235.30545873641967,96.10447853244854L235.37507573604583,90.73060311835118L235.7927777338028,95.98680675579928L236.0016287326813,85.80407710533213L236.07124573230743,87.00593520061169L236.21047973155973,88.63924201739364L236.41933073043822,86.61291512968785L236.55856472969057,92.4962726094324L236.69779872894287,104.76843060168466L236.90664972782136,88.84049478359296L236.9762667274475,88.8161015312942L237.04588372707366,84.45510278007528L237.53320272445677,89.90623072289117L237.8812877225876,101.56621496139554L238.0205217218399,91.02653698475933L238.09013872146605,95.81619858515725L238.1597557210922,91.58059782742913L238.43822371959686,82.95451048651925L238.50784071922303,98.41855518413148L238.8559257173538,95.2608990414717L238.92554271697998,97.54475042440035L239.20401071548463,92.3510072012063L239.4128617143631,93.26016072844564L239.48247871398925,87.89084007100159L239.62171271324158,98.42202547491493L240.1090317106247,92.69454188952761L240.17864871025085,95.00349986230493L240.52673370838167,87.2330368132995L241.36213770389557,89.66128603175838L241.71022270202636,89.41241798410095L241.8494567012787,88.37240075538686L241.91907370090485,90.62271081392365L242.12792469978334,98.83712045110026L242.1975416994095,83.06306793001362L242.8240946960449,80.98767980635661L243.2417966938019,84.9533353197661L243.52026469230654,89.90751280254173L243.58988169193267,96.31908709831589" fill="none"></path></g></g></g></g></g></g><g transform="translate(51, 177)" clip-path="url(#clip_1)"><clipPath id="clip_1"><rect width="278" height="22"></rect></clipPath><g><g><line x1="0" y1="0" x2="0" y2="5" style="visibility: inherit;" fill="rgb(0, 0, 0)" stroke="rgb(204, 204, 204)" stroke-width="1px"></line><line x1="34.808499813079834" y1="0" x2="34.808499813079834" y2="5" style="visibility: inherit;" fill="rgb(0, 0, 0)" stroke="rgb(204, 204, 204)" stroke-width="1px"></line><line x1="69.61699962615967" y1="0" x2="69.61699962615967" y2="5" style="visibility: inherit;" fill="rgb(0, 0, 0)" stroke="rgb(204, 204, 204)" stroke-width="1px"></line><line x1="104.4254994392395" y1="0" x2="104.4254994392395" y2="5" style="visibility: inherit;" fill="rgb(0, 0, 0)" stroke="rgb(204, 204, 204)" stroke-width="1px"></line><line x1="139.23399925231934" y1="0" x2="139.23399925231934" y2="5" style="visibility: inherit;" fill="rgb(0, 0, 0)" stroke="rgb(204, 204, 204)" stroke-width="1px"></line><line x1="174.04249906539917" y1="0" x2="174.04249906539917" y2="5" style="visibility: inherit;" fill="rgb(0, 0, 0)" stroke="rgb(204, 204, 204)" stroke-width="1px"></line><line x1="208.850998878479" y1="0" x2="208.850998878479" y2="5" style="visibility: inherit;" fill="rgb(0, 0, 0)" stroke="rgb(204, 204, 204)" stroke-width="1px"></line><line x1="243.65949869155884" y1="0" x2="243.65949869155884" y2="5" style="visibility: inherit;" fill="rgb(0, 0, 0)" stroke="rgb(204, 204, 204)" stroke-width="1px"></line><line x1="278.4679985046387" y1="0" x2="278.4679985046387" y2="5" style="visibility: inherit;" fill="rgb(0, 0, 0)" stroke="rgb(204, 204, 204)" stroke-width="1px"></line></g><g transform="translate(0, 8)"><text style="text-anchor: middle; visibility: hidden; font-family: Roboto, sans-serif; font-size: 12px; font-weight: 200;" x="0" y="0" dx="0em" dy="0.95em" fill="rgb(50, 49, 63)" stroke="none" stroke-width="1px">-500</text><text style="text-anchor: middle; visibility: inherit; font-family: Roboto, sans-serif; font-size: 12px; font-weight: 200;" x="34.808499813079834" y="0" dx="0em" dy="0.95em" fill="rgb(50, 49, 63)" stroke="none" stroke-width="1px">0</text><text style="text-anchor: middle; visibility: inherit; font-family: Roboto, sans-serif; font-size: 12px; font-weight: 200;" x="69.61699962615967" y="0" dx="0em" dy="0.95em" fill="rgb(50, 49, 63)" stroke="none" stroke-width="1px">500</text><text style="text-anchor: middle; visibility: inherit; font-family: Roboto, sans-serif; font-size: 12px; font-weight: 200;" x="104.4254994392395" y="0" dx="0em" dy="0.95em" fill="rgb(50, 49, 63)" stroke="none" stroke-width="1px">1k</text><text style="text-anchor: middle; visibility: inherit; font-family: Roboto, sans-serif; font-size: 12px; font-weight: 200;" x="139.23399925231934" y="0" dx="0em" dy="0.95em" fill="rgb(50, 49, 63)" stroke="none" stroke-width="1px">1.5k</text><text style="text-anchor: middle; visibility: inherit; font-family: Roboto, sans-serif; font-size: 12px; font-weight: 200;" x="174.04249906539917" y="0" dx="0em" dy="0.95em" fill="rgb(50, 49, 63)" stroke="none" stroke-width="1px">2k</text><text style="text-anchor: middle; visibility: inherit; font-family: Roboto, sans-serif; font-size: 12px; font-weight: 200;" x="208.850998878479" y="0" dx="0em" dy="0.95em" fill="rgb(50, 49, 63)" stroke="none" stroke-width="1px">2.5k</text><text style="text-anchor: middle; visibility: inherit; font-family: Roboto, sans-serif; font-size: 12px; font-weight: 200;" x="243.65949869155884" y="0" dx="0em" dy="0.95em" fill="rgb(50, 49, 63)" stroke="none" stroke-width="1px">3k</text><text style="text-anchor: middle; visibility: hidden; font-family: Roboto, sans-serif; font-size: 12px; font-weight: 200;" x="278.4679985046387" y="0" dx="0em" dy="0.95em" fill="rgb(50, 49, 63)" stroke="none" stroke-width="1px">3.5k</text></g><line x1="0" y1="0" x2="278.4679985046387" y2="0" fill="rgb(0, 0, 0)" stroke="rgb(204, 204, 204)" stroke-width="1px"></line></g></g></g></g></svg>