<svg viewBox="0 0 330 200" xmlns="http://www.w3.org/2000/svg"><g><g><g><g><g><line x1="51.41600036621094" y1="178.01999950408936" x2="46.41600036621094" y2="178.01999950408936" style="visibility: inherit;" fill="rgb(0, 0, 0)" stroke="rgb(204, 204, 204)" stroke-width="1px"></line><line x1="51.41600036621094" y1="160.21799955368041" x2="46.41600036621094" y2="160.21799955368041" style="visibility: inherit;" fill="rgb(0, 0, 0)" stroke="rgb(204, 204, 204)" stroke-width="1px"></line><line x1="51.41600036621094" y1="142.4159996032715" x2="46.41600036621094" y2="142.4159996032715" style="visibility: inherit;" fill="rgb(0, 0, 0)" stroke="rgb(204, 204, 204)" stroke-width="1px"></line><line x1="51.41600036621094" y1="124.61399965286255" x2="46.41600036621094" y2="124.61399965286255" style="visibility: inherit;" fill="rgb(0, 0, 0)" stroke="rgb(204, 204, 204)" stroke-width="1px"></line><line x1="51.41600036621094" y1="106.8119997024536" x2="46.41600036621094" y2="106.8119997024536" style="visibility: inherit;" fill="rgb(0, 0, 0)" stroke="rgb(204, 204, 204)" stroke-width="1px"></line><line x1="51.41600036621094" y1="89.00999975204468" x2="46.41600036621094" y2="89.00999975204468" style="visibility: inherit;" fill="rgb(0, 0, 0)" stroke="rgb(204, 204, 204)" stroke-width="1px"></line><line x1="51.41600036621094" y1="71.20799980163575" x2="46.41600036621094" y2="71.20799980163575" style="visibility: inherit;" fill="rgb(0, 0, 0)" stroke="rgb(204, 204, 204)" stroke-width="1px"></line><line x1="51.41600036621094" y1="53.40599985122682" x2="46.41600036621094" y2="53.40599985122682" style="visibility: inherit;" fill="rgb(0, 0, 0)" stroke="rgb(204, 204, 204)" stroke-width="1px"></line><line x1="51.41600036621094" y1="35.60399990081788" x2="46.41600036621094" y2="35.60399990081788" style="visibility: inherit;" fill="rgb(0, 0, 0)" stroke="rgb(204, 204, 204)" stroke-width="1px"></line><line x1="51.41600036621094" y1="17.80199995040893" x2="46.41600036621094" y2="17.80199995040893" style="visibility: inherit;" fill="rgb(0, 0, 0)" stroke="rgb(204, 204, 204)" stroke-width="1px"></line><line x1="51.41600036621094" y1="0" x2="46.41600036621094" y2="0" style="visibility: inherit;" fill="rgb(0, 0, 0)" stroke="rgb(204, 204, 204)" stroke-width="1px"></line></g><g transform="translate(41.41600036621094, 0)"><text style="text-anchor: end; visibility: hidden; font-family: Roboto, sans-serif; font-size: 12px; font-weight: 200;" x="0" y="178.01999950408936" dx="0em" dy="0.3em" fill="rgb(50, 49, 63)" stroke="none" stroke-width="1px">-0.1</text><text style="text-anchor: end; visibility: inherit; font-family: Roboto, sans-serif; font-size: 12px; font-weight: 200;" x="0" y="160.21799955368041" dx="0em" dy="0.3em" fill="rgb(50, 49, 63)" stroke="none" stroke-width="1px">0</text><text style="text-anchor: end; visibility: hidden; font-family: Roboto, sans-serif; font-size: 12px; font-weight: 200;" x="0" y="142.4159996032715" dx="0em" dy="0.3em" fill="rgb(50, 49, 63)" stroke="none" stroke-width="1px">0.1</text><text style="text-anchor: end; visibility: inherit; font-family: Roboto, sans-serif; font-size: 12px; font-weight: 200;" x="0" y="124.61399965286255" dx="0em" dy="0.3em" fill="rgb(50, 49, 63)" stroke="none" stroke-width="1px">0.2</text><text style="text-anchor: end; visibility: hidden; font-family: Roboto, sans-serif; font-size: 12px; font-weight: 200;" x="0" y="106.8119997024536" dx="0em" dy="0.3em" fill="rgb(50, 49, 63)" stroke="none" stroke-width="1px">0.3</text><text style="text-anchor: end; visibility: inherit; font-family: Roboto, sans-serif; font-size: 12px; font-weight: 200;" x="0" y="89.00999975204468" dx="0em" dy="0.3em" fill="rgb(50, 49, 63)" stroke="none" stroke-width="1px">0.4</text><text style="text-anchor: end; visibility: hidden; font-family: Roboto, sans-serif; font-size: 12px; font-weight: 200;" x="0" y="71.20799980163575" dx="0em" dy="0.3em" fill="rgb(50, 49, 63)" stroke="none" stroke-width="1px">0.5</text><text style="text-anchor: end; visibility: inherit; font-family: Roboto, sans-serif; font-size: 12px; font-weight: 200;" x="0" y="53.40599985122682" dx="0em" dy="0.3em" fill="rgb(50, 49, 63)" stroke="none" stroke-width="1px">0.6</text><text style="text-anchor: end; visibility: hidden; font-family: Roboto, sans-serif; font-size: 12px; font-weight: 200;" x="0" y="35.60399990081788" dx="0em" dy="0.3em" fill="rgb(50, 49, 63)" stroke="none" stroke-width="1px">0.7</text><text style="text-anchor: end; visibility: inherit; font-family: Roboto, sans-serif; font-size: 12px; font-weight: 200;" x="0" y="17.80199995040893" dx="0em" dy="0.3em" fill="rgb(50, 49, 63)" stroke="none" stroke-width="1px">0.8</text><text style="text-anchor: end; visibility: hidden; font-family: Roboto, sans-serif; font-size: 12px; font-weight: 200;" x="0" y="0" dx="0em" dy="0.3em" fill="rgb(50, 49, 63)" stroke="none" stroke-width="1px">0.9</text></g><line x1="51.41600036621094" y1="0" x2="51.41600036621094" y2="178.01999950408936" fill="rgb(0, 0, 0)" stroke="rgb(204, 204, 204)" stroke-width="1px"></line></g></g><g transform="translate(51, 0)" clip-path="url(#clip_0)"><clipPath id="clip_0"><rect width="278" height="178"></rect></clipPath><g><g><g><line x1="0" y1="0" x2="0" y2="178.01999950408936" fill="rgb(0, 0, 0)" stroke="rgb(60, 60, 60)" stroke-width="1px" opacity="0.25"></line><line x1="34.82299995422363" y1="0" x2="34.82299995422363" y2="178.01999950408936" fill="rgb(0, 0, 0)" stroke="rgb(60, 60, 60)" stroke-width="1px" opacity="0.25"></line><line x1="69.64599990844727" y1="0" x2="69.64599990844727" y2="178.01999950408936" fill="rgb(0, 0, 0)" stroke="rgb(60, 60, 60)" stroke-width="1px" opacity="0.25"></line><line x1="104.4689998626709" y1="0" x2="104.4689998626709" y2="178.01999950408936" fill="rgb(0, 0, 0)" stroke="rgb(60, 60, 60)" stroke-width="1px" opacity="0.25"></line><line x1="139.29199981689453" y1="0" x2="139.29199981689453" y2="178.01999950408936" fill="rgb(0, 0, 0)" stroke="rgb(60, 60, 60)" stroke-width="1px" opacity="0.25"></line><line x1="174.11499977111816" y1="0" x2="174.11499977111816" y2="178.01999950408936" fill="rgb(0, 0, 0)" stroke="rgb(60, 60, 60)" stroke-width="1px" opacity="0.25"></line><line x1="208.9379997253418" y1="0" x2="208.9379997253418" y2="178.01999950408936" fill="rgb(0, 0, 0)" stroke="rgb(60, 60, 60)" stroke-width="1px" opacity="0.25"></line><line x1="243.76099967956543" y1="0" x2="243.76099967956543" y2="178.01999950408936" fill="rgb(0, 0, 0)" stroke="rgb(60, 60, 60)" stroke-width="1px" opacity="0.25"></line><line x1="278.58399963378906" y1="0" x2="278.58399963378906" y2="178.01999950408936" fill="rgb(0, 0, 0)" stroke="rgb(60, 60, 60)" stroke-width="1px" opacity="0.25"></line></g><g><line x1="0" y1="178.01999950408936" x2="278.58399963378906" y2="178.01999950408936" fill="rgb(0, 0, 0)" stroke="rgb(60, 60, 60)" stroke-width="1px" opacity="0.25"></line><line x1="0" y1="160.21799955368041" x2="278.58399963378906" y2="160.21799955368041" fill="rgb(0, 0, 0)" stroke="rgb(60, 60, 60)" stroke-width="1px" opacity="0.25"></line><line x1="0" y1="142.4159996032715" x2="278.58399963378906" y2="142.4159996032715" fill="rgb(0, 0, 0)" stroke="rgb(60, 60, 60)" stroke-width="1px" opacity="0.25"></line><line x1="0" y1="124.61399965286255" x2="278.58399963378906" y2="124.61399965286255" fill="rgb(0, 0, 0)" stroke="rgb(60, 60, 60)" stroke-width="1px" opacity="0.25"></line><line x1="0" y1="106.8119997024536" x2="278.58399963378906" y2="106.8119997024536" fill="rgb(0, 0, 0)" stroke="rgb(60, 60, 60)" stroke-width="1px" opacity="0.25"></line><line x1="0" y1="89.00999975204468" x2="278.58399963378906" y2="89.00999975204468" fill="rgb(0, 0, 0)" stroke="rgb(60, 60, 60)" stroke-width="1px" opacity="0.25"></line><line x1="0" y1="71.20799980163575" x2="278.58399963378906" y2="71.20799980163575" fill="rgb(0, 0, 0)" stroke="rgb(60, 60, 60)" stroke-width="1px" opacity="0.25"></line><line x1="0" y1="53.40599985122682" x2="278.58399963378906" y2="53.40599985122682" fill="rgb(0, 0, 0)" stroke="rgb(60, 60, 60)" stroke-width="1px" opacity="0.25"></line><line x1="0" y1="35.60399990081788" x2="278.58399963378906" y2="35.60399990081788" fill="rgb(0, 0, 0)" stroke="rgb(60, 60, 60)" stroke-width="1px" opacity="0.25"></line><line x1="0" y1="17.80199995040893" x2="278.58399963378906" y2="17.80199995040893" fill="rgb(0, 0, 0)" stroke="rgb(60, 60, 60)" stroke-width="1px" opacity="0.25"></line><line x1="0" y1="0" x2="278.58399963378906" y2="0" fill="rgb(0, 0, 0)" stroke="rgb(60, 60, 60)" stroke-width="1px" opacity="0.25"></line></g></g></g><g><g><line x1="0" y1="160.21799955368041" x2="278.58399963378906" y2="160.21799955368041" fill="rgb(0, 0, 0)" stroke="rgb(153, 153, 153)" stroke-width="1.5px"></line></g></g><g><g><line x1="34.82299995422363" y1="0" x2="34.82299995422363" y2="178.01999950408936" fill="rgb(0, 0, 0)" stroke="rgb(153, 153, 153)" stroke-width="1.5px"></line></g></g><g><g><g><g><g><path style="fill: none;" stroke="rgb(255, 112, 67)" stroke-width="2px" d="M35.17122995376587,12.523200345201L35.24087595367432,7.940082630032886L35.58910595321655,8.346307813754256L35.798043952941896,-4.769543490193417L35.86768995285034,2.0650027142075484L36.076627952575684,3.807943563447416L36.21591995239258,-6.5688155805952L36.49450395202637,-5.667671633201159L37.330255950927736,8.530440585285936L37.608839950561524,-3.4287377584527037L37.74813195037842,1.9119315020008332L37.88742395019531,5.782909793067345L37.957069950103765,6.923467128039924L38.096361949920656,7.584874281844862L38.51423794937134,7.881296596973747L38.58388394927979,-13.869972922288664L38.65352994918823,-8.668695100729177L38.723175949096685,2.8658294398674213L38.79282194900513,8.541459997469326L39.3499899482727,19.829716464416666L39.55892794799804,21.117265003698066L39.76786594772339,18.719951685460614L39.83751194763183,12.919161689762689L39.90715794754028,21.298990494779122L39.97680394744873,23.176280591499086L40.32503394699096,25.506229978421768L40.88220194625854,21.29920454329324L40.95184794616699,10.332132324977612L41.36972394561767,17.726198305262606L41.926891944885256,17.770588070042077L42.13582994461059,3.8378814734897517L42.205475944519044,7.245738363288405L42.692997943878176,13.804277893530697L42.90193594360351,15.825943907541806L43.04122794342041,22.043447136782998L43.598395942687986,28.479763012595146L43.80733394241333,20.209986787636108L43.876979942321775,21.265070813762637L44.503793941497804,22.945544866598183L44.643085941314695,23.897541024080887L44.71273194122315,27.83868385000257L44.78237794113159,34.46984822432481L45.269899940490724,24.19939282829056L45.61812994003296,24.95233877892803L45.757421939849856,25.33104449506044L45.8270679397583,24.866841503524874L46.10565193939209,27.05190142649514L46.45388193893433,30.77099480526875L46.523527938842776,23.87826289381127L46.73246593856812,29.124455099873835L47.150341938018805,33.5825641061348L47.21998793792725,31.206043096055136L47.35927993774414,23.101541053476943L47.568217937469484,16.785696677364484L47.70750993728638,32.53531686362398L47.77715593719483,39.963804385513754L47.91644793701172,42.93245367597759L48.05573993682861,34.678499537555034L48.125385936737054,34.288673044657514L48.612907936096185,33.47656816472423L49.17007593536377,32.21595904989647L49.239721935272215,31.116278415482828L49.30936793518066,31.55987210800529L49.58795193481445,29.089158600193457L50.28441193389892,32.32542953994052L50.35405793380737,32.51200987296037L50.493349933624266,38.94636354269738L50.771933933258055,33.33521133563376L50.9808719329834,37.04161969214295L51.05051793289184,42.10107446510944L51.120163932800295,48.34125705983832L51.32910193252563,37.04210740937131L52.164853931427004,38.365845302473446L52.58272993087768,36.106396241955544L52.791667930603026,37.14504534240908L52.930959930419924,33.909933102823665L53.00060593032837,21.374247523910725L53.13989793014527,34.20984914847607L53.418481929779055,18.383629307637307L53.697065929412844,20.015548000225646L53.836357929229735,29.393752283907425L54.184587928771975,27.048159725778515L55.15963192749024,37.3492018800525L55.50786192703247,35.539829659169065L55.57750792694092,38.95276907922882L55.85609192657471,41.09537647432473L55.92573792648316,45.64792714362206L56.20432192611695,51.636635136510705L56.27396792602539,52.54838717188377L56.41325992584229,49.76884482498958L56.622197925567626,46.24351731831761L56.97042792510986,56.49442374236005L57.040073925018305,58.04649337406082L57.10971992492676,55.90870011266906L57.45794992446899,50.66154211407482L57.52759592437744,47.95693658227133L57.59724192428589,38.89065838562445L57.806179924011225,43.77493382254744L58.432993923187254,52.984922249696126L58.572285923004145,52.31287712144228L58.99016192245483,44.557142037895154L59.40803792190552,43.11262906367807L59.47768392181396,48.36467966969557L59.89555992126465,52.672429865556445L60.10449792098999,48.48662207709062L60.38308192062378,47.67577153738095L60.66166592025757,48.78513685474704L60.80095792007446,52.82030645224972L61.079541919708255,54.01627882392443L61.1491879196167,49.53483265554674L61.218833919525146,52.37669298696091L61.358125919342044,55.29918418623286L61.70635591888428,53.93755471269923L62.05458591842651,46.06502339785456L62.124231918334964,39.449697474821086L62.19387791824341,46.229511814515575L63.23856791687012,50.32003117274005L63.72608991622925,54.838588460826024L64.14396591567993,50.877877633604946L64.21361191558839,54.91443480108641L64.35290391540528,56.91518325880403L64.49219591522217,57.84345634170395L64.77077991485596,61.06172390736557L65.39759391403197,55.420116546218956L65.53688591384888,63.21538782259693L65.60653191375732,72.1452500578258L65.81546991348266,70.07041189169541L66.23334591293334,69.05828064692828L66.79051391220092,60.70010857821103L66.86015991210937,50.661767819980085L67.06909791183472,49.47870162546558L67.13874391174316,37.37018977702371L67.76555791091918,38.14077461163037L67.83520391082763,52.1935153282515L68.60130990982056,53.929017905186875L68.8102479095459,44.186769220367175L68.87989390945434,52.00411831135428L69.01918590927124,58.790126286586656L69.15847790908813,62.70008161329119L70.13352190780638,60.9851034470494L70.48175190734864,58.54871027023052L70.62104390716553,68.34315779578378L70.82998190689086,71.82267680788671L70.96927390670776,68.44526475339057L71.31750390625,60.96988616847467L71.38714990615844,55.48401635826427L71.80502590560913,60.403536563522344L71.94431790542602,62.77797345453973L72.01396390533448,62.65470387177492L72.15325590515137,62.183477309322704L72.22290190505981,69.528370933485L72.43183990478516,63.05386995109998L72.57113190460205,65.85152351671421L72.91936190414428,55.801922423315915L72.98900790405274,53.99149021144814L73.61582190322875,44.773863309399076L73.75511390304565,51.479271747025585L74.03369790267944,55.11933891989133L74.1033439025879,57.00883987010691L74.17298990249634,57.44232401676801L74.45157390213012,60.31011236394023L74.73015790176392,47.59575952210488L74.79980390167236,48.29629256633077L75.0087419013977,54.038511022011576L75.1480339012146,52.07305027041645L75.21767990112305,57.68931994549133L75.2873259010315,59.246316728063036L75.35697190093995,49.93283213934733L75.42661790084838,44.01288590494092L75.49626390075684,55.74976265133566L75.63555590057373,63.96474070377119L75.70520190048218,64.85209635189976L76.05343190002442,70.32843190360411L76.12307789993287,65.51597778094971L76.40166189956665,63.76543756804107L76.610599899292,63.581839077224735L76.74989189910889,58.63757342834165L77.16776789855957,59.38806876288722L77.30705989837647,68.33397536096312L77.6552898979187,64.46451503326337L77.93387389755249,66.90614151912557L78.00351989746095,69.4643246090784L78.14281189727784,62.69626872594866L78.9785638961792,62.913687639387426L79.46608589553833,58.73792067001688L79.53573189544677,60.549077408285044L79.67502389526366,57.80159450908792L79.74466989517212,64.21070380980476L79.81431589508055,60.05451907554428L79.88396189498901,59.197560994653465L80.0232538948059,63.01349578323794L80.23219189453124,64.19239253880849L80.51077589416504,67.38698504674893L80.58042189407348,69.25176239437613L80.85900589370728,67.6810026894008L81.06794389343261,69.43849094020081L81.3465278930664,63.243854969815594L81.55546589279174,69.27958096334697L81.62511189270019,74.81802014399415L81.69475789260865,64.2717332872326L81.76440389251708,63.82296174569244L81.83404989242554,64.27480582435571L81.97334189224243,69.99894364416909L82.04298789215088,62.86571289312929L82.11263389205934,70.7910704111315L82.32157189178466,68.22253860086772L82.39121789169312,62.95173791642231L82.46086389160156,72.28116866838025L82.60015589141845,78.18520178038558L82.73944789123534,71.81389541263604L82.8090938911438,60.11240883511782L83.29661589050292,70.6259862637704L83.50555389022827,67.54979084842421L83.78413788986207,70.24934517631073L83.9930758895874,71.20712820661497L84.13236788940429,74.57959294770019L84.27165988922118,77.2770349278621L84.55024388885498,67.8825736920939L84.82882788848877,69.78452084172864L85.03776588821411,76.0074267315081L85.10741188812256,65.01059703394412L85.17705788803102,66.10275807412135L85.24670388793945,69.21896036749881L85.66457988739013,71.93643735854384L86.08245588684082,80.989452353247L86.22174788665771,82.66885986649578L86.29139388656617,87.77673274370314L86.56997788619996,78.53728889151222L86.77891588592529,76.81667301772703L86.84856188583375,75.19492980568467L87.05749988555908,71.90082243492046L87.12714588546753,72.77990125578326L87.19679188537597,65.29759156802164L87.33608388519288,75.20858515984867L87.47537588500977,68.00064361565049L87.89325188446045,66.34837045243111L88.10218988418579,69.04880965171532L88.17183588409424,73.7117955031551L88.38077388381957,74.14496815916925L88.45041988372803,78.28621802897757L88.52006588363646,75.55403366378061L88.65935788345337,75.75500192037057L88.72900388336181,69.99156550666338L89.1468798828125,79.68209717702301L89.4254638824463,76.17259417299897L89.49510988235473,76.82807784634836L89.63440188217163,74.58082970689321L89.77369388198852,71.45504346097069L89.91298588180541,74.03042185804091L89.98263188171387,73.06176340857695L90.0522778816223,72.9328353921965L90.12192388153076,74.8925499484873L90.19156988143921,77.57005996250619L90.40050788116456,73.8401092983329L90.53979988098145,71.01814489720617L90.67909188079834,73.03724823409432L90.88802988052367,77.68568603050493L91.02732188034057,76.14853748607169L91.09696788024903,76.66779388499998L91.16661388015747,81.48233094407274L91.58448987960816,88.06851608749791L91.6541358795166,86.27943888283204L91.7934278793335,84.3057622015555L92.00236587905883,68.71444104051017L92.28094987869262,67.06993193990091L92.48988787841797,73.92192008291082L92.69882587814331,83.8665294635254L92.76847187805177,84.95455518916025L92.90776387786866,73.35446603397354L93.04705587768555,71.08195822120094L93.18634787750244,70.59088779099855L93.53457787704468,64.85795470978499L93.74351587677002,72.7919209577128L93.88280787658692,75.94602858498472L94.92749787521362,72.37501649867288L95.20608187484741,72.73945500077187L95.3453738746643,79.79157031726349L95.41501987457276,74.60398276311956L95.69360387420654,71.2713618480294L95.83289587402344,76.66831947074596L95.90254187393188,68.39628947372154L96.11147987365722,74.93338676300854L96.25077187347411,64.49573963945471L96.39006387329101,75.16816889698677L96.59900187301636,68.1384083285361L96.73829387283325,67.6458534397384L96.8079398727417,78.02888941806724L96.94723187255859,81.01730321270445L97.22581587219237,76.81475075097403L97.50439987182617,75.95128280214618L97.9919218711853,72.37311403487755L98.06156787109374,70.07104864855242L98.1312138710022,75.07073991903965L98.20085987091063,76.5767869497735L98.34015187072754,80.55894476931812L98.54908987045289,74.78035156985585L98.61873587036132,81.46943639389514L98.68838187026978,78.93133694135979L98.89731986999512,80.38282772947323L98.96696586990356,83.25285140247605L99.036611869812,77.88046152347678L99.10625786972047,74.8421609187541L99.66342586898804,77.15277358391816L99.73307186889647,80.99615692610342L99.94200986862182,74.63076263248861L100.42953186798096,79.5322397308904L100.6384698677063,84.75678854141022L101.19563786697388,81.04855407448764L101.26528386688233,74.15826342483032L101.40457586669922,78.40870926738756L101.47422186660768,77.14108743767306L101.54386786651611,71.77783823286168L101.75280586624146,71.28286674928353L101.8224518661499,76.38253358479913L101.9617438659668,75.63420842635013L102.10103586578369,75.23269037906869L102.44926586532593,73.31176860481449L102.51891186523437,66.98029557273243L102.79749586486817,66.70451344206747L102.86714186477661,75.0624114630851L102.93678786468506,73.10590384492973L103.00643386459352,70.25903391185653L103.21537186431884,71.98005908415504L103.2850178642273,76.24735047642636L103.35466386413574,83.14032424700643L103.5636018638611,75.84586494726453L103.63324786376953,67.98681624584506L104.1904158630371,67.02538862004657L104.4689998626709,74.4720597455287L104.60829186248779,74.60356931508886L104.7475838623047,76.9484684727824L104.81722986221313,76.50704364773938L105.02616786193848,76.74713427719156L105.23510586166381,76.76976268846147L105.30475186157227,72.1561250486067L105.3743978614807,74.39591577432672L105.44404386138916,74.98178726692403L105.6529818611145,77.64317506998823L106.21014986038207,84.52389418358342L106.34944186019897,81.54876867661389L106.48873386001587,76.81377326207948L106.62802585983276,78.70250182072459L106.6976718597412,78.99764555252277L106.90660985946654,80.21842254286943L107.04590185928345,77.7968695264651L107.18519385910034,78.42455588323368L107.53342385864258,87.61996353683351L108.02094585800171,79.44822046237297L108.09059185791016,80.44324070949315L108.29952985763549,71.96269734582883L108.43882185745238,79.30922811738847L108.85669785690307,74.40845347957702L108.92634385681153,81.38294790899134L109.06563585662842,72.81052659809383L109.20492785644532,72.29945172261634L109.4835118560791,73.59801359260379L109.7620958557129,79.03326078305997L109.90138785552979,84.23086231278357L110.24961785507202,81.7876882633821L110.31926385498048,84.28537668888215L110.38890985488891,77.3048037722239L110.87643185424805,77.95520350445241L110.9460778541565,56.89545873361901L111.36395385360717,66.66055928677255L111.64253785324097,79.07449327408219L111.71218385314943,75.76536785086932L111.78182985305786,70.33073133831569L112.4086438522339,77.03643902346698L112.54793585205078,85.03064213621266L112.75687385177612,84.96581523319404L113.1747498512268,72.24990856070107L113.24439585113525,81.52157814223033L113.52297985076903,76.8192875179533L113.73191785049438,87.07878204968527L113.80156385040283,86.73987031995287L113.87120985031127,85.43166328243511L114.08014785003661,81.96749881584688L114.84625384902954,79.33799516902411L115.05519184875487,79.84830901043223L115.26412984848022,83.04220619480986L115.33377584838867,85.97953447089213L115.40342184829711,78.61174626319159L115.61235984802245,82.33743187834743L115.68200584793091,84.96715613043482L115.75165184783936,83.11227831441681L116.79634184646606,88.71747060581095L117.0052798461914,82.04478439718069L117.14457184600829,79.459259799314L117.21421784591675,86.14179402597868L117.35350984573364,84.96515377167606L117.42315584564209,84.79152925511035L117.63209384536744,86.38138026057135L117.84103184509277,82.79449280797384L117.91067784500123,84.3633368189316L118.04996984481812,78.8215560038239L118.18926184463501,82.59527174357467L118.3285538444519,86.08115871432973L118.46784584426881,79.69681762246427L118.67678384399414,85.13668165432692L118.81607584381103,84.45593691910227L118.95536784362793,91.23482371211098L119.09465984344482,92.68837156305784L119.23395184326172,87.83827667153584L119.37324384307861,95.6716631945772L120.06970384216308,88.40207391471984L120.34828784179687,85.1905819181079L120.62687184143066,87.54510755396095L120.69651784133912,97.18205215250319L120.76616384124756,89.13935546551942L120.90545584106445,89.07183446809157L121.1143938407898,95.45403353215538L121.32333184051514,94.11820372374606L121.46262384033203,89.44301632937078L121.67156184005738,82.17465182306947L122.08943783950805,86.24609753375991L122.22872983932494,83.29391746815553L122.36802183914183,77.65881981343473L122.43766783905029,77.71162804496177L122.64660583877563,84.60631845172489L122.71625183868409,76.46751670858423L122.78589783859252,71.85855503983484L122.99483583831787,72.94351525782643L123.55200383758545,71.00141735996196L123.90023383712769,73.10811496102461L124.03952583694458,77.95821890867752L124.45740183639526,79.55979541985133L124.73598583602904,85.85819329394681L124.8056318359375,82.78444264692996L124.87527783584594,86.19058882407467L124.9449238357544,79.98445401830503L125.36279983520508,77.45602882232669L125.57173783493042,90.58690987909718L126.05925983428955,93.12173040698413L126.19855183410645,86.59479412546293L126.40748983383179,81.9063833283498L126.47713583374023,83.67297050288613L126.68607383346557,83.77242724248495L126.75571983337403,87.2912197372634L127.10394983291626,87.94954944478765L127.17359583282472,89.40320988594387L127.24324183273315,92.02374440331842L127.4521798324585,87.78182661289392L127.66111783218383,82.46869953882205L127.7307638320923,77.33616154947956L127.80040983200072,81.60969852504822L127.87005583190918,77.24589825292004L127.93970183181763,86.71309669200299L128.35757783126832,93.07195003171695L128.775453830719,85.96943825871958L129.1933298301697,91.0707458382098L129.47191382980347,91.94963619785592L129.61120582962036,89.92347473923257L129.9594358291626,82.51577511326795L130.23801982879638,88.27852537303623L130.7255418281555,84.489083885248L130.8648338279724,90.97129692075947L131.07377182769775,96.23896161986428L131.21306382751465,95.71353174972049L131.2827098274231,94.76223375863385L131.49164782714843,92.23294610050495L131.5612938270569,84.51160760107834L131.70058582687378,83.61293415496444L131.7702318267822,81.7142698562027L131.97916982650756,80.7652107839481L133.16315182495117,86.89771706720697L133.23279782485963,89.30489877249218L133.30244382476806,90.51271386550545L133.37208982467652,85.58584312832589L133.6506738243103,90.56512978089587L133.85961182403565,90.3321336282665L134.13819582366943,90.28490684235483L134.2078418235779,84.21956873937111L134.27748782348633,84.84908980558511L134.5560718231201,89.47086895251279L134.62571782302857,92.03738836342305L134.695363822937,90.44179880038484L134.83465582275392,91.20920395363127L134.9739478225708,93.43680252437906L135.1132398223877,86.56648113858986L135.2525318222046,88.29983048135632L135.80969982147215,84.90043901591363L136.15792982101442,89.34855162996199L136.22757582092285,80.28791446841635L136.85438982009887,88.40496662751329L136.92403582000733,87.45351062730118L137.69014181900025,89.89101213847961L138.0383718185425,88.49891628690528L138.24730981826784,84.82984224528255L138.31695581817627,90.94830054643212L138.52589381790162,90.74306090121284L138.6651858177185,83.6479258038332L138.73483181762694,79.02212303527381L139.29199981689453,84.81868474387093L139.36164581680296,85.49591735960243L139.43129181671142,75.2602613877887L139.50093781661988,78.85684916948009L139.7098758163452,84.36951832084891L139.84916781616212,84.97382271913364L139.91881381607055,90.93714781753529L139.98845981597898,91.26531858271755L140.54562781524658,90.21463704018488L140.89385781478882,85.77239755697032L140.96350381469728,74.87350410674796L141.17244181442263,81.62476402148155L141.65996381378173,82.99213938473535L141.79925581359865,75.08127406390388L142.4957158126831,81.6441730394395L142.84394581222534,89.05450449353462L142.9135918121338,87.62395228706761L143.05288381195066,93.57500571914181L143.12252981185915,86.84392907495567L143.54040581130982,88.15668828260107L143.61005181121826,86.28792743442126L144.02792781066896,96.00239243053414L144.0975738105774,97.11418895595199L144.7243878097534,97.78186956571244L145.0029718093872,92.40943062943055L145.1422638092041,92.14109516789756L145.4208478088379,94.1374219112628L146.0476618080139,94.64418201426832L146.18695380783083,96.71549966305987L146.39589180755615,97.33809850234394L146.53518380737304,98.98888419104927L146.6048298072815,98.0023287397676L146.95305980682372,99.84380001801743L147.16199780654907,91.67104755094535L147.5102278060913,98.41856112523004L147.6495198059082,96.27316293811154L147.928103805542,88.55397034011605L148.06739580535887,94.44590413240137L148.13704180526733,89.10971742687978L148.2066878051758,91.7515573525251L148.34597980499268,89.6171278967574L148.48527180480957,82.26189316020736L148.8335018043518,87.97132705599951L149.04243980407716,96.14567685625953L149.18173180389402,89.21768729065602L149.39066980361937,95.57258611510916L149.59960780334472,92.87361920414732L149.87819180297853,94.62769000165636L150.08712980270386,94.47819622114088L150.36571380233764,94.2744718493208L150.4353598022461,80.33631870039618L150.50500580215456,82.01511527679689L150.9925278015137,87.43571926753877L151.13181980133055,97.13384638950177L151.27111180114747,96.52923216605669L151.4800498008728,93.50155223766461L151.54969580078125,92.56640197842644L151.96757180023192,90.18534205442245L152.03721780014038,94.56880121546497L152.31580179977416,93.84831967071918L152.59438579940795,95.99295935059429L152.8033237991333,105.20879955616155L152.87296979904173,99.02796527158597L152.94261579895021,104.0909065780898L153.01226179885865,100.33179676144223L153.15155379867554,96.30630410507744L153.3604917984009,95.97499030743992L153.84801379776002,91.88059056781803L153.91765979766845,92.62509045893239L154.2658897972107,93.79403487696733L154.40518179702758,94.40689668789926L154.47482779693604,90.30895304890709L154.54447379684447,89.7439888335791L155.17128779602052,83.83813970083135L155.4498717956543,94.23289997681893L155.51951779556276,94.13388342122315L155.5891637954712,92.46144651911156L155.65880979537963,96.68053391025315L155.79810179519654,98.85443570487428L156.14633179473876,92.16419327229934L156.21597779464722,91.91133267385479L156.3552697944641,97.18508078007441L156.42491579437257,97.1296464419255L156.494561794281,87.65583421481058L156.70349979400635,88.59899429045177L156.84279179382324,87.47745606109535L156.9124377937317,88.42610392356022L156.98208379364013,95.31894594325901L157.60889779281615,91.15360597618567L157.8178357925415,94.07086636469359L158.44464979171752,89.45680889611204L158.86252579116822,92.79433403583404L158.93217179107666,97.32575103818628L159.35004779052733,101.86191618118659L159.41969379043582,99.97275821868355L159.48933979034425,93.2224837901662L159.6286317901611,95.74602274757497L160.0465077896118,95.6830070647243L160.46438378906248,90.51702498963675L160.53402978897097,92.88253161821316L161.09119778823853,91.82445344660346L161.16084378814696,97.30493976186595L161.3697817878723,93.5780563302874L161.57871978759763,101.04705017452052L161.85730378723144,102.91653612680801L161.99659578704834,106.34971606096782L162.27517978668214,102.15323269982852L162.6930557861328,98.69535358649932L162.9716397857666,101.35907189678483L163.04128578567506,96.89601480937361L163.25022378540038,102.29130959160652L163.3895157852173,100.7532975392071L163.59845378494265,104.95626917241577L163.87703778457643,101.49334023611503L164.01632978439332,103.65557907142939L164.1556217842102,104.18688067343514L164.22526778411867,106.68576683863131L164.2949137840271,103.1293468330733L164.78243578338623,95.93076212800221L164.92172778320312,88.29522322239544L164.99137378311158,88.41604816824925L165.40924978256226,89.6061658283326L165.4788957824707,95.08527715898958L165.54854178237915,95.84405849956892L165.68783378219604,94.19930619398669L165.82712578201293,100.48626449610892L166.6628777809143,101.91413397410713L167.28969178009035,101.06917317863547L167.56827577972413,106.72045492608926L167.91650577926637,103.44727322370089L167.9861517791748,98.01261629380737L168.33438177871702,95.54124159110776L168.4040277786255,105.23252895900521L168.47367377853394,108.36995728899163L168.75225777816772,102.17231818865785L168.82190377807618,99.12083903067449L169.23977977752688,101.22499704403614L169.51836377716066,107.93972953541983L169.5880097770691,105.14006570092168L169.65765577697755,105.86597346775905L169.79694777679444,98.86431668750255L169.86659377670287,94.0284921836953L170.2148237762451,94.89386151105393L170.42376177597046,99.91072908531171L170.56305377578735,91.98241539853873L170.7719917755127,92.4017305260802L170.98092977523805,97.62266104302947L171.1898677749634,96.06387924404481L171.32915977478027,100.37544786137211L171.74703577423097,92.56471820497275L171.8166817741394,98.7290332021132L171.9559737739563,98.53834115387406L172.0952657737732,96.45414200536136L172.72207977294923,93.52444558072871L172.79172577285766,96.3494764568598L172.86137177276612,95.8711552366339L172.93101777267458,101.58266636304388L173.9060617713928,104.3784372903543L174.1846457710266,105.48681616674246L174.4632297706604,101.58250233403952L174.53287577056884,95.40058447863424L174.7418137702942,92.78675676110197L174.81145977020262,95.98365366098075L175.02039776992797,102.48538965562837L175.1596897697449,97.5053201960337L175.29898176956175,99.66033604231347L175.647211769104,91.0040879271832L175.85614976882934,89.20538726284464L175.99544176864626,98.65107626399555L176.0650877685547,93.6465228045568L176.20437976837158,104.51721883172102L176.41331776809693,101.97072557018664L176.62225576782228,97.02674227694366L176.76154776763914,98.74337989467804L176.9704857673645,101.7082155692885L177.17942376708984,100.37551981713818L177.24906976699828,96.27615841370587L177.45800776672363,98.51627483849789L177.66694576644898,103.1178108989556L178.22411376571657,97.61318903399028L178.293759765625,98.06363443163438L178.4330517654419,102.52319513060232L178.78128176498413,104.87190823570282L179.12951176452637,105.75527452820079L179.1991577644348,96.42816193207643L179.26880376434326,95.71313843038037L179.40809576416015,100.51804865956068L179.4777417640686,99.06519988321895L179.6170337638855,98.27369567481149L179.7563257637024,102.16940216020915L179.96526376342774,99.12815317505272L180.03490976333617,98.87522045452799L180.31349376296996,101.58459172273211L180.6617237625122,103.80172306817511L180.80101576232911,102.71615398726374L181.2188917617798,106.45660074355044L181.28853776168825,106.32226276108659L181.35818376159668,102.90742236960268L181.42782976150514,98.98555581483373L181.49747576141357,101.26722669323608L181.70641376113892,100.73412110322742L181.84570576095584,99.93601965574778L182.05464376068113,94.59410379692558L182.12428976058962,96.26954471117068L182.33322776031494,97.50901974166266L182.47251976013183,98.71396766546268L182.61181175994872,93.88416335009371L182.68145775985718,100.06756703671061L182.75110375976564,97.19890369416349L183.02968775939942,105.79087089316027L183.3082717590332,101.85366920346603L183.37791775894166,100.80148933480544L183.4475637588501,100.34454051084256L183.72614775848388,97.16771381535965L183.7957937583923,96.5539773330249L183.93508575820923,100.0935578349769L184.00473175811766,99.06148308633406L184.14402375793458,92.64123991603938L184.213669757843,102.49112131574734L184.28331575775147,104.83318884990308L184.42260775756836,107.21223939099158L184.49225375747682,108.3175867986132L184.63154575729368,108.28954283946835L184.84048375701903,107.68573233261145L184.97977575683595,103.09450206029933L185.04942175674438,100.4219446887764L185.46729775619505,99.54767698913287L185.53694375610354,103.46358488882393L185.60658975601197,107.12167702880575L185.88517375564575,105.37566570943117L186.02446575546264,103.48826778340421L186.16375775527953,105.2281607086675L186.44234175491334,105.64364949678226L186.92986375427247,102.22726138623926L187.1388017539978,99.02356775886273L187.2780937538147,99.76669589817021L187.41738575363158,92.62355811201941L187.48703175354004,98.19342840550375L187.76561575317385,102.53670841004458L187.9049077529907,105.02584705308628L187.97455375289917,104.85828507060873L188.04419975280763,99.61921056790862L188.25313775253295,105.8287676243201L188.3227837524414,106.26356064132902L188.53172175216673,105.43004084138953L188.60136775207522,106.60826552009925L188.8103057518005,108.43857832803137L189.01924375152586,107.19307381484406L189.29782775115967,99.3603331660449L189.71570375061037,90.06816510124247L189.7853497505188,91.31767078240782L189.99428775024415,98.37581794561113L190.0639337501526,101.09803215497736L190.20322574996948,102.15527598233275L190.3425177497864,102.77178124795957L190.41216374969483,105.53501189362092L190.55145574951175,108.22816298803765L190.62110174942018,110.77762107377535L190.76039374923704,110.29396096082912L190.83003974914553,104.40821961269515L190.89968574905396,104.09606328323484L190.9693317489624,106.32506939461813L191.1086237487793,105.33455066245166L191.2479157485962,109.36274078404273L191.31756174850463,104.02744367144132L191.5961457481384,99.35695348756909L191.66579174804687,100.14585069028367L191.80508374786376,92.58154467757531L192.0140217475891,96.14620573064275L192.153313747406,107.45463219376424L192.36225174713135,100.23553786402833L193.19800374603273,98.17560504092019L193.4765877456665,104.84002812896412L193.68552574539186,103.20451756519836L194.0337557449341,104.26862481882476L194.17304774475096,104.15344515254262L194.3819857444763,102.54430432893766L194.799861743927,104.86294253943032L194.86950774383544,109.43946675245246L195.00879974365233,106.80096476763623L195.21773774337768,106.55853416984976L195.42667574310303,105.19143526158342L195.49632174301146,99.3477129336578L195.56596774291992,95.12486727617288L196.19278174209595,93.6296916528329L196.2624277420044,104.2200401928227L196.33207374191284,107.07075748251822L196.40171974182127,108.51671107475035L196.5410117416382,105.85947319967318L196.68030374145508,105.58058339569081L196.88924174118043,109.67589980860541L197.23747174072264,103.47094982390738L197.37676374053956,103.13487892896414L197.446409740448,105.24727135130551L197.51605574035642,107.54461410231359L197.5857017402649,105.15094581122828L198.14286973953247,103.48599255984006L198.7696837387085,105.62194034571942L199.11791373825073,101.39421483884965L199.6750817375183,107.38852614203705L199.74472773742676,106.7107005359687L199.9536657371521,106.06782532240729L200.2322497367859,108.62196549269669L200.44118773651124,116.65425840595215L200.71977173614502,113.53510866153636L200.92870973587034,107.28789751193082L201.1376477355957,105.77985210192797L201.20729373550412,109.26631010794705L201.2769397354126,107.93329483993199L201.41623173522947,107.3711086004047L201.97339973449706,100.27949922778915L202.11269173431398,107.51559837986258L202.25198373413085,102.78478494139135L202.39127573394777,102.66601527407168L202.73950573349,101.70211409499623L203.08773573303222,95.6282562963268L203.6449037322998,98.24742308790478L203.71454973220824,101.03046009075291L203.7841957321167,102.27339843997703L204.0627797317505,108.54507429236571L204.27171773147583,100.238154539685L204.48065573120118,102.55916946536449L205.03782373046874,103.20218136861725L205.17711573028566,88.99941986758407L205.45569972991944,91.6969276321659L205.52534572982788,98.00735811726881L205.59499172973634,105.57371212905873L205.66463772964477,101.4070251144712L205.8039297294617,96.17676221118161L205.94322172927855,102.60745999260261L206.1521597290039,106.62477567348472L206.36109772872925,106.6654891109083L206.43074372863768,101.54609142804233L206.5700357284546,107.74460530290345L206.7093277282715,107.6124978327795L207.19684972763062,108.68473426564735L207.4754337272644,99.29575701264243L207.6147257270813,101.819439761146L207.7540177268982,103.91545333986367L207.89330972671507,105.88073307187487L207.96295572662356,102.95079340862377L208.10224772644042,102.79470673099712L208.31118572616577,92.76345626925712L208.45047772598267,97.13912141979081L208.65941572570802,99.23113799115961L208.7987077255249,105.42127000027365L209.00764572525023,99.64295099853295L209.0772917251587,103.4798445878614L209.14693772506715,103.87803058625892L209.8433977241516,102.5847484344158L209.91304372406003,96.83591278886911L210.05233572387695,101.60773589298083L210.12198172378538,101.46469777124356L210.19162772369384,96.79747984947068L210.2612737236023,99.20666429896059L210.47021172332762,103.98098832007254L210.53985772323608,111.23061715138579L210.67914972305297,109.84451366316317L210.88808772277832,107.64684870824357L211.0273797225952,106.79001134928181L211.1666717224121,107.89874666575218L211.305963722229,106.41682287762798L211.93277772140505,107.38523462650485L212.00242372131348,104.24145771040577L212.21136172103883,105.55222066441777L212.35065372085572,98.69225074854619L212.4899457206726,98.66596062517979L212.6292377204895,104.09180492703821L212.76852972030642,108.09444472817508L212.83817572021485,111.3917217812011L213.0471137199402,103.48721591706759L213.46498971939087,102.82075182862711L213.5346357192993,95.18919500735095L213.81321971893308,98.36489136683534L214.02215771865843,101.05497923525267L214.23109571838378,104.72819929156073L214.37038771820067,110.98435528911963L214.44003371810913,113.63570259095832L214.71861771774294,106.38021401227053L214.99720171737673,102.64826919430155L215.20613971710205,102.90410265586662L215.2757857170105,99.66732515221358L215.34543171691894,96.98606868897859L215.4150777168274,100.94938683798067L215.62401571655275,104.5478383539221L215.90259971618653,107.98193284263205L216.04189171600342,107.58873105585006L216.3204757156372,105.33123253532227L216.39012171554566,108.91825541861269L216.52941371536255,109.33630058337616L216.59905971527098,103.53823092288535L216.94728971481325,107.21622938957103L217.15622771453857,102.11756671153098L217.22587371444703,96.98323036494129L217.36516571426392,98.97472516699412L217.50445771408081,97.5152238532009L217.6437497138977,103.72539392722014L217.71339571380614,106.5523712604771L217.9223337135315,97.10239118447547L217.99197971343995,102.19757967596355L218.13127171325684,100.40504561119982L218.34020971298216,97.71458401186992L218.40985571289065,103.85862794731229L218.5491477127075,98.08830633048488L218.9670237121582,102.27120196333048L219.17596171188353,111.46211569719257L219.38489971160888,106.83709279018039L219.4545457115173,103.53756292723884L219.73312971115112,108.81025479552238L220.15100571060182,109.46095850195533L221.05640370941163,114.96915584981744L221.3349877090454,112.27705273138018L221.47427970886233,107.51052409611084L221.82250970840454,105.09769588865649L222.0314477081299,109.63211971845074L222.17073970794678,100.7747132592336L222.44932370758056,106.05315805539517L222.7975537071228,100.84283491269352L223.07613770675658,106.17663839425258L223.35472170639036,102.49032928723834L223.56365970611571,103.03835413667281L224.19047370529174,102.65156269122932L224.60834970474244,109.37626428108614L225.3048097038269,101.05816837151882L225.37445570373538,91.62919366375473L225.4441017036438,94.31696319187914L225.65303970336916,95.57428768549858L225.7226857032776,105.1325031725894L226.07091570281983,101.90027509529533L226.21020770263672,100.8885126875295L226.4887917022705,106.50330622703883L226.55843770217896,101.18852165553986L226.6280837020874,105.65236444999616L226.69772970199585,103.21270506901048L226.76737570190429,105.4228184527543L226.83702170181274,107.44071187093544L226.9066677017212,101.17018611736158L227.46383570098877,103.59559513385429L227.67277370071412,100.82857078059811L228.0906497001648,100.3255635819552L228.36923369979857,101.96199085145581L229.06569369888308,86.2117212705682L229.1353396987915,91.8987478198166L229.20498569869994,96.41584709284538L229.69250769805907,99.97101432790632L230.04073769760132,102.44275470768193L230.24967569732667,110.17338858296021L230.38896769714356,94.94773988462124L230.45861369705202,99.65541166602617L230.52825969696045,102.66608605393087L230.5979056968689,105.70072904341873L230.8764896965027,87.57050999271037L231.43365769577025,96.4788711493303L231.5033036956787,92.47612570761062L231.71224169540406,95.26859734700527L231.85153369522095,102.29553009023822L231.9211796951294,100.76654252108027L232.06047169494627,101.4850305299429L232.40870169448854,101.2039570076221L232.89622369384765,96.65034320157841L233.03551569366456,107.2607808924128L233.24445369338991,102.41706356649381L233.38374569320678,107.07798743171723L233.73197569274902,110.47726384871488L233.94091369247437,103.81474862221417L234.14985169219972,107.40383276719125L234.77666569137574,102.27038618475684L234.84631169128417,100.31938151273341L235.05524969100952,96.1542422281361L235.26418769073487,96.71391818083174L235.40347969055176,102.34383052490604L235.4731256904602,101.78346641316205L235.8910016899109,104.90822753475815L236.09993968963624,102.45041736325803L236.16958568954468,100.08043281047465L236.30887768936157,100.22004477516477L236.51781568908692,98.9856278081472L236.6571076889038,103.12333129686502L236.7963996887207,110.33614819565392L237.00533768844605,105.4938031703668L237.07498368835448,102.40031726920954L237.14462968826294,99.20303096096151L237.63215168762207,98.40509585773837L237.98038168716428,109.02705513469701L238.1196736869812,105.06370577868555L238.18931968688963,106.63450178309343L238.2589656867981,104.50450644002393L238.53754968643187,99.5108296724276L238.60719568634033,105.01555539594517L238.95542568588257,104.77832880864818L239.025071685791,108.25844788591853L239.30365568542481,106.79725985310846L239.51259368515014,107.35661949865643L239.5822396850586,102.57971570055102L239.7215316848755,105.6681124134792L240.20905368423462,105.78165736713474L240.27869968414308,104.49892948230851L240.62692968368532,103.35651983065061L241.46268168258666,100.43027919626388L241.8109116821289,99.42507623066295L241.95020368194582,98.6454944119399L242.01984968185425,100.86489062481449L242.2287876815796,105.50473973811039L242.29843368148804,103.31508041544033L242.92524768066406,98.5606546615544L243.34312368011476,97.63285055536032L243.62170767974854,98.9733909877031L243.691353679657,104.98153456211266" fill="none"></path></g></g></g></g><g opacity="0.2"><g><g><g><path style="fill: none;" stroke="rgb(255, 112, 67)" stroke-width="2px" d="M35.17122995376587,12.523200345201L35.24087595367432,5.190212000932017L35.58910595321655,8.736283990126745L35.798043952941896,-20.193784623635832L35.86768995285034,10.988186238673487L36.076627952575684,6.219058216651926L36.21591995239258,-21.407747184722478L36.49450395202637,-4.353795106918805L37.330255950927736,29.469898266237106L37.608839950561524,-21.186723828423663L37.74813195037842,9.87449591556206L37.88742395019531,11.568311536749585L37.957069950103765,8.630579012908848L38.096361949920656,8.575689247083895L38.51423794937134,8.32558163636285L38.58388394927979,-46.48153652069713L38.65352994918823,-0.8689793748490432L38.723175949096685,20.16468763623099L38.79282194900513,17.054041208681877L39.3499899482727,36.76106937348383L39.55892794799804,23.048517200398276L39.76786594772339,15.124060592720335L39.83751194763183,4.218091222695231L39.90715794754028,33.86863443524269L39.97680394744873,25.992202393604526L40.32503394699096,29.001144122635917L40.88220194625854,14.98867715522554L40.95184794616699,-6.118459165456652L41.36972394561767,28.81729046471035L41.926891944885256,17.83717269267775L42.13582994461059,-17.06117380110167L42.205475944519044,12.357523019936972L42.692997943878176,23.642086405936237L42.90193594360351,18.858442783750643L43.04122794342041,31.36970171343658L43.598395942687986,38.134236660346154L43.80733394241333,7.80532257814455L43.876979942321775,22.84769684315817L44.503793941497804,25.466255936491546L44.643085941314695,25.325535257123573L44.71273194122315,33.7503980809826L44.78237794113159,44.41659477783035L45.269899940490724,8.79370974165287L45.61812994003296,26.081757704558054L45.757421939849856,25.899103069160656L45.8270679397583,24.17053701629389L46.10565193939209,30.329491310746146L46.45388193893433,36.34963487322043L46.523527938842776,13.539165026857214L46.73246593856812,36.99374340886167L47.150341938018805,40.26972761547214L47.21998793792725,27.641261580952953L47.35927993774414,10.944787989645059L47.568217937469484,7.311930113212308L47.70750993728638,56.159747142988444L47.77715593719483,51.10653566834143L47.91644793701172,47.38542761167165L48.05573993682861,22.297568329923973L48.125385936737054,33.70393330531133L48.612907936096185,32.25841084482435L49.17007593536377,30.32504537765497L49.239721935272215,29.466757463862432L49.30936793518066,32.22526264678894L49.58795193481445,25.383088338475698L50.28441193389892,37.179835949561074L50.35405793380737,32.791880372490176L50.493349933624266,48.597894047302795L50.771933933258055,24.918483025038352L50.9808719329834,42.601232226906724L51.05051793289184,49.690256624559176L51.120163932800295,57.70153095193164L51.32910193252563,20.093382933670835L52.164853931427004,40.351452142126654L52.58272993087768,32.71722265117868L52.791667930603026,38.703018993089394L52.930959930419924,29.05726474344554L53.00060593032837,2.5707191555413074L53.13989793014527,53.463251585324066L53.418481929779055,-5.355700453620822L53.697065929412844,22.463426039108167L53.836357929229735,43.4610587094301L54.184587928771975,23.52977088858516L55.15963192749024,52.800765111463456L55.50786192703247,32.82577132784392L55.57750792694092,44.07217820931843L55.85609192657471,44.309287566968614L55.92573792648316,52.47675314756808L56.20432192611695,60.619697125843665L56.27396792602539,53.916015224943386L56.41325992584229,45.59953130464826L56.622197925567626,40.95552605830964L56.97042792510986,71.8707833784237L57.040073925018305,60.374597821611964L57.10971992492676,52.70201022058141L57.45794992446899,42.79080511618347L57.52759592437744,43.900028284566055L57.59724192428589,25.291241090654164L57.806179924011225,51.10134697793192L58.432993923187254,66.79990489041914L58.572285923004145,51.30480942906153L58.99016192245483,32.92353941257446L59.40803792190552,40.94585960235245L59.47768392181396,56.24275557872179L59.89555992126465,59.13405515934776L60.10449792098999,42.20791039439187L60.38308192062378,46.45949572781647L60.66166592025757,50.44918483079616L60.80095792007446,58.87306084850369L61.079541919708255,55.810237381436515L61.1491879196167,42.812663402980185L61.218833919525146,56.639483484082156L61.358125919342044,59.68292098514079L61.70635591888428,51.895110502398815L62.05458591842651,34.256226425587535L62.124231918334964,29.526708590270896L62.19387791824341,56.3992333240573L63.23856791687012,56.455810210076756L63.72608991622925,61.616424392955004L64.14396591567993,44.936811392773315L64.21361191558839,60.96927055230859L64.35290391540528,59.916305945380465L64.49219591522217,59.235865966053815L64.77077991485596,65.88912525585799L65.39759391403197,46.95770550449905L65.53688591384888,74.9082947371639L65.60653191375732,85.54004341066916L65.81546991348266,66.95815464249982L66.23334591293334,67.54008377977759L66.79051391220092,48.16285047513518L66.86015991210937,35.60425668263364L67.06909791183472,47.70410233369385L67.13874391174316,19.207422004360904L67.76555791091918,39.296651863540355L67.83520391082763,73.27262640318317L68.60130990982056,56.53227177058992L68.8102479095459,29.573396193137665L68.87989390945434,63.730141947834944L69.01918590927124,68.9691382494352L69.15847790908813,68.56501460334799L70.13352190780638,58.41263619768669L70.48175190734864,54.894120505002185L70.62104390716553,83.0348290841137L70.82998190689086,77.04195532604113L70.96927390670776,63.379146671646346L71.31750390625,49.75681829110082L71.38714990615844,47.2552116429487L71.80502590560913,67.78281687140945L71.94431790542602,66.3396287910658L72.01396390533448,62.4697994976277L72.15325590515137,61.476637465644366L72.22290190505981,80.54571136972844L72.43183990478516,53.34211847752247L72.57113190460205,70.04800386513556L72.91936190414428,40.72752078321847L72.98900790405274,51.275841893646465L73.61582190322875,30.947422956325493L73.75511390304565,61.53738440346533L74.03369790267944,60.57943967918991L74.1033439025879,59.843091295430305L74.17298990249634,58.09255023675966L74.45157390213012,64.61179488469854L74.73015790176392,28.524230259351878L74.79980390167236,49.347092132669594L75.0087419013977,62.65183870553276L75.1480339012146,49.12485914302378L75.21767990112305,66.11372445810365L75.2873259010315,61.581811901920595L75.35697190093995,35.962605256273754L75.42661790084838,35.13296655333128L75.49626390075684,73.35507777092776L75.63555590057373,76.28720778242449L75.70520190048218,66.18312982409263L76.05343190002442,78.54293523116066L76.12307789993287,58.2972965969681L76.40166189956665,61.13962724867813L76.610599899292,63.30644134100019L76.74989189910889,51.22117495501701L77.16776789855957,60.5138117647056L77.30705989837647,81.75283525807698L77.6552898979187,58.66032454171373L77.93387389755249,70.56858124791886L78.00351989746095,73.30159924400765L78.14281189727784,52.54418490125406L78.9785638961792,63.23981600954554L79.46608589553833,52.47427021596108L79.53573189544677,63.265812515687266L79.67502389526366,53.680370160292206L79.74466989517212,73.82436776088004L79.81431589508055,53.82024197415351L79.88396189498901,57.91212387331726L80.0232538948059,68.7373979661147L80.23219189453124,65.96073767216431L80.51077589416504,72.17887380865962L80.58042189407348,72.04892841581692L80.85900589370728,65.32486313193776L81.06794389343261,72.0747233164008L81.3465278930664,53.9519010142378L81.55546589279174,78.33316995364403L81.62511189270019,83.1256789149649L81.69475789260865,48.45230300209031L81.76440389251708,63.14980443338218L81.83404989242554,64.95257194235062L81.97334189224243,78.58515037388916L82.04298789215088,52.16586676656957L82.11263389205934,82.67910668813484L82.32157189178466,64.36974088547201L82.39121789169312,55.04553688975418L82.46086389160156,86.27531479631718L82.60015589141845,87.0412514483936L82.73944789123534,62.25693586101173L82.8090938911438,42.56017896884047L83.29661589050292,86.39635240674927L83.50555389022827,62.93549772540488L83.78413788986207,74.29867666814049L83.9930758895874,72.64380275207138L84.13236788940429,79.63829005932804L84.27165988922118,81.32319789810497L84.55024388885498,53.790881838441614L84.82882788848877,72.63744156618078L85.03776588821411,85.34178556617731L85.10741188812256,48.515352487598115L85.17705788803102,67.7409996343872L85.24670388793945,73.89326380756502L85.66457988739013,76.01265284511139L86.08245588684082,94.56897484530175L86.22174788665771,85.18797113636897L86.29139388656617,95.43854205951415L86.56997788619996,64.67812311322585L86.77891588592529,74.23574920704927L86.84856188583375,72.76231498762114L87.05749988555908,66.95966137877416L87.12714588546753,74.09851948707747L87.19679188537597,54.07412703637923L87.33608388519288,90.07507554758921L87.47537588500977,57.188731299353186L87.89325188446045,63.86996070760208L88.10218988418579,73.09946845064162L88.17183588409424,80.70627428031479L88.38077388381957,74.79472714319049L88.45041988372803,84.49809283369005L88.52006588363646,71.45575711598521L88.65935788345337,76.05645430525549L88.72900388336181,61.34641088610258L89.1468798828125,94.21789468256249L89.4254638824463,70.90833966696293L89.49510988235473,77.81130335637248L89.63440188217163,71.2099574977105L89.77369388198852,66.7663640920869L89.91298588180541,77.89348945364624L89.98263188171387,71.60877573438104L90.0522778816223,72.73944336762584L90.12192388153076,77.83212178292352L90.19156988143921,81.58632498353454L90.40050788116456,68.24518330207296L90.53979988098145,66.78519829551611L90.67909188079834,76.06590323942659L90.88802988052367,84.65834272512082L91.02732188034057,73.84281466942183L91.09696788024903,77.44667848339243L91.16661388015747,88.70413653268189L91.58448987960816,97.9477938026357L91.6541358795166,83.59582307583325L91.7934278793335,81.34524717964068L92.00236587905883,45.327459298942166L92.28094987869262,64.60316828898702L92.48988787841797,84.19990229742565L92.69882587814331,98.78344353444727L92.76847187805177,86.58659377761252L92.90776387786866,55.954332301193496L93.04705587768555,67.67319650204205L93.18634787750244,69.85428214569497L93.53457787704468,56.25855508796466L93.74351587677002,84.69287032960456L93.88280787658692,80.67719002589256L94.92749787521362,67.01849836920512L95.20608187484741,73.28611275392036L95.3453738746643,90.36974329200093L95.41501987457276,66.82260143190369L95.69360387420654,66.27243047539416L95.83289587402344,84.7637559048208L95.90254187393188,55.9882444781849L96.11147987365722,84.73903269693908L96.25077187347411,48.83926895412399L96.39006387329101,91.17681278328486L96.59900187301636,57.59376747586007L96.73829387283325,66.90702110654188L96.8079398727417,93.60344338556048L96.94723187255859,85.49992390466024L97.22581587219237,70.5109220583784L97.50439987182617,74.65608087890443L97.9919218711853,67.00586088397459L98.06156787109374,66.61795056906475L98.1312138710022,82.57027682477052L98.20085987091063,78.8358574958743L98.34015187072754,86.53218149863507L98.54908987045289,66.11246177066248L98.61873587036132,91.50306362995407L98.68838187026978,75.12418776255679L98.89731986999512,82.56006391164341L98.96696586990356,87.5578869119803L99.036611869812,69.8218767049779L99.10625786972047,70.28471001167007L99.66342586898804,80.61869258166426L99.73307186889647,86.76123193938132L99.94200986862182,65.0826711920664L100.42953186798096,86.88445537849309L100.6384698677063,92.59361175718995L101.19563786697388,75.48620237410383L101.26528386688233,63.82282745034431L101.40457586669922,84.78437803122343L101.47422186660768,75.23965469310137L101.54386786651611,63.73296442564462L101.75280586624146,70.5404095239163L101.8224518661499,84.03203383807254L101.9617438659668,74.51172068867662L102.10103586578369,74.63041330814654L102.44926586532593,70.43038594343322L102.51891186523437,57.48308602460933L102.79749586486817,66.29084024607003L102.86714186477661,87.59925849461156L102.93678786468506,70.17114241769666L103.00643386459352,65.98872901224671L103.21537186431884,74.56159684260281L103.2850178642273,82.64828756483335L103.35466386413574,93.47978490287655L103.5636018638611,64.90417599765168L103.63324786376953,56.19824319371586L104.1904158630371,65.58324718134882L104.4689998626709,85.64206643375188L104.60829186248779,74.80083366942908L104.7475838623047,80.46581720932268L104.81722986221313,75.84490641017486L105.02616786193848,77.10727022136986L105.23510586166381,76.80370530536636L105.30475186157227,65.23566858882457L105.3743978614807,77.75560186290677L105.44404386138916,75.86059450581998L105.6529818611145,81.63525677458456L106.21014986038207,94.84497285397619L106.34944186019897,77.08608041615965L106.48873386001587,69.71128014027782L106.62802585983276,81.53559465869226L106.6976718597412,79.44036115022003L106.90660985946654,82.04958802838946L107.04590185928345,74.16454000185861L107.18519385910034,79.36608541838653L107.53342385864258,101.41307501723325L108.02094585800171,67.19060585068216L108.09059185791016,81.93577108017347L108.29952985763549,59.24188230033233L108.43882185745238,90.32902427472793L108.85669785690307,67.05729152285987L108.92634385681153,91.84468955311281L109.06563585662842,59.95189463174754L109.20492785644532,71.53283940940013L109.4835118560791,75.54585639758496L109.7620958557129,87.18613156874424L109.90138785552979,92.02726460736896L110.24961785507202,78.1229271892799L110.31926385498048,88.03190932713225L110.38890985488891,66.83394439723655L110.87643185424805,78.93080310279517L110.9460778541565,25.305841577368863L111.36395385360717,81.30821011650285L111.64253785324097,97.69539425504665L111.71218385314943,70.80167971605003L111.78182985305786,62.17877656948523L112.4086438522339,87.09500055119396L112.54793585205078,97.02194680533118L112.75687385177612,84.86857487866611L113.1747498512268,53.17604855196161L113.24439585113525,95.42908251452421L113.52297985076903,69.76585158153777L113.73191785049438,102.46802384728322L113.80156385040283,86.23150272535425L113.87120985031127,83.46935272615848L114.08014785003661,76.77125211596454L114.84625384902954,75.39373969878996L115.05519184875487,80.61377977254442L115.26412984848022,87.83305197137632L115.33377584838867,90.38552688501555L115.40342184829711,67.5600639516408L115.61235984802245,87.92596030108119L115.68200584793091,88.91174250856592L115.75165184783936,80.3299615903898L116.79634184646606,97.12525904290216L117.0052798461914,72.0357550842353L117.14457184600829,75.58097290251395L117.21421784591675,96.16559536597573L117.35350984573364,83.20019339022214L117.42315584564209,84.53109248026179L117.63209384536744,88.76615676876285L117.84103184509277,77.41416162907761L117.91067784500123,86.71660283536822L118.04996984481812,70.5088847811624L118.18926184463501,88.25584535320083L118.3285538444519,91.30998917046232L118.46784584426881,70.12030598466605L118.67678384399414,93.2964777021209L118.81607584381103,83.43481981626532L118.95536784362793,101.40315390162407L119.09465984344482,94.86869333947816L119.23395184326172,80.56313433425281L119.37324384307861,107.42174297913927L120.06970384216308,77.4976899949338L120.34828784179687,80.37334392318998L120.62687184143066,91.07689600774056L120.69651784133912,111.63746905031654L120.76616384124756,77.07531043504379L120.90545584106445,88.9705529719498L121.1143938407898,105.02733212825113L121.32333184051514,92.11445901113207L121.46262384033203,82.43023523780788L121.67156184005738,71.27210506361747L122.08943783950805,92.35326609979559L122.22872983932494,78.86564736974894L122.36802183914183,69.20617333135355L122.43766783905029,77.79084039225235L122.64660583877563,94.94835406186958L122.71625183868409,64.25931409387327L122.78589783859252,64.94511253671077L122.99483583831787,74.57095558481383L123.55200383758545,68.08827051316528L123.90023383712769,76.26816136261861L124.03952583694458,85.2333748301569L124.45740183639526,81.96216018661202L124.73598583602904,95.30579010509003L124.8056318359375,78.17381667640468L124.87527783584594,91.29980808979171L124.9449238357544,70.67525180965059L125.36279983520508,73.66339102835919L125.57173783493042,110.28323146425292L126.05925983428955,96.92396119881455L126.19855183410645,76.80438970318112L126.40748983383179,74.87376713268016L126.47713583374023,86.32285126469061L126.68607383346557,83.92161235188321L126.75571983337403,92.56940847943106L127.10394983291626,88.93704400607406L127.17359583282472,91.58370054767816L127.24324183273315,95.95454617938027L127.4521798324585,81.41894992725717L127.66111783218383,74.49900892771426L127.7307638320923,69.63735456546583L127.80040983200072,88.02000398840123L127.87005583190918,70.70019784472781L127.93970183181763,100.91389435062742L128.35757783126832,102.61023004128786L128.775453830719,75.31567059922354L129.1933298301697,98.72270720744514L129.47191382980347,93.26797173732508L129.61120582962036,86.88423255129759L129.9594358291626,71.40422567432101L130.23801982879638,96.92265076268863L130.7255418281555,78.80492165356564L130.8648338279724,100.69461647402669L131.07377182769775,104.14045866852153L131.21306382751465,94.92538694450478L131.2827098274231,93.3352867720039L131.49164782714843,88.43901461331164L131.5612938270569,72.92959985193842L131.70058582687378,82.2649239857936L131.7702318267822,78.86627340806011L131.97916982650756,79.34162217556623L133.16315182495117,96.09647649209525L133.23279782485963,92.91567133041998L133.30244382476806,92.32443650502536L133.37208982467652,78.19553702255656L133.6506738243103,98.03405975975089L133.85961182403565,89.98263939932242L134.13819582366943,90.21406666348734L134.2078418235779,75.12156158489553L134.27748782348633,85.79337140490613L134.5560718231201,96.40353767290433L134.62571782302857,95.88716747978846L134.695363822937,88.04841445582754L134.83465582275392,92.36031168350094L134.9739478225708,96.77820038050073L135.1132398223877,76.2609990599061L135.2525318222046,90.899854495506L135.80969982147215,79.80135181774965L136.15792982101442,96.0207205510345L136.22757582092285,66.69695872609792L136.85438982009887,100.58054486615869L136.92403582000733,86.02632662698305L137.69014181900025,93.54726440524728L138.0383718185425,86.4107725095438L138.24730981826784,79.32623118284845L138.31695581817627,100.12598799815653L138.52589381790162,90.43520143338391L138.6651858177185,73.00522315776375L138.73483181762694,72.08341888243474L139.29199981689453,93.51352730676662L139.36164581680296,86.51176628319969L139.43129181671142,59.90677743006811L139.50093781661988,84.25173084201718L139.7098758163452,92.63852204790213L139.84916781616212,85.88027931656073L139.91881381607055,99.88213546513775L139.98845981597898,91.75757473049096L140.54562781524658,88.63861472638591L140.89385781478882,79.10903833214847L140.96350381469728,58.52516393141443L141.17244181442263,91.75165389358195L141.65996381378173,85.04320242961607L141.79925581359865,63.214976082656655L142.4957158126831,91.48852150274296L142.84394581222534,100.1700016746773L142.9135918121338,85.4781239773671L143.05288381195066,102.50158586725313L143.12252981185915,76.74731410867649L143.54040581130982,90.12582709406915L143.61005181121826,83.4847861621516L144.02792781066896,110.57408992470347L144.0975738105774,98.78188374407877L144.7243878097534,98.7833904803531L145.0029718093872,84.35077222500773L145.1422638092041,91.73859197559808L145.4208478088379,97.13191202631067L146.0476618080139,95.40432216877657L146.18695380783083,99.8224761362472L146.39589180755615,98.27199676127007L146.53518380737304,101.46506272410728L146.6048298072815,96.5224955628451L146.95305980682372,102.60600693539219L147.16199780654907,79.41191885033722L147.5102278060913,108.53983148665712L147.6495198059082,93.05506565743379L147.928103805542,76.97518144312282L148.06739580535887,103.28380482082933L148.13704180526733,81.1054373685974L148.2066878051758,95.71431724099308L148.34597980499268,86.41548371310581L148.48527180480957,71.2290410553823L148.8335018043518,96.5354778996877L149.04243980407716,108.40720155664958L149.18173180389402,78.82570294225077L149.39066980361937,105.10493435178888L149.59960780334472,88.82516883770457L149.87819180297853,97.25879619791995L150.08712980270386,94.25395555036765L150.36571380233764,93.9688852915907L150.4353598022461,59.429088977009236L150.50500580215456,84.53331014139796L150.9925278015137,95.5666252536516L151.13181980133055,111.6810370724463L151.27111180114747,95.62231083088905L151.4800498008728,88.96003234507653L151.54969580078125,91.16367658956916L151.96757180023192,86.6137521684165L152.03721780014038,101.14398995702875L152.31580179977416,92.7675973536005L152.59438579940795,99.20991887040695L152.8033237991333,119.03255986451245L152.87296979904173,89.7567138447226L152.94261579895021,111.68531853784556L153.01226179885865,94.69313203647086L153.15155379867554,90.2680651205303L153.3604917984009,95.47801961098365L153.84801379776002,85.73899095838517L153.91765979766845,93.74184029560395L154.2658897972107,95.54745150401972L154.40518179702758,95.32618940429715L154.47482779693604,84.16203759041882L154.54447379684447,88.89654251058714L155.17128779602052,74.97936600170972L155.4498717956543,109.82504039080034L155.51951779556276,93.98535858782948L155.5891637954712,89.95279116594419L155.65880979537963,103.00916499696557L155.79810179519654,102.11528839680595L156.14633179473876,82.12882962343697L156.21597779464722,91.53204177618797L156.3552697944641,105.09570293940386L156.42491579437257,97.04649493470215L156.494561794281,73.44511587413821L156.70349979400635,90.01373440391357L156.84279179382324,85.79514871706071L156.9124377937317,89.84907571725755L156.98208379364013,105.65820897280717L157.60889779281615,84.90559602557569L157.8178357925415,98.44675694745546L158.44464979171752,82.53572269323969L158.86252579116822,97.80062174541705L158.93217179107666,104.12287654171466L159.35004779052733,108.66616389568706L159.41969379043582,97.13902127492902L159.48933979034425,83.09707214739016L159.6286317901611,99.53133118368815L160.0465077896118,95.58848354044831L160.46438378906248,82.76805187700545L160.53402978897097,96.43079156107781L161.09119778823853,90.2373361891889L161.16084378814696,105.52566923475972L161.3697817878723,87.98773118291957L161.57871978759763,112.25054094087021L161.85730378723144,105.72076505523923L161.99659578704834,111.49948596220757L162.27517978668214,95.85850765811956L162.6930557861328,93.50853491650552L162.9716397857666,105.3546493622131L163.04128578567506,90.20142917825682L163.25022378540038,110.38425176495589L163.3895157852173,98.44627946060795L163.59845378494265,111.2607266222288L163.87703778457643,96.29894683166394L164.01632978439332,106.89893732440096L164.1556217842102,104.98383307644379L164.22526778411867,110.43409608642558L164.2949137840271,97.79471682473628L164.78243578338623,85.1328850703956L164.92172778320312,76.84191486398528L164.99137378311158,88.59728558702999L165.40924978256226,91.39134231845766L165.4788957824707,103.30394415497504L165.54854178237915,96.98223051043793L165.68783378219604,91.73217773561332L165.82712578201293,109.91670194929229L166.6628777809143,104.05593819110443L167.28969178009035,99.80173198542799L167.56827577972413,115.19737754726997L167.91650577926637,98.53750067011832L167.9861517791748,89.86063089896707L168.33438177871702,91.83417953705838L168.4040277786255,119.76946001085139L168.47367377853394,113.07609978397126L168.75225777816772,92.87585953815723L168.82190377807618,94.54362029369945L169.23977977752688,104.38123406407864L169.51836377716066,118.01182827249535L169.5880097770691,100.94056994917447L169.65765577697755,106.95483511801508L169.79694777679444,88.3618315171178L169.86659377670287,86.77475542798443L170.2148237762451,96.19191550209187L170.42376177597046,107.43603044669838L170.56305377578735,80.08994486837928L170.7719917755127,93.0307032173924L170.98092977523805,105.4540568184534L171.1898677749634,93.72570654556783L171.32915977478027,106.84280078736309L171.74703577423097,80.84862372037368L171.8166817741394,107.97550569782389L171.9559737739563,98.25230308151536L172.0952657737732,93.3278432825923L172.72207977294923,89.12990094377973L172.79172577285766,100.58702277105645L172.86137177276612,95.15367340629503L172.93101777267458,110.14993305265888L173.9060617713928,108.57209368131994L174.1846457710266,107.14938448132467L174.4632297706604,95.72603158498511L174.53287577056884,86.12770769552635L174.7418137702942,88.86601518480357L174.81145977020262,100.77899901079896L175.02039776992797,112.23799364759977L175.1596897697449,90.0352160066417L175.29898176956175,102.89285981173315L175.647211769104,78.01971575448785L175.85614976882934,86.50733626633676L175.99544176864626,112.81960976572195L176.0650877685547,86.13969261539863L176.20437976837158,120.82326287246735L176.41331776809693,98.15098567788506L176.62225576782228,89.6107673370792L176.76154776763914,101.31833632127963L176.9704857673645,106.15546908120417L177.17942376708984,98.37647618891272L177.24906976699828,90.1271163085574L177.45800776672363,101.87644947568593L177.66694576644898,110.02011498964218L178.22411376571657,89.35625623654231L178.293759765625,98.73930252810051L178.4330517654419,109.21253617905425L178.78128176498413,108.39497789335356L179.12951176452637,107.08032396694777L179.1991577644348,82.4374930378899L179.26880376434326,94.64060317783633L179.40809576416015,107.7254140033311L179.4777417640686,96.88592671870639L179.6170337638855,97.08643936220032L179.7563257637024,108.01296188830564L179.96526376342774,94.56627969731808L180.03490976333617,98.4958213737409L180.31349376296996,105.64864862503832L180.6617237625122,107.12742008633963L180.80101576232911,101.08780036589671L181.2188917617798,112.06727087798048L181.28853776168825,106.12075578739085L181.35818376159668,97.78516178237685L181.42782976150514,93.1027559826803L181.49747576141357,104.68973301083965L181.70641376113892,99.93446271821445L181.84570576095584,98.73886748452834L182.05464376068113,86.58123000869226L182.12428976058962,98.78270608253835L182.33322776031494,99.36823228740063L182.47251976013183,100.52138955116273L182.61181175994872,86.6394568770403L182.68145775985718,109.34267256663595L182.75110375976564,92.89590868034286L183.02968775939942,118.67882169165543L183.3082717590332,95.94786666892468L183.37791775894166,99.22321953181456L183.4475637588501,99.65911727489826L183.72614775848388,92.40247377213528L183.7957937583923,95.63337260952282L183.93508575820923,105.40292858790487L184.00473175811766,97.51337096336984L184.14402375793458,83.0108751605974L184.213669757843,117.26594341530927L184.28331575775147,108.3462901511367L184.42260775756836,110.78081520262434L184.49225375747682,109.97560791004567L184.63154575729368,108.24747690075107L184.84048375701903,106.78001657232612L184.97977575683595,96.20765665183116L185.04942175674438,96.41310863149202L185.46729775619505,98.23627543966758L185.53694375610354,109.33744673836053L185.60658975601197,112.60881523877849L185.88517375564575,102.75664873036935L186.02446575546264,100.65717089436377L186.16375775527953,107.83800009656242L186.44234175491334,106.26688267895442L186.92986375427247,97.10267922042478L187.1388017539978,94.2180273177979L187.2780937538147,100.88138810713143L187.41738575363158,81.90885143279324L187.48703175354004,106.54823384573028L187.76561575317385,109.05162841685582L187.9049077529907,108.75955501764885L187.97455375289917,104.60694209689238L188.04419975280763,91.76059881385846L188.25313775253295,115.14310320893735L188.3227837524414,106.91575016684241L188.53172175216673,104.17976114148028L188.60136775207522,108.37560253816385L188.8103057518005,111.18404753992955L189.01924375152586,105.32481704506311L189.29782775115967,87.61122219284617L189.71570375061037,76.12991300403881L189.7853497505188,93.19192930415583L189.99428775024415,108.96303869041613L190.0639337501526,105.18135346902672L190.20322574996948,103.74114172336583L190.3425177497864,103.69653914639981L190.41216374969483,109.67985786211294L190.55145574951175,112.26788962966275L190.62110174942018,114.60180820238192L190.76039374923704,109.56847079140978L190.83003974914553,95.5796075904942L190.89968574905396,103.62782878904441L190.9693317489624,109.66857856169308L191.1086237487793,103.84877256420198L191.2479157485962,115.40502596642933L191.31756174850463,96.02449800253918L191.5961457481384,92.35121821176075L191.66579174804687,101.32919649435557L191.80508374786376,81.23508565851277L192.0140217475891,101.49319731024393L192.153313747406,124.41727188844648L192.36225174713135,89.4068963694245L193.19800374603273,95.08570580625796L193.4765877456665,114.83666276103001L193.68552574539186,100.75125171954973L194.0337557449341,105.86478569926437L194.17304774475096,103.98067565311943L194.3819857444763,100.13059309353021L194.799861743927,108.34089985516935L194.86950774383544,116.30425307198567L195.00879974365233,102.84321179041187L195.21773774337768,106.1948882731701L195.42667574310303,103.14078689918394L195.49632174301146,90.5821294417694L195.56596774291992,88.79059878994549L196.19278174209595,91.38692821782298L196.2624277420044,120.10556300280737L196.33207374191284,111.34683341706149L196.40171974182127,110.68564146309855L196.5410117416382,101.87361638705742L196.68030374145508,105.16224868971726L196.88924174118043,115.81887442797732L197.23747174072264,94.16352484686037L197.37676374053956,102.63077258654924L197.446409740448,108.4158599848176L197.51605574035642,110.99062822882571L197.5857017402649,101.56044337460033L198.14286973953247,100.98856268275775L198.7696837387085,108.8258620245385L199.11791373825073,95.05262657854497L199.6750817375183,116.37999309681817L199.74472773742676,105.69396212686617L199.9536657371521,105.10351250206521L200.2322497367859,112.45317574813082L200.44118773651124,128.70269777583536L200.71977173614502,108.85638404491264L200.92870973587034,97.91708078752255L201.1376477355957,103.51778398692367L201.20729373550412,114.49599711697569L201.2769397354126,105.93377193790944L201.41623173522947,106.52782924111374L201.97339973449706,89.64208516886585L202.11269173431398,118.36974710797271L202.25198373413085,95.68856478368453L202.39127573394777,102.48786077309218L202.73950573349,100.25626232638307L203.08773573303222,86.51746959832262L203.6449037322998,102.17617327527175L203.71454973220824,105.2050155950251L203.7841957321167,104.1378059638132L204.0627797317505,117.95258807094872L204.27171773147583,87.77777491066395L204.48065573120118,106.04069185388376L205.03782373046874,104.16669922349642L205.17711573028566,67.69527761603426L205.45569972991944,95.74318927903865L205.52534572982788,107.47300384492321L205.59499172973634,116.92324314674364L205.66463772964477,95.15699459258987L205.8039297294617,88.33136785624724L205.94322172927855,112.25350666473413L206.1521597290039,112.65074919480791L206.36109772872925,106.72655926704367L206.43074372863768,93.86699490374339L206.5700357284546,117.04237611519515L206.7093277282715,107.41433662759358L207.19684972763062,110.29308891494911L207.4754337272644,85.21229113313503L207.6147257270813,105.60496388390139L207.7540177268982,107.05947370794023L207.89330972671507,108.82865266989167L207.96295572662356,98.55588391374711L208.10224772644042,102.56057671455717L208.31118572616577,77.7165805766471L208.45047772598267,103.70261914559133L208.65941572570802,102.36916284821284L208.7987077255249,114.70646801394473L209.00764572525023,90.97547249592192L209.0772917251587,109.23518497185405L209.14693772506715,104.47530958385518L209.8433977241516,100.64482520665116L209.91304372406003,88.21265932054907L210.05233572387695,108.76547054914845L210.12198172378538,101.25014058863765L210.19162772369384,89.79665296681135L210.2612737236023,102.82044097319549L210.47021172332762,111.14247435174046L210.53985772323608,122.10506039835565L210.67914972305297,107.76535843082927L210.88808772277832,104.35035127586416L211.0273797225952,105.50475531083917L211.1666717224121,109.56184964045777L211.305963722229,104.19393719544165L211.93277772140505,108.83785224982019L212.00242372131348,99.52579233625714L212.21136172103883,107.51836509543581L212.35065372085572,88.40229587473881L212.4899457206726,98.62652544013018L212.6292377204895,112.23057137982583L212.76852972030642,114.0984044298804L212.83817572021485,116.33763736074012L213.0471137199402,91.63045712086735L213.46498971939087,101.8210556959664L213.5346357192993,83.74185977543674L213.81321971893308,103.12843590606191L214.02215771865843,105.09011103787869L214.23109571838378,110.23802937602282L214.37038771820067,120.36858928545803L214.44003371810913,117.61272354371631L214.71861771774294,95.49698114423886L214.99720171737673,97.05035196734808L215.20613971710205,103.28785284821426L215.2757857170105,94.81215889673403L215.34543171691894,92.96418399412609L215.4150777168274,106.89436406148378L215.62401571655275,109.94551562783427L215.90259971618653,113.13307457569697L216.04189171600342,106.9989283756771L216.3204757156372,101.94498475453058L216.39012171554566,114.29878974354834L216.52941371536255,109.96336833052139L216.59905971527098,94.8411264321491L216.94728971481325,112.7332270895996L217.15622771453857,94.46957269447087L217.22587371444703,89.28172584505681L217.36516571426392,101.96196737007337L217.50445771408081,95.32597188251107L217.6437497138977,113.04064903824901L217.71339571380614,110.79283726036253L217.9223337135315,82.92742107047305L217.99197971343995,109.8403624131957L218.13127171325684,97.7162445140542L218.34020971298216,93.67889161287506L218.40985571289065,113.07469385047584L218.5491477127075,89.43282390524381L218.9670237121582,108.54554541259888L219.17596171188353,125.2484862979857L219.38489971160888,99.89955842966212L219.4545457115173,98.58826813282651L219.73312971115112,116.7192925979477L220.15100571060182,110.43701406160476L221.05640370941163,123.2314518716106L221.3349877090454,108.2388980537243L221.47427970886233,100.36073114320688L221.82250970840454,101.47845357747498L222.0314477081299,116.43375546314208L222.17073970794678,87.4886035704079L222.44932370758056,113.97082524963754L222.7975537071228,93.02735019864106L223.07613770675658,114.17734361659116L223.35472170639036,96.96086562671697L223.56365970611571,103.8603914108245L224.19047370529174,102.0713755230641L224.60834970474244,119.46331666587139L225.3048097038269,88.58102450716787L225.37445570373538,77.4857316021086L225.4441017036438,98.34861748406574L225.65303970336916,97.46027442592772L225.7226857032776,119.46982640322565L226.07091570281983,97.05193297935425L226.21020770263672,99.37086907588072L226.4887917022705,114.92549653630287L226.55843770217896,93.21634479829139L226.6280837020874,112.34812864168059L226.69772970199585,99.55321599753195L226.76737570190429,108.73798852837005L226.83702170181274,110.46755199820716L226.9066677017212,91.7643974870008L227.46383570098877,107.23370865859336L227.67277370071412,96.67803425071385L228.0906497001648,99.57105278399082L228.36923369979857,104.41663175570672L229.06569369888308,62.586316899236785L229.1353396987915,100.4292876436892L229.20498569869994,103.19149600238855L229.69250769805907,105.30376518049773L230.04073769760132,106.15036527734533L230.24967569732667,121.76933939587767L230.38896769714356,72.1092668371128L230.45861369705202,106.71691933813356L230.52825969696045,107.18209763578791L230.5979056968689,110.25269352765052L230.8764896965027,60.3751814166478L231.43365769577025,109.84141288426021L231.5033036956787,86.4720075450311L231.71224169540406,99.45730480609724L231.85153369522095,112.83592920508765L231.9211796951294,98.47306116734335L232.06047169494627,102.56276254323684L232.40870169448854,100.78234672414088L232.89622369384765,89.8199224925129L233.03551569366456,123.17643742866436L233.24445369338991,95.15148757761536L233.38374569320678,114.06937322955234L233.73197569274902,115.57617847421137L233.94091369247437,93.82097578246312L234.14985169219972,112.78745898465688L234.77666569137574,94.57021631110526L234.84631169128417,97.39287450469824L235.05524969100952,89.90653330124017L235.26418769073487,97.55343210987517L235.40347969055176,110.78869904101752L235.4731256904602,100.94292024554606L235.8910016899109,109.59536921715234L236.09993968963624,98.76370210600781L236.16958568954468,96.5254559812996L236.30887768936157,100.42946272219994L236.51781568908692,97.13400235762084L236.6571076889038,109.32988652994176L236.7963996887207,121.15537354383729L237.00533768844605,98.23028563243615L237.07498368835448,97.76008841747363L237.14462968826294,94.40710149858948L237.63215168762207,97.20819320290367L237.98038168716428,124.959994050135L238.1196736869812,99.11868174466834L238.18931968688963,108.99069578970527L238.2589656867981,101.3095134254197L238.53754968643187,92.02031452103311L238.60719568634033,113.27264398122152L238.95542568588257,104.42248892770273L239.025071685791,113.47862650182405L239.30365568542481,104.60547780389338L239.51259368515014,108.19565896697837L239.5822396850586,95.41436000339293L239.7215316848755,110.30070748287146L240.20905368423462,105.95197479761806L240.27869968414308,102.5748376550692L240.62692968368532,101.64290535316375L241.46268168258666,96.0409182446838L241.8109116821289,97.91727178226155L241.95020368194582,97.47612168385534L242.01984968185425,104.1939849441264L242.2287876815796,112.46451340805426L242.29843368148804,100.03059143143524L242.92524768066406,91.42901603072549L243.34312368011476,96.24114439606923L243.62170767974854,100.98420163621724L243.691353679657,113.99374992372701" fill="none"></path></g></g></g></g></g></g><g transform="translate(51, 178)" clip-path="url(#clip_1)"><clipPath id="clip_1"><rect width="278" height="21"></rect></clipPath><g><g><line x1="0" y1="0" x2="0" y2="5" style="visibility: inherit;" fill="rgb(0, 0, 0)" stroke="rgb(204, 204, 204)" stroke-width="1px"></line><line x1="34.82299995422363" y1="0" x2="34.82299995422363" y2="5" style="visibility: inherit;" fill="rgb(0, 0, 0)" stroke="rgb(204, 204, 204)" stroke-width="1px"></line><line x1="69.64599990844727" y1="0" x2="69.64599990844727" y2="5" style="visibility: inherit;" fill="rgb(0, 0, 0)" stroke="rgb(204, 204, 204)" stroke-width="1px"></line><line x1="104.4689998626709" y1="0" x2="104.4689998626709" y2="5" style="visibility: inherit;" fill="rgb(0, 0, 0)" stroke="rgb(204, 204, 204)" stroke-width="1px"></line><line x1="139.29199981689453" y1="0" x2="139.29199981689453" y2="5" style="visibility: inherit;" fill="rgb(0, 0, 0)" stroke="rgb(204, 204, 204)" stroke-width="1px"></line><line x1="174.11499977111816" y1="0" x2="174.11499977111816" y2="5" style="visibility: inherit;" fill="rgb(0, 0, 0)" stroke="rgb(204, 204, 204)" stroke-width="1px"></line><line x1="208.9379997253418" y1="0" x2="208.9379997253418" y2="5" style="visibility: inherit;" fill="rgb(0, 0, 0)" stroke="rgb(204, 204, 204)" stroke-width="1px"></line><line x1="243.76099967956543" y1="0" x2="243.76099967956543" y2="5" style="visibility: inherit;" fill="rgb(0, 0, 0)" stroke="rgb(204, 204, 204)" stroke-width="1px"></line><line x1="278.58399963378906" y1="0" x2="278.58399963378906" y2="5" style="visibility: inherit;" fill="rgb(0, 0, 0)" stroke="rgb(204, 204, 204)" stroke-width="1px"></line></g><g transform="translate(0, 8)"><text style="text-anchor: middle; visibility: hidden; font-family: Roboto, sans-serif; font-size: 12px; font-weight: 200;" x="0" y="0" dx="0em" dy="0.95em" fill="rgb(50, 49, 63)" stroke="none" stroke-width="1px">-500</text><text style="text-anchor: middle; visibility: hidden; font-family: Roboto, sans-serif; font-size: 12px; font-weight: 200;" x="34.82299995422363" y="0" dx="0em" dy="0.95em" fill="rgb(50, 49, 63)" stroke="none" stroke-width="1px">0</text><text style="text-anchor: middle; visibility: hidden; font-family: Roboto, sans-serif; font-size: 12px; font-weight: 200;" x="69.64599990844727" y="0" dx="0em" dy="0.95em" fill="rgb(50, 49, 63)" stroke="none" stroke-width="1px">500</text><text style="text-anchor: middle; visibility: hidden; font-family: Roboto, sans-serif; font-size: 12px; font-weight: 200;" x="104.4689998626709" y="0" dx="0em" dy="0.95em" fill="rgb(50, 49, 63)" stroke="none" stroke-width="1px">1k</text><text style="text-anchor: middle; visibility: hidden; font-family: Roboto, sans-serif; font-size: 12px; font-weight: 200;" x="139.29199981689453" y="0" dx="0em" dy="0.95em" fill="rgb(50, 49, 63)" stroke="none" stroke-width="1px">1.5k</text><text style="text-anchor: middle; visibility: hidden; font-family: Roboto, sans-serif; font-size: 12px; font-weight: 200;" x="174.11499977111816" y="0" dx="0em" dy="0.95em" fill="rgb(50, 49, 63)" stroke="none" stroke-width="1px">2k</text><text style="text-anchor: middle; visibility: hidden; font-family: Roboto, sans-serif; font-size: 12px; font-weight: 200;" x="208.9379997253418" y="0" dx="0em" dy="0.95em" fill="rgb(50, 49, 63)" stroke="none" stroke-width="1px">2.5k</text><text style="text-anchor: middle; visibility: hidden; font-family: Roboto, sans-serif; font-size: 12px; font-weight: 200;" x="243.76099967956543" y="0" dx="0em" dy="0.95em" fill="rgb(50, 49, 63)" stroke="none" stroke-width="1px">3k</text><text style="text-anchor: middle; visibility: hidden; font-family: Roboto, sans-serif; font-size: 12px; font-weight: 200;" x="278.58399963378906" y="0" dx="0em" dy="0.95em" fill="rgb(50, 49, 63)" stroke="none" stroke-width="1px">3.5k</text></g><line x1="0" y1="0" x2="278.58399963378906" y2="0" fill="rgb(0, 0, 0)" stroke="rgb(204, 204, 204)" stroke-width="1px"></line></g></g></g></g></svg>