<svg viewBox="0 0 330 200" xmlns="http://www.w3.org/2000/svg"><g><g><g><g><g><line x1="51.41600036621094" y1="178.01999950408936" x2="46.41600036621094" y2="178.01999950408936" style="visibility: inherit;" fill="rgb(0, 0, 0)" stroke="rgb(204, 204, 204)" stroke-width="1px"></line><line x1="51.41600036621094" y1="158.23999955919052" x2="46.41600036621094" y2="158.23999955919052" style="visibility: inherit;" fill="rgb(0, 0, 0)" stroke="rgb(204, 204, 204)" stroke-width="1px"></line><line x1="51.41600036621094" y1="138.45999961429172" x2="46.41600036621094" y2="138.45999961429172" style="visibility: inherit;" fill="rgb(0, 0, 0)" stroke="rgb(204, 204, 204)" stroke-width="1px"></line><line x1="51.41600036621094" y1="118.6799996693929" x2="46.41600036621094" y2="118.6799996693929" style="visibility: inherit;" fill="rgb(0, 0, 0)" stroke="rgb(204, 204, 204)" stroke-width="1px"></line><line x1="51.41600036621094" y1="98.8999997244941" x2="46.41600036621094" y2="98.8999997244941" style="visibility: inherit;" fill="rgb(0, 0, 0)" stroke="rgb(204, 204, 204)" stroke-width="1px"></line><line x1="51.41600036621094" y1="79.11999977959526" x2="46.41600036621094" y2="79.11999977959526" style="visibility: inherit;" fill="rgb(0, 0, 0)" stroke="rgb(204, 204, 204)" stroke-width="1px"></line><line x1="51.41600036621094" y1="59.33999983469646" x2="46.41600036621094" y2="59.33999983469646" style="visibility: inherit;" fill="rgb(0, 0, 0)" stroke="rgb(204, 204, 204)" stroke-width="1px"></line><line x1="51.41600036621094" y1="39.55999988979765" x2="46.41600036621094" y2="39.55999988979765" style="visibility: inherit;" fill="rgb(0, 0, 0)" stroke="rgb(204, 204, 204)" stroke-width="1px"></line><line x1="51.41600036621094" y1="19.779999944898826" x2="46.41600036621094" y2="19.779999944898826" style="visibility: inherit;" fill="rgb(0, 0, 0)" stroke="rgb(204, 204, 204)" stroke-width="1px"></line><line x1="51.41600036621094" y1="0" x2="46.41600036621094" y2="0" style="visibility: inherit;" fill="rgb(0, 0, 0)" stroke="rgb(204, 204, 204)" stroke-width="1px"></line></g><g transform="translate(41.41600036621094, 0)"><text style="text-anchor: end; visibility: hidden; font-family: Roboto, sans-serif; font-size: 12px; font-weight: 200;" x="0" y="178.01999950408936" dx="0em" dy="0.3em" fill="rgb(50, 49, 63)" stroke="none" stroke-width="1px">-0.1</text><text style="text-anchor: end; visibility: inherit; font-family: Roboto, sans-serif; font-size: 12px; font-weight: 200;" x="0" y="158.23999955919052" dx="0em" dy="0.3em" fill="rgb(50, 49, 63)" stroke="none" stroke-width="1px">0</text><text style="text-anchor: end; visibility: hidden; font-family: Roboto, sans-serif; font-size: 12px; font-weight: 200;" x="0" y="138.45999961429172" dx="0em" dy="0.3em" fill="rgb(50, 49, 63)" stroke="none" stroke-width="1px">0.1</text><text style="text-anchor: end; visibility: inherit; font-family: Roboto, sans-serif; font-size: 12px; font-weight: 200;" x="0" y="118.6799996693929" dx="0em" dy="0.3em" fill="rgb(50, 49, 63)" stroke="none" stroke-width="1px">0.2</text><text style="text-anchor: end; visibility: hidden; font-family: Roboto, sans-serif; font-size: 12px; font-weight: 200;" x="0" y="98.8999997244941" dx="0em" dy="0.3em" fill="rgb(50, 49, 63)" stroke="none" stroke-width="1px">0.3</text><text style="text-anchor: end; visibility: inherit; font-family: Roboto, sans-serif; font-size: 12px; font-weight: 200;" x="0" y="79.11999977959526" dx="0em" dy="0.3em" fill="rgb(50, 49, 63)" stroke="none" stroke-width="1px">0.4</text><text style="text-anchor: end; visibility: hidden; font-family: Roboto, sans-serif; font-size: 12px; font-weight: 200;" x="0" y="59.33999983469646" dx="0em" dy="0.3em" fill="rgb(50, 49, 63)" stroke="none" stroke-width="1px">0.5</text><text style="text-anchor: end; visibility: inherit; font-family: Roboto, sans-serif; font-size: 12px; font-weight: 200;" x="0" y="39.55999988979765" dx="0em" dy="0.3em" fill="rgb(50, 49, 63)" stroke="none" stroke-width="1px">0.6</text><text style="text-anchor: end; visibility: hidden; font-family: Roboto, sans-serif; font-size: 12px; font-weight: 200;" x="0" y="19.779999944898826" dx="0em" dy="0.3em" fill="rgb(50, 49, 63)" stroke="none" stroke-width="1px">0.7</text><text style="text-anchor: end; visibility: hidden; font-family: Roboto, sans-serif; font-size: 12px; font-weight: 200;" x="0" y="0" dx="0em" dy="0.3em" fill="rgb(50, 49, 63)" stroke="none" stroke-width="1px">0.8</text></g><line x1="51.41600036621094" y1="0" x2="51.41600036621094" y2="178.01999950408936" fill="rgb(0, 0, 0)" stroke="rgb(204, 204, 204)" stroke-width="1px"></line></g></g><g transform="translate(51, 0)" clip-path="url(#clip_0)"><clipPath id="clip_0"><rect width="278" height="178"></rect></clipPath><g><g><g><line x1="0" y1="0" x2="0" y2="178.01999950408936" fill="rgb(0, 0, 0)" stroke="rgb(60, 60, 60)" stroke-width="1px" opacity="0.25"></line><line x1="34.82299995422363" y1="0" x2="34.82299995422363" y2="178.01999950408936" fill="rgb(0, 0, 0)" stroke="rgb(60, 60, 60)" stroke-width="1px" opacity="0.25"></line><line x1="69.64599990844727" y1="0" x2="69.64599990844727" y2="178.01999950408936" fill="rgb(0, 0, 0)" stroke="rgb(60, 60, 60)" stroke-width="1px" opacity="0.25"></line><line x1="104.4689998626709" y1="0" x2="104.4689998626709" y2="178.01999950408936" fill="rgb(0, 0, 0)" stroke="rgb(60, 60, 60)" stroke-width="1px" opacity="0.25"></line><line x1="139.29199981689453" y1="0" x2="139.29199981689453" y2="178.01999950408936" fill="rgb(0, 0, 0)" stroke="rgb(60, 60, 60)" stroke-width="1px" opacity="0.25"></line><line x1="174.11499977111816" y1="0" x2="174.11499977111816" y2="178.01999950408936" fill="rgb(0, 0, 0)" stroke="rgb(60, 60, 60)" stroke-width="1px" opacity="0.25"></line><line x1="208.9379997253418" y1="0" x2="208.9379997253418" y2="178.01999950408936" fill="rgb(0, 0, 0)" stroke="rgb(60, 60, 60)" stroke-width="1px" opacity="0.25"></line><line x1="243.76099967956543" y1="0" x2="243.76099967956543" y2="178.01999950408936" fill="rgb(0, 0, 0)" stroke="rgb(60, 60, 60)" stroke-width="1px" opacity="0.25"></line><line x1="278.58399963378906" y1="0" x2="278.58399963378906" y2="178.01999950408936" fill="rgb(0, 0, 0)" stroke="rgb(60, 60, 60)" stroke-width="1px" opacity="0.25"></line></g><g><line x1="0" y1="178.01999950408936" x2="278.58399963378906" y2="178.01999950408936" fill="rgb(0, 0, 0)" stroke="rgb(60, 60, 60)" stroke-width="1px" opacity="0.25"></line><line x1="0" y1="158.23999955919052" x2="278.58399963378906" y2="158.23999955919052" fill="rgb(0, 0, 0)" stroke="rgb(60, 60, 60)" stroke-width="1px" opacity="0.25"></line><line x1="0" y1="138.45999961429172" x2="278.58399963378906" y2="138.45999961429172" fill="rgb(0, 0, 0)" stroke="rgb(60, 60, 60)" stroke-width="1px" opacity="0.25"></line><line x1="0" y1="118.6799996693929" x2="278.58399963378906" y2="118.6799996693929" fill="rgb(0, 0, 0)" stroke="rgb(60, 60, 60)" stroke-width="1px" opacity="0.25"></line><line x1="0" y1="98.8999997244941" x2="278.58399963378906" y2="98.8999997244941" fill="rgb(0, 0, 0)" stroke="rgb(60, 60, 60)" stroke-width="1px" opacity="0.25"></line><line x1="0" y1="79.11999977959526" x2="278.58399963378906" y2="79.11999977959526" fill="rgb(0, 0, 0)" stroke="rgb(60, 60, 60)" stroke-width="1px" opacity="0.25"></line><line x1="0" y1="59.33999983469646" x2="278.58399963378906" y2="59.33999983469646" fill="rgb(0, 0, 0)" stroke="rgb(60, 60, 60)" stroke-width="1px" opacity="0.25"></line><line x1="0" y1="39.55999988979765" x2="278.58399963378906" y2="39.55999988979765" fill="rgb(0, 0, 0)" stroke="rgb(60, 60, 60)" stroke-width="1px" opacity="0.25"></line><line x1="0" y1="19.779999944898826" x2="278.58399963378906" y2="19.779999944898826" fill="rgb(0, 0, 0)" stroke="rgb(60, 60, 60)" stroke-width="1px" opacity="0.25"></line><line x1="0" y1="0" x2="278.58399963378906" y2="0" fill="rgb(0, 0, 0)" stroke="rgb(60, 60, 60)" stroke-width="1px" opacity="0.25"></line></g></g></g><g><g><line x1="0" y1="158.23999955919052" x2="278.58399963378906" y2="158.23999955919052" fill="rgb(0, 0, 0)" stroke="rgb(153, 153, 153)" stroke-width="1.5px"></line></g></g><g><g><line x1="34.82299995422363" y1="0" x2="34.82299995422363" y2="178.01999950408936" fill="rgb(0, 0, 0)" stroke="rgb(153, 153, 153)" stroke-width="1.5px"></line></g></g><g><g><g><g><g><path style="fill: none;" stroke="rgb(255, 112, 67)" stroke-width="2px" d="M37.957069950103765,-2.9640327090229572L38.096361949920656,7.572468902887113L38.51423794937134,8.963941545340209L38.58388394927979,2.8093188589482407L38.65352994918823,3.9461984701158066L38.723175949096685,6.21575222616651L38.79282194900513,7.709706731675778L39.3499899482727,16.96177115863428L39.55892794799804,20.20354080998908L39.76786594772339,26.519668341857066L39.83751194763183,22.37841063920898L39.90715794754028,30.950094096498106L39.97680394744873,26.97174714744544L40.32503394699096,35.853917201061726L40.88220194625854,34.896387261475546L40.95184794616699,29.15386979647322L41.36972394561767,27.99784700784912L41.926891944885256,29.93954658716927L42.13582994461059,27.446219332526102L42.205475944519044,26.838985447620267L42.692997943878176,29.183978746455335L42.90193594360351,31.316174624973655L43.04122794342041,32.58351839321769L43.598395942687986,34.73573397114912L43.80733394241333,22.0882907447855L43.876979942321775,24.39297510245873L44.503793941497804,25.23390298235768L44.643085941314695,24.226460466598855L44.71273194122315,29.249114974385297L44.78237794113159,36.59240278635913L45.269899940490724,35.785308472465424L45.61812994003296,43.219396661680086L45.757421939849856,39.237556711244444L45.8270679397583,39.884769204078914L46.10565193939209,40.56357376022713L46.45388193893433,39.30247264745861L46.523527938842776,35.86850431950548L46.73246593856812,34.726501482596355L47.150341938018805,36.16336922874875L47.21998793792725,34.59825799441915L47.35927993774414,34.84503278704488L47.568217937469484,30.286402519629146L47.70750993728638,39.384871682258506L47.77715593719483,41.57031750112251L47.91644793701172,40.472712184971826L48.05573993682861,36.407510239435894L48.125385936737054,38.08932928814384L48.612907936096185,41.92575120818797L49.17007593536377,49.26756645907824L49.239721935272215,41.238612787556306L49.30936793518066,40.519412341415425L49.58795193481445,30.483558923872817L50.28441193389892,34.20479697590667L50.35405793380737,24.415340591349622L50.493349933624266,33.90365657358778L50.771933933258055,38.921816948807134L50.9808719329834,43.733109754387854L51.05051793289184,48.45450544586257L51.120163932800295,3.311280052843181L51.32910193252563,-6.268916839857973L52.791667930603026,-2.2296504015397565L52.930959930419924,10.359655668415607L53.00060593032837,6.976300497128739L53.13989793014527,20.037715474836858L53.418481929779055,14.71021199054243L53.697065929412844,25.10827684150365L53.836357929229735,38.397877537019745L54.184587928771975,38.47434504286487L55.15963192749024,42.62662186671986L55.50786192703247,44.88352187625205L55.57750792694092,47.39103902547927L55.85609192657471,45.19770724710777L55.92573792648316,47.29019557636681L56.20432192611695,37.40010805096202L56.27396792602539,41.646018533407556L56.41325992584229,48.00746566922223L56.622197925567626,47.80968112795605L56.97042792510986,50.13635141601478L57.040073925018305,52.919673350076316L57.10971992492676,53.90034999174253L57.45794992446899,51.2091310802921L57.52759592437744,54.432282324543934L57.59724192428589,48.78227187285353L57.806179924011225,47.370277857719806L58.432993923187254,53.19116523133383L58.572285923004145,50.64309997125684L58.99016192245483,53.13067739185171L59.40803792190552,49.288830386397144L59.47768392181396,55.76537968515441L59.89555992126465,61.90177669445327L60.10449792098999,61.39673198189406L60.38308192062378,53.62603250765787L60.66166592025757,53.826173820884925L60.80095792007446,57.25282791122881L61.079541919708255,54.846157549898216L61.1491879196167,61.57914471309219L61.218833919525146,57.596521323861104L61.358125919342044,55.018225624512134L61.70635591888428,57.848251058977844L62.05458591842651,58.23146089433816L62.124231918334964,55.894988129646016L62.19387791824341,56.74895983888284L63.23856791687012,60.800689952439036L63.72608991622925,58.327273152090186L64.14396591567993,58.3571416915878L64.21361191558839,63.00405375297578L64.35290391540528,67.76759826833663L64.49219591522217,66.08416011317135L64.77077991485596,67.10772903031743L65.39759391403197,61.90683512515944L65.53688591384888,66.27705821258694L65.60653191375732,71.1671461245253L65.81546991348266,69.54674304140387L66.23334591293334,69.90092900041229L66.79051391220092,67.86371590309115L66.86015991210937,65.83781422873022L67.06909791183472,68.09121399222883L67.13874391174316,62.28181886699699L67.76555791091918,61.04202526285078L67.83520391082763,70.03905056248563L68.60130990982056,60.66527518378463L68.8102479095459,46.291856929560225L68.87989390945434,55.6360958506392L69.01918590927124,61.9018139226913L69.15847790908813,63.72195020898507L70.13352190780638,59.01959821957061L70.48175190734864,56.7874741765707L70.62104390716553,63.962610811704096L70.82998190689086,65.20693843538943L70.96927390670776,65.65839862069045L71.31750390625,63.8543408988069L71.38714990615844,62.16605916376877L71.80502590560913,66.93272768656342L71.94431790542602,74.64576128269664L72.01396390533448,70.64460183155985L72.15325590515137,74.00843863459613L72.22290190505981,76.17640985300199L72.43183990478516,72.59093409088227L72.57113190460205,65.19103303524781L72.91936190414428,60.71178992890839L72.98900790405274,63.70661578961651L73.61582190322875,61.29240270952645L73.75511390304565,64.98467039272967L74.03369790267944,60.89509188371019L74.1033439025879,65.74466763106913L74.17298990249634,66.85442206811082L74.45157390213012,68.78193645901801L74.73015790176392,61.882643054445616L74.79980390167236,63.369460771968654L75.0087419013977,66.88241658044231L75.1480339012146,72.37834241700426L75.21767990112305,74.80623520735953L75.2873259010315,72.96086519695426L75.35697190093995,63.451853002915236L75.42661790084838,53.329157090246056L75.49626390075684,64.14105666126738L75.63555590057373,67.43039978431312L75.70520190048218,71.49254727686854L76.05343190002442,77.89446447925685L76.12307789993287,77.76086808858724L76.40166189956665,79.73441065978423L76.610599899292,81.00544116670734L76.74989189910889,81.33679099223852L77.16776789855957,71.43036634997254L77.30705989837647,78.70699526716069L77.6552898979187,57.95887395973089L77.93387389755249,64.0723766476078L78.00351989746095,74.35622712658231L78.14281189727784,69.49814277420239L78.9785638961792,74.40968594075424L79.46608589553833,71.01129030322392L79.53573189544677,76.05550503291279L79.67502389526366,77.64224478934877L79.74466989517212,77.46187140383793L79.81431589508055,78.1141837073116L79.88396189498901,79.00533358256766L80.0232538948059,76.88976871955283L80.23219189453124,71.93721415810793L80.51077589416504,69.05072359725075L80.58042189407348,73.87346924234363L80.85900589370728,70.51079392439263L81.06794389343261,73.720309170988L81.3465278930664,76.67803127459695L81.55546589279174,78.99011665843028L81.62511189270019,80.6078820329856L81.69475789260865,72.19422697330998L81.76440389251708,71.21915944591062L81.83404989242554,68.95040598679269L81.97334189224243,78.73710654178137L82.04298789215088,77.54633713719764L82.11263389205934,71.29104030337389L82.32157189178466,63.5220138947361L82.39121789169312,52.1765367316559L82.46086389160156,65.22815714347091L82.60015589141845,71.7097633493207L82.73944789123534,75.9381082183161L82.8090938911438,61.09452315188325L83.29661589050292,74.52859758422943L83.50555389022827,73.27108802021213L83.78413788986207,73.16758195478533L83.9930758895874,79.9206209733746L84.13236788940429,80.5566708926473L84.27165988922118,85.2571469792403L84.55024388885498,80.9619825787291L84.82882788848877,77.85558564153796L85.03776588821411,83.14590815675407L85.10741188812256,76.01620194626199L85.17705788803102,75.11280724575333L85.24670388793945,75.04130600763347L85.66457988739013,79.2817758954914L86.08245588684082,83.62735279131651L86.22174788665771,80.73016452794684L86.29139388656617,82.5135634770381L86.56997788619996,79.39927359875357L86.77891588592529,81.45871162182385L86.84856188583375,81.41048186254805L87.05749988555908,78.09739182783018L87.12714588546753,86.10667403822939L87.19679188537597,83.49103195649992L87.33608388519288,85.09602878680374L87.47537588500977,73.22188141341081L87.89325188446045,75.63651440464302L88.10218988418579,80.4772994570765L88.17183588409424,83.60465427507086L88.38077388381957,81.43318833240563L88.45041988372803,83.56987643043121L88.52006588363646,85.34904859486466L88.65935788345337,81.73448092411135L88.72900388336181,83.60546533033771L89.1468798828125,85.04237436547469L89.4254638824463,80.24776022074904L89.49510988235473,83.7735621759207L89.63440188217163,79.70268602544438L89.77369388198852,83.15905878674356L89.91298588180541,86.7521135465259L89.98263188171387,84.203955839232L90.0522778816223,77.25823820042714L90.12192388153076,81.33809956680695L90.19156988143921,78.42726520470143L90.40050788116456,80.28964083432761L90.53979988098145,77.76343835455474L90.67909188079834,76.08268090647644L90.88802988052367,80.11472379335439L91.02732188034057,84.25099458705463L91.09696788024903,80.16203108031621L91.16661388015747,83.78503269958435L91.58448987960816,88.01527166800301L91.6541358795166,91.87701566420627L91.7934278793335,93.17912780867876L92.00236587905883,86.41620193915489L92.28094987869262,84.03634698935792L92.48988787841797,87.2315111941394L92.69882587814331,90.17007080282015L92.76847187805177,87.04009112793928L92.90776387786866,85.06705160790158L93.04705587768555,83.05527277619133L93.18634787750244,81.4146214820771L93.53457787704468,80.32369572656194L93.74351587677002,81.05815540753272L93.88280787658692,77.4376393419571L94.92749787521362,75.72019664231979L95.20608187484741,73.93198415413056L95.3453738746643,81.34677325992536L95.41501987457276,76.16251345327072L95.69360387420654,76.53935408828394L95.83289587402344,76.41243652670612L95.90254187393188,80.01570767617254L96.11147987365722,72.49677426321233L96.25077187347411,73.00533601446337L96.39006387329101,78.06519749015922L96.59900187301636,71.04672688184147L96.73829387283325,73.63546751026054L96.8079398727417,82.64102006834193L96.94723187255859,86.80330315856216L97.22581587219237,79.76042213471052L97.50439987182617,79.8039399722823L97.9919218711853,79.35902935293346L98.06156787109374,79.01947904294687L98.1312138710022,81.68665208582341L98.20085987091063,84.23173850455193L98.34015187072754,85.43399083334026L98.54908987045289,80.70838684865778L98.61873587036132,83.95854127515489L98.68838187026978,85.41348596509394L98.89731986999512,89.99982672777749L98.96696586990356,93.40675021403827L99.036611869812,81.90862747946765L99.10625786972047,82.48125345408516L99.66342586898804,89.31378805188442L99.73307186889647,92.94226862499413L99.94200986862182,86.96719690493767L100.42953186798096,91.67950766582221L100.6384698677063,92.14571812452074L101.19563786697388,94.4444545016327L101.26528386688233,90.559221092321L101.40457586669922,93.1875070306526L101.47422186660768,86.20583928186103L101.54386786651611,83.34034728730829L101.75280586624146,83.03596469668916L101.8224518661499,86.00158395385246L101.9617438659668,87.84999892731922L102.10103586578369,83.10998729689466L102.44926586532593,87.936371480172L102.51891186523437,80.22605191706862L102.79749586486817,85.29849285501653L102.86714186477661,88.1171495361026L102.93678786468506,82.99236616916065L103.00643386459352,87.71080775181262L103.21537186431884,87.49773960222166L103.2850178642273,90.83236452313417L103.35466386413574,88.904978974177L103.5636018638611,83.99057052962664L103.63324786376953,85.7256894474036L104.1904158630371,74.2890462036557L104.4689998626709,76.58713964435005L104.60829186248779,78.57462756112851L104.7475838623047,82.1419866232826L104.81722986221313,73.16520194105443L105.02616786193848,81.80619033298355L105.23510586166381,81.30953167450608L105.30475186157227,83.50216210905906L105.3743978614807,85.32429850293555L105.44404386138916,89.69424599623699L105.6529818611145,88.24630759885797L106.21014986038207,91.71506573660663L106.34944186019897,89.66246585772694L106.48873386001587,81.57601514520405L106.62802585983276,80.57878167651876L106.6976718597412,85.73853919689346L106.90660985946654,89.83331269980864L107.04590185928345,90.87097978259632L107.18519385910034,93.53296054836211L107.53342385864258,94.69359398346015L108.02094585800171,84.3162594185372L108.09059185791016,78.87694328308467L108.29952985763549,76.73287515936346L108.43882185745238,85.3061439067505L108.85669785690307,80.37890776645571L108.92634385681153,79.46585609562217L109.06563585662842,76.87545425749963L109.20492785644532,81.40189143854472L109.4835118560791,81.5206874568753L109.7620958557129,80.63621560411683L109.90138785552979,86.79514208962925L110.24961785507202,86.53630324593449L110.31926385498048,90.0190842339157L110.38890985488891,86.91654669921971L110.87643185424805,88.6548152064105L110.9460778541565,75.0489396315425L111.36395385360717,72.83473299134306L111.64253785324097,82.05856930268729L111.71218385314943,74.45976158513943L111.78182985305786,78.07337527445286L112.4086438522339,84.28694174785548L112.54793585205078,90.57507136323004L112.75687385177612,88.68204775673208L113.1747498512268,82.90456390561789L113.24439585113525,89.33136763715662L113.52297985076903,85.76196348710089L113.73191785049438,90.97396271070562L113.80156385040283,87.43626170782423L113.87120985031127,89.11674249683013L114.08014785003661,86.00839167277196L114.84625384902954,81.01835355432914L115.05519184875487,81.17579339392486L115.26412984848022,86.4349083076367L115.33377584838867,88.69150413901356L115.40342184829711,88.57029844443163L115.61235984802245,92.03360918226086L115.68200584793091,91.34620637856877L115.75165184783936,90.65342214685674L116.79634184646606,94.59162287684796L117.0052798461914,91.54817313594495L117.14457184600829,86.22530087099129L117.21421784591675,93.9140002960731L117.35350984573364,92.48958622227093L117.42315584564209,89.6192759789286L117.63209384536744,92.78290738761493L117.84103184509277,91.8509874972718L117.91067784500123,95.71010742852359L118.04996984481812,86.96609269036858L118.18926184463501,88.26318011134802L118.3285538444519,89.65676809584046L118.46784584426881,88.6156831140554L118.67678384399414,88.0011501302319L118.81607584381103,88.3685759391597L118.95536784362793,89.15531903585392L119.09465984344482,88.09364884418021L119.23395184326172,88.91864307539169L119.37324384307861,89.19922090305359L120.06970384216308,89.63259991655083L120.34828784179687,92.59153861206792L120.62687184143066,92.02255930613514L120.69651784133912,93.80847584148157L120.76616384124756,90.87346074184522L120.90545584106445,88.41778495264097L121.1143938407898,91.52311757881307L121.32333184051514,93.6293284853976L121.46262384033203,95.26475437104052L121.67156184005738,95.77134789069466L122.08943783950805,98.99403137081747L122.22872983932494,96.68879853990552L122.36802183914183,91.66668088041851L122.43766783905029,90.81767778052837L122.64660583877563,86.33087178786386L122.71625183868409,74.8083893044342L122.78589783859252,79.29987241453688L122.99483583831787,77.2308111591877L123.55200383758545,80.17298919191607L123.90023383712769,81.36585176733246L124.03952583694458,84.95922809610805L124.45740183639526,85.43671431436631L124.73598583602904,88.92271454366013L124.8056318359375,88.04684828506487L124.87527783584594,90.29728850981513L124.9449238357544,85.95513836961761L125.36279983520508,83.74078857867583L125.57173783493042,88.08301764753057L126.05925983428955,95.20933968060795L126.19855183410645,88.4581813320511L126.40748983383179,88.66894679173583L126.47713583374023,89.55681720539064L126.68607383346557,88.60292364971474L126.75571983337403,89.68053447549998L127.10394983291626,89.51507858525179L127.17359583282472,93.00162752560708L127.24324183273315,96.9677222407586L127.4521798324585,94.13546275689188L127.66111783218383,86.53182775085843L127.7307638320923,83.89356976462592L127.80040983200072,91.31998536299974L127.87005583190918,84.63185525372776L127.93970183181763,89.45594770979301L128.35757783126832,95.6117350282136L128.775453830719,91.2793160994606L129.1933298301697,93.04273398559795L129.47191382980347,92.7056506774732L129.61120582962036,85.54686062093947L129.9594358291626,82.77382644665124L130.23801982879638,87.01387733075656L130.7255418281555,86.83754385607968L130.8648338279724,91.9903783405746L131.07377182769775,95.12547492234023L131.21306382751465,97.28526021847398L131.2827098274231,99.49888233868886L131.49164782714843,95.39385185007036L131.5612938270569,96.70497448609818L131.70058582687378,94.50051954554492L131.7702318267822,94.45551649857511L131.97916982650756,90.68234857555852L133.16315182495117,93.08024269535126L133.23279782485963,93.18994345487235L133.30244382476806,97.00914772018612L133.37208982467652,95.01838431012526L133.6506738243103,99.46629755955854L133.85961182403565,97.09653827151479L134.13819582366943,97.16252228366281L134.2078418235779,94.45651615862583L134.27748782348633,97.06062583261293L134.5560718231201,97.09731247980231L134.62571782302857,95.95602031409949L134.695363822937,92.59327476771654L134.83465582275392,89.8117616659527L134.9739478225708,95.56984457218793L135.1132398223877,89.72662005107837L135.2525318222046,93.66105988519463L135.80969982147215,93.09172772773307L136.15792982101442,95.12195769319705L136.22757582092285,85.16165933848767L136.85438982009887,93.85921705970682L136.92403582000733,89.58249776018717L137.69014181900025,93.3928231840445L138.0383718185425,96.77306695682995L138.24730981826784,91.80367058691048L138.31695581817627,96.59574500641084L138.52589381790162,95.37246892329723L138.6651858177185,81.50196529561163L138.73483181762694,84.23978882299612L139.29199981689453,89.0659290160117L139.36164581680296,95.99026987747631L139.43129181671142,93.1907135040746L139.50093781661988,95.40624664315486L139.7098758163452,95.44824312206224L139.84916781616212,91.6707593355058L139.91881381607055,96.79311983205895L139.98845981597898,89.01256448816864L140.54562781524658,93.54604655618874L140.89385781478882,84.10358610153479L140.96350381469728,79.6833106404745L141.17244181442263,84.8335280377781L141.65996381378173,90.81354799686126L141.79925581359865,76.89997399630414L142.4957158126831,84.53594822286014L142.84394581222534,93.51113564944373L142.9135918121338,95.59884890841793L143.05288381195066,97.91116519293132L143.12252981185915,94.84461659914318L143.54040581130982,90.27417949492553L143.61005181121826,89.2687809455894L144.02792781066896,94.51331498447385L144.0975738105774,92.68618578415179L144.7243878097534,97.43760126181354L145.0029718093872,91.60071294081425L145.1422638092041,97.81257708969531L145.4208478088379,98.9904605020685L146.0476618080139,102.0987088805291L146.18695380783083,102.38320709585366L146.39589180755615,98.17249614421777L146.53518380737304,101.34725310055974L146.6048298072815,94.77951462943369L146.95305980682372,97.31095699988204L147.16199780654907,94.26610688396468L147.5102278060913,96.76759268639366L147.6495198059082,96.71010150131288L147.928103805542,86.99741762540673L148.06739580535887,90.03499080978946L148.13704180526733,90.93191526622957L148.2066878051758,93.65942848549697L148.34597980499268,95.71290858577196L148.48527180480957,94.15135668389341L148.8335018043518,95.98906270725912L149.04243980407716,98.76688467133302L149.18173180389402,89.52307176521106L149.39066980361937,95.43834765547626L149.59960780334472,96.79279028582182L149.87819180297853,99.67641417697043L150.08712980270386,100.59985267167899L150.36571380233764,94.04856249964698L150.4353598022461,95.43442641739146L150.50500580215456,97.15942758892106L150.9925278015137,97.9040762032426L151.13181980133055,102.19094192926487L151.27111180114747,102.01286916901773L151.4800498008728,97.69585066841184L151.54969580078125,96.11595693612541L151.96757180023192,92.29313723184268L152.03721780014038,96.7660376760564L152.31580179977416,100.7351866838159L152.59438579940795,100.89348553670804L152.8033237991333,104.61289301880291L152.87296979904173,103.5631665424216L152.94261579895021,104.92654232096221L153.01226179885865,100.090871211982L153.15155379867554,93.79587166607475L153.3604917984009,99.7303554949274L153.84801379776002,100.96542311137773L153.91765979766845,100.85176929810027L154.2658897972107,100.96623636145065L154.40518179702758,99.93727690830472L154.47482779693604,96.59733489687925L154.54447379684447,97.98617901198968L155.17128779602052,92.4515322460028L155.4498717956543,100.63135681263566L155.51951779556276,97.61118372959446L155.5891637954712,102.59389456669012L155.65880979537963,104.84623657517083L155.79810179519654,100.36187534277299L156.14633179473876,97.42501686760816L156.21597779464722,99.92460983710092L156.3552697944641,101.27348213294597L156.42491579437257,103.57327186257847L156.494561794281,101.58819331476943L156.70349979400635,100.15859847299195L156.84279179382324,97.10567536768067L156.9124377937317,97.5995253216773L156.98208379364013,100.04770699552019L157.60889779281615,97.05296519915764L157.8178357925415,100.73294613729132L158.44464979171752,96.17788880483823L158.86252579116822,96.70460405916184L158.93217179107666,100.89866113121265L159.35004779052733,103.15109820186926L159.41969379043582,103.070500754916L159.48933979034425,103.07584717779929L159.6286317901611,100.69155241319157L160.0465077896118,102.25960710449193L160.46438378906248,100.22256077288547L160.53402978897097,99.40963234163974L161.09119778823853,100.53412789766755L161.16084378814696,105.51575895370337L161.3697817878723,103.98111679657013L161.57871978759763,103.93188293962444L161.85730378723144,108.73174127743192L161.99659578704834,107.26708952023498L162.27517978668214,101.8779364827843L162.6930557861328,99.55003560446556L162.9716397857666,99.70507074081888L163.04128578567506,98.5333741781247L163.25022378540038,96.08374000582603L163.3895157852173,98.34497806390692L163.59845378494265,101.36117986754049L163.87703778457643,98.6447241306069L164.01632978439332,100.05456497107475L164.1556217842102,103.29337417945924L164.22526778411867,106.1971958265204L164.2949137840271,107.21750747969787L164.78243578338623,104.13751858095353L164.92172778320312,97.82946089780425L164.99137378311158,96.44694160934375L165.40924978256226,97.07961030334295L165.4788957824707,100.5256815715487L165.54854178237915,95.59759732788179L165.68783378219604,94.64973319671661L165.82712578201293,99.54879324244351L166.6628777809143,102.99993011321891L167.28969178009035,104.46459536067478L167.56827577972413,100.21044390994847L167.91650577926637,100.86219396305125L167.9861517791748,102.38689680518948L168.33438177871702,98.047252813993L168.4040277786255,103.18996780531897L168.47367377853394,102.79775001805857L168.75225777816772,103.39686357059644L168.82190377807618,102.58341414623968L169.23977977752688,104.52523851018243L169.51836377716066,105.30944717570593L169.5880097770691,104.9078786069454L169.65765577697755,105.57551358687252L169.79694777679444,106.07942508658776L169.86659377670287,107.06613914769179L170.2148237762451,106.12957773914032L170.42376177597046,106.70283345199674L170.56305377578735,101.79285408213256L170.7719917755127,101.3986905769649L170.98092977523805,103.43570660241481L171.1898677749634,97.60074078225055L171.32915977478027,100.56652247018137L171.74703577423097,89.67599234554719L171.8166817741394,98.14734689241557L171.9559737739563,99.80524549772075L172.0952657737732,100.6152903903307L172.72207977294923,97.85322778301921L172.79172577285766,97.92069864936325L172.86137177276612,95.62877463813426L172.93101777267458,102.56241248701767L173.9060617713928,104.74169915570424L174.1846457710266,105.96152675904356L174.4632297706604,106.4586837129364L174.53287577056884,102.2480684053399L174.7418137702942,100.25759980494055L174.81145977020262,103.51763192479592L175.02039776992797,106.91298872879617L175.1596897697449,102.83232653338757L175.29898176956175,105.00351896834546L175.647211769104,100.31707092089971L175.85614976882934,91.28853791230515L175.99544176864626,99.31807730802848L176.0650877685547,101.24885887443739L176.20437976837158,100.71518044961181L176.41331776809693,101.59247268089321L176.62225576782228,103.37063461294998L176.76154776763914,102.6044821652451L176.9704857673645,103.6664457822385L177.17942376708984,104.74829271626385L177.24906976699828,102.74446273032567L177.45800776672363,105.18887562867235L177.66694576644898,105.85804605662179L178.22411376571657,104.334132707488L178.293759765625,105.89150656440562L178.4330517654419,108.10846880380309L178.78128176498413,110.63168181582911L179.12951176452637,108.10671579517502L179.1991577644348,103.08730576260939L179.26880376434326,102.91629855866606L179.40809576416015,107.04123781220804L179.4777417640686,106.41406481348842L179.6170337638855,105.58488419256979L179.7563257637024,106.0822626995523L179.96526376342774,105.39069569067019L180.03490976333617,104.13443780780251L180.31349376296996,104.59811655590693L180.6617237625122,108.5331939642222L180.80101576232911,107.9180330562809L181.2188917617798,108.6571492941498L181.28853776168825,110.67541781912438L181.35818376159668,107.59153447128082L181.42782976150514,102.95168149823851L181.49747576141357,107.05378910512567L181.70641376113892,104.05420400953014L181.84570576095584,106.16102869021074L182.05464376068113,106.24824928629462L182.12428976058962,106.8590620505809L182.33322776031494,102.41035776461574L182.47251976013183,104.68006343292893L182.61181175994872,103.86926744471307L182.68145775985718,102.32462476464723L182.75110375976564,102.00446202727043L183.02968775939942,104.7553693066654L183.3082717590332,104.4029400566063L183.37791775894166,98.1719862040454L183.4475637588501,102.63999920418719L183.72614775848388,98.35378933850532L183.7957937583923,95.62824191540867L183.93508575820923,101.23931752413947L184.00473175811766,103.22629470751038L184.14402375793458,99.76153410915721L184.213669757843,107.35414437178213L184.28331575775147,107.5757475144298L184.42260775756836,109.68706709700095L184.49225375747682,107.212749396373L184.63154575729368,108.65794025959116L184.84048375701903,107.51849941897979L184.97977575683595,106.87188789397906L185.04942175674438,106.81778685663056L185.46729775619505,101.55705275454227L185.53694375610354,105.54220032948244L185.60658975601197,109.85200905366612L185.88517375564575,105.19490573027205L186.02446575546264,105.89064108483564L186.16375775527953,107.97733858908158L186.44234175491334,110.20757319579577L186.92986375427247,106.55846640892462L187.1388017539978,109.20355430979023L187.2780937538147,104.17368274113045L187.41738575363158,101.9661434036341L187.48703175354004,102.2745729444756L187.76561575317385,106.10656792302524L187.9049077529907,105.35570979508395L187.97455375289917,108.58304266660537L188.04419975280763,106.64404241619263L188.25313775253295,106.50738282361641L188.3227837524414,109.82962424191993L188.53172175216673,107.05750769827735L188.60136775207522,109.46774173303615L188.8103057518005,111.59143716947528L189.01924375152586,106.82418548096918L189.29782775115967,103.96958081575373L189.71570375061037,99.29749601339743L189.7853497505188,99.85883910769161L189.99428775024415,101.94063656468892L190.0639337501526,105.31478145399946L190.20322574996948,104.65583474790527L190.3425177497864,107.75004789295458L190.41216374969483,107.1721037825907L190.55145574951175,101.24165799680948L190.62110174942018,105.03339390709894L190.76039374923704,106.35811872875854L190.83003974914553,101.39736960525208L190.89968574905396,103.70194588614737L190.9693317489624,105.86714168831536L191.1086237487793,104.58616901047316L191.2479157485962,105.37227786331174L191.31756174850463,106.77137472126519L191.5961457481384,103.39109292789131L191.66579174804687,105.46340640918513L191.80508374786376,99.79257508772939L192.0140217475891,100.73563811374798L192.153313747406,106.22093449567208L192.36225174713135,105.19721813032265L193.19800374603273,104.07357233076253L193.4765877456665,109.97660937103052L193.68552574539186,107.48847302529617L194.0337557449341,106.858236641249L194.17304774475096,107.63827983424001L194.3819857444763,103.8845698289681L194.799861743927,103.96309506910238L194.86950774383544,106.28612710270932L195.00879974365233,105.28356598611187L195.21773774337768,106.51057286202781L195.42667574310303,108.81387938923683L195.49632174301146,100.88509850138679L195.56596774291992,97.33565240259851L196.19278174209595,99.64242940450514L196.2624277420044,102.40539980856066L196.33207374191284,108.03698204226068L196.40171974182127,110.02431423962689L196.5410117416382,108.62399770347183L196.68030374145508,108.71821535192207L196.88924174118043,109.16803712003043L197.23747174072264,106.92334768029002L197.37676374053956,108.9474767987557L197.446409740448,109.06414362659773L197.51605574035642,109.90544532327951L197.5857017402649,108.28119030095289L198.14286973953247,106.61609698768075L198.7696837387085,109.44423130716366L199.11791373825073,108.22515749117822L199.6750817375183,110.19157165998148L199.74472773742676,106.19955497348222L199.9536657371521,108.97427662237646L200.2322497367859,106.57666683991248L200.44118773651124,111.23477801119363L200.71977173614502,111.33208689543476L200.92870973587034,109.45929848238906L201.1376477355957,108.13909184813019L201.20729373550412,112.05213858958845L201.2769397354126,107.08904525642822L201.41623173522947,106.61521517137818L201.97339973449706,106.356121352017L202.11269173431398,109.99130109696557L202.25198373413085,109.80549838801296L202.39127573394777,103.4362309436155L202.73950573349,103.28547853645723L203.08773573303222,105.78855408488788L203.6449037322998,107.34214130351732L203.71454973220824,109.47958126189542L203.7841957321167,108.80743219452906L204.0627797317505,110.52414191373852L204.27171773147583,106.37884460952317L204.48065573120118,108.347106611845L205.03782373046874,104.57529670762737L205.17711573028566,99.86404963242845L205.45569972991944,102.56286878906127L205.52534572982788,105.83905143366827L205.59499172973634,106.82120885337257L205.66463772964477,105.30351772537503L205.8039297294617,98.53366783779057L205.94322172927855,102.40917621761274L206.1521597290039,103.77416912965089L206.36109772872925,103.90979041664977L206.43074372863768,104.60469959747172L206.5700357284546,107.29825995157448L206.7093277282715,108.00709923601211L207.19684972763062,112.01870512598612L207.4754337272644,106.1848893951118L207.6147257270813,108.72816513316631L207.7540177268982,110.32174507156492L207.89330972671507,111.17592896051488L207.96295572662356,107.90931363779404L208.10224772644042,108.27213757333391L208.31118572616577,99.5466400426283L208.45047772598267,102.62322978096536L208.65941572570802,104.46553114432918L208.7987077255249,107.63931424692976L209.00764572525023,105.34833279123167L209.0772917251587,105.11438336280119L209.14693772506715,108.15968687530301L209.8433977241516,111.43510781291238L209.91304372406003,104.49438651999643L210.05233572387695,108.60839316310489L210.12198172378538,107.54565693983353L210.19162772369384,102.89027817177482L210.2612737236023,105.41387049480332L210.47021172332762,108.94808056667844L210.53985772323608,110.65248684353526L210.67914972305297,108.80906001926951L210.88808772277832,110.96203440078456L211.0273797225952,109.01365223154504L211.1666717224121,109.32988762293871L211.305963722229,109.14702877546173L211.93277772140505,110.21861474871326L212.00242372131348,109.46991853633374L212.21136172103883,107.44639248227888L212.35065372085572,102.58910407852728L212.4899457206726,103.0839423261987L212.6292377204895,107.23553292976445L212.76852972030642,107.13632157078872L212.83817572021485,110.74717484519051L213.0471137199402,108.71539018756799L213.46498971939087,107.26277055455282L213.5346357192993,97.6976700180241L213.81321971893308,102.94407767879122L214.02215771865843,103.66069129352167L214.23109571838378,108.09549727769404L214.37038771820067,111.99470704830537L214.44003371810913,113.79678078900423L214.71861771774294,108.16693442301785L214.99720171737673,104.7959236356677L215.20613971710205,105.36846171636537L215.2757857170105,108.46087752482732L215.34543171691894,105.20792277160587L215.4150777168274,104.79253753774948L215.62401571655275,103.87646359295401L215.90259971618653,105.98028909235173L216.04189171600342,107.88420645908496L216.3204757156372,103.44906366694188L216.39012171554566,105.14801296743678L216.52941371536255,103.13440967200451L216.59905971527098,104.88158710396999L216.94728971481325,105.64651631946622L217.15622771453857,105.10711605249188L217.22587371444703,103.80590586910964L217.36516571426392,101.75128729322283L217.50445771408081,103.06628928960693L217.6437497138977,106.69278850065878L217.71339571380614,109.31315872250099L217.9223337135315,100.72573168108444L217.99197971343995,105.84193428855093L218.13127171325684,99.68870736450013L218.34020971298216,102.08063745555772L218.40985571289065,105.05268891063314L218.5491477127075,102.7065062393212L218.9670237121582,106.78057083100126L219.17596171188353,110.86184039414218L219.38489971160888,107.1498687569501L219.4545457115173,108.14302802626305L219.73312971115112,110.15011297553268L220.15100571060182,110.98509683887482L221.05640370941163,112.50629616606967L221.3349877090454,111.32080061382216L221.47427970886233,112.56486261912484L221.82250970840454,112.25455540591395L222.0314477081299,110.2163564008536L222.17073970794678,103.59115080519061L222.44932370758056,106.1733472506454L222.7975537071228,104.30591425172487L223.07613770675658,110.06072036768745L223.35472170639036,106.41329444429334L223.56365970611571,105.28401082620248L224.19047370529174,103.40748886597093L224.60834970474244,108.16468995891245L225.3048097038269,105.36898538188912L225.37445570373538,98.10020579919639L225.4441017036438,100.82963659864912L225.65303970336916,101.40533839192129L225.7226857032776,107.74953873612785L226.07091570281983,102.98748790443327L226.21020770263672,105.03857932787392L226.4887917022705,108.20948017563119L226.55843770217896,106.85243962461158L226.6280837020874,109.77640794797117L226.69772970199585,103.82195714178135L226.76737570190429,105.85701834596583L226.83702170181274,103.90200001669896L226.9066677017212,103.63405413826831L227.46383570098877,106.94498147630229L227.67277370071412,103.66885233498704L228.0906497001648,102.53711918762696L228.36923369979857,102.81792453903735L229.06569369888308,92.30932788985244L229.1353396987915,99.50818057701588L229.20498569869994,102.95091476079229L229.69250769805907,104.68092563952013L230.04073769760132,105.76673508458097L230.24967569732667,109.16592765791123L230.38896769714356,100.31630966443323L230.45861369705202,102.3073811474698L230.52825969696045,105.24056897578134L230.5979056968689,104.88212129515883L230.8764896965027,92.84484146845959L231.43365769577025,97.86524577420572L231.5033036956787,98.0684438446236L231.71224169540406,102.61238606627953L231.85153369522095,108.77879772872517L231.9211796951294,109.11110801672814L232.06047169494627,109.60303564374543L232.40870169448854,107.32675105714189L232.89622369384765,107.19694734656707L233.03551569366456,111.96477377972377L233.24445369338991,109.42319287883001L233.38374569320678,110.56946610447694L233.73197569274902,110.423576910464L233.94091369247437,109.82896061486923L234.14985169219972,109.77763033150974L234.77666569137574,107.45869750357102L234.84631169128417,102.3841976178835L235.05524969100952,101.47341824040963L235.26418769073487,105.85607563619544L235.40347969055176,106.8563328615901L235.4731256904602,106.57438624761257L235.8910016899109,107.70255122286625L236.09993968963624,103.2303640903127L236.16958568954468,102.71777068443332L236.30887768936157,102.27318652649171L236.51781568908692,101.48844886771866L236.6571076889038,101.35371692777998L236.7963996887207,108.02463964281073L237.00533768844605,106.63163551732261L237.07498368835448,105.98094231351728L237.14462968826294,102.81377649481351L237.63215168762207,105.00213675076928L237.98038168716428,105.38958532526752L238.1196736869812,106.79466431209975L238.18931968688963,107.93653240520423L238.2589656867981,107.89124693585397L238.53754968643187,103.55252033073285L238.60719568634033,106.63440311526992L238.95542568588257,109.32736169065444L239.025071685791,109.15279813271022L239.30365568542481,107.90993060109929L239.51259368515014,106.45812139572611L239.5822396850586,106.01407181339026L239.7215316848755,109.43559013282442L240.20905368423462,107.81728985388904L240.27869968414308,110.6064242922089L240.62692968368532,105.0911871986895L241.46268168258666,106.64770547842578L241.8109116821289,106.50418093314998L241.95020368194582,105.59654595842942L242.01984968185425,104.26803296226922L242.2287876815796,107.83242089641324L242.29843368148804,100.0633182902602L242.92524768066406,97.19414428346907L243.34312368011476,97.21405917080797L243.62170767974854,99.96533010466696L243.691353679657,102.10739715656416" fill="none"></path></g></g></g></g><g opacity="0.2"><g><g><g><path style="fill: none;" stroke="rgb(255, 112, 67)" stroke-width="2px" d="M36.49450395202637,-3.6037429685339006L37.330255950927736,6.6217498737885965L37.608839950561524,-12.627536998381334L37.74813195037842,-85.35825108114895L37.88742395019531,13.784323751674378L37.957069950103765,21.52115514482143L38.096361949920656,23.356579217219334L38.51423794937134,11.049514885162509L38.58388394927979,-6.418274453880375L38.65352994918823,5.65103679751703L38.723175949096685,9.619506620789751L38.79282194900513,9.950410901007329L39.3499899482727,30.839022123736004L39.55892794799804,25.066017500669158L39.76786594772339,35.993651804792236L39.83751194763183,16.16660584714607L39.90715794754028,43.80751774266946L39.97680394744873,21.004255000253828L40.32503394699096,49.17713440308819L40.88220194625854,33.46009480215302L40.95184794616699,20.5401024150867L41.36972394561767,26.263813889773246L41.926891944885256,32.8520948830017L42.13582994461059,23.706229277375837L42.205475944519044,25.92813474108068L42.692997943878176,32.70146841476285L42.90193594360351,34.51446829002623L43.04122794342041,34.48453399111747L43.598395942687986,37.96405728254913L43.80733394241333,3.117126100916696L43.876979942321775,27.8500016175743L44.503793941497804,26.495294797522273L44.643085941314695,22.715296696327368L44.71273194122315,36.78309672599396L44.78237794113159,47.60733449548534L45.269899940490724,34.57466700220748L45.61812994003296,54.37052894228229L45.757421939849856,33.264796786625745L45.8270679397583,40.85558794322969L46.10565193939209,41.5817805943859L46.45388193893433,37.410820978376634L46.523527938842776,30.717551827691477L46.73246593856812,33.01349722725574L47.150341938018805,38.3186708479599L47.21998793792725,32.25059114293612L47.35927993774414,35.2151949759824L47.568217937469484,23.44845711851749L47.70750993728638,53.03257542618826L47.77715593719483,44.84848622941654L47.91644793701172,38.826304210746386L48.05573993682861,30.309707321133374L48.125385936737054,40.61205786120545L48.612907936096185,47.68038408825364L49.17007593536377,60.28028933541305L49.239721935272215,29.195182280273727L49.30936793518066,39.440611672204206L49.58795193481445,15.429778797559083L50.28441193389892,39.78665405395736L50.35405793380737,9.731156014514067L50.493349933624266,48.13613054694499L50.771933933258055,46.44905751163615L50.9808719329834,50.95004896275891L51.05051793289184,55.53659898307465L51.120163932800295,-64.40355803668585L52.58272993087768,-14.329135065693187L52.791667930603026,16.378386001261152L52.930959930419924,29.243614773348643L53.00060593032837,1.9012677401984774L53.13989793014527,39.629837941399046L53.418481929779055,6.7189567641008345L53.697065929412844,40.70537411794548L53.836357929229735,58.33227858029388L54.184587928771975,38.589046301632536L55.15963192749024,48.855037102502315L55.50786192703247,48.26887189055028L55.57750792694092,51.15231474932009L55.85609192657471,41.907709579550506L55.92573792648316,50.42892807025537L56.20432192611695,22.564976762854826L56.27396792602539,48.01488425707585L56.41325992584229,57.54963637294422L56.622197925567626,47.5130043160568L56.97042792510986,53.62635684810289L57.040073925018305,57.09465625116861L57.10971992492676,55.37136495424188L57.45794992446899,47.172302713116416L57.52759592437744,59.26700919092168L57.59724192428589,40.30725619531795L57.806179924011225,45.25228683501928L58.432993923187254,61.922496291754875L58.572285923004145,46.82100208114139L58.99016192245483,56.86204352274401L59.40803792190552,43.52605987821532L59.47768392181396,65.4802036332903L59.89555992126465,71.10637220840155L60.10449792098999,60.63916491305522L60.38308192062378,41.969983296303596L60.66166592025757,54.12638579072547L60.80095792007446,62.39280904674469L61.079541919708255,51.23615200790232L61.1491879196167,71.67862545788316L61.218833919525146,51.62258624001445L61.358125919342044,51.15078207548861L61.70635591888428,62.09328921067644L62.05458591842651,58.80627564737863L62.124231918334964,52.39027898260779L62.19387791824341,58.02991740273806L63.23856791687012,66.87828512277335L63.72608991622925,54.617147951566906L64.14396591567993,58.401944500834226L64.21361191558839,69.97442184505778L64.35290391540528,74.9129150413779L64.49219591522217,63.55900288042344L64.77077991485596,68.64308240603654L65.39759391403197,54.10549426742246L65.53688591384888,72.83239284372817L65.60653191375732,78.50227799243285L65.81546991348266,67.11613841672174L66.23334591293334,70.4322079389249L66.79051391220092,64.80789625710949L66.86015991210937,62.79896171718881L67.06909791183472,71.47131363747678L67.13874391174316,53.567726179149254L67.76555791091918,59.18233485663149L67.83520391082763,83.53458851193791L68.60130990982056,46.604612115733154L68.8102479095459,24.73172954822362L68.87989390945434,69.65245423225765L69.01918590927124,71.30039103076948L69.15847790908813,66.45215463842575L70.13352190780638,51.96607023544891L70.48175190734864,53.43928811207081L70.62104390716553,74.72531576440416L70.82998190689086,67.07342987091748L70.96927390670776,66.33558889864199L71.31750390625,61.14825431598161L71.38714990615844,59.63363656121155L71.80502590560913,74.08273047075545L71.94431790542602,86.21531167689642L72.01396390533448,64.64286265485468L72.15325590515137,79.05419383915054L72.22290190505981,79.4283666806108L72.43183990478516,67.2127204477027L72.57113190460205,54.09118145179614L72.91936190414428,53.99292526939926L72.98900790405274,68.19885458067873L73.61582190322875,57.671083089391345L73.75511390304565,70.52307191753455L74.03369790267944,54.76072412018093L74.1033439025879,73.01903125210757L74.17298990249634,68.51905372367332L74.45157390213012,71.6732080453788L74.73015790176392,51.53370294758704L74.79980390167236,65.59968734825324L75.0087419013977,72.15185029315282L75.1480339012146,80.6222311718472L75.21767990112305,78.44807439289247L75.2873259010315,70.19281018134633L75.35697190093995,49.18833471185674L75.42661790084838,38.145113221242305L75.49626390075684,80.3589060177994L75.63555590057373,72.3644144688817L75.70520190048218,77.58576851570169L76.05343190002442,87.4973402828393L76.12307789993287,77.56047350258284L76.40166189956665,82.69472451657967L76.610599899292,82.911986927092L76.74989189910889,81.83381573053529L77.16776789855957,56.57072938657357L77.30705989837647,89.62193864294294L77.6552898979187,26.83669199858616L77.93387389755249,73.24263067942314L78.00351989746095,89.78200284504412L78.14281189727784,62.21101624563253L78.9785638961792,81.77700069058203L79.46608589553833,65.91369684692839L79.53573189544677,83.62182712744615L79.67502389526366,80.02235442400276L79.74466989517212,77.19131132557166L79.81431589508055,79.09265216252211L79.88396189498901,80.34205839545179L80.0232538948059,73.71642142503057L80.23219189453124,64.50838231594061L80.51077589416504,64.72098775596496L80.58042189407348,81.10758770998298L80.85900589370728,65.4667809474661L81.06794389343261,78.53458204088108L81.3465278930664,81.11461443001039L81.55546589279174,82.45824473418028L81.62511189270019,83.03453009481856L81.69475789260865,59.57374438379659L81.76440389251708,69.75655815481157L81.83404989242554,65.54727579811582L81.97334189224243,93.41715737426435L82.04298789215088,75.76018303032205L82.11263389205934,61.90809505263827L82.32157189178466,51.868474281779434L82.39121789169312,35.15832098703561L82.46086389160156,84.80558776119344L82.60015589141845,81.43217265809535L82.73944789123534,82.28062552180924L82.8090938911438,38.82914555223397L83.29661589050292,94.67970923274868L83.50555389022827,71.38482367418624L83.78413788986207,73.01232285664514L83.9930758895874,90.0501795012585L84.13236788940429,81.51074577155636L84.27165988922118,92.30786110912979L84.55024388885498,74.51923597796232L84.82882788848877,73.19599023575121L85.03776588821411,91.08139192957825L85.10741188812256,65.32164263052385L85.17705788803102,73.75771519499038L85.24670388793945,74.93405415045369L85.66457988739013,85.64248072727834L86.08245588684082,90.14571813505415L86.22174788665771,76.38438213289233L86.29139388656617,85.18866190067502L86.56997788619996,74.72783878132677L86.77891588592529,84.54786865642929L86.84856188583375,81.3381372236344L87.05749988555908,73.12775677575337L87.12714588546753,98.1205973538282L87.19679188537597,79.56756883390574L87.33608388519288,87.50352403225942L87.47537588500977,55.41066035332142L87.89325188446045,79.25846389149135L88.10218988418579,87.73847703572669L88.17183588409424,88.29568650206235L88.38077388381957,78.1759894184078L88.45041988372803,86.77490857746959L88.52006588363646,88.0178068415148L88.65935788345337,76.31262941798141L88.72900388336181,86.41194193967723L89.1468798828125,87.19773791818014L89.4254638824463,73.05583900366062L89.49510988235473,89.06226510867819L89.63440188217163,73.59637179972984L89.77369388198852,88.34361792869237L89.91298588180541,92.14169568619943L89.98263188171387,80.38171927829111L90.0522778816223,66.83966174221993L90.12192388153076,87.45789161637663L90.19156988143921,74.06101366154317L90.40050788116456,83.08320427876693L90.53979988098145,73.9741346348954L90.67909188079834,73.56154473435903L90.88802988052367,86.1627881236713L91.02732188034057,90.45540077760502L91.09696788024903,74.02858582020858L91.16661388015747,89.21953512848658L91.58448987960816,94.36063012063093L91.6541358795166,97.6696316585112L91.7934278793335,95.13229602538745L92.00236587905883,76.2718131348691L92.28094987869262,80.4665645646625L92.48988787841797,92.02425750131158L92.69882587814331,94.57791021584131L92.76847187805177,82.34512161561798L92.90776387786866,82.10749232784497L93.04705587768555,80.03760452862602L93.18634787750244,78.95364454090578L93.53457787704468,78.68730709328918L93.74351587677002,82.15984492898889L93.88280787658692,72.0068652435937L94.92749787521362,73.14403259286385L95.20608187484741,71.24966542184669L95.3453738746643,92.46895691861755L95.41501987457276,68.38612374328878L95.69360387420654,77.1046150408038L95.83289587402344,76.22206018433937L95.90254187393188,85.42061440037219L96.11147987365722,61.21837414377203L96.25077187347411,73.76817864133996L96.39006387329101,85.65498970370298L96.59900187301636,60.51902096936486L96.73829387283325,77.51857845288913L96.8079398727417,96.149348905464L96.94723187255859,93.04672779389253L97.22581587219237,69.19610059893304L97.50439987182617,79.86921672864L97.9919218711853,78.69166342391021L98.06156787109374,78.51015357796696L98.1312138710022,85.68741165013824L98.20085987091063,88.04936813264467L98.34015187072754,87.23736932652272L98.54908987045289,73.61998087163406L98.61873587036132,88.83377291490055L98.68838187026978,87.5959030000025L98.89731986999512,96.8793378718028L98.96696586990356,98.51713544342945L99.036611869812,64.66144337761177L99.10625786972047,83.34019241601146L99.66342586898804,99.5625899485833L99.73307186889647,98.3849894846587L99.94200986862182,78.00458932485297L100.42953186798096,98.74797380714912L100.6384698677063,92.84503381256846L101.19563786697388,97.89255906730068L101.26528386688233,84.73137097835347L101.40457586669922,97.12993593814994L101.47422186660768,75.73333765867366L101.54386786651611,79.04210929547921L101.75280586624146,82.57939081076044L101.8224518661499,90.4500128395974L101.9617438659668,90.62262138751936L102.10103586578369,75.99996985125787L102.44926586532593,95.175947755088L102.51891186523437,68.66057257241354L102.79749586486817,92.90715426193843L102.86714186477661,92.34513455773164L102.93678786468506,75.30519111874773L103.00643386459352,94.78847012579058L103.21537186431884,87.17813737783518L103.2850178642273,95.83430190450295L103.35466386413574,86.01390065074126L103.5636018638611,76.61895786280107L103.63324786376953,88.32836782406909L104.1904158630371,57.134081338033866L104.4689998626709,80.03427980539156L104.60829186248779,81.55585943629617L104.7475838623047,87.49302521651376L104.81722986221313,59.70002491771224L105.02616786193848,94.7676729208772L105.23510586166381,80.56454368678985L105.30475186157227,86.79110776088851L105.3743978614807,88.05750309375027L105.44404386138916,96.24916723618912L105.6529818611145,86.07440000278945L106.21014986038207,96.91820294322967L106.34944186019897,86.58356603940742L106.48873386001587,69.4463390764197L106.62802585983276,79.08293147349087L106.6976718597412,93.47817547745551L106.90660985946654,95.97547295418141L107.04590185928345,92.42748040677785L107.18519385910034,97.5259316970108L107.53342385864258,96.43454413610722L108.02094585800171,68.7502575711528L108.09059185791016,70.71796907990588L108.29952985763549,73.51677297378163L108.43882185745238,98.16604702783108L108.85669785690307,72.98805355601351L108.92634385681153,78.09627858937189L109.06563585662842,72.98985150031584L109.20492785644532,88.1915472101123L109.4835118560791,81.69888148437113L109.7620958557129,79.30950782497915L109.90138785552979,96.03353181789791L110.24961785507202,86.1480449803923L110.31926385498048,95.24325571588757L110.38890985488891,82.26274039717569L110.87643185424805,91.26221796719668L110.9460778541565,54.640126269240476L111.36395385360717,69.51342303104391L111.64253785324097,95.89432376970363L111.71218385314943,63.06155000881762L111.78182985305786,83.49379580842299L112.4086438522339,93.60729145795939L112.54793585205078,100.00726578629187L112.75687385177612,85.84251234698516L113.1747498512268,74.23833812894662L113.24439585113525,98.9715732344647L113.52297985076903,80.40785726201729L113.73191785049438,98.79196154611273L113.80156385040283,82.12971020350216L113.87120985031127,91.637463680339L114.08014785003661,81.3458654366847L114.84625384902954,73.5332963766649L115.05519184875487,81.41195315331845L115.26412984848022,94.32358067820448L115.33377584838867,92.07639788607884L115.40342184829711,88.38848990255875L115.61235984802245,97.22857528900468L115.68200584793091,90.31510217303064L115.75165184783936,89.61424579928875L116.79634184646606,100.49892397183478L117.0052798461914,86.98299852459043L117.14457184600829,78.2409924735608L117.21421784591675,105.44704943369584L117.35350984573364,90.35296511156767L117.42315584564209,85.31381061391512L117.63209384536744,97.52835450064441L117.84103184509277,90.45310766175713L117.91067784500123,101.49878732540132L118.04996984481812,73.85007058313604L118.18926184463501,90.20881124281718L118.3285538444519,91.74715007257912L118.46784584426881,87.0540556413778L118.67678384399414,87.07935065449664L118.81607584381103,88.91971465255139L118.95536784362793,90.3354336808952L119.09465984344482,86.50114355666963L119.23395184326172,90.15613442220891L119.37324384307861,89.62008764454643L120.06970384216308,90.28266843679668L120.34828784179687,97.02994665534361L120.62687184143066,91.16909034723594L120.69651784133912,96.48735064450123L120.76616384124756,86.4709380923907L120.90545584106445,84.73427126883459L121.1143938407898,96.1811165180712L121.32333184051514,96.78864484527439L121.46262384033203,97.71789319950491L121.67156184005738,96.53123817017585L122.08943783950805,103.82805659100167L122.22872983932494,93.23094929353763L122.36802183914183,84.133504391188L122.43766783905029,89.54417313069312L122.64660583877563,79.60066279886709L122.71625183868409,57.52466557928972L122.78589783859252,86.03709707969087L122.99483583831787,74.12721927616397L123.55200383758545,84.58625624100861L123.90023383712769,83.15514563045708L124.03952583694458,90.34929258927146L124.45740183639526,86.1529436417537L124.73598583602904,94.15171488760086L124.8056318359375,86.733048897172L124.87527783584594,93.67294884694046L124.9449238357544,79.44191315932139L125.36279983520508,80.41926389226315L125.57173783493042,94.59636125081266L126.05925983428955,105.89882273022405L126.19855183410645,78.33144380921581L126.40748983383179,88.98509498126293L126.47713583374023,90.88862282587291L126.68607383346557,87.17208331620084L126.75571983337403,91.29695071417788L127.10394983291626,89.26689474987947L127.17359583282472,98.23145093614004L127.24324183273315,102.91686431348589L127.4521798324585,89.88707353109173L127.66111783218383,75.12637524180828L127.7307638320923,79.93618278527718L127.80040983200072,102.45960876056044L127.87005583190918,74.59966008981982L127.93970183181763,96.69208639389085L128.35757783126832,104.84541600584453L128.775453830719,84.78068770633118L129.1933298301697,95.68786081480393L129.47191382980347,92.20002571528613L129.61120582962036,74.80867553613889L129.9594358291626,78.61427518521893L130.23801982879638,93.37395365691452L130.7255418281555,86.57304364406434L130.8648338279724,99.71963006731697L131.07377182769775,99.82811979498868L131.21306382751465,100.52493816267456L131.2827098274231,102.81931551901123L131.49164782714843,89.23630611714265L131.5612938270569,98.67165844013988L131.70058582687378,91.19383713471505L131.7702318267822,94.38801192812035L131.97916982650756,85.02259669103366L133.16315182495117,96.67708387504034L133.23279782485963,93.35449459415403L133.30244382476806,102.7379541181568L133.37208982467652,92.03223919503402L133.6506738243103,106.13816743370846L133.85961182403565,93.54189933944915L134.13819582366943,97.26149830188486L134.2078418235779,90.39750697107034L134.27748782348633,100.96679034359357L134.5560718231201,97.15234245058637L134.62571782302857,94.24408206554523L134.695363822937,87.54915644814221L134.83465582275392,85.63949201330692L134.9739478225708,104.20696893154083L135.1132398223877,80.96178326941397L135.2525318222046,99.56271963636904L135.80969982147215,92.23772949154066L136.15792982101442,98.16730264139304L136.22757582092285,70.22121180642361L136.85438982009887,106.90555364153549L136.92403582000733,83.16741881090766L137.69014181900025,99.10831131983055L138.0383718185425,101.84343261600807L138.24730981826784,84.34957603203125L138.31695581817627,103.78385663566138L138.52589381790162,93.53755479862683L138.6651858177185,60.6962098540832L138.73483181762694,88.34652411407282L139.29199981689453,96.30513930553508L139.36164581680296,106.37678116967325L139.43129181671142,88.99137894397202L139.50093781661988,98.72954635177517L139.7098758163452,95.51123784042335L139.84916781616212,86.00453365567115L139.91881381607055,104.47666057688865L139.98845981597898,77.3417314723332L140.54562781524658,100.34626965821889L140.89385781478882,69.93989541955392L140.96350381469728,73.05289744888404L141.17244181442263,92.5588541337335L141.65996381378173,99.783577935486L141.79925581359865,56.029612995468504L142.4957158126831,95.98990956269412L142.84394581222534,106.97391678931909L142.9135918121338,98.73041879687926L143.05288381195066,101.37963961970142L143.12252981185915,90.24479370846096L143.54040581130982,83.41852383859904L143.61005181121826,87.76068312158517L144.02792781066896,102.38011604280055L144.0975738105774,89.94549198366872L144.7243878097534,104.56472447830615L145.0029718093872,82.8453804593153L145.1422638092041,107.13037331301693L145.4208478088379,100.75728562062831L146.0476618080139,106.76108144822001L146.18695380783083,102.80995441884048L146.39589180755615,91.856429716764L146.53518380737304,106.10938853507267L146.6048298072815,84.92790692274464L146.95305980682372,101.10812055555452L147.16199780654907,89.69883171008865L147.5102278060913,100.51982139003715L147.6495198059082,96.6238647236917L147.928103805542,72.42839181154748L148.06739580535887,94.59135058636357L148.13704180526733,92.27730195088972L148.2066878051758,97.75069831439804L148.34597980499268,98.7931287361844L148.48527180480957,91.80902883107566L148.8335018043518,98.7456217423077L149.04243980407716,102.93361761744389L149.18173180389402,75.65735240602814L149.39066980361937,104.311261490874L149.59960780334472,98.82445423134021L149.87819180297853,104.00185001369333L150.08712980270386,101.98501041374182L150.36571380233764,84.22162724159902L150.4353598022461,97.51322229400819L150.50500580215456,99.74692934621547L150.9925278015137,99.0210491247249L151.13181980133055,108.62124051829832L151.27111180114747,101.74576002864703L151.4800498008728,91.22032291750297L151.54969580078125,93.74611633769581L151.96757180023192,86.55890767541857L152.03721780014038,103.47538834237702L152.31580179977416,106.68891019545514L152.59438579940795,101.13093381604624L152.8033237991333,110.19200424194521L152.87296979904173,101.9885768278497L152.94261579895021,106.97160598877313L153.01226179885865,92.83736454851169L153.15155379867554,84.35337234721386L153.3604917984009,108.6320812382064L153.84801379776002,102.81802453605317L153.91765979766845,100.68128857818407L154.2658897972107,101.13793695647625L154.40518179702758,98.39383772858585L154.47482779693604,91.58742187974102L154.54447379684447,100.06944518465534L155.17128779602052,84.14956209702248L155.4498717956543,112.90109366258493L155.51951779556276,93.0809241050327L155.5891637954712,110.0679608223336L155.65880979537963,108.22474958789189L155.79810179519654,93.63533349417621L156.14633179473876,93.01972915486098L156.21597779464722,103.67399929134004L156.3552697944641,103.29679057671358L156.42491579437257,107.02295645702725L156.494561794281,98.61057549305586L156.70349979400635,98.01420621032575L156.84279179382324,92.52629070971379L156.9124377937317,98.34030025267221L156.98208379364013,103.71997950628457L157.60889779281615,92.56085250461378L157.8178357925415,106.25291754449185L158.44464979171752,89.34530280615863L158.86252579116822,97.49467694064722L158.93217179107666,107.18974673928889L159.35004779052733,106.52975380785412L159.41969379043582,102.94960458448615L159.48933979034425,103.08386681212421L159.6286317901611,97.11511026627998L160.0465077896118,104.61168914144244L160.46438378906248,97.16699127547577L160.53402978897097,98.19023969477114L161.09119778823853,102.22087123170928L161.16084378814696,112.98820553775708L161.3697817878723,101.67915356087032L161.57871978759763,103.8580321542059L161.85730378723144,115.93152878414314L161.99659578704834,105.07011188443957L162.27517978668214,93.79420692660833L162.6930557861328,96.05818428698743L162.9716397857666,99.93762344534892L163.04128578567506,96.77582933408341L163.25022378540038,92.40928874737799L163.3895157852173,101.73683515102832L163.59845378494265,105.88548257299077L163.87703778457643,94.57004052520658L164.01632978439332,102.16932623177658L164.1556217842102,108.1515879920359L164.22526778411867,110.55292829711216L164.2949137840271,108.74797495946406L164.78243578338623,99.517535232837L164.92172778320312,88.36737437308037L164.99137378311158,94.37316267665301L165.40924978256226,98.02861334434172L165.4788957824707,105.6947884738573L165.54854178237915,88.20547096238143L165.68783378219604,93.22793699996885L165.82712578201293,106.8973833110338L166.6628777809143,108.17663541938198L167.28969178009035,106.66159323185857L167.56827577972413,93.82921673385904L167.91650577926637,101.8398190427054L167.9861517791748,104.67395106839685L168.33438177871702,91.5377868271983L168.4040277786255,110.90404029230793L168.47367377853394,102.20942333716795L168.75225777816772,104.29553389940325L168.82190377807618,101.36324000970453L169.23977977752688,107.43797505609658L169.51836377716066,106.48576017399117L169.5880097770691,104.30552575380466L169.65765577697755,106.57696605676323L169.79694777679444,106.83529233616062L169.86659377670287,108.54621023934779L170.2148237762451,104.72473562631316L170.42376177597046,107.56271702128137L170.56305377578735,94.42788502733637L170.7719917755127,100.80744531921331L170.98092977523805,106.4912306405897L171.1898677749634,88.84829205200421L171.32915977478027,105.01519500207759L171.74703577423097,73.34019715859586L171.8166817741394,110.85437871271813L171.9559737739563,102.29209340567851L172.0952657737732,101.83035772924565L172.72207977294923,93.71013387205201L172.79172577285766,98.0219049488793L172.86137177276612,92.19088862129075L172.93101777267458,112.96286926034279L173.9060617713928,108.01062915873412L174.1846457710266,107.79126816405254L174.4632297706604,107.2044191437757L174.53287577056884,95.93214544394519L174.7418137702942,97.27189690434155L174.81145977020262,108.40768010457896L175.02039776992797,112.00602393479647L175.1596897697449,96.71133324027468L175.29898176956175,108.26030762078236L175.647211769104,93.28739884973109L175.85614976882934,77.74573839941324L175.99544176864626,111.36238640161346L176.0650877685547,104.14503122405078L176.20437976837158,99.91466281237342L176.41331776809693,102.9084110278153L176.62225576782228,106.03787751103519L176.76154776763914,101.45525349368778L176.9704857673645,105.25939120772857L177.17942376708984,106.37106311730194L177.24906976699828,99.73871775141832L177.45800776672363,108.8554949761924L177.66694576644898,106.86180169854597L178.22411376571657,102.04826268378733L178.293759765625,108.22756734978209L178.4330517654419,111.4339121628993L178.78128176498413,114.41650133386811L179.12951176452637,104.31926676419386L179.1991577644348,95.55819071376095L179.26880376434326,102.65978775275107L179.40809576416015,113.22864669252094L179.4777417640686,105.47330531540904L179.6170337638855,104.34111326119185L179.7563257637024,106.82833046002608L179.96526376342774,104.35334517734698L180.03490976333617,102.25005098350101L180.31349376296996,105.29363467806357L180.6617237625122,114.43581007669516L180.80101576232911,106.99529169436894L181.2188917617798,109.76582365095314L181.28853776168825,113.70282060658626L181.35818376159668,102.96570944951543L181.42782976150514,95.99190203867504L181.49747576141357,113.20695051545643L181.70641376113892,99.5548263661369L181.84570576095584,109.32126571123159L182.05464376068113,106.37908018042046L182.12428976058962,107.77528119701027L182.33322776031494,95.73730133566801L182.47251976013183,108.08462193539873L182.61181175994872,102.6530734623893L182.68145775985718,100.00766074454843L182.75110375976564,101.52421792120526L183.02968775939942,108.88173022575788L183.3082717590332,103.87429618151769L183.37791775894166,88.82555542520406L183.4475637588501,109.34201870439983L183.72614775848388,91.92447453998258L183.7957937583923,91.53992078076367L183.93508575820923,109.65593093723565L184.00473175811766,106.20676048256675L184.14402375793458,94.5643932116275L184.213669757843,118.74305976571955L184.28331575775147,107.90815222840129L184.42260775756836,112.85404647085768L184.49225375747682,103.50127284543105L184.63154575729368,110.8257265544184L184.84048375701903,105.80933815806274L184.97977575683595,105.90197060647795L185.04942175674438,106.73663530060782L185.46729775619505,93.6659516014098L185.53694375610354,111.51992169189269L185.60658975601197,116.3167221399417L185.88517375564575,98.2092507451809L186.02446575546264,106.93424411668103L186.16375775527953,111.10738484545048L186.44234175491334,113.55292510586703L186.92986375427247,101.08480622861792L187.1388017539978,113.17118616108866L187.2780937538147,96.62887538814078L187.41738575363158,98.65483439738965L187.48703175354004,102.73721725573782L187.76561575317385,111.85456039084967L187.9049077529907,104.22942260317208L187.97455375289917,113.42404197388754L188.04419975280763,103.7355420405735L188.25313775253295,106.30239343475206L188.3227837524414,114.8129863693752L188.53172175216673,102.89933288281343L188.60136775207522,113.08309278517437L188.8103057518005,114.77698032413402L189.01924375152586,99.67330794821001L189.29782775115967,99.68767381793052L189.71570375061037,92.28936880986299L189.7853497505188,100.70085374913292L189.99428775024415,105.06333275018493L190.0639337501526,110.3759987879653L190.20322574996948,103.66741468876401L190.3425177497864,112.3913676105285L190.41216374969483,106.30518761704485L190.55145574951175,92.34598931813767L190.62110174942018,110.72099777253317L190.76039374923704,108.34520596124791L190.83003974914553,93.95624591999238L190.89968574905396,107.15881030749033L190.9693317489624,109.11493539156731L191.1086237487793,102.66470999370986L191.2479157485962,106.55144114256964L191.31756174850463,108.87002000819538L191.5961457481384,98.3206702378305L191.66579174804687,108.57187663112579L191.80508374786376,91.2863281055458L192.0140217475891,102.15023265277588L192.153313747406,114.44887906855824L192.36225174713135,103.66164358229854L193.19800374603273,102.38810363142231L193.4765877456665,118.83116493143251L193.68552574539186,103.75626850669465L194.0337557449341,105.91288206517825L194.17304774475096,108.8083446237265L194.3819857444763,98.25400482106025L194.799861743927,104.08088292930378L194.86950774383544,109.77067515311971L195.00879974365233,103.77972431121573L195.21773774337768,108.35108317590172L195.42667574310303,112.26883918005032L195.49632174301146,88.99192716961173L195.56596774291992,92.0114832544161L196.19278174209595,103.10259490736509L196.2624277420044,106.549855414644L196.33207374191284,116.4843553928107L196.40171974182127,113.00531253567621L196.5410117416382,106.52352289923921L196.68030374145508,108.85954182459744L196.88924174118043,109.84276977219301L197.23747174072264,103.55631352067941L197.37676374053956,111.98367047645422L197.446409740448,109.23914386836077L197.51605574035642,111.16739786830215L197.5857017402649,105.84480776746292L198.14286973953247,104.11845701777258L198.7696837387085,113.68643278638805L199.11791373825073,106.39654676720005L199.6750817375183,113.14119291318636L199.74472773742676,100.21152994373332L199.9536657371521,113.13635909571782L200.2322497367859,102.98025216621649L200.44118773651124,118.22194476811535L200.71977173614502,111.47805022179641L200.92870973587034,106.65011586282051L201.1376477355957,106.15878189674194L201.20729373550412,117.92170870177587L201.2769397354126,99.64440525668783L201.41623173522947,105.90447004380314L201.97339973449706,105.96748062297523L202.11269173431398,115.44407071438843L202.25198373413085,109.52679432458405L202.39127573394777,93.88232977701935L202.73950573349,103.0593499257198L203.08773573303222,109.54316740753386L203.6449037322998,109.67252213146149L203.71454973220824,112.6857411994626L203.7841957321167,107.79920859347949L204.0627797317505,113.09920649255271L204.27171773147583,100.16089865320015L204.48065573120118,111.29949961532776L205.03782373046874,98.91758185130097L205.17711573028566,92.79717901963002L205.45569972991944,106.61109752401052L205.52534572982788,110.7533254005788L205.59499172973634,108.294444982929L205.66463772964477,103.0269810333787L205.8039297294617,88.37889300641392L205.94322172927855,108.22243878734598L206.1521597290039,105.82165849770813L206.36109772872925,104.11322234714812L206.43074372863768,105.64706336870461L206.5700357284546,111.33860048272868L206.7093277282715,109.07035816266851L207.19684972763062,118.03611396094718L207.4754337272644,97.43416579880032L207.6147257270813,112.54307874024812L207.7540177268982,112.71211497916285L207.89330972671507,112.45720479393984L207.96295572662356,103.00939065371276L208.10224772644042,108.81637347664375L208.31118572616577,86.45839374656993L208.45047772598267,107.23811438847096L208.65941572570802,107.22898318937492L208.7987077255249,112.3999889008306L209.00764572525023,101.91186060768453L209.0772917251587,104.76345922015557L209.14693772506715,112.72764214405565L209.8433977241516,116.34823921932646L209.91304372406003,94.08330458062247L210.05233572387695,114.77940312776762L210.12198172378538,105.95155260492649L210.19162772369384,95.9072100196868L210.2612737236023,109.19925897934607L210.47021172332762,114.24939567449114L210.53985772323608,113.20909625882048L210.67914972305297,106.04391978287086L210.88808772277832,114.19149597305713L211.0273797225952,106.09107897768577L211.1666717224121,109.80424071002923L211.305963722229,108.87274050424628L211.93277772140505,111.82599370859054L212.00242372131348,108.34687421776447L212.21136172103883,104.41110340119656L212.35065372085572,95.30317147289995L212.4899457206726,103.82619969770583L212.6292377204895,113.46291883511309L212.76852972030642,106.98750453232512L212.83817572021485,116.16345475679323L213.0471137199402,105.6677132011342L213.46498971939087,105.08384110503005L213.5346357192993,83.35001921323101L213.81321971893308,110.8136891699419L214.02215771865843,104.73561171561735L214.23109571838378,114.74770625395264L214.37038771820067,117.84352170422241L214.44003371810913,116.49989140005252L214.71861771774294,99.72216487403828L214.99720171737673,99.73940745464249L215.20613971710205,106.2272688374119L215.2757857170105,113.0995012375203L215.34543171691894,100.32849064177366L215.4150777168274,104.16945968696491L215.62401571655275,102.50235267576082L215.90259971618653,109.13602734144827L216.04189171600342,110.74008250918484L216.3204757156372,96.79634947872727L216.39012171554566,107.69643691817907L216.52941371536255,100.11400472885607L216.59905971527098,107.5023532519183L216.94728971481325,106.79391014271053L217.15622771453857,104.29801565203039L217.22587371444703,101.85409059403626L217.36516571426392,98.66935942939266L217.50445771408081,105.03879228418309L217.6437497138977,112.13253731723653L217.71339571380614,113.2437140552643L217.9223337135315,87.84459111895961L217.99197971343995,113.5162381997507L218.13127171325684,90.45886697842393L218.34020971298216,105.6685325921441L218.40985571289065,109.51076609324633L218.5491477127075,99.18723223235331L218.9670237121582,112.89166771852126L219.17596171188353,116.98374473885357L219.38489971160888,101.58191130116197L219.4545457115173,109.63276693023252L219.73312971115112,113.16074039943716L220.15100571060182,112.23757263388806L221.05640370941163,114.78809515686196L221.3349877090454,109.54255728545094L221.47427970886233,114.4309556270789L221.82250970840454,111.78909458609755L222.0314477081299,107.1590578932631L222.17073970794678,93.65334241169616L222.44932370758056,110.04664191882759L222.7975537071228,101.5047647533441L223.07613770675658,118.6929295416313L223.35472170639036,100.94215555920213L223.56365970611571,103.59008539906624L224.19047370529174,100.59270592562359L224.60834970474244,115.30049159832474L225.3048097038269,101.17542851635412L225.37445570373538,87.19703642515728L225.4441017036438,104.92378279782822L225.65303970336916,102.26889108182955L225.7226857032776,117.26583925243771L226.07091570281983,95.84441165689138L226.21020770263672,108.11521646303491L226.4887917022705,112.96583144726709L226.55843770217896,104.81687879808216L226.6280837020874,114.16236043301053L226.69772970199585,94.89028093249664L226.76737570190429,108.90961015224252L226.83702170181274,100.96947252279867L226.9066677017212,103.23213532062232L227.46383570098877,111.91137248335326L227.67277370071412,98.75465862301414L228.0906497001648,100.83951946658682L228.36923369979857,103.23913256615297L229.06569369888308,76.54643291607508L229.1353396987915,110.30645960776101L229.20498569869994,108.11501603645694L229.69250769805907,107.27594195761188L230.04073769760132,107.39544925217223L230.24967569732667,114.26471651790665L230.38896769714356,87.0418826742162L230.45861369705202,105.29398837202467L230.52825969696045,109.6403507182487L230.5979056968689,104.34444977422503L230.8764896965027,74.78892172841077L231.43365769577025,105.3958522328249L231.5033036956787,98.37324095025042L231.71224169540406,109.42829939876341L231.85153369522095,118.02841522239365L231.9211796951294,109.6095734487326L232.06047169494627,110.34092708427137L232.40870169448854,103.91232417723658L232.89622369384765,107.0022417807048L233.03551569366456,119.11651342945889L233.24445369338991,105.61082152748934L233.38374569320678,112.28887594294734L233.73197569274902,110.2047431194446L233.94091369247437,108.93703617147706L234.14985169219972,109.70063490647053L234.77666569137574,103.98029826166292L234.84631169128417,94.77244778935221L235.05524969100952,100.10724917419884L235.26418769073487,112.43006172987417L235.40347969055176,108.3567186996821L235.4731256904602,106.15146632664627L235.8910016899109,109.39479868574675L236.09993968963624,96.52208339148241L236.16958568954468,101.94888057561424L236.30887768936157,101.60631028957933L236.51781568908692,100.3113423795591L236.6571076889038,101.15161901787195L236.7963996887207,118.03102371535682L237.00533768844605,104.54212932909046L237.07498368835448,105.00490250780923L237.14462968826294,98.06302776675788L237.63215168762207,108.28467713470295L237.98038168716428,105.97075818701487L238.1196736869812,108.90228279234815L238.18931968688963,109.64933454486092L238.2589656867981,107.8233187318286L238.53754968643187,97.04443042305114L238.60719568634033,111.25722729207556L238.95542568588257,113.36679955373124L239.025071685791,108.89095279579385L239.30365568542481,106.0456293036829L239.51259368515014,104.28040758766636L239.5822396850586,105.34799743988646L239.7215316848755,114.56786761197564L240.20905368423462,105.389839435486L240.27869968414308,114.79012594968867L240.62692968368532,96.81833155841036L241.46268168258666,108.98248289803027L241.8109116821289,106.28889411523629L241.95020368194582,104.23509349634858L242.01984968185425,102.27526346802892L242.2287876815796,113.17900279762922L242.29843368148804,88.40966438103065L242.92524768066406,92.89038327328237L243.34312368011476,97.24393150181629L243.62170767974854,104.09223650545547L243.691353679657,105.32049773441001" fill="none"></path></g></g></g></g></g></g><g transform="translate(51, 178)" clip-path="url(#clip_1)"><clipPath id="clip_1"><rect width="278" height="21"></rect></clipPath><g><g><line x1="0" y1="0" x2="0" y2="5" style="visibility: inherit;" fill="rgb(0, 0, 0)" stroke="rgb(204, 204, 204)" stroke-width="1px"></line><line x1="34.82299995422363" y1="0" x2="34.82299995422363" y2="5" style="visibility: inherit;" fill="rgb(0, 0, 0)" stroke="rgb(204, 204, 204)" stroke-width="1px"></line><line x1="69.64599990844727" y1="0" x2="69.64599990844727" y2="5" style="visibility: inherit;" fill="rgb(0, 0, 0)" stroke="rgb(204, 204, 204)" stroke-width="1px"></line><line x1="104.4689998626709" y1="0" x2="104.4689998626709" y2="5" style="visibility: inherit;" fill="rgb(0, 0, 0)" stroke="rgb(204, 204, 204)" stroke-width="1px"></line><line x1="139.29199981689453" y1="0" x2="139.29199981689453" y2="5" style="visibility: inherit;" fill="rgb(0, 0, 0)" stroke="rgb(204, 204, 204)" stroke-width="1px"></line><line x1="174.11499977111816" y1="0" x2="174.11499977111816" y2="5" style="visibility: inherit;" fill="rgb(0, 0, 0)" stroke="rgb(204, 204, 204)" stroke-width="1px"></line><line x1="208.9379997253418" y1="0" x2="208.9379997253418" y2="5" style="visibility: inherit;" fill="rgb(0, 0, 0)" stroke="rgb(204, 204, 204)" stroke-width="1px"></line><line x1="243.76099967956543" y1="0" x2="243.76099967956543" y2="5" style="visibility: inherit;" fill="rgb(0, 0, 0)" stroke="rgb(204, 204, 204)" stroke-width="1px"></line><line x1="278.58399963378906" y1="0" x2="278.58399963378906" y2="5" style="visibility: inherit;" fill="rgb(0, 0, 0)" stroke="rgb(204, 204, 204)" stroke-width="1px"></line></g><g transform="translate(0, 8)"><text style="text-anchor: middle; visibility: hidden; font-family: Roboto, sans-serif; font-size: 12px; font-weight: 200;" x="0" y="0" dx="0em" dy="0.95em" fill="rgb(50, 49, 63)" stroke="none" stroke-width="1px">-500</text><text style="text-anchor: middle; visibility: hidden; font-family: Roboto, sans-serif; font-size: 12px; font-weight: 200;" x="34.82299995422363" y="0" dx="0em" dy="0.95em" fill="rgb(50, 49, 63)" stroke="none" stroke-width="1px">0</text><text style="text-anchor: middle; visibility: hidden; font-family: Roboto, sans-serif; font-size: 12px; font-weight: 200;" x="69.64599990844727" y="0" dx="0em" dy="0.95em" fill="rgb(50, 49, 63)" stroke="none" stroke-width="1px">500</text><text style="text-anchor: middle; visibility: hidden; font-family: Roboto, sans-serif; font-size: 12px; font-weight: 200;" x="104.4689998626709" y="0" dx="0em" dy="0.95em" fill="rgb(50, 49, 63)" stroke="none" stroke-width="1px">1k</text><text style="text-anchor: middle; visibility: hidden; font-family: Roboto, sans-serif; font-size: 12px; font-weight: 200;" x="139.29199981689453" y="0" dx="0em" dy="0.95em" fill="rgb(50, 49, 63)" stroke="none" stroke-width="1px">1.5k</text><text style="text-anchor: middle; visibility: hidden; font-family: Roboto, sans-serif; font-size: 12px; font-weight: 200;" x="174.11499977111816" y="0" dx="0em" dy="0.95em" fill="rgb(50, 49, 63)" stroke="none" stroke-width="1px">2k</text><text style="text-anchor: middle; visibility: hidden; font-family: Roboto, sans-serif; font-size: 12px; font-weight: 200;" x="208.9379997253418" y="0" dx="0em" dy="0.95em" fill="rgb(50, 49, 63)" stroke="none" stroke-width="1px">2.5k</text><text style="text-anchor: middle; visibility: hidden; font-family: Roboto, sans-serif; font-size: 12px; font-weight: 200;" x="243.76099967956543" y="0" dx="0em" dy="0.95em" fill="rgb(50, 49, 63)" stroke="none" stroke-width="1px">3k</text><text style="text-anchor: middle; visibility: hidden; font-family: Roboto, sans-serif; font-size: 12px; font-weight: 200;" x="278.58399963378906" y="0" dx="0em" dy="0.95em" fill="rgb(50, 49, 63)" stroke="none" stroke-width="1px">3.5k</text></g><line x1="0" y1="0" x2="278.58399963378906" y2="0" fill="rgb(0, 0, 0)" stroke="rgb(204, 204, 204)" stroke-width="1px"></line></g></g></g></g></svg>