<svg viewBox="0 0 330 200" xmlns="http://www.w3.org/2000/svg"><g><g><g><g><g><line x1="51.53200149536133" y1="177.89999961853027" x2="46.53200149536133" y2="177.89999961853027" style="visibility: inherit;" fill="rgb(0, 0, 0)" stroke="rgb(204, 204, 204)" stroke-width="1px"></line><line x1="51.53200149536133" y1="163.0749996503194" x2="46.53200149536133" y2="163.0749996503194" style="visibility: inherit;" fill="rgb(0, 0, 0)" stroke="rgb(204, 204, 204)" stroke-width="1px"></line><line x1="51.53200149536133" y1="148.24999968210852" x2="46.53200149536133" y2="148.24999968210852" style="visibility: inherit;" fill="rgb(0, 0, 0)" stroke="rgb(204, 204, 204)" stroke-width="1px"></line><line x1="51.53200149536133" y1="133.42499971389773" x2="46.53200149536133" y2="133.42499971389773" style="visibility: inherit;" fill="rgb(0, 0, 0)" stroke="rgb(204, 204, 204)" stroke-width="1px"></line><line x1="51.53200149536133" y1="118.59999974568686" x2="46.53200149536133" y2="118.59999974568686" style="visibility: inherit;" fill="rgb(0, 0, 0)" stroke="rgb(204, 204, 204)" stroke-width="1px"></line><line x1="51.53200149536133" y1="103.77499977747603" x2="46.53200149536133" y2="103.77499977747603" style="visibility: inherit;" fill="rgb(0, 0, 0)" stroke="rgb(204, 204, 204)" stroke-width="1px"></line><line x1="51.53200149536133" y1="88.94999980926514" x2="46.53200149536133" y2="88.94999980926514" style="visibility: inherit;" fill="rgb(0, 0, 0)" stroke="rgb(204, 204, 204)" stroke-width="1px"></line><line x1="51.53200149536133" y1="74.12499984105428" x2="46.53200149536133" y2="74.12499984105428" style="visibility: inherit;" fill="rgb(0, 0, 0)" stroke="rgb(204, 204, 204)" stroke-width="1px"></line><line x1="51.53200149536133" y1="59.299999872843394" x2="46.53200149536133" y2="59.299999872843394" style="visibility: inherit;" fill="rgb(0, 0, 0)" stroke="rgb(204, 204, 204)" stroke-width="1px"></line><line x1="51.53200149536133" y1="44.47499990463261" x2="46.53200149536133" y2="44.47499990463261" style="visibility: inherit;" fill="rgb(0, 0, 0)" stroke="rgb(204, 204, 204)" stroke-width="1px"></line><line x1="51.53200149536133" y1="29.649999936421747" x2="46.53200149536133" y2="29.649999936421747" style="visibility: inherit;" fill="rgb(0, 0, 0)" stroke="rgb(204, 204, 204)" stroke-width="1px"></line><line x1="51.53200149536133" y1="14.824999968210863" x2="46.53200149536133" y2="14.824999968210863" style="visibility: inherit;" fill="rgb(0, 0, 0)" stroke="rgb(204, 204, 204)" stroke-width="1px"></line><line x1="51.53200149536133" y1="0" x2="46.53200149536133" y2="0" style="visibility: inherit;" fill="rgb(0, 0, 0)" stroke="rgb(204, 204, 204)" stroke-width="1px"></line></g><g transform="translate(41.53200149536133, 0)"><text style="text-anchor: end; visibility: hidden; font-family: Roboto, sans-serif; font-size: 12px; font-weight: 200;" x="0" y="177.89999961853027" dx="0em" dy="0.3em" fill="rgb(50, 49, 63)" stroke="none" stroke-width="1px">0.26</text><text style="text-anchor: end; visibility: inherit; font-family: Roboto, sans-serif; font-size: 12px; font-weight: 200;" x="0" y="163.0749996503194" dx="0em" dy="0.3em" fill="rgb(50, 49, 63)" stroke="none" stroke-width="1px">0.27</text><text style="text-anchor: end; visibility: hidden; font-family: Roboto, sans-serif; font-size: 12px; font-weight: 200;" x="0" y="148.24999968210852" dx="0em" dy="0.3em" fill="rgb(50, 49, 63)" stroke="none" stroke-width="1px">0.28</text><text style="text-anchor: end; visibility: inherit; font-family: Roboto, sans-serif; font-size: 12px; font-weight: 200;" x="0" y="133.42499971389773" dx="0em" dy="0.3em" fill="rgb(50, 49, 63)" stroke="none" stroke-width="1px">0.29</text><text style="text-anchor: end; visibility: hidden; font-family: Roboto, sans-serif; font-size: 12px; font-weight: 200;" x="0" y="118.59999974568686" dx="0em" dy="0.3em" fill="rgb(50, 49, 63)" stroke="none" stroke-width="1px">0.3</text><text style="text-anchor: end; visibility: inherit; font-family: Roboto, sans-serif; font-size: 12px; font-weight: 200;" x="0" y="103.77499977747603" dx="0em" dy="0.3em" fill="rgb(50, 49, 63)" stroke="none" stroke-width="1px">0.31</text><text style="text-anchor: end; visibility: hidden; font-family: Roboto, sans-serif; font-size: 12px; font-weight: 200;" x="0" y="88.94999980926514" dx="0em" dy="0.3em" fill="rgb(50, 49, 63)" stroke="none" stroke-width="1px">0.32</text><text style="text-anchor: end; visibility: inherit; font-family: Roboto, sans-serif; font-size: 12px; font-weight: 200;" x="0" y="74.12499984105428" dx="0em" dy="0.3em" fill="rgb(50, 49, 63)" stroke="none" stroke-width="1px">0.33</text><text style="text-anchor: end; visibility: hidden; font-family: Roboto, sans-serif; font-size: 12px; font-weight: 200;" x="0" y="59.299999872843394" dx="0em" dy="0.3em" fill="rgb(50, 49, 63)" stroke="none" stroke-width="1px">0.34</text><text style="text-anchor: end; visibility: inherit; font-family: Roboto, sans-serif; font-size: 12px; font-weight: 200;" x="0" y="44.47499990463261" dx="0em" dy="0.3em" fill="rgb(50, 49, 63)" stroke="none" stroke-width="1px">0.35</text><text style="text-anchor: end; visibility: hidden; font-family: Roboto, sans-serif; font-size: 12px; font-weight: 200;" x="0" y="29.649999936421747" dx="0em" dy="0.3em" fill="rgb(50, 49, 63)" stroke="none" stroke-width="1px">0.36</text><text style="text-anchor: end; visibility: inherit; font-family: Roboto, sans-serif; font-size: 12px; font-weight: 200;" x="0" y="14.824999968210863" dx="0em" dy="0.3em" fill="rgb(50, 49, 63)" stroke="none" stroke-width="1px">0.37</text><text style="text-anchor: end; visibility: hidden; font-family: Roboto, sans-serif; font-size: 12px; font-weight: 200;" x="0" y="0" dx="0em" dy="0.3em" fill="rgb(50, 49, 63)" stroke="none" stroke-width="1px">0.38</text></g><line x1="51.53200149536133" y1="0" x2="51.53200149536133" y2="177.89999961853027" fill="rgb(0, 0, 0)" stroke="rgb(204, 204, 204)" stroke-width="1px"></line></g></g><g transform="translate(51, 0)" clip-path="url(#clip_0)"><clipPath id="clip_0"><rect width="278" height="177"></rect></clipPath><g><g><g><line x1="0" y1="0" x2="0" y2="177.89999961853027" fill="rgb(0, 0, 0)" stroke="rgb(60, 60, 60)" stroke-width="1px" opacity="0.25"></line><line x1="34.808499813079834" y1="0" x2="34.808499813079834" y2="177.89999961853027" fill="rgb(0, 0, 0)" stroke="rgb(60, 60, 60)" stroke-width="1px" opacity="0.25"></line><line x1="69.61699962615967" y1="0" x2="69.61699962615967" y2="177.89999961853027" fill="rgb(0, 0, 0)" stroke="rgb(60, 60, 60)" stroke-width="1px" opacity="0.25"></line><line x1="104.4254994392395" y1="0" x2="104.4254994392395" y2="177.89999961853027" fill="rgb(0, 0, 0)" stroke="rgb(60, 60, 60)" stroke-width="1px" opacity="0.25"></line><line x1="139.23399925231934" y1="0" x2="139.23399925231934" y2="177.89999961853027" fill="rgb(0, 0, 0)" stroke="rgb(60, 60, 60)" stroke-width="1px" opacity="0.25"></line><line x1="174.04249906539917" y1="0" x2="174.04249906539917" y2="177.89999961853027" fill="rgb(0, 0, 0)" stroke="rgb(60, 60, 60)" stroke-width="1px" opacity="0.25"></line><line x1="208.850998878479" y1="0" x2="208.850998878479" y2="177.89999961853027" fill="rgb(0, 0, 0)" stroke="rgb(60, 60, 60)" stroke-width="1px" opacity="0.25"></line><line x1="243.65949869155884" y1="0" x2="243.65949869155884" y2="177.89999961853027" fill="rgb(0, 0, 0)" stroke="rgb(60, 60, 60)" stroke-width="1px" opacity="0.25"></line><line x1="278.4679985046387" y1="0" x2="278.4679985046387" y2="177.89999961853027" fill="rgb(0, 0, 0)" stroke="rgb(60, 60, 60)" stroke-width="1px" opacity="0.25"></line></g><g><line x1="0" y1="177.89999961853027" x2="278.4679985046387" y2="177.89999961853027" fill="rgb(0, 0, 0)" stroke="rgb(60, 60, 60)" stroke-width="1px" opacity="0.25"></line><line x1="0" y1="163.0749996503194" x2="278.4679985046387" y2="163.0749996503194" fill="rgb(0, 0, 0)" stroke="rgb(60, 60, 60)" stroke-width="1px" opacity="0.25"></line><line x1="0" y1="148.24999968210852" x2="278.4679985046387" y2="148.24999968210852" fill="rgb(0, 0, 0)" stroke="rgb(60, 60, 60)" stroke-width="1px" opacity="0.25"></line><line x1="0" y1="133.42499971389773" x2="278.4679985046387" y2="133.42499971389773" fill="rgb(0, 0, 0)" stroke="rgb(60, 60, 60)" stroke-width="1px" opacity="0.25"></line><line x1="0" y1="118.59999974568686" x2="278.4679985046387" y2="118.59999974568686" fill="rgb(0, 0, 0)" stroke="rgb(60, 60, 60)" stroke-width="1px" opacity="0.25"></line><line x1="0" y1="103.77499977747603" x2="278.4679985046387" y2="103.77499977747603" fill="rgb(0, 0, 0)" stroke="rgb(60, 60, 60)" stroke-width="1px" opacity="0.25"></line><line x1="0" y1="88.94999980926514" x2="278.4679985046387" y2="88.94999980926514" fill="rgb(0, 0, 0)" stroke="rgb(60, 60, 60)" stroke-width="1px" opacity="0.25"></line><line x1="0" y1="74.12499984105428" x2="278.4679985046387" y2="74.12499984105428" fill="rgb(0, 0, 0)" stroke="rgb(60, 60, 60)" stroke-width="1px" opacity="0.25"></line><line x1="0" y1="59.299999872843394" x2="278.4679985046387" y2="59.299999872843394" fill="rgb(0, 0, 0)" stroke="rgb(60, 60, 60)" stroke-width="1px" opacity="0.25"></line><line x1="0" y1="44.47499990463261" x2="278.4679985046387" y2="44.47499990463261" fill="rgb(0, 0, 0)" stroke="rgb(60, 60, 60)" stroke-width="1px" opacity="0.25"></line><line x1="0" y1="29.649999936421747" x2="278.4679985046387" y2="29.649999936421747" fill="rgb(0, 0, 0)" stroke="rgb(60, 60, 60)" stroke-width="1px" opacity="0.25"></line><line x1="0" y1="14.824999968210863" x2="278.4679985046387" y2="14.824999968210863" fill="rgb(0, 0, 0)" stroke="rgb(60, 60, 60)" stroke-width="1px" opacity="0.25"></line><line x1="0" y1="0" x2="278.4679985046387" y2="0" fill="rgb(0, 0, 0)" stroke="rgb(60, 60, 60)" stroke-width="1px" opacity="0.25"></line></g></g></g><g><g><line x1="0" y1="563.3499987920126" x2="278.4679985046387" y2="563.3499987920126" fill="rgb(0, 0, 0)" stroke="rgb(153, 153, 153)" stroke-width="1.5px"></line></g></g><g><g><line x1="34.808499813079834" y1="0" x2="34.808499813079834" y2="177.89999961853027" fill="rgb(0, 0, 0)" stroke="rgb(153, 153, 153)" stroke-width="1.5px"></line></g></g><g><g><g><g><g><path style="fill: none;" stroke="rgb(255, 112, 67)" stroke-width="2px" d="M35.57428680896759,180.26828130729973L35.78313780784607,167.72173414346426L35.85275480747223,159.13448094708494L36.06160580635071,148.38074264107672L36.20083980560303,138.64055684692624L36.47930780410767,126.76069397573394L37.314711799621584,107.45084923554637L37.59317979812622,91.64817250675573L37.73241379737854,79.89469480022353L37.87164779663086,70.62708374248213L37.94126479625702,64.0094985302312L38.08049879550934,58.05792019568535L38.4982007932663,49.86124449154885L38.56781779289246,44.313319635770775L38.63743479251862,40.39293339056982L38.70705179214478,37.48939693970186L38.77666879177094,35.23520481825656L39.33360478878021,31.059642494359338L39.54245578765869,27.948443005234896L39.751306786537164,25.638987406126134L39.82092378616333,24.13739916758751L39.89054078578949,23.13707931721653L39.960157785415646,22.44856164927942L40.30824278354645,21.759385378711265L40.86517878055572,21.225899761971753L40.93479578018188,20.902963422512915L41.352497777938844,20.707787923066313L41.90943377494812,20.600013897814748L42.118284773826595,20.570960148569036L42.18790177345276,20.566499720939902L42.67522077083588,20.64752174111189L42.88407176971435,20.755762902511066L43.02330576896667,20.86257440712541L43.580241765975956,21.11674970157593L43.78909276485443,21.283552153361452L43.858709764480594,21.38987211412493L44.485262761116026,21.284676994960385L44.624496760368345,21.17932198619529L44.69411375999451,21.09557321397549L44.76373075962067,21.02473516531094L45.251049757003784,20.98728675039694L45.599134755134585,21.029606102454675L45.738368754386904,21.089000136901642L45.80798575401306,21.155722972553615L46.086453752517706,21.32717144474522L46.4345387506485,21.58701013459938L46.50415575027466,21.785363359194314L46.71300674915314,22.021157005278305L47.130708746910095,22.392379295722748L47.20032574653626,22.65234921141817L47.33955974578858,22.87884554161575L47.54841074466706,23.127000820114766L47.68764474391938,23.34828168237131L47.757261743545534,23.516307390115493L47.896495742797846,23.67821760532806L48.035729742050165,23.8558455615421L48.10534674167633,23.994869554095892L48.59266573905945,24.302215708743866L49.149601736068725,24.7912667338376L49.21921873569488,25.118081224907513L49.288835735321044,25.34999263880831L49.56730373382568,25.66074215315881L50.26347373008728,26.16173194927132L50.33309072971344,26.506171987018213L50.47232472896576,26.808534097868694L50.7507927274704,27.146320096496105L50.95964372634887,27.465508315343403L51.029260725975035,27.69588368357824L51.0988777256012,27.874314472508114L51.307728724479674,28.125229351769406L52.14313271999359,28.154649064822287L52.56083471775055,28.196159141790435L52.76968571662903,28.272086495568686L52.908919715881346,28.358520041355856L52.97853671550751,28.435122056821374L53.11777071475983,28.55331190626375L53.39623871326447,28.762462278702568L53.674706711769105,29.0564270866225L53.813940711021424,29.30153540166412L54.162025709152225,29.681315520042435L55.13666370391846,30.58150905173072L55.48474870204926,31.34751860812166L55.554365701675415,31.85128861202412L55.83283370018005,32.3652528117018L55.90245069980622,32.72672035403096L56.180918698310855,33.12126530799682L56.25053569793702,33.405549723654765L56.38976969718934,33.67370944840554L56.598620696067805,33.97066799444154L56.946705694198606,34.39675683975509L57.01632269382476,34.708238449922234L57.085939693450925,34.94803971077378L57.434024691581726,35.32507741606641L57.50364169120788,35.59889282807457L57.573258690834045,35.81381458177992L57.78210968971252,36.11145429178537L58.40866268634796,36.744369872452616L58.54789668560028,37.23003217424102L58.965598683357236,37.79696582367272L59.38330068111419,38.43611405695255L59.452917680740356,38.86843288015276L59.87061967849731,39.39592020325641L60.079470677375795,39.83507934323353L60.35793867588043,40.27438361418881L60.63640667438507,40.728425695978174L60.77564067363739,41.085167764777246L61.05410867214203,41.45123423499788L61.12372567176819,41.71832552374582L61.19334267139435,41.92901840294647L61.33257667064667,42.16148846607197L61.68066166877747,42.5092618552959L62.02874666690826,42.96396629214552L62.098363666534425,43.28968357622932L62.16798066616059,43.535410670414436L63.21223566055298,44.35467754982688L63.6995546579361,45.20997877652878L64.11725665569305,45.99542631713812L64.18687365531922,46.51303286315953L64.32610765457153,46.92475576711037L64.46534165382386,47.27134026309927L64.7438096523285,47.6628227512708L65.37036264896392,48.33170263235179L65.50959664821625,48.82537082154646L65.57921364784241,49.16790975671906L65.78806464672088,49.525136236775374L66.20576664447785,50.03619805295628L66.76270264148712,50.74142695823545L66.83231964111327,51.20671387487714L67.04117063999176,51.61182223474759L67.11078763961791,51.9018791650798L67.73734063625335,52.46596918749213L67.80695763587951,52.84701459384211L68.57274463176728,53.54027682138747L68.78159563064575,54.09346327239127L68.85121263027192,54.47171316464943L68.99044662952423,54.78243206363844L69.12968062877655,55.046146457456416L70.10431862354278,55.86487746650306L70.45240362167358,56.558504715715515L70.59163762092591,57.07651160711223L70.80048861980437,57.53055360065374L70.9397226190567,57.879607958449135L71.2878076171875,58.300742770462556L71.35742461681366,58.58977656024343L71.77512661457061,58.98658073713636L71.91436061382294,59.29802294117203L71.9839776134491,59.52309680776576L72.12321161270143,59.73993074031669L72.19282861232757,59.91218067332145L72.40167961120606,60.127735095173506L72.54091361045838,60.33330810885812L72.88899860858916,60.66812436830222L72.95861560821534,60.901726434451184L73.58516860485076,61.39373499418119L73.72440260410309,61.77426429804142L74.00287060260773,62.18355111825074L74.07248760223389,62.46558214961212L74.14210460186004,62.669669157722154L74.42057260036468,62.96321151806123L74.69904059886932,63.30576147657338L74.7686575984955,63.54704347983076L74.97750859737396,63.80060629784687L75.11674259662628,64.04084278268944L75.18635959625244,64.22773512149182L75.2559765958786,64.3800760927622L75.32559359550477,64.51036078522807L75.39521059513092,64.62900226035363L75.46482759475708,64.74162980781762L75.60406159400941,64.90244790847608L75.67367859363556,65.04559490051552L76.02176359176636,65.3319454068156L76.09138059139252,65.54638244905257L76.36984858989716,65.84604646598214L76.57869958877563,66.14918318778601L76.71793358802796,66.41803295716443L77.13563558578493,66.8353153228584L77.27486958503724,67.18177163157415L77.62295458316802,67.60064070305427L77.90142258167266,68.02324670196394L77.97103958129884,68.31409986107097L78.11027358055115,68.5700655863642L78.94567757606505,69.22885670158436L79.43299657344818,69.91173814586045L79.50261357307433,70.35117495079504L79.64184757232665,70.65113691799728L79.71146457195282,70.83950866745914L79.78108157157898,70.9586641708032L79.85069857120514,71.03547697872817L79.98993257045746,71.10646560647058L80.19878356933593,71.19228639599568L80.47725156784057,71.3149117976912L80.54686856746673,71.41252201561613L80.82533656597138,71.57217643160055L81.03418756484984,71.75958475787456L81.31265556335448,71.99577453915934L81.52150656223297,72.24163408360448L81.59112356185912,72.4256794406158L81.6607405614853,72.57268930349828L81.73035756111145,72.69583430162965L81.79997456073761,72.8024512837681L81.93920855998994,72.9288593946796L82.00882555961608,73.03782304558325L82.07844255924225,73.13716831378463L82.28729355812072,73.32785446273803L82.35691055774689,73.48187084567635L82.42652755737305,73.61054521412655L82.56576155662536,73.74921575408277L82.70499555587769,73.89266457531991L82.77461255550385,74.01073926745914L83.26193155288696,74.35701431443847L83.47078255176545,74.66376456737606L83.74925055027009,75.01869280128606L83.95810154914855,75.33788080500855L84.09733554840088,75.59617903204663L84.23656954765319,75.84243786218727L84.51503754615783,76.1424618080927L84.79350554466248,76.46301009943747L85.00235654354096,76.78145201190102L85.07197354316712,77.01314687401958L85.14159054279328,77.19362412645638L85.21120754241943,77.34047247763358L85.6289095401764,77.68031252589371L86.04661153793334,78.11516440648927L86.18584553718567,78.45873111352113L86.25546253681183,78.7075332217513L86.53393053531647,79.01065601167585L86.74278153419495,79.30743808258183L86.81239853382111,79.52705602417691L87.02124953269958,79.77642144821024L87.09086653232573,79.96317120739722L87.16048353195191,80.11175069325363L87.29971753120422,80.27307400659913L87.43895153045655,80.44729243124804L87.8566535282135,80.79364009561678L88.06550452709197,81.09751791076022L88.13512152671814,81.31787641624729L88.34397252559661,81.58152396311483L88.41358952522278,81.78134955417254L88.48320652484894,81.94072589293353L88.62244052410125,82.11133728958667L88.69205752372741,82.24977426571724L89.10975952148438,82.57868245416238L89.38822751998902,82.9143875394429L89.45784451961516,83.1542135353321L89.59707851886749,83.38223155204254L89.7363125181198,83.60767133941587L89.87554651737213,83.81940531851602L89.94516351699829,83.98168522358942L90.01478051662444,84.11259609764134L90.08439751625062,84.22461486197189L90.15401451587677,84.32842644202309L90.36286551475526,84.50597524254783L90.50209951400757,84.68890393843033L90.6413335132599,84.87613861093284L90.85018451213836,85.10276926418581L90.98941851139068,85.30565679038209L91.05903551101684,85.4606317998964L91.12865251064301,85.59032316372073L91.54635450839996,85.9091946621777L91.61597150802612,86.13453765724255L91.75520550727845,86.33633447853751L91.96405650615692,86.56284835971977L92.24252450466156,86.84667783307431L92.45137550354005,87.12182810384681L92.66022650241851,87.39730243231433L92.72984350204469,87.60143179354411L92.869077501297,87.80154592024928L93.00831150054933,87.99486805750938L93.14754549980164,88.1814287389776L93.49563049793244,88.44858514946164L93.70448149681091,88.7064680711081L93.84371549606324,88.93690800135519L94.88797049045563,89.52573941263697L95.16643848896027,89.99110133923814L95.30567248821258,90.3386767971687L95.37528948783876,90.57829081413564L95.6537574863434,90.83387488526795L95.79299148559569,91.04324803147487L95.86260848522187,91.20002902529323L96.07145948410033,91.38633184546757L96.21069348335266,91.56016265810369L96.34992748260497,91.72115541474415L96.55877848148346,91.90888958042906L96.69801248073578,92.08513440475973L96.76762948036193,92.21958188943027L96.90686347961424,92.3583407986852L97.1853314781189,92.56405081702741L97.46379947662354,92.83926831087106L97.95111847400665,93.22299338759738L98.02073547363281,93.49175508779398L98.09035247325897,93.69178618095272L98.15996947288512,93.85056123711162L98.29920347213745,94.01756007321012L98.50805447101594,94.21313935308301L98.57767147064209,94.36235093818664L98.64728847026825,94.48535012914817L98.85613946914673,94.66925104529493L98.92575646877289,94.81689882752127L98.99537346839904,94.94153996221861L99.06499046802521,95.05122837788451L99.62192646503449,95.38236283045705L99.69154346466064,95.61799727899617L99.90039446353913,95.86939098580365L100.38771346092224,96.24799396164282L100.59656445980073,96.57235602140534L101.15350045681001,97.02792948448271L101.22311745643616,97.33515227610272L101.36235145568847,97.58400926040552L101.43196845531465,97.76409175598454L101.5015854549408,97.9015487544896L101.71043645381928,98.08456338273078L101.78005345344543,98.23236863052207L101.91928745269774,98.39405802155402L102.05852145195007,98.55663765935523L102.40660645008087,98.81435382123775L102.47622344970704,99.00105960887274L102.75469144821167,99.25672741403136L102.82430844783784,99.4433882637003L102.89392544746399,99.58652420681885L102.96354244709015,99.70092963499067L103.17239344596862,99.86110020469158L103.2420104455948,99.99187653525685L103.31162744522095,100.10388526460393L103.52047844409944,100.26822008536273L103.59009544372559,100.39886172276924L104.14703144073486,100.71924004256387L104.4254994392395,101.02536808309513L104.56473343849183,101.24649352216927L104.70396743774414,101.412623352736L104.77358443737029,101.53471033248705L104.98243543624878,101.70389035464277L105.19128643512725,101.89625411520275L105.26090343475342,102.03733324394307L105.33052043437957,102.14638682641488L105.40013743400574,102.2337862378805L105.6089884328842,102.35603335445501L106.1659244298935,102.65995834771934L106.3051584291458,102.8979649188855L106.44439242839813,103.09465315907892L106.58362642765044,103.27165783328168L106.6532434272766,103.40998974664024L106.86209442615508,103.5816178720025L107.00132842540741,103.73497983484033L107.14056242465972,103.87934377842579L107.48864742279054,104.1223485494713L107.97596642017363,104.49772078712127L108.04558341979981,104.75321759694873L108.25443441867827,104.98211982344156L108.3936684179306,105.16740740371272L108.81137041568756,105.4506597828682L108.88098741531373,105.64581259056027L109.02022141456604,105.8091539329457L109.15945541381836,105.95591793050065L109.437923412323,106.1654059807489L109.71639141082764,106.4095240904996L109.85562541007997,106.60774084781019L110.20371040821075,106.86349354279893L110.27332740783692,107.04803157477791L110.34294440746307,107.19063608392236L110.83026340484619,107.48793633229945L110.89988040447236,107.69280797425557L111.3175824022293,107.99039101588416L111.59605040073394,108.24067464326448L111.6656674003601,108.40895941625915L111.73528439998627,108.5319328875928L112.36183739662171,108.82851767177183L112.50107139587404,109.05672992045977L112.7099223947525,109.27477531673595L113.12762439250946,109.57142622238759L113.19724139213561,109.77438839987458L113.47570939064025,109.98730421806748L113.68456038951874,110.1994588925944L113.75417738914489,110.35462166685714L113.82379438877106,110.47636690315551L114.03264538764952,110.6282169581929L114.79843238353729,111.01228861783208L115.00728338241576,111.32102201633697L115.21613438129425,111.5787911328143L115.2857513809204,111.75867165567662L115.35536838054657,111.89204876847276L115.56421937942504,112.05921950021794L115.63383637905122,112.18988377038816L115.70345337867737,112.29715965033378L116.74770837306977,112.7720814639942L116.95655937194823,113.13071236007883L117.09579337120056,113.39700056921268L117.16541037082672,113.58310593262865L117.30464437007905,113.74831766540638L117.3742613697052,113.87379481578579L117.58311236858368,114.02696503486064L117.79196336746216,114.18038610352293L117.86158036708832,114.29148999847511L118.00081436634065,114.4006730372405L118.14004836559296,114.51911282802804L118.27928236484529,114.63870614852154L118.4185163640976,114.75188713042915L118.62736736297607,114.87663137084955L118.76660136222839,114.99921208615149L118.90583536148071,115.12042399527395L119.04506936073302,115.2355658058786L119.18430335998535,115.34324823751075L119.32353735923766,115.44818697391905L120.01970735549926,115.74004802525546L120.2981753540039,116.00105435294805L120.57664335250854,116.2512001589551L120.64626035213472,116.4210458073996L120.71587735176087,116.54241092409525L120.85511135101318,116.65352690217073L121.06396234989167,116.79449284410414L121.27281334877014,116.95313901824962L121.41204734802245,117.09461172606134L121.62089834690094,117.24598033834157L122.0386003446579,117.48240751654969L122.1778343439102,117.67457821998642L122.31706834316253,117.8352289881847L122.3866853427887,117.95105950395546L122.59553634166717,118.07398261870611L122.66515334129333,118.16807785404238L122.73477034091948,118.24807513439191L122.94362133979797,118.36105630413812L123.50055733680725,118.58420638980604L123.84864233493805,118.83388847701505L123.98787633419036,119.02349682345525L124.40557833194732,119.25312455823611L124.68404633045196,119.48179229192544L124.75366333007813,119.64493656897761L124.82328032970428,119.76611585547678L124.89289732933045,119.85951824940494L125.3105993270874,120.01608244212281L125.51945032596588,120.17168127718801L126.006769323349,120.40965691354747L126.14600332260132,120.58766414019918L126.35485432147979,120.76457638309674L126.42447132110595,120.8950061246228L126.63332231998443,121.0416576170626L126.7029393196106,121.14945969569813L127.0510243177414,121.31241925654399L127.12064131736756,121.43110188840575L127.1902583169937,121.52249377901437L127.3991093158722,121.63863577727123L127.60796031475067,121.76865583737454L127.67757731437683,121.86720364047092L127.74719431400298,121.94531288497494L127.81681131362916,122.00993957270104L127.88642831325531,122.06603490693192L128.30413031101227,122.19853595000336L128.72183230876922,122.38136930377219L129.13953430652617,122.59904998434673L129.41800230503083,122.81204887970878L129.55723630428315,122.98251030093725L129.90532130241394,123.1735928587928L130.1837893009186,123.36377584299393L130.6711082983017,123.59567469313943L130.81034229755403,123.77261607352494L131.0191932964325,123.93823212404848L131.15842729568482,124.08793382365171L131.22804429531098,124.2006941081387L131.43689529418944,124.32739502724903L131.5065122938156,124.42091162808185L131.64574629306793,124.51097099346373L131.7153632926941,124.58373975645904L131.92421429157258,124.68384786443505L133.10770328521727,125.05887696337423L133.17732028484346,125.30282196705251L133.2469372844696,125.46797513135719L133.31655428409576,125.58580017370639L133.5950222826004,125.73181657527806L133.80387328147887,125.87597930306268L134.08234127998352,126.04036086858068L134.1519582796097,126.15818244386332L134.22157527923582,126.24808569778186L134.50004327774047,126.37628865966688L134.56966027736664,126.47282721942112L134.6392772769928,126.55165725062791L134.77851127624513,126.64122855226607L134.91774527549742,126.73743901671163L135.05697927474975,126.83187165349463L135.19621327400208,126.92032456163572L135.75314927101135,127.12239549057091L136.10123426914217,127.3298635275884L136.1708512687683,127.46947224702903L136.79740426540374,127.70884628139348L136.8670212650299,127.86802274589367L137.63280826091767,128.15628560483802L137.98089325904846,128.41235839108467L138.18974425792695,128.61870228425818L138.2593612575531,128.76078227172303L138.4682122564316,128.90217667716934L138.6074462556839,129.02281836691876L138.67706325531006,129.1121515740438L139.23399925231934,129.28530783565745L139.3036162519455,129.40491269150127L139.37323325157163,129.49226299444328L139.44285025119783,129.56096747672976L139.6517012500763,129.65047219324265L139.7909352493286,129.73494332814764L139.86055224895478,129.80351085955436L139.9301692485809,129.86204139110214L140.4871052455902,130.02989993911447L140.83519024372103,130.2121572616365L140.90480724334716,130.34047454501885L141.11365824222565,130.46689567270326L141.60097723960874,130.63749210755086L141.7402112388611,130.77523086828958L142.43638123512267,131.0101604453311L142.78446623325348,131.226156803284L142.85408323287965,131.37254375633685L142.99331723213194,131.49338867586232L143.06293423175813,131.58210156421313L143.48063622951508,131.73645292800737L143.55025322914122,131.84680721453046L143.9679552268982,131.99631158509578L144.03757222652436,132.0991097352942L144.66412522315977,132.29591467941043L144.94259322166442,132.4693311110993L145.08182722091675,132.6056691339437L145.3602952194214,132.75245474918688L145.9868482160568,132.96828262426348L146.12608221530917,133.12633855716442L146.3349332141876,133.2643997297845L146.47416721343996,133.37489432957753L146.5437842130661,133.45520560172375L146.89186921119688,133.57365932691224L147.10072021007537,133.69039801815L147.44880520820618,133.83825447063126L147.5880392074585,133.9561460971749L147.86650720596313,134.08182573722314L148.00574120521546,134.1839547602848L148.0753582048416,134.2600419613634L148.14497520446778,134.3201682864866L148.28420920372008,134.38414939666137L148.4234432029724,134.4497541395588L148.77152820110322,134.55989645773494L148.9803791999817,134.66834349544044L149.119613199234,134.76030968486785L149.3284641981125,134.85627816815875L149.537315196991,134.95134321844304L149.8157831954956,135.0576539512744L150.02463419437407,135.16254727059624L150.3031021928787,135.28051629019706L150.3727191925049,135.3641988292683L150.44233619213105,135.4279456999988L150.92965518951416,135.5455445917867L151.06888918876646,135.63867206326475L151.20812318801882,135.72167625905834L151.41697418689728,135.81617322991653L151.48659118652344,135.88718636191317L151.9042931842804,136.00523932671337L151.97391018390655,136.0872933190761L152.25237818241118,136.18309348225242L152.53084618091583,136.29574799038306L152.73969717979432,136.40291004327347L152.80931417942045,136.48012607509563L152.87893117904665,136.53859689208267L152.9485481786728,136.58566152517452L153.0877821779251,136.63789993638304L153.2966331768036,136.70317471521307L153.7839521741867,136.82791116941328L153.85356917381287,136.91643177143823L154.20165417194366,137.02834146219138L154.34088817119599,137.11404369263818L154.41050517082215,137.17476091168083L154.48012217044828,137.22114101663516L155.10667516708375,137.35657861960112L155.3851431655884,137.48589346241891L155.45476016521454,137.574934327695L155.5243771648407,137.63920993202336L155.59399416446684,137.6883789609033L155.7332281637192,137.73896400135686L156.08131316184998,137.83235382168027L156.15093016147614,137.89975130957404L156.29016416072847,137.96362390479533L156.3597811603546,138.0133994215135L156.42939815998076,138.05411581670717L156.63824915885925,138.10834195607802L156.77748315811155,138.15920430959267L156.84710015773774,138.19882320192744L156.9167171573639,138.23212016420575L157.54327015399932,138.35573150671007L157.7521211528778,138.4620627666038L158.37867414951324,138.61456119099566L158.79637614727022,138.7710253743901L158.86599314689636,138.87547220515532L159.2836951446533,138.9984751647636L159.3533121442795,139.08164351241172L159.42292914390563,139.1410878206551L159.56216314315796,139.19653024321858L159.9798651409149,139.29288751113936L160.39756713867186,139.41213244522348L160.46718413829805,139.49256881257443L161.02412013530733,139.61118595877144L161.09373713493346,139.69209394669264L161.30258813381195,139.76955140284312L161.5114391326904,139.84357773609153L161.78990713119506,139.9243994569449L161.9291411304474,139.99157261489185L162.20760912895204,140.06893632331835L162.62531112670897,140.1691858275366L162.90377912521362,140.2661479248461L162.9733961248398,140.33411590176624L163.18224712371824,140.40449858962452L163.3214811229706,140.4665040399569L163.53033212184909,140.53164797081155L163.8088001203537,140.60606221082315L163.948034119606,140.667977058094L164.08726811885836,140.72265736137737L164.1568851184845,140.76426658636217L164.22650211811066,140.7979624732592L164.71382111549377,140.87862090320934L164.8530551147461,140.9455723771744L164.92267211437226,140.99480939622518L165.3403741121292,141.0756026613559L165.40999111175537,141.13257922623768L165.4796081113815,141.17519507986162L165.61884211063386,141.2164580181345L165.75807610988616,141.25600789556273L166.59348010540006,141.37780406235848L167.22003310203553,141.5127188096419L167.49850110054018,141.62197944698698L167.84658609867097,141.72535557246943L167.9162030982971,141.79459174083118L168.26428809642792,141.8713906322385L168.33390509605408,141.9242386407268L168.40352209568024,141.96282215612646L168.68199009418487,142.0146728554384L168.75160709381103,142.05269333088646L169.169309091568,142.11685991465825L169.44777709007263,142.18105608288002L169.5173940896988,142.22655453078255L169.58701108932496,142.26078132816218L169.7262450885773,142.2947310444377L169.79586208820342,142.32204627561828L170.14394708633424,142.3737986413798L170.35279808521273,142.42337113127726L170.49203208446502,142.46435451147565L170.7008830833435,142.5063345522983L170.909734082222,142.54907164449006L171.11858508110046,142.5921039125089L171.2578190803528,142.63025887176255L171.67552107810977,142.69201428424117L171.7451380777359,142.7354474042751L171.8843720769882,142.7741256391721L172.02360607624055,142.80936774134125L172.65015907287597,142.88591715897044L172.71977607250213,142.93746675267784L172.78939307212832,142.97382205148358L172.85901007175445,143.00106077334843L173.83364806652068,143.09482844310895L174.11211606502533,143.1752300585358L174.39058406352996,143.2454559625516L174.46020106315612,143.29285799254814L174.6690520620346,143.3368159088733L174.73866906166074,143.36858085569546L174.94752006053923,143.4039694698643L175.0867540597916,143.4358769957569L175.22598805904389,143.46541310424965L175.57407305717467,143.50982066282364L175.78292405605316,143.55159309519823L175.9221580553055,143.5858463987347L175.99177505493165,143.61088726624965L176.13100905418395,143.63457144755625L176.33986005306244,143.66260206806214L176.54871105194093,143.69216251268222L176.68794505119322,143.7186821496918L176.8967960500717,143.74853775305948L177.1056470489502,143.7815259939788L177.17526404857634,143.80693888166027L177.38411504745483,143.83846324201332L177.59296604633332,143.87229368212957L178.1499020433426,143.9292099404293L178.21951904296876,143.96802530857352L178.35875304222105,144.000398336909L178.70683804035187,144.04049930316177L179.05492303848268,144.08426502942223L179.12454003810882,144.11439480337177L179.19415703773498,144.13644904259758L179.3333910369873,144.15782873639367L179.40300803661347,144.1747212914131L179.5422420358658,144.19311001134815L179.6814760351181,144.21248479411835L179.89032703399658,144.23663966277132L179.95994403362275,144.25516197715055L180.23841203212737,144.2840895251332L180.58649703025816,144.32260036815708L180.7257310295105,144.35401307922618L181.14343302726743,144.39569393392995L181.21305002689363,144.42414863829418L181.2826670265198,144.44475601634025L181.35228402614592,144.4606373258184L181.4219010257721,144.4737536852643L181.63075202465058,144.4922448399918L181.7699860239029,144.51072675367195L181.97883702278136,144.53300276980835L182.04845402240755,144.5500973354664L182.25730502128602,144.57155861556672L182.39653902053834,144.59189329557915L182.53577301979064,144.61153434276167L182.60539001941683,144.6269595631617L182.67500701904297,144.63994365137776L182.95347501754762,144.6615895615836L183.23194301605224,144.68809678221768L183.3015600156784,144.7071998872601L183.37117701530457,144.7221609601589L183.6496450138092,144.74418011342598L183.71926201343535,144.7603959774997L183.85849601268768,144.77586914851375L183.92811301231384,144.78789233157863L184.06734701156617,144.80054945677608L184.13696401119233,144.8109360306823L184.20658101081847,144.81990725548243L184.34581501007082,144.83073320572106L184.41543200969696,144.8398796924349L184.55466600894925,144.85105821870164L184.76351700782774,144.86624826748792L184.9027510070801,144.88114129488383L184.97236800670623,144.89299311954917L185.39007000446318,144.91751189982935L185.45968700408937,144.93519219455655L185.5293040037155,144.94868103406642L185.80777200222016,144.96812026069492L185.94700600147246,144.98506795703628L186.08624000072479,145.00034400743402L186.36470799922944,145.01910595565852L186.85202699661255,145.04722295398292L187.060877995491,145.07114459105563L187.20011199474334,145.09000413146947L187.33934599399566,145.10570270444808L187.40896299362183,145.1174016364859L187.68743099212648,145.13359316704327L187.82666499137878,145.14802671687355L187.89628199100494,145.15909034446247L187.9658989906311,145.16809667315232L188.17474998950956,145.18037518067285L188.24436698913576,145.19003974621316L188.45321798801422,145.20269552306695L188.52283498764038,145.21255110465287L188.73168598651884,145.2249326900369L188.94053698539733,145.23851176771134L189.21900498390198,145.254594291251L189.63670698165896,145.27634965771435L189.7063239812851,145.29131153752326L189.91517498016358,145.3059439540927L189.98479197978975,145.31654370007962L190.12402597904205,145.32650879420797L190.26325997829437,145.3361814611068L190.33287697792053,145.343770011737L190.47211097717286,145.35205209809132L190.54172797679902,145.35898302816616L190.68096197605132,145.3668882149643L190.7505789756775,145.3734516230885L190.82019597530365,145.3791392728996L190.8898129749298,145.38430146772293L191.02904697418214,145.39068592116462L191.16828097343443,145.39773303866872L191.2378979730606,145.4035165135593L191.51636597156525,145.41306603382915L191.58598297119138,145.4202802592707L191.72521697044374,145.4275071299862L191.9340679693222,145.43608471892864L192.07330196857453,145.44388218886476L192.28215296745302,145.45257239123683L193.11755696296692,145.4756183447923L193.39602496147157,145.49513655116408L193.60487596035006,145.51068246762608L193.95296095848084,145.52600108895308L194.09219495773314,145.5374543772229L194.30104595661163,145.5476134867325L194.7187479543686,145.56033624386492L194.78836495399474,145.5690125919956L194.92759895324707,145.57626844302197L195.13644995212553,145.58366167130555L195.34530095100402,145.59096059817205L195.41491795063018,145.59624126592604L195.48453495025635,145.6003463237667L196.1110879468918,145.6109388359546L196.18070494651795,145.61817798212425L196.2503219461441,145.62338743590578L196.31993894577025,145.62736140147734L196.4591729450226,145.63144236742556L196.5984069442749,145.63558753359965L196.8072579431534,145.64044278544057L197.15534294128418,145.64720860196127L197.2945769405365,145.65278795070753L197.36419394016266,145.65686014381794L197.4338109397888,145.66002804354684L197.503427939415,145.6626356944697L198.06036393642427,145.669396081502L198.6869169330597,145.6787011285314L199.0350019311905,145.68707645553684L199.59193792819977,145.69623708159037L199.66155492782593,145.70221062220523L199.8704059267044,145.7072262415223L200.14887392520905,145.7120735819349L200.35772492408753,145.71636046279923L200.63619292259216,145.7207175418088L200.84504392147062,145.72455121083698L201.0538949203491,145.7280001427679L201.12351191997527,145.73040528469207L201.19312891960146,145.73223717094368L201.33236291885376,145.73402554100298L201.88929891586304,145.7376964612778L202.02853291511536,145.74049988786552L202.16776691436766,145.74272979990937L202.30700091362002,145.74461560322692L202.6550859117508,145.74707254350284L203.0031709098816,145.7496954381823L203.56010690689087,145.75285972493245L203.62972390651703,145.7548996791997L203.6993409061432,145.75630037953138L203.97780890464784,145.75777701970736L204.1866599035263,145.75910482324133L204.3955109024048,145.76034332479026L204.95244689941407,145.7620937740164L205.0916808986664,145.76337378965493L205.37014889717102,145.76451292735794L205.43976589679718,145.76530244664258L205.50938289642335,145.76584684932183L205.57899989604948,145.7662795275923L205.71823389530184,145.76668051677166L205.85746789455413,145.76709783805063L206.06631889343262,145.7675603041437L206.2751698923111,145.76801451157093L206.34478689193725,145.76834005435867L206.4840208911896,145.7686414166941L206.6232548904419,145.76891059798112L207.110573887825,145.7693548711875L207.38904188632966,145.7697274717741L207.52827588558196,145.77000405045757L207.6675098848343,145.7702230159991L207.8067438840866,145.77038974087827L207.87636088371278,145.7705074485829L208.01559488296508,145.770631091537L208.22444588184356,145.77072295008665L208.3636798810959,145.77077806521646L208.57253087997435,145.7708288070715L208.7117648792267,145.77085925218447L208.92061587810517,145.77089519202946L208.9902328777313,145.77091675593638L209.0598498773575,145.77092969428057L209.75601987361907,145.77097280284138L209.82563687324523,145.77099866797784L209.96487087249756,145.77101418705973L210.03448787212372,145.7710234985088L210.10410487174985,145.7710290853783L210.17372187137605,145.7710324375L210.3825728702545,145.77103444877295L210.4521898698807,145.77103565553682L210.591423869133,145.77103637959507L210.80027486801148,145.77103681403005L210.93950886726378,145.77103707469104L211.0787428665161,145.77103723108763L211.2179768657684,145.77103732492557L211.84452986240387,145.77103738122838L211.91414686203004,145.77103741501003L212.12299786090853,145.77103743527903L212.26223186016082,145.77103744744045L212.40146585941315,145.77103745473724L212.54069985866545,145.77103745911535L212.6799338579178,145.77103746174222L212.74955085754394,145.77103746331832L212.95840185642243,145.771037464264L213.37610385417938,145.77103746483144L213.44572085380554,145.77103746517187L213.72418885231016,145.77103746537614L213.93303985118865,145.77103746549867L214.14189085006714,145.77103746557225L214.28112484931944,145.77103746561636L214.35074184894563,145.77103746564285L214.62920984745026,145.77103746565874L214.9076778459549,145.7710374656683L215.11652884483337,145.77103746567397L215.18614584445956,145.7710374656774L215.2557628440857,145.77103746567948L215.32537984371186,145.7710374656807L215.53423084259035,145.77103746568145L215.81269884109497,145.77103746568187L215.95193284034727,145.7710374656821L216.23040083885192,145.77103746568227L216.3000178384781,145.77103746568235L216.4392518377304,145.77103746568244L216.50886883735654,145.77103746568244L216.8569538354874,145.77103746568244L217.06580483436585,145.77103746568244L217.135421833992,145.77103746568244L217.2746558332443,145.77103746568244L217.41388983249666,145.77103746568244L217.55312383174896,145.77103746568244L217.62274083137513,145.77103746568244L217.83159183025361,145.77103746568244L217.90120882987975,145.77103746568244L218.04044282913208,145.77103746568244L218.24929382801054,145.77103746568244L218.31891082763673,145.77103746568244L218.45814482688903,145.77103746568244L218.875846824646,145.77103746568244L219.08469782352446,145.77103746568244L219.29354882240295,145.77103746568244L219.3631658220291,145.77103746568244L219.64163382053374,145.77103746568244L220.05933581829072,145.77103746568244L220.96435681343078,145.77103746568244L221.2428248119354,145.77103746568244L221.38205881118776,145.77103746568244L221.73014380931855,145.77103746568244L221.93899480819704,145.77103746568244L222.07822880744934,145.77103746568244L222.356696805954,145.77103746568244L222.70478180408477,145.77103746568244L222.9832498025894,145.77103746568244L223.26171780109405,145.77103746568244L223.47056879997254,145.77103746568244L224.09712179660795,145.77103746568244L224.51482379436493,145.77103746568244L225.2109937906265,145.77103746568244L225.2806107902527,145.77103746568244L225.35022778987886,145.77103746568244L225.55907878875735,145.77103746568244L225.62869578838348,145.77103746568244L225.97678078651427,145.77103746568244L226.11601478576662,145.77103746568244L226.39448278427122,145.77103746568244L226.4640997838974,145.77103746568244L226.53371678352357,145.77103746568244L226.6033337831497,145.77103746568244L226.67295078277587,145.77103746568244L226.74256778240203,145.77103746568244L226.8121847820282,145.77103746568244L227.36912077903747,145.77103746568244L227.57797177791596,145.77103746568244L227.9956737756729,145.77103746568244L228.27414177417754,145.77103746568244L228.97031177043917,145.77103746568244L229.0399287700653,145.77103746568244L229.10954576969147,145.77103746568244L229.59686476707458,145.77103746568244L229.94494976520537,145.77103746568244L230.15380076408385,145.77103746568244L230.29303476333618,145.77103746568244L230.36265176296234,145.77103746568244L230.4322687625885,145.77103746568244L230.50188576221467,145.77103746568244L230.7803537607193,145.77103746568244L231.33728975772857,145.77103746568244L231.40690675735473,145.77103746568244L231.61575775623322,145.77103746568244L231.75499175548555,145.77103746568244L231.8246087551117,145.77103746568244L231.963842754364,145.77103746568244L232.31192775249482,145.77103746568244L232.7992467498779,145.77103746568244L232.93848074913026,145.77103746568244L233.14733174800875,145.77103746568244L233.28656574726105,145.77103746568244L233.63465074539184,145.77103746568244L233.84350174427033,145.77103746568244L234.05235274314882,145.77103746568244L234.67890573978423,145.77103746568244L234.7485227394104,145.77103746568244L234.95737373828888,145.77103746568244L235.16622473716737,145.77103746568244L235.30545873641967,145.77103746568244L235.37507573604583,145.77103746568244L235.7927777338028,145.77103746568244L236.0016287326813,145.77103746568244L236.07124573230743,145.77103746568244L236.21047973155973,145.77103746568244L236.41933073043822,145.77103746568244L236.55856472969057,145.77103746568244L236.69779872894287,145.77103746568244L236.90664972782136,145.77103746568244L236.9762667274475,145.77103746568244L237.04588372707366,145.77103746568244L237.53320272445677,145.77103746568244L237.8812877225876,145.77103746568244L238.0205217218399,145.77103746568244L238.09013872146605,145.77103746568244L238.1597557210922,145.77103746568244L238.43822371959686,145.77103746568244L238.50784071922303,145.77103746568244L238.8559257173538,145.77103746568244L238.92554271697998,145.77103746568244L239.20401071548463,145.77103746568244L239.4128617143631,145.77103746568244L239.48247871398925,145.77103746568244L239.62171271324158,145.77103746568244L240.1090317106247,145.77103746568244L240.17864871025085,145.77103746568244L240.52673370838167,145.77103746568244L241.36213770389557,145.77103746568244L241.71022270202636,145.77103746568244L241.8494567012787,145.77103746568244L241.91907370090485,145.77103746568244L242.12792469978334,145.77103746568244L242.1975416994095,145.77103746568244L242.8240946960449,145.77103746568244L243.2417966938019,145.77103746568244L243.52026469230654,145.77103746568244L243.58988169193267,145.77103746568244" fill="none"></path></g></g></g></g><g opacity="0.2"><g><g><g><path style="fill: none;" stroke="rgb(255, 112, 67)" stroke-width="2px" d="M35.22620181083679,191.3134306947856L35.57428680896759,168.32057327298062L35.78313780784607,152.96699467879364L35.85275480747223,147.92296317389201L36.06160580635071,133.50445121807707L36.20083980560303,124.7119353183183L36.47930780410767,109.43973986285187L37.314711799621584,78.9725789880121L37.59317979812622,68.18303927165849L37.73241379737854,62.37108141816758L37.87164779663086,56.77610108598856L37.94126479625702,54.10472827575016L38.08049879550934,49.1422124553976L38.4982007932663,37.57586581994285L38.56781779289246,35.995345178547986L38.63743479251862,34.51401299884018L38.70705179214478,33.13482947099004L38.77666879177094,31.85426003957001L39.33360478878021,24.796680671449483L39.54245578765869,23.281814397122307L39.751306786537164,22.17488000108318L39.82092378616333,21.885046456019868L39.89054078578949,21.63661139140231L39.960157785415646,21.415790041062905L40.30824278354645,20.72562391188086L40.86517878055572,20.425672701906024L40.93479578018188,20.41855940910799L41.352497777938844,20.415024853680382L41.90943377494812,20.438352919502552L42.118284773826595,20.52737953433527L42.18790177345276,20.559809080383502L42.67522077083588,20.76905476169752L42.88407176971435,20.91812463685662L43.02330576896667,21.02279165945646L43.580241765975956,21.4980126366975L43.78909276485443,21.533755828459107L43.858709764480594,21.549352054283407L44.485262761116026,21.126884316799337L44.624496760368345,21.021289473399737L44.69411375999451,20.96995005581383L44.76373075962067,20.91847809239937L45.251049757003784,20.931114128053057L45.599134755134585,21.093085130522898L45.738368754386904,21.17809118855671L45.80798575401306,21.25580722602109L46.086453752517706,21.584344153016662L46.4345387506485,21.976768169366128L46.50415575027466,22.08289319607985L46.71300674915314,22.374847474399747L47.130708746910095,22.94921273138499L47.20032574653626,23.042304084959458L47.33955974578858,23.218590036911085L47.54841074466706,23.499233737862642L47.68764474391938,23.680202975755833L47.757261743545534,23.768345951731646L47.896495742797846,23.92108292814689L48.035729742050165,24.12228749586311L48.10534674167633,24.203405542926564L48.59266573905945,24.76323494071579L49.149601736068725,25.524843271478233L49.21921873569488,25.608302961512482L49.288835735321044,25.69785975965934L49.56730373382568,26.126866424684465L50.26347373008728,26.913216643440126L50.33309072971344,27.02283204363862L50.47232472896576,27.2620772641444L50.7507927274704,27.65299909443712L50.95964372634887,27.94429064361434L51.029260725975035,28.04144673593054L51.0988777256012,28.14196065590295L51.307728724479674,28.50160167066142L52.14313271999359,28.198778634401652L52.56083471775055,28.258424257242428L52.76968571662903,28.38597752623599L52.908919715881346,28.48817036003652L52.97853671550751,28.550025080019555L53.11777071475983,28.73059668042714L53.39623871326447,29.076187837360894L53.674706711769105,29.49737429850245L53.813940711021424,29.669197874226743L54.162025709152225,30.250985697609952L55.13666370391846,31.93179934926302L55.48474870204926,32.496532942708065L55.554365701675415,32.60694361787777L55.83283370018005,33.136199111218254L55.90245069980622,33.26892166752468L56.180918698310855,33.71308273894566L56.25053569793702,33.831976347141605L56.38976969718934,34.07594903553181L56.598620696067805,34.416105813495605L56.946705694198606,35.035890107725535L57.01632269382476,35.17546086517295L57.085939693450925,35.30774160205094L57.434024691581726,35.89063397400529L57.50364169120788,36.00961594608691L57.573258690834045,36.13619721233789L57.78210968971252,36.557913856793604L58.40866268634796,37.693743243453355L58.54789668560028,37.95852562692356L58.965598683357236,38.647366297820255L59.38330068111419,39.39483640687229L59.452917680740356,39.516911114953075L59.87061967849731,40.18715118791202L60.079470677375795,40.49381805319931L60.35793867588043,40.933340020621564L60.63640667438507,41.409488818662325L60.77564067363739,41.62028086797591L61.05410867214203,42.00033394032878L61.12372567176819,42.118962456867656L61.19334267139435,42.24505772174733L61.33257667064667,42.510193560760285L61.68066166877747,43.03092193913169L62.02874666690826,43.64602294742006L62.098363666534425,43.77825950235518L62.16798066616059,43.90400131169211L63.21223566055298,45.58357786894553L63.6995546579361,46.4929306165817L64.11725665569305,47.173597628052086L64.18687365531922,47.289442682191726L64.32610765457153,47.54234012303662L64.46534165382386,47.791217007082594L64.7438096523285,48.25004648352812L65.37036264896392,49.335022453973274L65.50959664821625,49.56587310533848L65.57921364784241,49.68171815947812L65.78806464672088,50.060975956859785L66.20576664447785,50.80279077722764L66.76270264148712,51.79927031615421L66.83231964111327,51.90464424983958L67.04117063999176,52.2194847745532L67.11078763961791,52.336964560578096L67.73734063625335,53.312104221110516L67.80695763587951,53.41858270336701L68.57274463176728,54.580170162705414L68.78159563064575,54.923242948896984L68.85121263027192,55.039088003036625L68.99044662952423,55.248510412122016L69.12968062877655,55.44171804818329L70.10431862354278,57.09297398007304L70.45240362167358,57.598945589534196L70.59163762092591,57.8535219442072L70.80048861980437,58.211616590966095L70.9397226190567,58.40318949514209L71.2878076171875,58.93244498848257L71.35742461681366,59.02332724491479L71.77512661457061,59.58178700247582L71.91436061382294,59.76518624722551L71.9839776134491,59.86070760765642L72.12321161270143,60.06518163914318L72.19282861232757,60.17055557282855L72.40167961120606,60.45106672795157L72.54091361045838,60.64166762938498L72.88899860858916,61.17034875746849L72.95861560821534,61.25212953367462L73.58516860485076,62.1317478337761L73.72440260410309,62.34505825383187L74.00287060260773,62.79748134856486L74.07248760223389,62.888628696654145L74.14210460186004,62.97579966988735L74.42057260036468,63.40352505856998L74.69904059886932,63.81958641434153L74.7686575984955,63.90896648471702L74.97750859737396,64.18095052487095L75.11674259662628,64.40119750995336L75.18635959625244,64.50807362969547L75.2559765958786,64.60858754966789L75.32559359550477,64.70578782392693L75.39521059513092,64.80696447304203L75.46482759475708,64.91057112901359L75.60406159400941,65.14367505946392L75.67367859363556,65.26031538857477L76.02176359176636,65.76147116626582L76.09138059139252,65.86803801240801L76.36984858989716,66.29554249137641L76.57869958877563,66.60388827049181L76.71793358802796,66.82130761123214L77.13563558578493,67.4612388713994L77.27486958503724,67.70145609464777L77.62295458316802,68.22894431027446L77.90142258167266,68.65715570032839L77.97103958129884,68.75037959973137L78.11027358055115,68.95401417430406L78.94567757606505,70.21704337441463L79.43299657344818,70.93606031227448L79.50261357307433,71.01033015819695L79.64184757232665,71.10107986880062L79.71146457195282,71.122066291652L79.78108157157898,71.13739742581923L79.85069857120514,71.15069619061558L79.98993257045746,71.21294854808421L80.19878356933593,71.32101758028313L80.47725156784057,71.49884990023433L80.54686856746673,71.55893734250355L80.82533656597138,71.81165805557707L81.03418756484984,72.04069724728565L81.31265556335448,72.35005921108647L81.52150656223297,72.61042340027217L81.59112356185912,72.70174747613282L81.6607405614853,72.79320409782201L81.73035756111145,72.88055179882662L81.79997456073761,72.9623767569756L81.93920855998994,73.11847156104704L82.00882555961608,73.20126852193862L82.07844255924225,73.28618621608675L82.28729355812072,73.61388368616825L82.35691055774689,73.71289542008394L82.42652755737305,73.80355676680192L82.56576155662536,73.95722156401689L82.70499555587769,74.10783780717557L82.77461255550385,74.18785130566789L83.26193155288696,74.87642688490752L83.47078255176545,75.12388994678247L83.74925055027009,75.55108515215096L83.95810154914855,75.81666281059238L84.09733554840088,75.98362637260371L84.23656954765319,76.21182610739822L84.51503754615783,76.59249772695091L84.79350554466248,76.94383253645451L85.00235654354096,77.25911488059657L85.07197354316712,77.36068916719726L85.14159054279328,77.46434000511168L85.21120754241943,77.56074500439951L85.6289095401764,78.19007259828396L86.04661153793334,78.76744222738267L86.18584553718567,78.97408117406883L86.25546253681183,79.08073638409671L86.53393053531647,79.46534019656261L86.74278153419495,79.75261118894092L86.81239853382111,79.85648293656956L87.02124953269958,80.15046958426032L87.09086653232573,80.2432958461777L87.16048353195191,80.33461992203836L87.29971753120422,80.51505897661741L87.43895153045655,80.70862006822145L87.8566535282135,81.31316159216985L88.06550452709197,81.55333463347537L88.13512152671814,81.64841417447785L88.34397252559661,81.97699528341626L88.41358952522278,82.08108794075912L88.48320652484894,82.1797904010749L88.62244052410125,82.36725438456631L88.69205752372741,82.457429729913L89.10975952148438,83.07204473683007L89.38822751998902,83.41794516736371L89.45784451961516,83.51395252916595L89.59707851886749,83.72425857710823L89.7363125181198,83.945831020476L89.87554651737213,84.1370062871664L89.94516351699829,84.22510508119937L90.01478051662444,84.30896240871922L90.08439751625062,84.39264300846769L90.15401451587677,84.48414381209972L90.36286551475526,84.77229844333493L90.50209951400757,84.96329698225395L90.6413335132599,85.15699061968652L90.85018451213836,85.44271524406525L90.98941851139068,85.6099880796765L91.05903551101684,85.69309431416798L91.12865251064301,85.7848602094571L91.54635450839996,86.38750190986315L91.61597150802612,86.47255214983981L91.75520550727845,86.63902971047985L91.96405650615692,86.90261918149324L92.24252450466156,87.27242204310605L92.45137550354005,87.53455351000554L92.66022650241851,87.81051392501553L92.72984350204469,87.90762583538888L92.869077501297,88.10171711030705L93.00831150054933,88.28485126339966L93.14754549980164,88.46126976117982L93.49563049793244,88.84931976518763L93.70448149681091,89.09329245357782L93.84371549606324,89.28256789672588L94.88797049045563,90.40898652955966L95.16643848896027,90.68914422913991L95.30567248821258,90.86003998406446L95.37528948783876,90.937711839586L95.6537574863434,91.21725099196644L95.79299148559569,91.35730775078514L95.86260848522187,91.43520051602091L96.07145948410033,91.66578607572907L96.21069348335266,91.82090887705793L96.34992748260497,91.96264454970475L96.55877848148346,92.19049082895651L96.69801248073578,92.34950164125574L96.76762948036193,92.42125311643605L96.90686347961424,92.56647916256763L97.1853314781189,92.87261584454077L97.46379947662354,93.25209455163665L97.95111847400665,93.79858100268669L98.02073547363281,93.89489763808882L98.09035247325897,93.9918328206908L98.15996947288512,94.08872382134993L98.29920347213745,94.26805832735786L98.50805447101594,94.50650827289243L98.57767147064209,94.586168315842L98.64728847026825,94.66984891559046L98.85613946914673,94.94510241951494L98.92575646877289,95.03837050086076L98.99537346839904,95.1285016642646L99.06499046802521,95.21576100138353L99.62192646503449,95.8790645093158L99.69154346466064,95.97144895180473L99.90039446353913,96.24648154601498L100.38771346092224,96.81589842540158L100.59656445980073,97.05889911104919L101.15350045681001,97.71128967909874L101.22311745643616,97.79598646353264L101.36235145568847,97.95729473685981L101.43196845531465,98.034215499353L101.5015854549408,98.1077342522471L101.71043645381928,98.35908532509242L101.78005345344543,98.4540765022092L101.91928745269774,98.63659210810198L102.05852145195007,98.800507116057L102.40660645008087,99.20092806406142L102.47622344970704,99.28111829032513L102.75469144821167,99.64022912176944L102.82430844783784,99.72337953820377L102.89392544746399,99.80122812149669L102.96354244709015,99.87253777724855L103.17239344596862,100.1013560592429L103.2420104455948,100.18804103110483L103.31162744522095,100.27189835862468L103.52047844409944,100.51472231650091L103.59009544372559,100.59482417887892L104.14703144073486,101.19980752225578L104.4254994392395,101.48456014389193L104.56473343849183,101.57818168078052L104.70396743774414,101.66181809858614L104.77358443737029,101.71784080211363L104.98243543624878,101.95766038787639L105.19128643512725,102.18479975604264L105.26090343475342,102.2489519370536L105.33052043437957,102.30996720012257L105.40013743400574,102.36488535507894L105.6089884328842,102.53940402931676L106.1659244298935,103.11584583761572L106.3051584291458,103.2549747756347L106.44439242839813,103.38968551936915L106.58362642765044,103.53716484458583L106.6532434272766,103.61748761667808L106.86209442615508,103.83906006004585L107.00132842540741,103.965022779097L107.14056242465972,104.09588969380394L107.48864742279054,104.48685570603952L107.97596642017363,105.06077914359632L108.04558341979981,105.13646281168984L108.25443441867827,105.32547316318083L108.3936684179306,105.44533877411936L108.81137041568756,105.87553835160132L108.88098741531373,105.93854180209831L109.02022141456604,106.05416594652374L109.15945541381836,106.17606392683314L109.437923412323,106.47963805612127L109.71639141082764,106.77570125512574L109.85562541007997,106.90506598377596L110.20371040821075,107.2471225852821L110.27332740783692,107.32483862274648L110.34294440746307,107.40454284763891L110.83026340484619,107.93388670486507L110.89988040447236,108.00011543718976L111.3175824022293,108.43676557832708L111.59605040073394,108.61610008433502L111.6656674003601,108.66138657575117L111.73528439998627,108.71639309459322L112.36183739662171,109.27339484804037L112.50107139587404,109.3990482934916L112.7099223947525,109.60184341115024L113.12762439250946,110.01640258086506L113.19724139213561,110.07883166610507L113.47570939064025,110.30667794535684L113.68456038951874,110.51769090438465L113.75417738914489,110.58736582825125L113.82379438877106,110.65898475760302L114.03264538764952,110.85599204074896L114.79843238353729,111.58839610729085L115.00728338241576,111.78412211409429L115.21613438129425,111.96544480753025L115.2857513809204,112.02849243997008L115.35536838054657,112.09211443766691L115.56421937942504,112.3099755978357L115.63383637905122,112.38588017564345L115.70345337867737,112.4580734702522L116.74770837306977,113.48446418448485L116.95655937194823,113.66865870420574L117.09579337120056,113.79643288291354L117.16541037082672,113.8622639777526L117.30464437007905,113.99613526457301L117.3742613697052,114.06201054135494L117.58311236858368,114.25672036347294L117.79196336746216,114.41051770651646L117.86158036708832,114.45814584090338L118.00081436634065,114.5644475953885L118.14004836559296,114.69677251420933L118.27928236484529,114.81809612926176L118.4185163640976,114.92165860329048L118.62736736297607,115.06374773148006L118.76660136222839,115.18308315910446L118.90583536148071,115.30224185895747L119.04506936073302,115.40827852178552L119.18430335998535,115.50477188495904L119.32353735923766,115.60559507853138L120.01970735549926,116.17783960226006L120.2981753540039,116.39256384448686L120.57664335250854,116.62641886796555L120.64626035213472,116.67581428006628L120.71587735176087,116.72445859913864L120.85511135101318,116.82020086928381L121.06396234989167,117.00594175700427L121.27281334877014,117.19110827946774L121.41204734802245,117.30682078777885L121.62089834690094,117.47303325676181L122.0386003446579,117.83704828386192L122.1778343439102,117.96283427514169L122.31706834316253,118.07620514048202L122.3866853427887,118.12480527761153L122.59553634166717,118.25836729083203L122.66515334129333,118.30922070704665L122.73477034091948,118.36807105491621L122.94362133979797,118.53052805875734L123.50055733680725,118.91893151830791L123.84864233493805,119.20841160782848L123.98787633419036,119.30790934311545L124.40557833194732,119.59756616040741L124.68404633045196,119.82479389245934L124.75366333007813,119.88965298455582L124.82328032970428,119.94788478522557L124.89289732933045,119.99962184029708L125.3105993270874,120.25092873119955L125.51945032596588,120.40507952978582L126.006769323349,120.76662036808662L126.14600332260132,120.85467498017674L126.35485432147979,121.02994474744293L126.42447132110595,121.09065073691198L126.63332231998443,121.2616348557222L126.7029393196106,121.31116281365148L127.0510243177414,121.55685859781264L127.12064131736756,121.60912583619829L127.1902583169937,121.6595816149273L127.3991093158722,121.81284877465667L127.60796031475067,121.96368592752957L127.67757731437683,122.01502534511548L127.74719431400298,122.06247675173103L127.81681131362916,122.10687960429027L127.88642831325531,122.1501779082784L128.30413031101227,122.39728751461058L128.72183230876922,122.65561933442541L129.13953430652617,122.92557100520848L129.41800230503083,123.13154722275196L129.55723630428315,123.23820243277984L129.90532130241394,123.46021669557607L130.1837893009186,123.64905031929567L130.6711082983017,123.94352296835773L130.81034229755403,124.03802814410322L131.0191932964325,124.18665619983386L131.15842729568482,124.31248637305649L131.22804429531098,124.36983453486931L131.43689529418944,124.51744640591453L131.5065122938156,124.5611865293311L131.64574629306793,124.64606004153637L131.7153632926941,124.6928929009521L131.92421429157258,124.83401002639908L133.10770328521727,125.62142061178302L133.17732028484346,125.66873947257004L133.2469372844696,125.71570487781429L133.31655428409576,125.76253773723002L133.5950222826004,125.95084117763548L133.80387328147887,126.09222339473955L134.08234127998352,126.28693321685755L134.1519582796097,126.33491480678724L134.22157527923582,126.38294057865977L134.50004327774047,126.56859310249455L134.56966027736664,126.61763505905252L134.6392772769928,126.66990229743817L134.77851127624513,126.77558550472347L134.91774527549742,126.88175471338005L135.05697927474975,126.97352060866915L135.19621327400208,127.05300392384734L135.75314927101135,127.4255018839737L136.10123426914217,127.64106558311454L136.1708512687683,127.67888532618989L136.79740426540374,128.06790733294028L136.8670212650299,128.1067874426439L137.63280826091767,128.58867989325452L137.98089325904846,128.79646757045464L138.18974425792695,128.92821812401849L138.2593612575531,128.97390225292025L138.4682122564316,129.11426828533888L138.6074462556839,129.20378090154287L138.67706325531006,129.24615138473126L139.23399925231934,129.54504222807782L139.3036162519455,129.58431997526702L139.37323325157163,129.62328844885633L139.44285025119783,129.66402420015945L139.6517012500763,129.78472926801203L139.7909352493286,129.86165003050522L139.86055224895478,129.9063621566644L139.9301692485809,129.94983718842388L140.4871052455902,130.28168776113282L140.83519024372103,130.48554324541973L140.90480724334716,130.53295047009243L141.11365824222565,130.65652736422996L141.60097723960874,130.8933867598221L141.7402112388611,130.98183900939785L142.43638123512267,131.36255481089336L142.78446623325348,131.55015134021332L142.85408323287965,131.59212418591608L142.99331723213194,131.6746560551506L143.06293423175813,131.71517089673947L143.48063622951508,131.96797997369868L143.55025322914122,132.01233864431507L143.9679552268982,132.22056814094364L144.03757222652436,132.2533069605918L144.66412522315977,132.5911220955848L144.94259322166442,132.72945575863258L145.08182722091675,132.81017616821043L145.3602952194214,132.97263317205156L145.9868482160568,133.2920244368782L146.12608221530917,133.36342245651576L146.3349332141876,133.47149148871466L146.47416721343996,133.54063622926714L146.5437842130661,133.57567250994322L146.89186921119688,133.75133991469502L147.10072021007537,133.86550605500656L147.44880520820618,134.06003914935317L147.5880392074585,134.1329835369903L147.86650720596313,134.27034519729546L148.00574120521546,134.33714829487712L148.0753582048416,134.37417276298126L148.14497520446778,134.41035777417133L148.28420920372008,134.48012106192363L148.4234432029724,134.54816125390494L148.77152820110322,134.72510993499924L148.9803791999817,134.83101405199875L149.119613199234,134.89825896900888L149.3284641981125,135.0002308930952L149.537315196991,135.09394079386948L149.8157831954956,135.21712005052137L150.02463419437407,135.3198872495789L150.3031021928787,135.4574698195983L150.3727191925049,135.48972263787516L150.44233619213105,135.52356600609443L150.92965518951416,135.72194292946858L151.06888918876646,135.77836327048166L151.20812318801882,135.84618255274876L151.41697418689728,135.9579186862038L151.48659118652344,135.99370605990828L151.9042931842804,136.18231877391366L151.97391018390655,136.21037430762027L152.25237818241118,136.32679372701688L152.53084618091583,136.46472975257905L152.73969717979432,136.56365312260903L152.80931417942045,136.59595012282875L152.87893117904665,136.62630311756328L152.9485481786728,136.6562584748122L153.0877821779251,136.71625755319573L153.2966331768036,136.80108688345817L153.7839521741867,137.01501585071375L153.85356917381287,137.0492126744758L154.20165417194366,137.19620599832118L154.34088817119599,137.24259703830845L154.41050517082215,137.26583674024494L154.48012217044828,137.29071117406667L155.10667516708375,137.55973502404998L155.3851431655884,137.6798657266456L155.45476016521454,137.70849562560917L155.5243771648407,137.735623338516L155.59399416446684,137.76213250422302L155.7332281637192,137.81484156203715L156.08131316184998,137.97243855216533L156.15093016147614,138.00084754141466L156.29016416072847,138.05943279762715L156.3597811603546,138.08806269659073L156.42939815998076,138.1151904094976L156.63824915885925,138.1896811651343L156.77748315811155,138.23549783986456L156.84710015773774,138.25825154042974L156.9167171573639,138.28206560762322L157.54327015399932,138.5411485204664L157.7521211528778,138.62155965644433L158.37867414951324,138.84330882758348L158.79637614727022,139.00572164948179L158.86599314689636,139.03214245130312L159.2836951446533,139.182979604176L159.3533121442795,139.20639603388386L159.42292914390563,139.23025428302017L159.56216314315796,139.27969387706375L159.9798651409149,139.43742341302047L160.39756713867186,139.59099984634975L160.46718413829805,139.6132233636008L161.02412013530733,139.78911167806683L161.09373713493346,139.81345592857443L161.30258813381195,139.8857375870689L161.5114391326904,139.95461723596426L161.78990713119506,140.045632038225L161.9291411304474,140.0923323518122L162.20760912895204,140.1849818859582L162.62531112670897,140.31956008386413L162.90377912521362,140.4115910708103L162.9733961248398,140.43606786714645L163.18224712371824,140.51007262141184L163.3214811229706,140.5595122154554L163.53033212184909,140.6293638670934L163.8088001203537,140.7176835708406L163.948034119606,140.76084932900017L164.08726811885836,140.80467781630244L164.1568851184845,140.82668042383926L164.22650211811066,140.8485063036047L164.71382111549377,140.99960854813466L164.8530551147461,141.04599958812193L164.92267211437226,141.06866492480142L165.3403741121292,141.19679255905197L165.40999111175537,141.21804407356043L165.4796081113815,141.2391188602975L165.61884211063386,141.2783524255439L165.75807610988616,141.31533271170517L166.59348010540006,141.56049831255217L167.22003310203553,141.7150909305669L167.49850110054018,141.78587040300462L167.84658609867097,141.88041976069297L167.9162030982971,141.89844599337374L168.26428809642792,141.98658896934955L168.33390509605408,142.0035106534592L168.40352209568024,142.0206974292259L168.68199009418487,142.0924489044062L168.75160709381103,142.10972404405862L169.169309091568,142.21310979031597L169.44777709007263,142.27735033521262L169.5173940896988,142.2948022026364L169.58701108932496,142.31212152423166L169.7262450885773,142.34565561885103L169.79586208820342,142.36301912238912L170.14394708633424,142.451427190022L170.35279808521273,142.49772986612356L170.49203208446502,142.525829581773L170.7008830833435,142.5693046135325L170.909734082222,142.6131772827776L171.11858508110046,142.6566523145371L171.2578190803528,142.68749131064294L171.67552107810977,142.78464740295914L171.7451380777359,142.80059708432617L171.8843720769882,142.83214299151751L172.02360607624055,142.86223089459497L172.65015907287597,143.0007412854141L172.71977607250213,143.01479114323882L172.78939307212832,143.02835499969225L172.85901007175445,143.04191885614568L173.83364806652068,143.2354799477497L174.11211606502533,143.295832481676L174.39058406352996,143.3507948185752L174.46020106315612,143.36396103754302L174.6690520620346,143.40275278336094L174.73866906166074,143.4162282759287L174.94752006053923,143.4570523911175L175.0867540597916,143.48373828459586L175.22598805904389,143.50971726698873L175.57407305717467,143.57643200068472L175.78292405605316,143.61425174376006L175.9221580553055,143.63722635403946L175.99177505493165,143.6484485675221L176.13100905418395,143.67009771951615L176.33986005306244,143.70464799882097L176.54871105194093,143.7365031796122L176.68794505119322,143.7584616052062L176.8967960500717,143.79332115811093L177.1056470489502,143.8310083553577L177.17526404857634,143.84505821318243L177.38411504745483,143.8857497825427L177.59296604633332,143.9230393423039L178.1499020433426,144.01458432787877L178.21951904296876,144.02624836078985L178.35875304222105,144.0489578794122L178.70683804035187,144.10065075254087L179.05492303848268,144.14991361881306L179.12454003810882,144.15958946429612L179.19415703773498,144.16953040143625L179.3333910369873,144.18989827708782L179.40300803661347,144.20006012394217L179.5422420358658,144.22069309125078L179.6814760351181,144.24154696827364L179.89032703399658,144.27287196575077L179.95994403362275,144.28294544871943L180.23841203212737,144.3274808471072L180.58649703025816,144.3803666326927L180.7257310295105,144.40113214582985L181.14343302726743,144.4582152159856L181.21305002689363,144.46683069484038L181.2826670265198,144.4756670834094L181.35228402614592,144.48445929003555L181.4219010257721,144.4934282244331L181.63075202465058,144.51998157208294L181.7699860239029,144.53844962419217L181.97883702278136,144.56641679401307L182.04845402240755,144.57573918395337L182.25730502128602,144.6037505357171L182.39653902053834,144.62239531559771L182.53577301979064,144.64099591353545L182.60539001941683,144.65009739376154L182.67500701904297,144.65941978370182L182.95347501754762,144.69405842689233L183.23194301605224,144.72785761316877L183.3015600156784,144.73585454482372L183.37117701530457,144.74460256950704L183.6496450138092,144.77720884332666L183.71926201343535,144.7847197736103L183.85849601268768,144.79907890503495L183.92811301231384,144.80592710617591L184.06734701156617,144.81953514457217L184.13696401119233,144.8265158915417L184.20658101081847,144.83336409268267L184.34581501007082,144.84697213107893L184.41543200969696,144.85359942250568L184.55466600894925,144.8678260081018L184.76351700782774,144.8890333406674L184.9027510070801,144.90348083597772L184.97236800670623,144.91077085654715L185.39007000446318,144.9542900702495L185.45968700408937,144.96171263664746L185.5293040037155,144.96891429333118L185.80777200222016,144.99727910063768L185.94700600147246,145.01048950154836L186.08624000072479,145.02325808303056L186.36470799922944,145.0472488779954L186.85202699661255,145.08939845146955L187.060877995491,145.1070270466647L187.20011199474334,145.1182934420902L187.33934599399566,145.12925056391578L187.40896299362183,145.13495003454278L187.68743099212648,145.15788046287935L187.82666499137878,145.16967704161897L187.89628199100494,145.17568578584587L187.9658989906311,145.18160616618712L188.17474998950956,145.19879294195383L188.24436698913576,145.2045365945237L188.45321798801422,145.22167918834754L188.52283498764038,145.22733447703172L188.73168598651884,145.243505068113L188.94053698539733,145.25888038422306L189.21900498390198,145.27871807656047L189.63670698165896,145.3089827074093L189.7063239812851,145.31375435723658L189.91517498016358,145.32789257894697L189.98479197978975,145.33244331906002L190.12402597904205,145.3414564354004L190.26325997829437,145.350690461455L190.33287697792053,145.35515283768234L190.47211097717286,145.36447522762265L190.54172797679902,145.36937942327845L190.68096197605132,145.37874599516158L190.7505789756775,145.38329673527463L190.82019597530365,145.38767074761628L190.8898129749298,145.39204475995794L191.02904697418214,145.4002626013271L191.16828097343443,145.4083037149249L191.2378979730606,145.41219172589527L191.51636597156525,145.42739031423395L191.58598297119138,145.43110159743293L191.72521697044374,145.43834743605953L191.9340679693222,145.44895110234233L192.07330196857453,145.4555783937691L192.28215296745302,145.4656076947949L193.11755696296692,145.51018727512553L193.39602496147157,145.5244138607216L193.60487596035006,145.534001342319L193.95296095848084,145.54897902094345L194.09219495773314,145.5546343096276L194.30104595661163,145.56285215099678L194.7187479543686,145.57942037956366L194.78836495399474,145.58202711419153L194.92759895324707,145.58715221956155L195.13644995212553,145.5947515137309L195.34530095100402,145.6019089884718L195.41491795063018,145.6041622675569L195.48453495025635,145.60650391052766L196.1110879468918,145.62682760423638L196.18070494651795,145.62903670137862L196.2503219461441,145.63120161657804L196.31993894577025,145.6333223498346L196.4591729450226,145.63756381634772L196.5984069442749,145.64180528286084L196.8072579431534,145.64772566320207L197.15534294128418,145.65735732674227L197.2945769405365,145.66115697382696L197.36419394016266,145.6629684334836L197.4338109397888,145.66477989314023L197.503427939415,145.66654717085405L198.06036393642427,145.67953666205048L198.6869169330597,145.69265869907545L199.0350019311905,145.69963944604496L199.59193792819977,145.7099780206707L199.66155492782593,145.7111709331275L199.8704059267044,145.71474967049795L200.14887392520905,145.71934459255385L200.35772492408753,145.72279078409576L200.63619292259216,145.7272531603231L200.84504392147062,145.7303017143794L201.0538949203491,145.73317354066432L201.12351191997527,145.7340129975784L201.19312891960146,145.734985000321L201.33236291885376,145.73670809609195L201.88929891586304,145.74320284169016L202.02853291511536,145.74470502774687L202.16776691436766,145.74607466797508L202.30700091362002,145.74744430820328L202.6550859117508,145.75075795391666L203.0031709098816,145.75362978020158L203.56010690689087,145.75760615505763L203.62972390651703,145.75795961060038L203.6993409061432,145.75840143002884L203.97780890464784,145.75999197997126L204.1866599035263,145.7610965285424L204.3955109024048,145.7622010771135L204.95244689941407,145.76471944785567L205.0916808986664,145.76529381311266L205.37014889717102,145.7662216339124L205.43976589679718,145.76648672556948L205.50938289642335,145.76666345334087L205.57899989604948,145.76692854499794L205.71823389530184,145.7672820005407L205.85746789455413,145.76772381996915L206.06631889343262,145.7682540032833L206.2751698923111,145.76869582271172L206.34478689193725,145.76882836854026L206.4840208911896,145.76909346019733L206.6232548904419,145.76931436991157L207.110573887825,145.77002128099707L207.38904188632966,145.77028637265414L207.52827588558196,145.77041891848268L207.6675098848343,145.7705514643112L207.8067438840866,145.77063982819692L207.87636088371278,145.77068401013975L208.01559488296508,145.77081655596828L208.22444588184356,145.77086073791114L208.3636798810959,145.77086073791114L208.57253087997435,145.770904919854L208.7117648792267,145.770904919854L208.92061587810517,145.77094910179682L208.9902328777313,145.77094910179682L209.0598498773575,145.77094910179682L209.75601987361907,145.77103746568253L209.82563687324523,145.77103746568253L209.96487087249756,145.77103746568253L210.03448787212372,145.77103746568253L210.10410487174985,145.77103746568253L210.17372187137605,145.77103746568253L210.3825728702545,145.77103746568253L210.4521898698807,145.77103746568253L210.591423869133,145.77103746568253L210.80027486801148,145.77103746568253L210.93950886726378,145.77103746568253L211.0787428665161,145.77103746568253L211.2179768657684,145.77103746568253L211.84452986240387,145.77103746568253L211.91414686203004,145.77103746568253L212.12299786090853,145.77103746568253L212.26223186016082,145.77103746568253L212.40146585941315,145.77103746568253L212.54069985866545,145.77103746568253L212.6799338579178,145.77103746568253L212.74955085754394,145.77103746568253L212.95840185642243,145.77103746568253L213.37610385417938,145.77103746568253L213.44572085380554,145.77103746568253L213.72418885231016,145.77103746568253L213.93303985118865,145.77103746568253L214.14189085006714,145.77103746568253L214.28112484931944,145.77103746568253L214.35074184894563,145.77103746568253L214.62920984745026,145.77103746568253L214.9076778459549,145.77103746568253L215.11652884483337,145.77103746568253L215.18614584445956,145.77103746568253L215.2557628440857,145.77103746568253L215.32537984371186,145.77103746568253L215.53423084259035,145.77103746568253L215.81269884109497,145.77103746568253L215.95193284034727,145.77103746568253L216.23040083885192,145.77103746568253L216.3000178384781,145.77103746568253L216.4392518377304,145.77103746568253L216.50886883735654,145.77103746568253L216.8569538354874,145.77103746568253L217.06580483436585,145.77103746568253L217.135421833992,145.77103746568253L217.2746558332443,145.77103746568253L217.41388983249666,145.77103746568253L217.55312383174896,145.77103746568253L217.62274083137513,145.77103746568253L217.83159183025361,145.77103746568253L217.90120882987975,145.77103746568253L218.04044282913208,145.77103746568253L218.24929382801054,145.77103746568253L218.31891082763673,145.77103746568253L218.45814482688903,145.77103746568253L218.875846824646,145.77103746568253L219.08469782352446,145.77103746568253L219.29354882240295,145.77103746568253L219.3631658220291,145.77103746568253L219.64163382053374,145.77103746568253L220.05933581829072,145.77103746568253L220.96435681343078,145.77103746568253L221.2428248119354,145.77103746568253L221.38205881118776,145.77103746568253L221.73014380931855,145.77103746568253L221.93899480819704,145.77103746568253L222.07822880744934,145.77103746568253L222.356696805954,145.77103746568253L222.70478180408477,145.77103746568253L222.9832498025894,145.77103746568253L223.26171780109405,145.77103746568253L223.47056879997254,145.77103746568253L224.09712179660795,145.77103746568253L224.51482379436493,145.77103746568253L225.2109937906265,145.77103746568253L225.2806107902527,145.77103746568253L225.35022778987886,145.77103746568253L225.55907878875735,145.77103746568253L225.62869578838348,145.77103746568253L225.97678078651427,145.77103746568253L226.11601478576662,145.77103746568253L226.39448278427122,145.77103746568253L226.4640997838974,145.77103746568253L226.53371678352357,145.77103746568253L226.6033337831497,145.77103746568253L226.67295078277587,145.77103746568253L226.74256778240203,145.77103746568253L226.8121847820282,145.77103746568253L227.36912077903747,145.77103746568253L227.57797177791596,145.77103746568253L227.9956737756729,145.77103746568253L228.27414177417754,145.77103746568253L228.97031177043917,145.77103746568253L229.0399287700653,145.77103746568253L229.10954576969147,145.77103746568253L229.59686476707458,145.77103746568253L229.94494976520537,145.77103746568253L230.15380076408385,145.77103746568253L230.29303476333618,145.77103746568253L230.36265176296234,145.77103746568253L230.4322687625885,145.77103746568253L230.50188576221467,145.77103746568253L230.7803537607193,145.77103746568253L231.33728975772857,145.77103746568253L231.40690675735473,145.77103746568253L231.61575775623322,145.77103746568253L231.75499175548555,145.77103746568253L231.8246087551117,145.77103746568253L231.963842754364,145.77103746568253L232.31192775249482,145.77103746568253L232.7992467498779,145.77103746568253L232.93848074913026,145.77103746568253L233.14733174800875,145.77103746568253L233.28656574726105,145.77103746568253L233.63465074539184,145.77103746568253L233.84350174427033,145.77103746568253L234.05235274314882,145.77103746568253L234.67890573978423,145.77103746568253L234.7485227394104,145.77103746568253L234.95737373828888,145.77103746568253L235.16622473716737,145.77103746568253L235.30545873641967,145.77103746568253L235.37507573604583,145.77103746568253L235.7927777338028,145.77103746568253L236.0016287326813,145.77103746568253L236.07124573230743,145.77103746568253L236.21047973155973,145.77103746568253L236.41933073043822,145.77103746568253L236.55856472969057,145.77103746568253L236.69779872894287,145.77103746568253L236.90664972782136,145.77103746568253L236.9762667274475,145.77103746568253L237.04588372707366,145.77103746568253L237.53320272445677,145.77103746568253L237.8812877225876,145.77103746568253L238.0205217218399,145.77103746568253L238.09013872146605,145.77103746568253L238.1597557210922,145.77103746568253L238.43822371959686,145.77103746568253L238.50784071922303,145.77103746568253L238.8559257173538,145.77103746568253L238.92554271697998,145.77103746568253L239.20401071548463,145.77103746568253L239.4128617143631,145.77103746568253L239.48247871398925,145.77103746568253L239.62171271324158,145.77103746568253L240.1090317106247,145.77103746568253L240.17864871025085,145.77103746568253L240.52673370838167,145.77103746568253L241.36213770389557,145.77103746568253L241.71022270202636,145.77103746568253L241.8494567012787,145.77103746568253L241.91907370090485,145.77103746568253L242.12792469978334,145.77103746568253L242.1975416994095,145.77103746568253L242.8240946960449,145.77103746568253L243.2417966938019,145.77103746568253L243.52026469230654,145.77103746568253L243.58988169193267,145.77103746568253" fill="none"></path></g></g></g></g></g></g><g transform="translate(51, 177)" clip-path="url(#clip_1)"><clipPath id="clip_1"><rect width="278" height="22"></rect></clipPath><g><g><line x1="0" y1="0" x2="0" y2="5" style="visibility: inherit;" fill="rgb(0, 0, 0)" stroke="rgb(204, 204, 204)" stroke-width="1px"></line><line x1="34.808499813079834" y1="0" x2="34.808499813079834" y2="5" style="visibility: inherit;" fill="rgb(0, 0, 0)" stroke="rgb(204, 204, 204)" stroke-width="1px"></line><line x1="69.61699962615967" y1="0" x2="69.61699962615967" y2="5" style="visibility: inherit;" fill="rgb(0, 0, 0)" stroke="rgb(204, 204, 204)" stroke-width="1px"></line><line x1="104.4254994392395" y1="0" x2="104.4254994392395" y2="5" style="visibility: inherit;" fill="rgb(0, 0, 0)" stroke="rgb(204, 204, 204)" stroke-width="1px"></line><line x1="139.23399925231934" y1="0" x2="139.23399925231934" y2="5" style="visibility: inherit;" fill="rgb(0, 0, 0)" stroke="rgb(204, 204, 204)" stroke-width="1px"></line><line x1="174.04249906539917" y1="0" x2="174.04249906539917" y2="5" style="visibility: inherit;" fill="rgb(0, 0, 0)" stroke="rgb(204, 204, 204)" stroke-width="1px"></line><line x1="208.850998878479" y1="0" x2="208.850998878479" y2="5" style="visibility: inherit;" fill="rgb(0, 0, 0)" stroke="rgb(204, 204, 204)" stroke-width="1px"></line><line x1="243.65949869155884" y1="0" x2="243.65949869155884" y2="5" style="visibility: inherit;" fill="rgb(0, 0, 0)" stroke="rgb(204, 204, 204)" stroke-width="1px"></line><line x1="278.4679985046387" y1="0" x2="278.4679985046387" y2="5" style="visibility: inherit;" fill="rgb(0, 0, 0)" stroke="rgb(204, 204, 204)" stroke-width="1px"></line></g><g transform="translate(0, 8)"><text style="text-anchor: middle; visibility: hidden; font-family: Roboto, sans-serif; font-size: 12px; font-weight: 200;" x="0" y="0" dx="0em" dy="0.95em" fill="rgb(50, 49, 63)" stroke="none" stroke-width="1px">-500</text><text style="text-anchor: middle; visibility: inherit; font-family: Roboto, sans-serif; font-size: 12px; font-weight: 200;" x="34.808499813079834" y="0" dx="0em" dy="0.95em" fill="rgb(50, 49, 63)" stroke="none" stroke-width="1px">0</text><text style="text-anchor: middle; visibility: inherit; font-family: Roboto, sans-serif; font-size: 12px; font-weight: 200;" x="69.61699962615967" y="0" dx="0em" dy="0.95em" fill="rgb(50, 49, 63)" stroke="none" stroke-width="1px">500</text><text style="text-anchor: middle; visibility: inherit; font-family: Roboto, sans-serif; font-size: 12px; font-weight: 200;" x="104.4254994392395" y="0" dx="0em" dy="0.95em" fill="rgb(50, 49, 63)" stroke="none" stroke-width="1px">1k</text><text style="text-anchor: middle; visibility: inherit; font-family: Roboto, sans-serif; font-size: 12px; font-weight: 200;" x="139.23399925231934" y="0" dx="0em" dy="0.95em" fill="rgb(50, 49, 63)" stroke="none" stroke-width="1px">1.5k</text><text style="text-anchor: middle; visibility: inherit; font-family: Roboto, sans-serif; font-size: 12px; font-weight: 200;" x="174.04249906539917" y="0" dx="0em" dy="0.95em" fill="rgb(50, 49, 63)" stroke="none" stroke-width="1px">2k</text><text style="text-anchor: middle; visibility: inherit; font-family: Roboto, sans-serif; font-size: 12px; font-weight: 200;" x="208.850998878479" y="0" dx="0em" dy="0.95em" fill="rgb(50, 49, 63)" stroke="none" stroke-width="1px">2.5k</text><text style="text-anchor: middle; visibility: inherit; font-family: Roboto, sans-serif; font-size: 12px; font-weight: 200;" x="243.65949869155884" y="0" dx="0em" dy="0.95em" fill="rgb(50, 49, 63)" stroke="none" stroke-width="1px">3k</text><text style="text-anchor: middle; visibility: hidden; font-family: Roboto, sans-serif; font-size: 12px; font-weight: 200;" x="278.4679985046387" y="0" dx="0em" dy="0.95em" fill="rgb(50, 49, 63)" stroke="none" stroke-width="1px">3.5k</text></g><line x1="0" y1="0" x2="278.4679985046387" y2="0" fill="rgb(0, 0, 0)" stroke="rgb(204, 204, 204)" stroke-width="1px"></line></g></g></g></g></svg>